<?xml version="1.0" encoding="UTF-8" standalone="no"?>
<svg
   xmlns:dc="http://purl.org/dc/elements/1.1/"
   xmlns:cc="http://creativecommons.org/ns#"
   xmlns:rdf="http://www.w3.org/1999/02/22-rdf-syntax-ns#"
   xmlns:svg="http://www.w3.org/2000/svg"
   xmlns="http://www.w3.org/2000/svg"
   xmlns:sodipodi="http://sodipodi.sourceforge.net/DTD/sodipodi-0.dtd"
   xmlns:inkscape="http://www.inkscape.org/namespaces/inkscape"
   width="600"
   height="200"
   viewBox="0 0 600 200"
   id="svg2"
   version="1.1"
   inkscape:version="0.48.0 r9654"
   sodipodi:docname="AMT_Fehler-Model.svg">
  <metadata
     id="metadata108">
    <rdf:RDF>
      <cc:Work
         rdf:about="">
        <dc:format>image/svg+xml</dc:format>
        <dc:type
           rdf:resource="http://purl.org/dc/dcmitype/StillImage" />
      </cc:Work>
    </rdf:RDF>
  </metadata>
  <defs
     id="defs106" />
  <sodipodi:namedview
     pagecolor="#ffffff"
     bordercolor="#666666"
     borderopacity="1"
     objecttolerance="10"
     gridtolerance="10"
     guidetolerance="10"
     inkscape:pageopacity="0"
     inkscape:pageshadow="2"
     inkscape:window-width="1024"
     inkscape:window-height="721"
     id="namedview104"
     showgrid="false"
     inkscape:zoom="0.87586207"
     inkscape:cx="311.10336"
     inkscape:cy="100"
     inkscape:window-x="-4"
     inkscape:window-y="-4"
     inkscape:window-maximized="1"
     inkscape:current-layer="svg2" />
  <title
     id="title4">Produce by DWG to SVG Converter MX</title>
  <desc
     id="desc6">Produce by DWG to SVG Converter MX</desc>
  <path
     d="m 38.03,9.62 0,169.51"
     id="path32"
     inkscape:connector-curvature="0"
     style="fill:none;stroke:#000000;stroke-width:1.2;stroke-miterlimit:4;stroke-dasharray:none" />
  <path
     d="m 22.62,175.28 181.07,0"
     id="path34"
     inkscape:connector-curvature="0"
     style="fill:none;stroke:#000000;stroke-width:1.2;stroke-miterlimit:4;stroke-dasharray:none" />
  <path
     d="m 203.69,175.28 -11.56,-3.86"
     id="path36"
     inkscape:connector-curvature="0"
     style="fill:none;stroke:#000000;stroke-width:1.2;stroke-miterlimit:4;stroke-dasharray:none" />
  <path
     d="m 192.13,179.13 11.56,-3.85"
     id="path38"
     inkscape:connector-curvature="0"
     style="fill:none;stroke:#000000;stroke-width:1.2;stroke-miterlimit:4;stroke-dasharray:none" />
  <path
     d="m 38.03,9.62 3.85,11.56"
     id="path40"
     inkscape:connector-curvature="0"
     style="fill:none;stroke:#000000;stroke-width:1.2;stroke-miterlimit:4;stroke-dasharray:none" />
  <path
     d="M 34.18,21.18 38.03,9.62"
     id="path42"
     inkscape:connector-curvature="0"
     style="fill:none;stroke:#000000;stroke-width:1.2;stroke-miterlimit:4;stroke-dasharray:none" />
  <path
     d="m 34.85,188.84 0,-1.03 0.21,-1.65 0.21,-0.62 0.21,-0.63 0.63,-0.96 0.41,-0.34 0.42,-0.34 1.04,-0.34 0.63,0 0.46,0 0.82,0.19 0.35,0.19 0.35,0.19 0.58,0.54 0.23,0.35 0.23,0.35 0.35,0.86 0.13,0.51 0.13,0.5 0.13,1.37 0,0.86 0,1.02 -0.21,1.64 -0.2,0.63 -0.21,0.62 -0.63,0.97 -0.41,0.34 -0.42,0.34 -1.05,0.34 -0.63,0 -0.83,0 -1.31,-0.6 -0.48,-0.6 -0.57,-0.72 -0.57,-2.35 0,-1.63 0,0 z m 1.45,0 0,1.43 0.34,1.89 0.33,0.47 0.33,0.47 0.82,0.47 0.49,0 0.49,0 0.82,-0.47 0.33,-0.47 0.33,-0.48 0.34,-1.89 0,-1.42 0,-1.43 -0.34,-1.89 -0.33,-0.47 -0.33,-0.47 -0.83,-0.47 -0.5,0 -0.48,0 -0.78,0.42 -0.3,0.41 -0.36,0.53 -0.37,1.95 0,1.42 0,0 z"
     id="path44"
     inkscape:connector-curvature="0"
     style="fill:#000000;fill-rule:evenodd;stroke-width:1.2;stroke-miterlimit:4;stroke-dasharray:none" />
  <path
     d="m 11.73,173.43 0,-1.03 0.21,-1.65 0.21,-0.62 0.22,-0.63 0.62,-0.96 0.42,-0.34 0.41,-0.34 1.05,-0.33 0.63,0 0.46,0 0.82,0.18 0.35,0.19 0.35,0.19 0.58,0.54 0.22,0.35 0.23,0.35 0.36,0.86 0.13,0.51 0.13,0.5 0.13,1.37 0,0.86 0,1.02 -0.21,1.64 -0.21,0.63 -0.21,0.62 -0.62,0.97 -0.42,0.34 -0.41,0.34 -1.05,0.34 -0.63,0 -0.84,0 -1.31,-0.6 -0.48,-0.6 -0.57,-0.72 -0.57,-2.35 0,-1.63 0,0 z m 1.46,0 0,1.43 0.33,1.89 0.33,0.47 0.34,0.47 0.82,0.47 0.49,0 0.48,0 0.82,-0.47 0.34,-0.47 0.33,-0.48 0.33,-1.89 0,-1.42 0,-1.43 -0.33,-1.89 -0.33,-0.47 -0.33,-0.47 -0.83,-0.47 -0.5,0 -0.49,0 -0.78,0.42 -0.29,0.41 -0.37,0.53 -0.36,1.95 0,1.42 0,0 z"
     id="path46"
     inkscape:connector-curvature="0"
     style="fill:#000000;fill-rule:evenodd;stroke-width:1.2;stroke-miterlimit:4;stroke-dasharray:none" />
  <path
     d="m 198.94,187 0.2,0.21 0.31,0.44 0.1,0.21 0.08,0.15 0.24,0.79 0.17,0.64 0.73,-1.1 0.15,-0.2 0.36,-0.38 0.21,-0.18 0.21,-0.19 0.36,-0.24 0.16,-0.07 0.1,-0.04 0.23,-0.04 0.12,0 0.18,0 0.29,0.09 0.1,0.1 0.11,0.09 0.11,0.23 0,0.14 0,0.16 -0.07,0.22 -0.06,0.05 -0.12,0.11 -0.27,0.1 -0.15,0 -0.08,0 -0.19,-0.04 -0.1,-0.03 -0.2,-0.07 -0.26,-0.07 -0.07,0 -0.1,0 -0.24,0.12 -0.14,0.12 -0.26,0.21 -0.62,0.85 -0.36,0.62 0.69,2.86 0.08,0.33 0.13,0.4 0.06,0.06 0.05,0.06 0.11,0.07 0.06,0 0.08,0 0.21,-0.1 0.12,-0.09 0.23,-0.19 0.4,-0.5 0.16,-0.31 0.29,0.15 -0.26,0.49 -0.67,0.82 -0.4,0.32 -0.23,0.18 -0.39,0.19 -0.16,0 -0.23,0 -0.38,-0.27 -0.13,-0.26 -0.09,-0.16 -0.36,-1.4 -0.27,-1.25 -0.66,1.14 -1.04,1.45 -0.39,0.33 -0.26,0.21 -0.49,0.21 -0.24,0 -0.17,0 -0.3,-0.13 -0.14,-0.12 -0.1,-0.09 -0.1,-0.24 0,-0.16 0,-0.14 0.09,-0.23 0.09,-0.09 0.1,-0.09 0.22,-0.09 0.13,0 0.14,0 0.28,0.13 0.15,0.14 0.11,0.09 0.16,0.1 0.06,0 0.05,0 0.13,-0.06 0.08,-0.07 0.2,-0.16 0.53,-0.68 0.33,-0.52 0.34,-0.52 0.44,-0.76 0.11,-0.23 -0.26,-1.01 -0.28,-1.08 -0.02,-0.06 -0.09,-0.27 -0.25,-0.38 -0.16,-0.12 -0.15,-0.11 -0.46,-0.11 -0.3,0 -0.09,0 -0.22,0.01 -0.13,0 0,-0.3 2.23,-0.39 z"
     id="path48"
     inkscape:connector-curvature="0"
     style="fill:#000000;fill-rule:evenodd;stroke-width:1.2;stroke-miterlimit:4;stroke-dasharray:none" />
  <path
     d="m 25.35,13.63 0.14,0.24 0.2,0.46 0.05,0.21 0.05,0.21 0.11,0.82 0.06,0.62 0.36,4.09 0.25,-0.3 0.73,-0.95 0.47,-0.65 0.23,-0.31 0.57,-0.86 0.34,-0.55 0.2,-0.33 0.25,-0.47 0.05,-0.13 0.02,-0.07 0.03,-0.13 0,-0.07 0,-0.05 -0.03,-0.08 -0.03,-0.02 -0.03,-0.03 -0.15,-0.07 -0.13,-0.04 -0.12,-0.04 -0.2,-0.15 -0.09,-0.1 -0.08,-0.11 -0.08,-0.24 0,-0.14 0,-0.17 0.1,-0.27 0.1,-0.11 0.1,-0.1 0.25,-0.11 0.15,0 0.19,0 0.31,0.16 0.13,0.15 0.13,0.15 0.13,0.42 0,0.27 0,0.32 -0.23,0.76 -0.22,0.42 -0.23,0.42 -0.87,1.3 -0.64,0.88 -0.64,0.87 -1.56,1.91 -0.91,1.04 -0.63,0.71 -0.94,0.9 -0.3,0.19 -0.31,0.18 -0.52,0.19 -0.21,0 -0.13,0 -0.23,-0.1 -0.1,-0.1 -0.1,-0.1 -0.1,-0.22 0,-0.13 0,-0.16 0.14,-0.3 0.14,-0.13 0.13,-0.13 0.3,-0.14 0.15,0 0.09,0 0.14,0.04 0.05,0.04 0.03,0.02 0.08,0.12 0.04,0.09 0.04,0.1 0.07,0.13 0.03,0.03 0.02,0.03 0.05,0.02 0.03,0 0.03,0 0.08,-0.05 0.07,-0.04 0.23,-0.14 0.53,-0.45 0.31,-0.31 0.4,-0.41 0.59,-0.68 0.19,-0.27 -0.47,-5.27 -0.05,-0.65 -0.18,-0.8 -0.11,-0.14 -0.12,-0.14 -0.39,-0.14 -0.28,0 -0.08,0 -0.32,0.02 -0.22,0.03 -0.07,-0.3 2.44,-0.61 z"
     id="path50"
     inkscape:connector-curvature="0"
     style="fill:#000000;fill-rule:evenodd;stroke-width:1.2;stroke-miterlimit:4;stroke-dasharray:none" />
  <path
     d="m 230.66,9.62 0,169.51"
     id="path52"
     inkscape:connector-curvature="0"
     style="fill:none;stroke:#000000;stroke-width:1.2;stroke-miterlimit:4;stroke-dasharray:none" />
  <path
     d="m 226.8,175.28 169.51,0"
     id="path54"
     inkscape:connector-curvature="0"
     style="fill:none;stroke:#000000;stroke-width:1.2;stroke-miterlimit:4;stroke-dasharray:none" />
  <path
     d="m 396.31,175.28 -11.56,-3.86"
     id="path56"
     inkscape:connector-curvature="0"
     style="fill:none;stroke:#000000;stroke-width:1.2;stroke-miterlimit:4;stroke-dasharray:none" />
  <path
     d="m 384.75,179.13 11.56,-3.85"
     id="path58"
     inkscape:connector-curvature="0"
     style="fill:none;stroke:#000000;stroke-width:1.2;stroke-miterlimit:4;stroke-dasharray:none" />
  <path
     d="m 230.66,9.62 3.85,11.56"
     id="path60"
     inkscape:connector-curvature="0"
     style="fill:none;stroke:#000000;stroke-width:1.2;stroke-miterlimit:4;stroke-dasharray:none" />
  <path
     d="M 226.8,21.18 230.66,9.62"
     id="path62"
     inkscape:connector-curvature="0"
     style="fill:none;stroke:#000000;stroke-width:1.2;stroke-miterlimit:4;stroke-dasharray:none" />
  <path
     d="m 227.47,188.84 0,-1.03 0.21,-1.65 0.21,-0.62 0.21,-0.63 0.63,-0.96 0.42,-0.34 0.41,-0.34 1.05,-0.34 0.62,0 0.47,0 0.82,0.19 0.35,0.19 0.35,0.19 0.58,0.54 0.22,0.35 0.23,0.35 0.36,0.86 0.13,0.51 0.13,0.5 0.13,1.37 0,0.86 0,1.02 -0.21,1.64 -0.21,0.63 -0.21,0.62 -0.62,0.97 -0.42,0.34 -0.41,0.34 -1.05,0.34 -0.64,0 -0.83,0 -1.31,-0.6 -0.48,-0.6 -0.57,-0.72 -0.57,-2.35 0,-1.63 0,0 z m 1.46,0 0,1.43 0.33,1.89 0.33,0.47 0.34,0.47 0.82,0.47 0.48,0 0.49,0 0.82,-0.47 0.34,-0.47 0.33,-0.48 0.33,-1.89 0,-1.42 0,-1.43 -0.33,-1.89 -0.33,-0.47 -0.33,-0.47 -0.83,-0.47 -0.5,0 -0.49,0 -0.78,0.42 -0.29,0.41 -0.37,0.53 -0.36,1.95 0,1.42 0,0 z"
     id="path64"
     inkscape:connector-curvature="0"
     style="fill:#000000;fill-rule:evenodd;stroke-width:1.2;stroke-miterlimit:4;stroke-dasharray:none" />
  <path
     d="m 215.92,173.43 0,-1.03 0.21,-1.65 0.21,-0.62 0.21,-0.63 0.62,-0.96 0.42,-0.34 0.41,-0.34 1.05,-0.33 0.63,0 0.46,0 0.82,0.18 0.35,0.19 0.35,0.19 0.58,0.54 0.23,0.35 0.22,0.35 0.36,0.86 0.13,0.51 0.13,0.5 0.13,1.37 0,0.86 0,1.02 -0.21,1.64 -0.21,0.63 -0.21,0.62 -0.62,0.97 -0.42,0.34 -0.41,0.34 -1.05,0.34 -0.63,0 -0.84,0 -1.31,-0.6 -0.47,-0.6 -0.57,-0.72 -0.57,-2.35 0,-1.63 0,0 z m 1.45,0 0,1.43 0.33,1.89 0.34,0.47 0.33,0.47 0.82,0.47 0.49,0 0.49,0 0.82,-0.47 0.33,-0.47 0.33,-0.48 0.33,-1.89 0,-1.42 0,-1.43 -0.33,-1.89 -0.33,-0.47 -0.33,-0.47 -0.83,-0.47 -0.5,0 -0.49,0 -0.78,0.42 -0.29,0.41 -0.36,0.53 -0.37,1.95 0,1.42 0,0 z"
     id="path66"
     inkscape:connector-curvature="0"
     style="fill:#000000;fill-rule:evenodd;stroke-width:1.2;stroke-miterlimit:4;stroke-dasharray:none" />
  <path
     d="m 391.56,187 0.2,0.21 0.31,0.44 0.11,0.21 0.07,0.15 0.24,0.79 0.17,0.64 0.74,-1.1 0.14,-0.2 0.36,-0.38 0.21,-0.18 0.21,-0.19 0.37,-0.24 0.16,-0.07 0.1,-0.04 0.22,-0.04 0.12,0 0.18,0 0.29,0.09 0.11,0.1 0.1,0.09 0.11,0.23 0,0.14 0,0.16 -0.06,0.22 -0.06,0.05 -0.12,0.11 -0.27,0.1 -0.15,0 -0.09,0 -0.19,-0.04 -0.1,-0.03 -0.2,-0.07 -0.26,-0.07 -0.07,0 -0.1,0 -0.24,0.12 -0.14,0.12 -0.26,0.21 -0.62,0.85 -0.36,0.62 0.69,2.86 0.08,0.33 0.14,0.4 0.05,0.06 0.06,0.06 0.11,0.07 0.05,0 0.09,0 0.21,-0.1 0.11,-0.09 0.24,-0.19 0.39,-0.5 0.17,-0.31 0.29,0.15 -0.27,0.49 -0.66,0.82 -0.41,0.32 -0.23,0.18 -0.39,0.19 -0.16,0 -0.23,0 -0.37,-0.27 -0.14,-0.26 -0.09,-0.16 -0.36,-1.4 -0.27,-1.25 -0.65,1.14 -1.05,1.45 -0.39,0.33 -0.25,0.21 -0.5,0.21 -0.23,0 -0.17,0 -0.31,-0.13 -0.13,-0.12 -0.1,-0.09 -0.1,-0.24 0,-0.16 0,-0.14 0.09,-0.23 0.09,-0.09 0.09,-0.09 0.22,-0.09 0.14,0 0.13,0 0.28,0.13 0.15,0.14 0.11,0.09 0.17,0.1 0.06,0 0.05,0 0.13,-0.06 0.07,-0.07 0.2,-0.16 0.53,-0.68 0.34,-0.52 0.34,-0.52 0.44,-0.76 0.1,-0.23 -0.26,-1.01 -0.27,-1.08 -0.02,-0.06 -0.1,-0.27 -0.25,-0.38 -0.15,-0.12 -0.16,-0.11 -0.45,-0.11 -0.3,0 -0.1,0 -0.22,0.01 -0.12,0 0,-0.3 2.22,-0.39 z"
     id="path68"
     inkscape:connector-curvature="0"
     style="fill:#000000;fill-rule:evenodd;stroke-width:1.2;stroke-miterlimit:4;stroke-dasharray:none" />
  <path
     d="m 217.97,13.63 0.14,0.24 0.2,0.46 0.05,0.21 0.06,0.21 0.11,0.82 0.05,0.62 0.37,4.09 0.25,-0.3 0.72,-0.95 0.48,-0.65 0.23,-0.31 0.56,-0.86 0.34,-0.55 0.2,-0.33 0.25,-0.47 0.05,-0.13 0.03,-0.07 0.02,-0.13 0,-0.07 0,-0.05 -0.03,-0.08 -0.03,-0.02 -0.03,-0.03 -0.15,-0.07 -0.12,-0.04 -0.13,-0.04 -0.2,-0.15 -0.08,-0.1 -0.08,-0.11 -0.08,-0.24 0,-0.14 0,-0.17 0.1,-0.27 0.1,-0.11 0.1,-0.1 0.25,-0.11 0.15,0 0.18,0 0.31,0.16 0.13,0.15 0.13,0.15 0.13,0.42 0,0.27 0,0.32 -0.22,0.76 -0.23,0.42 -0.22,0.42 -0.87,1.3 -0.64,0.88 -0.64,0.87 -1.56,1.91 -0.92,1.04 -0.63,0.71 -0.93,0.9 -0.31,0.19 -0.3,0.18 -0.52,0.19 -0.22,0 -0.13,0 -0.23,-0.1 -0.1,-0.1 -0.09,-0.1 -0.1,-0.22 0,-0.13 0,-0.16 0.13,-0.3 0.14,-0.13 0.14,-0.13 0.29,-0.14 0.16,0 0.08,0 0.14,0.04 0.05,0.04 0.04,0.02 0.07,0.12 0.04,0.09 0.04,0.1 0.07,0.13 0.04,0.03 0.02,0.03 0.05,0.02 0.03,0 0.02,0 0.09,-0.05 0.06,-0.04 0.23,-0.14 0.54,-0.45 0.3,-0.31 0.4,-0.41 0.59,-0.68 0.2,-0.27 -0.47,-5.27 -0.06,-0.65 -0.17,-0.8 -0.12,-0.14 -0.12,-0.14 -0.39,-0.14 -0.27,0 -0.09,0 -0.31,0.02 -0.23,0.03 -0.07,-0.3 2.44,-0.61 z"
     id="path70"
     inkscape:connector-curvature="0"
     style="fill:#000000;fill-rule:evenodd;stroke-width:1.2;stroke-miterlimit:4;stroke-dasharray:none" />
  <path
     d="m 423.28,9.62 0,169.51"
     id="path72"
     inkscape:connector-curvature="0"
     style="fill:none;stroke:#000000;stroke-width:1.2;stroke-miterlimit:4;stroke-dasharray:none" />
  <path
     d="m 419.43,175.28 169.51,0"
     id="path74"
     inkscape:connector-curvature="0"
     style="fill:none;stroke:#000000;stroke-width:1.2;stroke-miterlimit:4;stroke-dasharray:none" />
  <path
     d="m 588.94,175.28 -11.56,-3.86"
     id="path76"
     inkscape:connector-curvature="0"
     style="fill:none;stroke:#000000;stroke-width:1.2;stroke-miterlimit:4;stroke-dasharray:none" />
  <path
     d="m 577.38,179.13 11.56,-3.85"
     id="path78"
     inkscape:connector-curvature="0"
     style="fill:none;stroke:#000000;stroke-width:1.2;stroke-miterlimit:4;stroke-dasharray:none" />
  <path
     d="m 423.28,9.62 3.85,11.56"
     id="path80"
     inkscape:connector-curvature="0"
     style="fill:none;stroke:#000000;stroke-width:1.2;stroke-miterlimit:4;stroke-dasharray:none" />
  <path
     d="M 419.43,21.18 423.28,9.62"
     id="path82"
     inkscape:connector-curvature="0"
     style="fill:none;stroke:#000000;stroke-width:1.2;stroke-miterlimit:4;stroke-dasharray:none" />
  <path
     d="m 420.1,188.84 0,-1.03 0.21,-1.65 0.21,-0.62 0.21,-0.63 0.62,-0.96 0.42,-0.34 0.42,-0.34 1.04,-0.34 0.63,0 0.46,0 0.82,0.19 0.35,0.19 0.35,0.19 0.58,0.54 0.23,0.35 0.23,0.35 0.35,0.86 0.13,0.51 0.13,0.5 0.13,1.37 0,0.86 0,1.02 -0.21,1.64 -0.21,0.63 -0.2,0.62 -0.63,0.97 -0.41,0.34 -0.42,0.34 -1.05,0.34 -0.63,0 -0.83,0 -1.32,-0.6 -0.47,-0.6 -0.57,-0.72 -0.57,-2.35 0,-1.63 0,0 z m 1.45,0 0,1.43 0.34,1.89 0.33,0.47 0.33,0.47 0.82,0.47 0.49,0 0.49,0 0.82,-0.47 0.33,-0.47 0.33,-0.48 0.34,-1.89 0,-1.42 0,-1.43 -0.34,-1.89 -0.33,-0.47 -0.33,-0.47 -0.83,-0.47 -0.5,0 -0.48,0 -0.78,0.42 -0.3,0.41 -0.36,0.53 -0.37,1.95 0,1.42 0,0 z"
     id="path84"
     inkscape:connector-curvature="0"
     style="fill:#000000;fill-rule:evenodd;stroke-width:1.2;stroke-miterlimit:4;stroke-dasharray:none" />
  <path
     d="m 408.54,173.43 0,-1.03 0.21,-1.65 0.21,-0.62 0.21,-0.63 0.63,-0.96 0.41,-0.34 0.42,-0.34 1.04,-0.33 0.63,0 0.47,0 0.81,0.18 0.35,0.19 0.36,0.19 0.57,0.54 0.23,0.35 0.23,0.35 0.35,0.86 0.13,0.51 0.13,0.5 0.13,1.37 0,0.86 0,1.02 -0.2,1.64 -0.21,0.63 -0.21,0.62 -0.63,0.97 -0.41,0.34 -0.42,0.34 -1.04,0.34 -0.64,0 -0.83,0 -1.31,-0.6 -0.48,-0.6 -0.57,-0.72 -0.57,-2.35 0,-1.63 0,0 z m 1.46,0 0,1.43 0.33,1.89 0.33,0.47 0.33,0.47 0.82,0.47 0.49,0 0.49,0 0.82,-0.47 0.33,-0.47 0.34,-0.48 0.33,-1.89 0,-1.42 0,-1.43 -0.33,-1.89 -0.34,-0.47 -0.33,-0.47 -0.83,-0.47 -0.49,0 -0.49,0 -0.78,0.42 -0.29,0.41 -0.37,0.53 -0.36,1.95 0,1.42 0,0 z"
     id="path86"
     inkscape:connector-curvature="0"
     style="fill:#000000;fill-rule:evenodd;stroke-width:1.2;stroke-miterlimit:4;stroke-dasharray:none" />
  <path
     d="m 584.18,187 0.21,0.21 0.31,0.44 0.1,0.21 0.07,0.15 0.25,0.79 0.16,0.64 0.74,-1.1 0.15,-0.2 0.36,-0.38 0.2,-0.18 0.21,-0.19 0.37,-0.24 0.16,-0.07 0.1,-0.04 0.23,-0.04 0.12,0 0.18,0 0.28,0.09 0.11,0.1 0.11,0.09 0.11,0.23 0,0.14 0,0.16 -0.07,0.22 -0.06,0.05 -0.12,0.11 -0.27,0.1 -0.15,0 -0.09,0 -0.18,-0.04 -0.1,-0.03 -0.2,-0.07 -0.27,-0.07 -0.06,0 -0.1,0 -0.24,0.12 -0.14,0.12 -0.26,0.21 -0.62,0.85 -0.36,0.62 0.69,2.86 0.08,0.33 0.13,0.4 0.06,0.06 0.05,0.06 0.11,0.07 0.06,0 0.08,0 0.21,-0.1 0.12,-0.09 0.23,-0.19 0.4,-0.5 0.16,-0.31 0.29,0.15 -0.26,0.49 -0.67,0.82 -0.4,0.32 -0.23,0.18 -0.39,0.19 -0.16,0 -0.24,0 -0.37,-0.27 -0.14,-0.26 -0.08,-0.16 -0.36,-1.4 -0.28,-1.25 -0.65,1.14 -1.04,1.45 -0.39,0.33 -0.26,0.21 -0.49,0.21 -0.24,0 -0.17,0 -0.3,-0.13 -0.14,-0.12 -0.1,-0.09 -0.1,-0.24 0,-0.16 0,-0.14 0.09,-0.23 0.09,-0.09 0.09,-0.09 0.23,-0.09 0.13,0 0.14,0 0.28,0.13 0.15,0.14 0.11,0.09 0.16,0.1 0.06,0 0.05,0 0.13,-0.06 0.08,-0.07 0.19,-0.16 0.54,-0.68 0.33,-0.52 0.34,-0.52 0.44,-0.76 0.11,-0.23 -0.26,-1.01 -0.28,-1.08 -0.02,-0.06 -0.09,-0.27 -0.25,-0.38 -0.16,-0.12 -0.15,-0.11 -0.46,-0.11 -0.3,0 -0.09,0 -0.22,0.01 -0.13,0 0,-0.3 2.22,-0.39 z"
     id="path88"
     inkscape:connector-curvature="0"
     style="fill:#000000;fill-rule:evenodd;stroke-width:1.2;stroke-miterlimit:4;stroke-dasharray:none" />
  <path
     d="m 410.6,13.63 0.14,0.24 0.2,0.46 0.05,0.21 0.05,0.21 0.11,0.82 0.06,0.62 0.36,4.09 0.25,-0.3 0.73,-0.95 0.47,-0.65 0.23,-0.31 0.57,-0.86 0.33,-0.55 0.21,-0.33 0.25,-0.47 0.04,-0.13 0.03,-0.07 0.02,-0.13 0,-0.07 0,-0.05 -0.02,-0.08 -0.03,-0.02 -0.03,-0.03 -0.16,-0.07 -0.12,-0.04 -0.12,-0.04 -0.21,-0.15 -0.08,-0.1 -0.08,-0.11 -0.08,-0.24 0,-0.14 0,-0.17 0.1,-0.27 0.1,-0.11 0.1,-0.1 0.25,-0.11 0.15,0 0.18,0 0.32,0.16 0.13,0.15 0.13,0.15 0.12,0.42 0,0.27 0,0.32 -0.22,0.76 -0.23,0.42 -0.22,0.42 -0.87,1.3 -0.64,0.88 -0.64,0.87 -1.56,1.91 -0.91,1.04 -0.63,0.71 -0.94,0.9 -0.3,0.19 -0.31,0.18 -0.52,0.19 -0.22,0 -0.13,0 -0.22,-0.1 -0.1,-0.1 -0.1,-0.1 -0.1,-0.22 0,-0.13 0,-0.16 0.14,-0.3 0.13,-0.13 0.14,-0.13 0.29,-0.14 0.16,0 0.09,0 0.13,0.04 0.06,0.04 0.03,0.02 0.07,0.12 0.04,0.09 0.04,0.1 0.08,0.13 0.03,0.03 0.02,0.03 0.05,0.02 0.03,0 0.03,0 0.08,-0.05 0.07,-0.04 0.23,-0.14 0.53,-0.45 0.3,-0.31 0.41,-0.41 0.59,-0.68 0.19,-0.27 -0.47,-5.27 -0.05,-0.65 -0.18,-0.8 -0.12,-0.14 -0.11,-0.14 -0.39,-0.14 -0.28,0 -0.09,0 -0.31,0.02 -0.22,0.03 -0.07,-0.3 2.44,-0.61 z"
     id="path90"
     inkscape:connector-curvature="0"
     style="fill:#000000;fill-rule:evenodd;stroke-width:1.2;stroke-miterlimit:4;stroke-dasharray:none" />
  <path
     d="M 38.03,175.28 192.13,21.18"
     id="path92"
     inkscape:connector-curvature="0"
     style="fill:none;stroke:#000000;stroke-width:1.20000005;stroke-miterlimit:4;stroke-dasharray:7.20000029,7.20000029;stroke-dashoffset:0" />
  <path
     d="M 26.47,175.28 180.57,21.18"
     id="path94"
     inkscape:connector-curvature="0"
     style="fill:none;stroke:#000000;stroke-width:1.2;stroke-miterlimit:4;stroke-dasharray:none" />
  <path
     d="M 230.66,175.28 384.75,21.18"
     id="path96"
     inkscape:connector-curvature="0"
     style="fill:none;stroke:#000000;stroke-width:1.20000005;stroke-miterlimit:4;stroke-dasharray:7.20000029,7.20000029;stroke-dashoffset:0" />
  <path
     d="M 230.66,175.28 369.34,21.18"
     id="path98"
     inkscape:connector-curvature="0"
     style="fill:none;stroke:#000000;stroke-width:1.2;stroke-miterlimit:4;stroke-dasharray:none" />
  <path
     d="M 423.28,175.28 577.38,21.18"
     id="path100"
     inkscape:connector-curvature="0"
     style="fill:none;stroke:#000000;stroke-width:1.20000005;stroke-miterlimit:4;stroke-dasharray:7.20000029,7.20000029;stroke-dashoffset:0" />
  <path
     d="m 423.28,175.28 11.91,-9.19 m 0,0 11.68,-9.51 m 0,0 11.43,-9.78 m 0,0 11.21,-10.05 m 0,0 11.94,-11.17 m 0,0 11.7,-11.42 m 0,0 11.44,-11.68 m 0,0 11.15,-11.96 m 0,0 8.12,-9.28 m 0,0 7.81,-9.56 m 0,0 7.55,-9.76 m 0,0 7.34,-9.92 m 0,0 8.05,-11.33 m 0,0 7.8,-11.49 m 0,0 14.97,-23.41"
     id="path102"
     inkscape:connector-curvature="0"
     style="fill:none;stroke:#000000;stroke-width:1.2;stroke-miterlimit:4;stroke-dasharray:none" />
</svg>
