<svg xmlns="http://www.w3.org/2000/svg" xmlns:sodipodi="http://sodipodi.sourceforge.net/DTD/sodipodi-0.dtd" xmlns:inkscape="http://www.inkscape.org/namespaces/inkscape" sodipodi:docname="Center_of_buoyancy.svg" inkscape:version="1.0 (4035a4fb49, 2020-05-01)" height="371.831" width="630.807"><defs><clipPath id="a"><path inkscape:connector-curvature="0" d="M0 0v913h1616V0z"/></clipPath><clipPath id="b"><path inkscape:connector-curvature="0" d="M0 0v913h1616V0z"/></clipPath><clipPath id="c"><path d="M0 0v487h337V0z" inkscape:connector-curvature="0"/></clipPath><clipPath id="d"><path inkscape:connector-curvature="0" d="M0 0v913h1616V0z"/></clipPath><clipPath id="e"><path inkscape:connector-curvature="0" d="M0 0v913h1616V0z"/></clipPath><clipPath id="f"><path d="M0 0v487h337V0z" inkscape:connector-curvature="0"/></clipPath><clipPath id="g"><path inkscape:connector-curvature="0" d="M0 0v303h294V0z"/></clipPath><clipPath id="h"><path inkscape:connector-curvature="0" d="M0 0v303h294V0z"/></clipPath></defs><sodipodi:namedview inkscape:snap-global="false" inkscape:document-rotation="0" fit-margin-bottom="10" fit-margin-right="10" fit-margin-left="10" fit-margin-top="10" units="px" inkscape:window-maximized="1" inkscape:window-y="-8" inkscape:window-x="54" inkscape:window-height="1057" inkscape:window-width="1858" showgrid="false" inkscape:current-layer="layer3" inkscape:document-units="px" inkscape:cy="307.822" inkscape:cx="273.552" inkscape:zoom="1.311" inkscape:pageshadow="2" inkscape:pageopacity="0" borderopacity="1" bordercolor="#666666" pagecolor="#ffffff"/><path fill="#fff" d="M0 0h630.807v371.831H0z" inkscape:label="background" inkscape:groupmode="layer"/><g transform="translate(-5.08 -615.08)" inkscape:groupmode="layer" inkscape:label="Ebene 1"><path sodipodi:nodetypes="ccccc" inkscape:connector-curvature="0" d="M15.08 771.524h295.807V975.91H15.08z" fill="#3ea8f3"/><path sodipodi:nodetypes="ccccc" inkscape:connector-curvature="0" d="M329.08 771.524h295.807V975.91H329.08z" stroke="#3ea8f3" stroke-width="2" stroke-linecap="round" stroke-linejoin="round" stroke-dasharray="8,4" fill="none"/><path inkscape:connector-curvature="0" d="M387.53 771.524c-11.092 74.531 89.378 80.716 89.482 103.875.104-23.159 100.527-29.344 89.424-103.875z" fill="#3ea8f3" stroke="#3ea8f3" stroke-width="2" stroke-linecap="round" stroke-linejoin="round"/><g fill="#00f" stroke="#00f" stroke-linecap="square" stroke-miterlimit="10"><g transform="matrix(-1.92404 0 0 1.92404 1467.866 567.781)"><g clip-path="url(#a)"><path sodipodi:nodetypes="cc" inkscape:connector-curvature="0" d="M515 127.224v-80.54" stroke-width="3.5" stroke-linecap="round" stroke-linejoin="round"/><!--drawing style--></g><!--clip64--></g><g transform="matrix(-1.92404 0 0 1.92404 1467.866 407.781)"><g clip-path="url(#b)"><path inkscape:connector-curvature="0" d="M515 115l4.75 19h-9.5z" fill-rule="nonzero;"/><!--drawing style--></g><!--clip65--></g></g><g transform="matrix(.88474 0 0 .88474 277.046 573.743)" fill="#f2f2f2" stroke="#000" stroke-width="2.261"><g clip-path="url(#c)"><path d="M231 270c0 2.76-2.24 5-5 5s-5-2.24-5-5 2.24-5 5-5 5 2.24 5 5z" inkscape:connector-curvature="0" fill-rule="nonzero;"/><!--drawing style--></g><!--clip38--></g><!--Begin text buoyancy--><!--End text buoyancy--><!--Begin text weight--><!--End text weight--></g><g inkscape:label="Ebene 2" inkscape:groupmode="layer"><path inkscape:connector-curvature="0" d="M156.853 53.642c-15.307 1.943-30.592 5.468-45.103 10.467-6.894 9.015-21.975 28.74-21.748 41.324.16.568.443 1.115.814 1.644-.707 3.084-.714 6.669-2.002 9.393-1.831 8.21-6.304 25.286-9.105 34.23-2.615 1.026-3.821 4.141-3.621 7.276-1.384 12.144-.48 25.384 6.673 35.724 1.412.294 2.844.505 4.29.665-3.477 1.565-5.783 3.555-4.282 5.652 9.798 8.896 33.315 22.203 44.744 28.754 10.05 5.003 19.797 10.921 29.897 15.617 8.196-1.519 14.255-8.156 21.857-11.063 15.72-8.638 44.957-21.295 56.455-35.638.234-1.424-1.28-2.766-3.529-3.914 6.53-5.074 6.779-15.147 8.133-22.748.334-6.347 1.271-13.944-2.508-19.352 3.864-3.57-3.403-15.648-5.639-19.297-3.933-9.355-6.159-19.477-8.556-29.2a6.093 6.093 0 00-.492-.343c4.437-5.373-2.919-18.63-5.856-22.965-5.815-9.39-14.146-18.27-25.744-19.543-11.354-3.088-22.855-6.236-34.678-6.683z" fill="#fff"/><path inkscape:connector-curvature="0" d="M157.901 44.489l-49.74 11.795-21.408 24.904-5.245 37.137c-56.334 111.202 76.305 115.386 76.424 141.994.12-26.608 132.698-30.792 76.364-141.994l-5.245-37.137-21.408-24.904zm-.674 11.22c12.211.277 23.8 4.95 35.63 7.537 9.917.124 16.001 9.024 21.23 16.149 4.457 4.06 6.133 9.636 7.043 15.408H94.91c-.17-12.627 11.78-20.181 18.669-29.228 13.4-3.736 27.463-6.903 41.197-9.86.82-.022 1.637-.024 2.451-.006zm-63.224 47.723H222.17l.03.287c-.015 14.331 7.383 26.835 11.868 40.031H81.532c.215-.636.437-1.268.668-1.894 6.134-12.02 9.939-25.075 11.803-38.424zm-14.819 48.947h157.453c3.312 13.516 1.888 28.362-5.134 40.319H84.253c-6.996-11.883-7.924-26.674-5.069-40.319zm11.77 48.948h134.021c-17.651 20.221-45.784 25.946-66.761 41.66-21.552-14.934-49.183-21.864-67.26-41.66z" fill="#ccc" fill-rule="evenodd" stroke="#000" stroke-width="2" stroke-linecap="round" stroke-linejoin="round"/></g><g inkscape:label="Ebene 3" inkscape:groupmode="layer"><g stroke="#000" stroke-linecap="square" stroke-miterlimit="10"><g transform="matrix(1.92404 0 0 -1.92404 -832.821 405.519)"><g clip-path="url(#d)"><path d="M515 127.224v-80.54" inkscape:connector-curvature="0" sodipodi:nodetypes="cc" stroke-width="3.5" stroke-linecap="round" stroke-linejoin="round"/><!--drawing style--></g><!--clip64--></g><g transform="matrix(1.92404 0 0 -1.92404 -832.821 565.519)"><g clip-path="url(#e)"><path d="M515 115l4.75 19h-9.5z" inkscape:connector-curvature="0" fill-rule="nonzero;"/><!--drawing style--></g><!--clip65--></g></g><g transform="matrix(.88474 0 0 .88474 -41.889 -78.044)" fill="#f2f2f2" stroke="#000" stroke-width="2.261"><g clip-path="url(#f)"><path inkscape:connector-curvature="0" d="M231 270c0 2.76-2.24 5-5 5s-5-2.24-5-5 2.24-5 5-5 5 2.24 5 5z" fill-rule="nonzero;"/><!--drawing style--></g><!--clip38--></g><g stroke-linecap="square" stroke-miterlimit="10"><g transform="translate(-297.86 -402.777) scale(2.1685)"><g clip-path="url(#g)"><text font-weight="400" font-size="16" style="line-height:0%" font-family="Helvetica" transform="translate(141 202)">(a)</text><!--transform--></g><!--clip42--></g><g transform="translate(-301.86 -402.777) scale(2.1685)"><g clip-path="url(#h)"><!--transform--></g><!--clip43--></g></g><g stroke-linecap="square" stroke-miterlimit="10"><g transform="translate(15.14 -402.777) scale(2.1685)"><g clip-path="url(#g)"><text style="line-height:0%" font-size="16" font-weight="400" font-family="Helvetica" transform="translate(141 202)">(b)</text><!--transform--></g><!--clip42--></g><g transform="translate(11.14 -402.777) scale(2.1685)"><g clip-path="url(#h)"><!--transform--></g><!--clip43--></g></g><path d="M181.292 276.61l-2.142 9.1H182.362q1.071 0 1.071.536 0 1.07-1.07 1.07H171.12q-.535 0-.535-.535t.535-1.07h2.677q.535 0 .535-.268v-.268l4.818-19.272q-1.07-.535-1.606-.535h-1.07-.268q-.268 0-.268-.536 0-.535.535-.535 0-.536.536-.536h18.737q1.07 0 1.07 1.071v.536l-.534 5.888-.536.536v.267q0 .268-.535.268-1.07 0-1.07-.535l.534-1.071v-1.07q0-2.142-1.07-3.213-1.071-1.07-4.283-1.07h-3.747q-1.071 0-1.607.535l-2.141 9.1h2.141q1.607 0 2.677-.802 1.071-.803 1.606-2.41v-.802q0-.268.535-.268 1.071 0 1.071.535v.536l-2.141 8.03v.268q0 .267-.268.267h-.803q-.535 0-.535-.535v-.536q.535-.535.535-1.605 0-.536-.803-.804-.803-.267-1.874-.267zM210.195 287.586l-1.124 4.496q0 .375-.375.375l-.75-.375q-.749-.374-1.124-.75-.75.75-2.06 1.125-1.312.375-3.186.375-3.373 0-5.434-1.686-2.06-1.687-2.06-4.685 0-1.499.374-2.998.375-1.499 1.499-2.998t2.436-2.623q1.311-1.124 3.185-1.686 1.874-.562 4.122-.562 2.623 0 4.497 1.873l2.248-1.873q.75 0 .75.374l-.375.375-1.124 5.247q0 .374-.187.562-.188.187-.563.187-.749 0-.749-.375v-.562-.562q0-1.499-.937-2.81-.937-1.312-3.185-1.312-1.499 0-3.185.75-1.687.749-2.811 1.873-1.499 1.499-2.248 3.935-.75 2.436-.75 3.935 0 2.248 1.5 3.372 1.498 1.125 3.746 1.125 1.5 0 2.624-.562 1.124-.563 1.499-1.687l.187-.75q.187-.749.187-1.123v-.375q0-.375-1.499-.375h-.749q-.75 0-.75-.375 0-.75.375-.75.75 0 2.436.188t2.061.188q.375 0 .75-.188.374-.187.75-.187H212.068q.374 0 .374.375 0 .749-.187.749h-1.687q-.374.375-.374.75z"/><g fill="#00f"><path d="M493.32 94.773l-2.142 9.101H494.39q1.07 0 1.07.536 0 1.07-1.07 1.07h-11.242q-.536 0-.536-.535t.536-1.07h2.676q.536 0 .536-.268v-.268l4.818-19.273q-1.07-.535-1.606-.535h-1.07-.268q-.268 0-.268-.535 0-.536.535-.536 0-.535.536-.535h18.737q1.07 0 1.07 1.07v.536l-.535 5.889-.535.535v.268q0 .268-.536.268-1.07 0-1.07-.536l.535-1.07v-1.071q0-2.141-1.07-3.212-1.071-1.07-4.283-1.07h-3.748q-1.07 0-1.606.534l-2.141 9.101h2.141q1.606 0 2.677-.803 1.07-.803 1.606-2.409v-.803q0-.268.535-.268 1.071 0 1.071.536v.535l-2.141 8.03v.268q0 .268-.268.268h-.803q-.535 0-.535-.536v-.535q.535-.535.535-1.606 0-.535-.803-.803t-1.874-.268zM515.974 94.12l2.249 14.99q0 .374.187.374h1.874q.187 0 .187.188V110.42q0 .188-.187.188H512.976q-.374 0-.374-.375t.187-.562l.187-.188h1.875l-.376-3.747h-6.37l-2.249 3.373q.375.374 1.124.374.75 0 .75.375 0 .75-.75.75h-4.871l-.187-.188-.188-.187q0-.375.188-.562l.187-.188h.375q.75 0 1.311-.187.562-.187.75-.375l.187-.187 9.369-14.615.562-.562q.187-.188.562-.188.375 0 .562.188.187.187.187.562zm-2.623 3.747l-4.497 6.746h5.247z"/></g><path d="M495.664 194.756l3.213 21.414q0 .536.267.536h2.677q.268 0 .268.267V218.044q0 .268-.268.268h-10.439q-.536 0-.536-.536 0-.535.268-.803l.268-.267h2.677l-.536-5.354h-9.1l-3.213 4.818q.536.536 1.606.536 1.071 0 1.071.535 0 1.07-1.071 1.07h-6.959l-.268-.267-.268-.268q0-.535.268-.803l.268-.267h.535q1.07 0 1.874-.268.803-.268 1.07-.535l.268-.268 13.384-20.879.803-.803q.268-.267.803-.267t.803.267q.267.268.267.803zm-3.747 5.354l-6.424 9.636h7.495z" fill="#00f"/><path d="M192.002 176.232l-1.606 6.424q0 .535-.536.535l-1.07-.535q-1.071-.535-1.607-1.07-1.07 1.07-2.944 1.605-1.874.536-4.55.536-4.818 0-7.763-2.41-2.944-2.409-2.944-6.691 0-2.142.535-4.283.535-2.142 2.141-4.283 1.606-2.141 3.48-3.748 1.874-1.605 4.55-2.409 2.677-.802 5.89-.802 3.747 0 6.424 2.676l3.212-2.676q1.07 0 1.07.535l-.535.535-1.606 7.495q0 .535-.268.803-.267.268-.803.268-1.07 0-1.07-.536v-.803-.803q0-2.141-1.339-4.015-1.338-1.873-4.55-1.873-2.142 0-4.55 1.07-2.41 1.07-4.016 2.677-2.141 2.141-3.212 5.621-1.07 3.48-1.07 5.621 0 3.212 2.14 4.818 2.142 1.607 5.354 1.607 2.142 0 3.748-.804 1.606-.803 2.141-2.409l.268-1.07q.267-1.071.267-1.606v-.536q0-.535-2.14-.535h-1.072q-1.07 0-1.07-.535 0-1.071.535-1.071 1.07 0 3.48.268 2.409.267 2.944.267.536 0 1.07-.267.536-.268 1.072-.268h2.676q.536 0 .536.535 0 1.07-.268 1.07h-2.409q-.535.536-.535 1.072z"/></g></svg>