<svg width="218mm" height="187mm" version="1.1" viewBox="0 0 218 187" xmlns="http://www.w3.org/2000/svg">
 <rect width="218" height="187" fill="#fff"/>
 <g fill="none"><path d="m10 180v-153m-4 78l195 0" stroke="#000" stroke-width=".7"/><path d="m10 33c4 0 10 61 12 72 4 69 11 60 23 0 7-41 13-44 23 0 8 31 12 27 23 0 8-20 14-17 24 0 8 12 12 12 22 0 11-10 15-5 24 0 11 7 15 3 23 0 2-1 7-3 10-3" stroke="#f00"/><path d="m10 177c34-52 115-69 185-69m-185-75c34 52 115 69 185 69" stroke="#00f"/><path d="m117 94 9-5m-85-16 21 0m-3-17h39m-42 52v-55m46 55v-55m-94-20 19 0m167 74v-4m-46 4v-4" stroke="#000" stroke-width=".5"/></g>
 <path d="m197 107 8-2-8-2 2 2m-135-51l-8 2 8 2-2-2m32-2 8 2-8 2 2-2m-88-27 2-8 2 8-2-2"/>
 <g font-family="Times" font-size="12px" text-anchor="middle"><text x="16" y="20">x(<tspan font-style="italic">t</tspan>)</text><text x="34" y="36">x<tspan baseline-shift="sub" font-size="8px">0</tspan></text><text x="34" y="77">x<tspan baseline-shift="sub" font-size="8px">1</tspan></text><text x="79" y="54">T</text><text x="198" y="98" font-style="italic">t</text><text x="139" y="88" font-style="italic"><tspan font-style="normal">Ae</tspan><tspan baseline-shift="super" font-size="8px" font-style="normal">-β</tspan><tspan baseline-shift="super" font-size="8px" font-style="italic">t</tspan></text></g></svg>