<svg xmlns="http://www.w3.org/2000/svg" xmlns:xlink="http://www.w3.org/1999/xlink" width="480" zoomAndPan="magnify" viewBox="0 0 360 359.999987" height="480" preserveAspectRatio="xMidYMid meet" version="1.0"><defs><filter x="0%" y="0%" width="100%" height="100%" id="3ca046f9cb"><feColorMatrix values="0 0 0 0 1 0 0 0 0 1 0 0 0 0 1 0 0 0 1 0" color-interpolation-filters="sRGB"/></filter><g/><clipPath id="edd3e03bcb"><path d="M 36 74.023438 L 110.589844 74.023438 L 110.589844 147.601562 L 36 147.601562 Z M 36 74.023438 " clip-rule="nonzero"/></clipPath><mask id="ec68e603f8"><g filter="url(#3ca046f9cb)"><rect x="-36" width="432" fill="#000000" y="-35.999999" height="431.999984" fill-opacity="0.23"/></g></mask><clipPath id="910a508df0"><path d="M 0 0.125 L 74.589844 0.125 L 74.589844 73.699219 L 0 73.699219 Z M 0 0.125 " clip-rule="nonzero"/></clipPath><clipPath id="b77e8c3b6a"><rect x="0" width="75" y="0" height="74"/></clipPath><mask id="f90cc72068"><g filter="url(#3ca046f9cb)"><rect x="-36" width="432" fill="#000000" y="-35.999999" height="431.999984" fill-opacity="0.43"/></g></mask><clipPath id="1c6910ec74"><path d="M 0.761719 2 L 3.878906 2 L 3.878906 118 L 0.761719 118 Z M 0.761719 2 " clip-rule="nonzero"/></clipPath><clipPath id="f5e4723f6f"><rect x="0" width="4" y="0" height="119"/></clipPath><clipPath id="a6e62c825f"><path d="M 131.007812 112 L 132 112 L 132 113 L 131.007812 113 Z M 131.007812 112 " clip-rule="nonzero"/></clipPath><clipPath id="ff3b4db478"><path d="M 131.007812 112 L 152 112 L 152 298 L 131.007812 298 Z M 131.007812 112 " clip-rule="nonzero"/></clipPath><clipPath id="ce242e7616"><path d="M 206.585938 37 L 208 37 L 208 39 L 206.585938 39 Z M 206.585938 37 " clip-rule="nonzero"/></clipPath><clipPath id="8236573532"><path d="M 206.585938 38 L 235.835938 38 L 235.835938 297 L 206.585938 297 Z M 206.585938 38 " clip-rule="nonzero"/></clipPath><clipPath id="6ff5b48584"><path d="M 212 324 L 226 324 L 226 341.25 L 212 341.25 Z M 212 324 " clip-rule="nonzero"/></clipPath><mask id="ce214efa73"><g filter="url(#3ca046f9cb)"><rect x="-36" width="432" fill="#000000" y="-35.999999" height="431.999984" fill-opacity="0.15"/></g></mask><clipPath id="e5e9b5eb73"><path d="M 0 1.023438 L 74.589844 1.023438 L 74.589844 74.601562 L 0 74.601562 Z M 0 1.023438 " clip-rule="nonzero"/></clipPath><clipPath id="6cf5c93e68"><rect x="0" width="75" y="0" height="75"/></clipPath><mask id="b5a7e736e6"><g filter="url(#3ca046f9cb)"><rect x="-36" width="432" fill="#000000" y="-35.999999" height="431.999984" fill-opacity="0.15"/></g></mask><clipPath id="5e151ab722"><path d="M 0 0.878906 L 74.589844 0.878906 L 74.589844 74.457031 L 0 74.457031 Z M 0 0.878906 " clip-rule="nonzero"/></clipPath><clipPath id="f384f05199"><rect x="0" width="75" y="0" height="75"/></clipPath><mask id="53b178a2fe"><g filter="url(#3ca046f9cb)"><rect x="-36" width="432" fill="#000000" y="-35.999999" height="431.999984" fill-opacity="0.15"/></g></mask><clipPath id="6920f7c5a1"><path d="M 0 0.769531 L 74.589844 0.769531 L 74.589844 74.347656 L 0 74.347656 Z M 0 0.769531 " clip-rule="nonzero"/></clipPath><clipPath id="a4de29ef9d"><rect x="0" width="75" y="0" height="75"/></clipPath><mask id="004f799c1d"><g filter="url(#3ca046f9cb)"><rect x="-36" width="432" fill="#000000" y="-35.999999" height="431.999984" fill-opacity="0.15"/></g></mask><clipPath id="0f9e986efb"><path d="M 0 0.8125 L 74.589844 0.8125 L 74.589844 74.386719 L 0 74.386719 Z M 0 0.8125 " clip-rule="nonzero"/></clipPath><clipPath id="82a24fd6d3"><rect x="0" width="75" y="0" height="75"/></clipPath><mask id="6d0f2f0fd7"><g filter="url(#3ca046f9cb)"><rect x="-36" width="432" fill="#000000" y="-35.999999" height="431.999984" fill-opacity="0.15"/></g></mask><clipPath id="d74a689896"><path d="M 0 0.1875 L 74.589844 0.1875 L 74.589844 73.761719 L 0 73.761719 Z M 0 0.1875 " clip-rule="nonzero"/></clipPath><clipPath id="da7cc637c5"><rect x="0" width="75" y="0" height="74"/></clipPath></defs><g clip-path="url(#edd3e03bcb)"><path fill="#255d83" d="M 36 74.023438 L 110.726562 74.023438 L 110.726562 147.601562 L 36 147.601562 Z M 36 74.023438 " fill-opacity="1" fill-rule="nonzero"/></g><g mask="url(#ec68e603f8)"><g transform="matrix(1, 0, 0, 1, 36, 262)"><g clip-path="url(#b77e8c3b6a)"><g clip-path="url(#910a508df0)"><path fill="#255d83" d="M 0 0.125 L 74.726562 0.125 L 74.726562 73.699219 L 0 73.699219 Z M 0 0.125 " fill-opacity="1" fill-rule="nonzero"/></g></g></g></g><g mask="url(#f90cc72068)"><g transform="matrix(1, 0, 0, 1, 71, 145)"><g clip-path="url(#f5e4723f6f)"><g clip-path="url(#1c6910ec74)"><path fill="#000000" d="M 0.789062 117.121094 L 0.789062 99.121094 L 3.789062 99.121094 L 3.789062 117.121094 M 0.789062 96.121094 L 0.789062 78.121094 L 3.789062 78.121094 L 3.789062 96.121094 M 0.789062 75.121094 L 0.789062 57.121094 L 3.789062 57.121094 L 3.789062 75.121094 M 0.789062 54.121094 L 0.789062 36.121094 L 3.789062 36.121094 L 3.789062 54.121094 M 0.789062 33.121094 L 0.789062 15.121094 L 3.789062 15.121094 L 3.789062 33.121094 M 0.789062 12.121094 L 0.789062 2.597656 L 3.789062 2.597656 L 3.789062 12.121094 " fill-opacity="1" fill-rule="nonzero"/></g></g></g></g><path stroke-linecap="butt" transform="matrix(0, -0.75, 0.75, 0, 71.789408, 74.020293)" fill="none" stroke-linejoin="miter" d="M 0.00101508 1.999539 L 96.698939 1.999539 " stroke="#000000" stroke-width="4" stroke-opacity="1" stroke-miterlimit="4"/><path stroke-linecap="round" transform="matrix(0, -0.75, 0.75, 0, 71.789408, 74.020293)" fill="none" stroke-linejoin="round" d="M 88.698939 -4.000461 L 96.698939 1.999539 L 88.698939 7.99954 " stroke="#000000" stroke-width="4" stroke-opacity="1" stroke-miterlimit="4"/><g clip-path="url(#a6e62c825f)"><path fill="#262626" d="M 131.722656 112.136719 C 131.324219 112.140625 131.429688 112.195312 131.519531 112.226562 C 131.5625 112.242188 131.597656 112.25 131.570312 112.25 C 131.554688 112.25 131.523438 112.246094 131.464844 112.238281 C 131.433594 112.234375 131.398438 112.226562 131.359375 112.21875 C 131.335938 112.21875 131.3125 112.210938 131.289062 112.207031 L 131.25 112.199219 L 131.226562 112.199219 C 131.226562 112.199219 131.214844 112.195312 131.214844 112.195312 C 131.214844 112.195312 131.214844 112.195312 131.210938 112.195312 C 131.210938 112.335938 131.210938 111.886719 131.210938 112.507812 L 131.210938 112.191406 C 131.210938 112.191406 131.214844 112.1875 131.214844 112.1875 L 131.25 112.164062 C 131.25 112.164062 131.277344 112.144531 131.296875 112.136719 C 131.328125 112.125 131.363281 112.109375 131.410156 112.101562 C 131.492188 112.085938 131.59375 112.09375 131.722656 112.136719 Z M 131.722656 112.136719 " fill-opacity="1" fill-rule="nonzero"/></g><g clip-path="url(#ff3b4db478)"><path fill="#262626" d="M 133.546875 295.871094 C 134.679688 295.269531 135.949219 294.640625 137.058594 293.683594 C 138.160156 292.75 139.109375 291.515625 139.429688 290.195312 C 139.511719 289.890625 139.683594 290.382812 139.863281 289.679688 C 139.917969 289.351562 139.949219 288.996094 140.011719 288.632812 C 140.023438 288.453125 140.039062 288.261719 140.054688 288.066406 C 140.074219 287.878906 140.09375 287.683594 140.089844 287.484375 C 140.121094 286.691406 140.089844 285.835938 140.125 284.964844 C 140.175781 283.222656 140.324219 281.40625 140.488281 279.820312 L 140.578125 280.015625 C 140.640625 279.414062 140.355469 278.675781 140.394531 278.035156 C 140.453125 278.03125 140.476562 278.238281 140.554688 278.089844 C 140.382812 277.929688 140.476562 276.933594 140.347656 276.664062 C 140.417969 276.410156 140.550781 276.4375 140.628906 276.109375 L 140.429688 275.746094 C 139.960938 274.726562 140.464844 273.273438 140.222656 271.886719 C 140.265625 271.953125 140.304688 272.089844 140.347656 271.980469 C 140.0625 269.753906 140.117188 266.964844 140.011719 264.476562 C 140.078125 264.574219 140.207031 264.664062 140.285156 264.519531 C 140.074219 264.394531 140.023438 263.625 139.984375 262.957031 C 140.195312 262.660156 139.789062 261.8125 139.90625 261.027344 L 139.957031 261.09375 C 139.730469 260.515625 140.082031 260.238281 139.816406 259.765625 L 139.984375 259.398438 C 139.683594 259.140625 140.136719 258.558594 139.984375 258.082031 L 139.921875 258.09375 C 139.847656 257.644531 140 257.410156 139.949219 256.992188 L 139.984375 256.949219 C 139.902344 255.96875 140.074219 255.402344 139.839844 255.425781 C 140.023438 255.082031 139.921875 256.375 140.195312 255.835938 C 139.957031 252.609375 140.003906 249.292969 140 246.046875 C 140.09375 245.675781 140.125 245.445312 140.210938 245.359375 C 140.164062 245.035156 140.167969 244.136719 140.050781 243.847656 C 140.054688 243.957031 140.171875 243.636719 140.183594 243.464844 C 140.269531 242.875 139.925781 242.820312 140.027344 242.175781 C 140.089844 242.433594 140.167969 242.523438 140.253906 242.433594 C 140.074219 241.878906 140.101562 241.144531 140.042969 240.492188 C 140.082031 240.59375 140.105469 240.75 140.179688 240.722656 C 139.96875 240.007812 140.222656 239.421875 140.089844 238.792969 L 140.226562 239.027344 C 140.390625 238.023438 139.945312 238.730469 140.039062 237.855469 C 140.082031 238.066406 140.132812 237.992188 140.191406 238.03125 C 139.945312 237.21875 140.023438 235.902344 139.941406 235.09375 C 139.960938 235.140625 139.996094 235.128906 139.996094 235.128906 C 139.964844 234.246094 140.042969 233.320312 139.933594 232.351562 C 139.996094 231.996094 140.261719 232.46875 140.214844 231.53125 C 139.945312 231.5625 140.101562 229.941406 139.792969 230.492188 C 139.839844 229.695312 139.941406 228.429688 139.847656 227.898438 C 139.953125 228.253906 140.183594 227.507812 140.203125 228.171875 L 140.367188 227.667969 C 140.480469 227.738281 140.332031 228.183594 140.472656 228.023438 C 140.460938 227.691406 140.355469 226.722656 140.398438 226.421875 C 140.230469 225.808594 139.921875 225.242188 139.886719 224.242188 C 139.992188 224.714844 140.1875 223.976562 140.234375 224.292969 L 139.714844 222.898438 C 139.699219 222.570312 139.929688 222.828125 139.855469 222.347656 C 139.785156 222.371094 139.738281 222.164062 139.679688 222.015625 C 139.710938 221.890625 139.613281 220.636719 139.878906 220.488281 C 139.984375 220.34375 139.933594 221.027344 140.027344 220.664062 C 140.027344 220.050781 139.933594 220.023438 139.929688 219.410156 L 139.964844 219.398438 C 140.007812 218.992188 139.851562 218.207031 139.703125 218.644531 C 139.695312 218.925781 139.863281 218.539062 139.789062 218.953125 C 139.628906 218.667969 139.589844 217.953125 139.585938 217.34375 C 139.628906 217.550781 139.699219 217.523438 139.777344 217.613281 C 139.566406 216.785156 139.480469 215.9375 139.464844 214.929688 C 139.335938 214.910156 139.675781 215.308594 139.605469 215.445312 C 139.671875 215.140625 139.667969 214.824219 139.710938 214.515625 C 139.746094 214.207031 139.765625 213.890625 139.789062 213.582031 C 139.820312 213.273438 139.886719 212.980469 139.953125 212.695312 C 139.988281 212.554688 140.027344 212.417969 140.074219 212.289062 C 140.132812 212.164062 140.199219 212.046875 140.277344 211.933594 C 140.242188 212.097656 140.074219 211.960938 140.113281 211.960938 C 140.339844 211.402344 140.492188 211.492188 140.574219 211.105469 C 140.691406 211.113281 140.753906 210.652344 140.902344 210.273438 C 140.925781 210.050781 140.996094 210.203125 140.855469 210.523438 C 140.902344 210.394531 140.960938 210.144531 141.109375 209.871094 C 141.25 209.59375 141.414062 209.257812 141.625 208.914062 C 141.855469 208.585938 142.089844 208.230469 142.351562 207.925781 C 142.628906 207.628906 142.902344 207.351562 143.152344 207.144531 C 143.078125 207.113281 143.570312 206.410156 143.804688 206.210938 L 143.824219 206.417969 C 144.082031 206.304688 144.617188 205.792969 144.738281 205.875 C 144.933594 205.601562 144.460938 206.003906 144.027344 206.398438 C 143.625 206.828125 143.25 207.238281 143.515625 206.894531 C 143.644531 206.871094 143.824219 206.621094 143.972656 206.410156 C 144.128906 206.207031 144.269531 206.0625 144.261719 206.203125 C 144.5 206.019531 144.707031 205.804688 144.929688 205.605469 C 145.164062 205.425781 145.414062 205.269531 145.699219 205.1875 C 145.539062 205.25 145.402344 205.632812 145.808594 205.375 C 146.160156 205.136719 146.210938 205.109375 146.234375 205.070312 C 146.257812 205.03125 146.261719 205 146.5625 204.824219 L 146.925781 204.578125 C 146.878906 204.398438 147.644531 204.3125 147.28125 204.253906 C 147.425781 204.34375 148.441406 203.742188 148.441406 204.050781 L 148.386719 204.285156 C 148.730469 204.179688 148.902344 203.921875 149.171875 203.757812 C 149.222656 203.761719 149.328125 203.78125 149.316406 203.816406 C 149.308594 203.460938 150.191406 203.703125 150.597656 203.378906 C 150.996094 203.398438 151.496094 203.386719 151.941406 203.378906 L 151.960938 203.378906 C 151.960938 203.378906 151.972656 203.378906 151.972656 203.378906 L 151.976562 203.378906 C 151.976562 201.886719 151.976562 205.417969 151.976562 205.054688 C 151.976562 205.054688 151.9375 205.054688 151.9375 205.054688 L 151.855469 205.046875 C 151.800781 205.042969 151.75 205.035156 151.699219 205.03125 C 151.597656 205.023438 151.5 205.011719 151.410156 204.996094 C 151.234375 204.96875 151.09375 204.925781 151.003906 204.871094 C 150.699219 204.917969 150.410156 204.910156 150.113281 204.902344 C 149.8125 204.882812 149.496094 204.867188 149.171875 204.738281 C 149.308594 204.738281 149.492188 204.785156 149.546875 204.714844 C 149.148438 204.527344 149.03125 204.578125 148.636719 204.53125 C 148.6875 204.515625 148.488281 204.429688 148.238281 204.285156 C 147.988281 204.136719 147.683594 203.953125 147.484375 203.820312 C 146.90625 203.695312 147.023438 203.914062 146.925781 203.996094 C 146.746094 203.726562 146.339844 203.613281 145.929688 203.441406 C 145.53125 203.257812 145.085938 203.089844 144.902344 202.757812 C 145.085938 202.863281 145.71875 203.085938 145.339844 202.769531 C 145.203125 202.5 144.96875 202.378906 144.667969 202.261719 C 144.519531 202.199219 144.355469 202.140625 144.199219 202.042969 C 144.050781 201.941406 143.894531 201.8125 143.761719 201.636719 L 143.742188 201.980469 C 143.652344 201.785156 143.382812 201.601562 143.175781 201.433594 C 142.976562 201.253906 142.832031 201.113281 142.960938 201.054688 C 142.824219 200.976562 142.667969 200.769531 142.527344 200.617188 C 142.386719 200.460938 142.285156 200.335938 142.210938 200.457031 C 142.039062 200.125 141.792969 199.804688 141.578125 199.453125 C 141.472656 199.277344 141.363281 199.097656 141.253906 198.921875 C 141.144531 198.746094 141.03125 198.566406 140.949219 198.378906 C 140.777344 198.011719 140.59375 197.667969 140.511719 197.332031 C 140.425781 196.996094 140.386719 196.699219 140.421875 196.457031 C 140.300781 196.28125 140.234375 195.769531 140.125 195.90625 C 140.070312 196.28125 140.339844 196.339844 140.296875 196.488281 C 140.222656 196.316406 140.152344 196.296875 140.109375 196.285156 C 140.050781 195.832031 139.984375 195.492188 140.300781 195.839844 C 140.253906 195.347656 140.074219 195.132812 139.925781 194.863281 C 139.84375 194.734375 139.761719 194.585938 139.691406 194.398438 C 139.625 194.207031 139.558594 193.96875 139.574219 193.644531 C 139.683594 193.695312 139.722656 193.59375 139.683594 193.226562 C 139.613281 193 139.53125 192.75 139.476562 192.535156 C 139.519531 191.765625 139.722656 192.097656 139.902344 192.078125 C 139.871094 191.664062 139.882812 191.164062 139.746094 190.976562 L 139.976562 190.476562 C 139.8125 190.839844 139.867188 190.136719 139.824219 189.945312 L 139.867188 190.136719 C 139.945312 190.0625 139.898438 189.585938 139.875 189.347656 C 139.761719 189.402344 139.71875 189.886719 139.683594 190.152344 C 139.605469 189.941406 139.621094 189.617188 139.527344 189.335938 C 139.707031 189.425781 139.65625 188.664062 139.671875 188.339844 C 139.714844 187.964844 139.511719 187.917969 139.519531 187.808594 C 139.613281 187.796875 139.535156 187.195312 139.667969 187.484375 C 139.695312 187.613281 139.574219 187.777344 139.660156 187.988281 C 139.730469 187.742188 139.890625 187.769531 139.773438 187.261719 C 139.683594 186.875 139.421875 187.359375 139.53125 186.625 C 139.574219 186.820312 139.648438 186.855469 139.710938 187 L 139.800781 186.316406 L 139.640625 186.285156 C 139.679688 186.195312 139.695312 186.257812 139.71875 186.214844 C 139.546875 186.007812 139.667969 185.167969 139.472656 185.007812 C 139.453125 184.664062 139.585938 184.28125 139.605469 183.953125 L 139.617188 184.015625 C 139.714844 183.609375 139.652344 183.074219 139.542969 182.734375 L 139.578125 182.75 C 139.59375 182.53125 139.5625 182.011719 139.46875 181.734375 C 139.59375 181.175781 140.082031 181.542969 139.878906 180.933594 C 139.871094 180.367188 139.578125 180.046875 139.476562 180.273438 C 139.585938 179.253906 139.320312 178.101562 139.574219 177.15625 C 139.507812 177.011719 139.46875 177.101562 139.429688 176.804688 C 139.496094 175.3125 139.234375 173.652344 139.558594 172.464844 C 139.625 172.898438 139.71875 172.492188 139.8125 172.480469 C 139.667969 172.125 139.960938 172.050781 139.714844 171.921875 C 139.566406 171.960938 139.496094 171.921875 139.4375 172.34375 C 139.355469 171.453125 139.355469 170.101562 139.496094 169.605469 C 139.425781 169.851562 139.382812 169.660156 139.335938 169.464844 C 139.570312 169.53125 139.609375 168.875 139.523438 168.378906 L 139.382812 168.308594 L 139.527344 167.984375 C 139.484375 167.792969 139.226562 167.773438 139.367188 167.28125 C 139.421875 167.253906 139.476562 167.226562 139.519531 167.132812 C 139.402344 166.621094 139.207031 165.894531 139.324219 165.339844 L 139.535156 164.882812 C 139.511719 164.648438 139.382812 164.246094 139.324219 164.664062 C 139.449219 163.714844 139.46875 163.101562 139.648438 162.796875 C 139.210938 161.160156 139.191406 158.777344 139.21875 156.875 L 139.324219 156.929688 C 139.425781 156.417969 139.140625 156.664062 139.210938 156.304688 C 139.316406 156.46875 139.4375 155.914062 139.558594 156.316406 C 139.671875 155.582031 139.375 155.371094 139.324219 154.898438 C 139.1875 154.824219 139.417969 155.28125 139.238281 155.191406 C 139.1875 155.109375 139.347656 154.175781 139.136719 154.0625 C 139.21875 153.878906 139.378906 154.023438 139.460938 154.121094 L 139.359375 153.671875 C 139.609375 153.125 139.800781 154.921875 140.109375 154.347656 L 140.074219 153.933594 C 140.300781 153.542969 140.328125 155.027344 140.40625 153.988281 C 140.300781 153.542969 139.992188 153.15625 139.898438 153.554688 C 139.839844 152.621094 139.386719 153.121094 139.40625 152.117188 C 139.53125 151.84375 139.4375 152.925781 139.613281 152.730469 C 139.785156 152.257812 139.515625 151.78125 139.574219 151.359375 C 139.496094 151.828125 139.277344 151.433594 139.242188 151.128906 C 139.339844 150.621094 139.441406 151.460938 139.464844 150.738281 C 139.339844 150.617188 139.25 149.953125 139.164062 150.523438 C 138.886719 150.261719 139.242188 149.769531 139.027344 149.375 C 139.21875 149.140625 139.480469 150.125 139.578125 149.324219 C 139.386719 149.453125 139.324219 148.34375 139.039062 148.765625 C 139.09375 148.449219 139.246094 148.417969 139.359375 148.648438 C 139.476562 148.203125 139.015625 147.566406 139.386719 147.417969 L 139.195312 147.265625 C 139.257812 147.125 139.304688 146.925781 139.410156 146.699219 C 139.410156 146.304688 139.152344 145.433594 139.441406 145.46875 C 139.410156 145.34375 139.421875 144.449219 139.21875 144.796875 C 139.09375 145.355469 139.367188 145.4375 139.09375 145.746094 C 139.320312 145.355469 139.066406 144.945312 138.992188 144.621094 L 139.105469 144.570312 C 139.0625 144.375 139.089844 143.933594 138.964844 143.816406 C 139.03125 143.964844 139.105469 143.886719 139.132812 143.734375 L 138.960938 143.535156 C 138.875 142.753906 139.261719 143.351562 139.210938 142.59375 L 139.34375 143.167969 C 139.316406 143.042969 139.476562 142.785156 139.421875 142.421875 C 139.265625 142.277344 139.078125 142.015625 138.957031 141.890625 C 138.886719 141.464844 139.132812 141.699219 138.972656 141.28125 L 139.160156 141.832031 C 139.210938 141.914062 139.421875 141.457031 139.417969 140.890625 C 139.363281 140.523438 139.136719 139.960938 139.050781 140.535156 C 139.050781 140.246094 139.144531 139.847656 139.261719 140.074219 C 139.207031 139.425781 139.09375 140.160156 138.992188 139.601562 C 139.09375 139.371094 139.246094 138.660156 139.398438 138.230469 L 139.664062 138.8125 L 139.664062 138.425781 C 139.875 138.925781 139.828125 138.167969 140.046875 138.453125 C 140.082031 138.1875 140.007812 137.867188 139.949219 137.609375 C 139.59375 138.386719 139.464844 136.742188 139.140625 136.964844 C 139.050781 135.902344 139.925781 136.300781 139.421875 135.191406 C 139.335938 135.375 139.09375 134.851562 139.183594 135.519531 C 139.21875 134.859375 138.859375 135.070312 138.992188 134.292969 C 139.125 134.871094 139.324219 133.671875 139.511719 134.507812 C 139.40625 134.453125 139.433594 134.972656 139.460938 135.101562 C 139.585938 134.828125 139.789062 135.15625 139.789062 134.480469 C 139.753906 134.070312 139.75 133.503906 139.582031 133.585938 C 139.394531 133.601562 139.601562 134.214844 139.414062 133.949219 C 139.347656 133.125 139.628906 132.988281 139.304688 132.648438 C 139.328125 133.167969 139.140625 133.296875 139.011719 133.289062 L 138.933594 132.683594 L 139.058594 132.800781 C 139.148438 131.828125 138.835938 132.515625 138.867188 131.574219 L 139.109375 131.132812 C 139.320312 131.355469 139.019531 132.5 139.359375 132.332031 C 139.375 131.722656 139.203125 131.519531 139.289062 130.945312 C 139.320312 131.070312 139.324219 131.246094 139.359375 131.375 C 139.371094 131.15625 139.824219 130.9375 139.558594 130.066406 C 139.453125 129.621094 139.4375 129.949219 139.308594 129.9375 C 139.269531 128.957031 139.140625 128.664062 139.117188 128.03125 C 139.367188 128.164062 139.144531 126.917969 139.394531 127.613281 C 139.25 127.933594 139.265625 129.351562 139.5 129.699219 C 139.796875 129.34375 139.460938 130.46875 139.757812 130.679688 C 139.765625 129.894531 140.054688 129.933594 140.246094 129.804688 C 140.257812 129.585938 140.179688 129.375 140.148438 129.246094 C 139.96875 129.15625 139.972656 129.441406 139.789062 129.457031 C 139.835938 128.582031 139.734375 127.734375 139.558594 127.25 C 139.648438 126.957031 139.828125 127.046875 139.84375 127.394531 C 139.792969 126.351562 139.816406 125.234375 139.871094 124.242188 C 139.578125 124.886719 139.800781 123.136719 139.558594 123.574219 C 139.496094 124.109375 139.285156 124.566406 139.152344 124.273438 C 139.171875 123.941406 139.28125 124.285156 139.34375 124.144531 C 139.183594 123.722656 139.601562 123.488281 139.347656 123.074219 C 139.441406 124.023438 139.703125 123.257812 139.933594 123.433594 C 139.804688 122.75 140.09375 123.464844 140.09375 122.785156 C 140.03125 122.441406 139.972656 122.058594 139.925781 121.667969 C 139.898438 121.484375 139.863281 121.300781 139.835938 121.113281 C 139.808594 120.933594 139.789062 120.75 139.738281 120.574219 C 139.753906 120.347656 139.757812 120.085938 139.707031 119.824219 C 139.644531 119.5625 139.578125 119.285156 139.484375 119.023438 C 139.375 118.765625 139.265625 118.515625 139.152344 118.285156 C 139.023438 118.0625 138.90625 117.855469 138.816406 117.679688 C 138.71875 117.253906 139.082031 117.382812 138.875 116.953125 C 138.582031 116.484375 138.855469 117.445312 138.523438 116.695312 C 138.554688 116.703125 138.585938 116.714844 138.613281 116.730469 C 138.519531 116.648438 138.328125 116.324219 138.109375 116.019531 C 137.859375 115.738281 137.582031 115.484375 137.371094 115.527344 L 137.742188 115.515625 C 137.65625 115.382812 137.515625 115.324219 137.398438 115.265625 C 137.457031 115.195312 137.378906 115.011719 137.609375 115.140625 C 137.484375 114.898438 137.277344 114.714844 137.042969 114.558594 C 136.796875 114.414062 136.539062 114.292969 136.3125 114.128906 L 136.5 114.480469 C 136.398438 114.421875 136.300781 114.363281 136.210938 114.304688 C 136.113281 114.253906 136.019531 114.203125 135.929688 114.152344 C 135.75 114.050781 135.59375 113.941406 135.425781 113.839844 C 135.082031 113.664062 134.757812 113.441406 134.308594 113.332031 L 134.390625 113.1875 C 134.207031 113.160156 134.027344 113.121094 133.84375 113.097656 C 134.023438 112.980469 133.554688 112.757812 133.238281 112.8125 L 133.992188 112.800781 L 134.757812 112.871094 C 135.109375 113.101562 134.261719 112.902344 134.449219 113.136719 C 134.609375 113.316406 135.382812 113.660156 135.585938 113.578125 C 135.292969 113.417969 135.261719 113.445312 135.007812 113.386719 C 135 113.132812 135.460938 113.359375 135.761719 113.34375 C 135.597656 113.269531 135.398438 113.097656 135.332031 113.144531 C 135.511719 113.175781 135.691406 113.214844 135.882812 113.304688 C 136.070312 113.398438 136.277344 113.515625 136.535156 113.671875 C 136.144531 113.535156 136.644531 113.898438 136.476562 113.875 C 136.554688 113.804688 136.710938 113.84375 136.921875 113.957031 C 137.132812 114.074219 137.40625 114.265625 137.652344 114.542969 C 137.710938 114.671875 137.808594 114.785156 137.933594 114.898438 C 138.054688 115.011719 138.1875 115.136719 138.339844 115.257812 C 138.652344 115.492188 138.964844 115.796875 139.199219 116.160156 C 138.820312 116 138.453125 115.738281 138.042969 115.4375 C 138.316406 115.878906 138.425781 115.867188 138.652344 116.335938 C 138.929688 116.441406 139.210938 116.46875 139.65625 117.023438 L 139.546875 117.125 C 139.722656 117.382812 139.851562 117.496094 139.984375 117.632812 C 140.050781 117.699219 140.117188 117.777344 140.1875 117.882812 C 140.246094 117.992188 140.304688 118.132812 140.363281 118.328125 C 140.417969 118.496094 140.476562 118.660156 140.519531 118.828125 C 140.554688 119 140.59375 119.167969 140.632812 119.339844 C 140.71875 119.671875 140.757812 120.011719 140.800781 120.339844 C 140.859375 120.667969 140.855469 120.992188 140.871094 121.292969 C 140.886719 121.601562 140.882812 121.871094 140.878906 122.125 L 140.730469 122.160156 C 141.050781 122.71875 140.847656 124.023438 140.992188 124.78125 C 140.847656 126.058594 141.132812 127.5625 140.878906 128.21875 C 140.992188 130.480469 141.105469 132.457031 141.050781 134.796875 L 140.832031 134.40625 C 140.992188 134.824219 140.710938 134.679688 140.742188 135.089844 C 140.914062 134.617188 140.964844 135.660156 141.097656 135.949219 C 140.929688 136.996094 141.113281 138.332031 141.261719 139.257812 L 141.113281 139.296875 C 141.390625 140.230469 141.144531 141.34375 141.101562 142.507812 C 141.039062 142.644531 140.898438 142.855469 140.917969 143.203125 C 141.160156 143.832031 141.140625 144.164062 141.289062 145.089844 C 141.289062 145.765625 141.230469 146.863281 141.136719 147.554688 C 141.472656 150.097656 141.257812 152.695312 141.460938 155.34375 L 141.289062 155.53125 C 141.660156 158.097656 141.320312 161.25 141.515625 163.441406 L 141.214844 163.226562 C 141.121094 163.914062 141.289062 164.792969 141.503906 164.617188 C 141.410156 165.308594 141.648438 166.335938 141.402344 166.773438 C 141.347656 167.476562 141.542969 167.632812 141.582031 168.21875 C 141.46875 169.625 141.496094 170.152344 141.550781 171.476562 L 141.570312 171.148438 C 141.503906 171 141.375 170.988281 141.355469 171.316406 C 141.441406 171.8125 141.277344 173.136719 141.632812 172.644531 C 141.425781 174.0625 141.800781 175.949219 141.519531 177.328125 C 141.621094 177.210938 141.636719 177.558594 141.703125 177.703125 C 141.707031 178.949219 141.511719 180.253906 141.675781 181.246094 C 141.628906 181.441406 141.511719 180.933594 141.5 181.433594 C 141.535156 181.734375 141.628906 181.441406 141.683594 181.8125 C 141.863281 183.824219 141.496094 185.886719 141.542969 187.722656 C 141.636719 189.351562 141.660156 191.015625 141.664062 192.660156 C 141.664062 194.140625 141.976562 195.589844 142.558594 196.855469 L 142.480469 196.855469 C 142.644531 197.039062 142.769531 197.257812 142.875 197.496094 C 142.988281 197.730469 143.109375 197.976562 143.222656 198.210938 C 143.328125 198.457031 143.472656 198.675781 143.625 198.859375 C 143.78125 199.039062 143.9375 199.199219 144.140625 199.269531 C 144.238281 199.472656 144.683594 199.910156 144.472656 199.886719 C 144.628906 200 144.808594 200.132812 144.988281 200.304688 C 145.171875 200.46875 145.347656 200.6875 145.574219 200.859375 C 145.792969 201.039062 146.011719 201.246094 146.257812 201.398438 C 146.511719 201.550781 146.769531 201.679688 147.03125 201.769531 C 146.949219 201.710938 146.894531 201.695312 146.777344 201.660156 C 146.988281 201.84375 147.230469 201.964844 147.460938 202.085938 C 147.699219 202.203125 147.933594 202.320312 148.1875 202.390625 C 148.4375 202.476562 148.6875 202.558594 148.945312 202.648438 C 149.207031 202.714844 149.472656 202.796875 149.746094 202.90625 C 149.625 202.90625 149.410156 202.875 149.359375 202.933594 C 149.769531 203.210938 150.460938 202.84375 150.65625 203.226562 C 150.917969 203.265625 150.859375 203.085938 150.699219 203.070312 C 150.859375 203.109375 151.015625 203.125 151.175781 203.136719 L 151.664062 203.171875 L 151.90625 203.191406 L 151.96875 203.191406 C 151.96875 203.191406 151.984375 203.195312 151.984375 203.195312 C 151.984375 201.371094 151.984375 205.683594 151.984375 205.238281 C 151.984375 205.238281 151.980469 205.238281 151.980469 205.238281 L 151.972656 205.238281 C 151.972656 205.238281 151.945312 205.238281 151.945312 205.238281 L 151.820312 205.246094 L 151.324219 205.269531 C 151.160156 205.28125 150.992188 205.28125 150.828125 205.300781 L 150.339844 205.386719 L 149.84375 205.472656 C 149.683594 205.515625 149.523438 205.566406 149.363281 205.613281 C 148.078125 205.980469 146.878906 206.621094 145.835938 207.417969 C 145.011719 207.886719 144.917969 207.835938 144.867188 207.75 C 144.828125 207.667969 144.863281 207.601562 144.378906 208.210938 C 144.238281 208.246094 144.402344 208.363281 144.339844 208.324219 C 144.171875 208.574219 143.949219 208.679688 143.746094 208.773438 C 143.539062 208.871094 143.355469 208.964844 143.304688 209.191406 C 143.570312 209.183594 143.234375 209.480469 143.328125 209.570312 C 142.902344 209.984375 142.679688 210.269531 142.464844 210.523438 C 142.242188 210.769531 142.132812 211.050781 141.992188 211.503906 L 141.921875 211.394531 C 141.863281 211.671875 141.816406 211.957031 141.75 212.242188 C 141.6875 212.523438 141.59375 212.796875 141.558594 213.082031 C 141.515625 213.363281 141.453125 213.632812 141.441406 213.898438 C 141.441406 214.164062 141.460938 214.421875 141.519531 214.652344 C 141.507812 214.746094 141.488281 214.832031 141.480469 214.925781 L 141.46875 215.199219 L 141.449219 215.746094 C 141.4375 215.917969 141.4375 216.121094 141.445312 216.324219 L 141.453125 216.929688 C 141.464844 217.738281 141.476562 218.542969 141.492188 219.34375 C 141.523438 220.949219 141.554688 222.542969 141.585938 224.132812 C 141.648438 227.308594 141.710938 230.46875 141.734375 233.652344 C 141.664062 239.949219 141.828125 246.105469 141.632812 252.5 C 141.34375 254 141.347656 254.109375 141.46875 255.753906 C 141.421875 255.6875 141.410156 255.582031 141.367188 255.695312 C 141.605469 255.78125 141.390625 256.855469 141.621094 257.011719 C 141.574219 259.375 141.640625 261.554688 141.640625 263.980469 C 141.617188 263.597656 141.417969 263.40625 141.4375 263.863281 L 141.589844 264.339844 L 141.523438 264.417969 C 141.5625 264.730469 141.679688 265.070312 141.753906 264.75 C 141.964844 270.855469 141.480469 276.863281 141.539062 282.84375 C 141.488281 283.558594 141.488281 284.417969 141.503906 285.292969 C 141.515625 285.730469 141.523438 286.171875 141.539062 286.601562 C 141.550781 286.804688 141.539062 287.074219 141.535156 287.300781 C 141.523438 287.539062 141.535156 287.769531 141.507812 287.992188 C 141.058594 290.601562 139.644531 292.796875 137.796875 294.351562 C 136.867188 295.132812 135.8125 295.757812 134.667969 296.207031 C 134.097656 296.433594 133.5 296.601562 132.886719 296.742188 C 132.574219 296.792969 132.265625 296.859375 131.949219 296.902344 L 131.472656 296.941406 L 131.109375 296.976562 L 131.046875 296.976562 C 131.046875 296.976562 131.019531 296.980469 131.019531 296.980469 L 131.003906 296.980469 C 131.003906 296.980469 130.996094 296.980469 130.996094 296.980469 L 130.992188 296.980469 C 130.992188 296.523438 130.992188 298.015625 130.988281 295.949219 L 130.988281 296.980469 C 130.988281 296.980469 130.988281 296.980469 130.996094 296.976562 C 131.003906 296.972656 131.011719 296.964844 131.019531 296.953125 C 131.042969 296.933594 131.078125 296.910156 131.128906 296.875 C 131.222656 296.8125 131.367188 296.722656 131.574219 296.625 C 131.777344 296.53125 132.046875 296.429688 132.371094 296.289062 C 132.535156 296.222656 132.714844 296.160156 132.917969 296.097656 C 133.113281 296.019531 133.324219 295.9375 133.558594 295.859375 Z M 133.546875 295.871094 " fill-opacity="1" fill-rule="nonzero"/></g><path fill="#262626" d="M 132.679688 112.210938 C 132.832031 112.355469 133.355469 112.503906 132.898438 112.59375 C 132.867188 112.476562 132.609375 112.308594 132.679688 112.210938 Z M 132.679688 112.210938 " fill-opacity="1" fill-rule="nonzero"/><path fill="#262626" d="M 139.59375 122.890625 C 139.628906 122.910156 139.546875 123.089844 139.523438 123.136719 C 139.515625 122.964844 139.414062 122.800781 139.476562 122.660156 C 139.488281 122.839844 139.542969 122.808594 139.59375 122.890625 Z M 139.59375 122.890625 " fill-opacity="1" fill-rule="nonzero"/><path fill="#262626" d="M 139.519531 126.523438 C 139.414062 126.46875 139.328125 125.691406 139.316406 125.230469 Z M 139.519531 126.523438 " fill-opacity="1" fill-rule="nonzero"/><path fill="#262626" d="M 139.082031 129.90625 C 138.988281 130.199219 138.941406 130.121094 138.945312 129.726562 C 139.003906 129.695312 139.03125 129.828125 139.082031 129.90625 Z M 139.082031 129.90625 " fill-opacity="1" fill-rule="nonzero"/><path fill="#262626" d="M 139.324219 130.148438 C 139.324219 130.429688 139.261719 130.566406 139.203125 130.707031 C 139.292969 130.695312 139.144531 130.054688 139.324219 130.148438 Z M 139.324219 130.148438 " fill-opacity="1" fill-rule="nonzero"/><path fill="#262626" d="M 139.011719 137.492188 C 139.019531 137.671875 139.109375 138.050781 138.988281 138.214844 C 139.074219 138.03125 138.855469 137.355469 139.011719 137.492188 Z M 139.011719 137.492188 " fill-opacity="1" fill-rule="nonzero"/><path fill="#262626" d="M 139.175781 140.90625 C 139.167969 141.015625 139.152344 141.0625 139.175781 141.191406 C 139.128906 141.394531 139.046875 141.179688 139.039062 141.007812 L 139.171875 140.90625 Z M 139.175781 140.90625 " fill-opacity="1" fill-rule="nonzero"/><path fill="#262626" d="M 144.273438 202.347656 C 144.15625 202.285156 144.039062 202.21875 143.933594 202.136719 L 144.042969 202.097656 C 144.113281 202.1875 144.191406 202.269531 144.269531 202.347656 Z M 144.273438 202.347656 " fill-opacity="1" fill-rule="nonzero"/><path fill="#262626" d="M 139.375 217.011719 C 139.441406 217.382812 139.273438 217.269531 139.257812 217.332031 C 139.246094 217 139.386719 217.453125 139.375 217.011719 Z M 139.375 217.011719 " fill-opacity="1" fill-rule="nonzero"/><path fill="#262626" d="M 139.90625 231.699219 L 139.902344 231.585938 L 140.125 231.625 Z M 139.90625 231.699219 " fill-opacity="1" fill-rule="nonzero"/><g clip-path="url(#ce242e7616)"><path fill="#262626" d="M 207.582031 37.851562 C 207.027344 37.855469 207.175781 37.933594 207.296875 37.972656 C 207.359375 37.996094 207.410156 38.007812 207.371094 38.007812 C 207.347656 38.007812 207.304688 38 207.222656 37.988281 C 207.179688 37.984375 207.128906 37.972656 207.074219 37.964844 C 207.042969 37.964844 207.011719 37.953125 206.976562 37.949219 L 206.921875 37.9375 L 206.890625 37.9375 C 206.890625 37.9375 206.875 37.933594 206.875 37.933594 C 206.875 37.933594 206.875 37.933594 206.871094 37.933594 C 206.871094 38.125 206.871094 37.5 206.871094 38.367188 L 206.871094 37.929688 C 206.871094 37.929688 206.875 37.917969 206.875 37.917969 L 206.890625 37.90625 L 206.921875 37.886719 C 206.921875 37.886719 206.960938 37.863281 206.988281 37.851562 C 207.03125 37.832031 207.082031 37.8125 207.144531 37.800781 C 207.261719 37.78125 207.40625 37.789062 207.582031 37.847656 Z M 207.582031 37.851562 " fill-opacity="1" fill-rule="nonzero"/></g><g clip-path="url(#8236573532)"><path fill="#262626" d="M 210.121094 294.789062 C 211.699219 293.945312 213.46875 293.066406 215.011719 291.730469 C 216.546875 290.425781 217.871094 288.699219 218.316406 286.851562 C 218.433594 286.425781 218.671875 287.117188 218.921875 286.132812 C 218.996094 285.671875 219.039062 285.171875 219.125 284.667969 C 219.144531 284.414062 219.164062 284.148438 219.1875 283.878906 C 219.210938 283.613281 219.242188 283.335938 219.238281 283.0625 C 219.277344 281.953125 219.238281 280.757812 219.28125 279.535156 C 219.355469 277.097656 219.5625 274.558594 219.792969 272.34375 L 219.914062 272.617188 C 220 271.773438 219.605469 270.742188 219.660156 269.847656 C 219.742188 269.839844 219.773438 270.132812 219.882812 269.921875 C 219.644531 269.699219 219.773438 268.304688 219.59375 267.929688 C 219.691406 267.578125 219.878906 267.613281 219.988281 267.152344 L 219.710938 266.644531 C 219.058594 265.21875 219.757812 263.191406 219.421875 261.246094 C 219.480469 261.339844 219.53125 261.53125 219.59375 261.378906 C 219.195312 258.261719 219.273438 254.367188 219.125 250.882812 C 219.222656 251.019531 219.402344 251.148438 219.507812 250.945312 C 219.21875 250.769531 219.144531 249.695312 219.089844 248.761719 C 219.386719 248.34375 218.820312 247.160156 218.984375 246.0625 L 219.046875 246.15625 C 218.738281 245.34375 219.226562 244.957031 218.855469 244.296875 L 219.089844 243.785156 C 218.671875 243.425781 219.304688 242.609375 219.089844 241.941406 L 219.003906 241.960938 C 218.902344 241.332031 219.109375 241.003906 219.039062 240.417969 L 219.089844 240.359375 C 218.976562 238.988281 219.210938 238.195312 218.886719 238.230469 C 219.144531 237.75 219.003906 239.554688 219.386719 238.800781 C 219.046875 234.292969 219.113281 229.652344 219.109375 225.109375 C 219.242188 224.597656 219.28125 224.269531 219.40625 224.152344 C 219.339844 223.699219 219.34375 222.445312 219.179688 222.035156 C 219.1875 222.1875 219.347656 221.746094 219.363281 221.503906 C 219.488281 220.679688 219.007812 220.601562 219.152344 219.699219 C 219.238281 220.0625 219.34375 220.183594 219.464844 220.0625 C 219.210938 219.285156 219.253906 218.257812 219.171875 217.34375 C 219.226562 217.484375 219.257812 217.707031 219.359375 217.667969 C 219.070312 216.671875 219.421875 215.847656 219.238281 214.972656 L 219.425781 215.296875 C 219.65625 213.890625 219.035156 214.878906 219.164062 213.660156 C 219.226562 213.953125 219.296875 213.847656 219.375 213.90625 C 219.035156 212.769531 219.144531 210.925781 219.027344 209.792969 C 219.054688 209.859375 219.105469 209.847656 219.105469 209.847656 C 219.0625 208.613281 219.171875 207.316406 219.019531 205.960938 C 219.105469 205.464844 219.476562 206.121094 219.410156 204.8125 C 219.035156 204.859375 219.253906 202.59375 218.824219 203.363281 C 218.886719 202.246094 219.027344 200.476562 218.902344 199.730469 C 219.042969 200.230469 219.363281 199.1875 219.394531 200.113281 L 219.625 199.410156 C 219.777344 199.511719 219.574219 200.132812 219.765625 199.910156 C 219.753906 199.445312 219.605469 198.089844 219.664062 197.671875 C 219.429688 196.808594 219.003906 196.019531 218.953125 194.621094 C 219.101562 195.277344 219.371094 194.25 219.4375 194.691406 L 218.710938 192.746094 C 218.691406 192.28125 219.011719 192.640625 218.910156 191.96875 C 218.808594 192.003906 218.75 191.714844 218.667969 191.503906 C 218.707031 191.332031 218.570312 189.578125 218.941406 189.371094 C 219.089844 189.167969 219.019531 190.128906 219.152344 189.617188 C 219.152344 188.761719 219.019531 188.71875 219.011719 187.863281 L 219.0625 187.847656 C 219.121094 187.28125 218.90625 186.179688 218.695312 186.792969 C 218.6875 187.183594 218.921875 186.644531 218.8125 187.226562 C 218.59375 186.828125 218.539062 185.828125 218.535156 184.972656 C 218.59375 185.261719 218.691406 185.226562 218.800781 185.347656 C 218.507812 184.191406 218.386719 183.007812 218.367188 181.601562 C 218.1875 181.570312 218.660156 182.128906 218.558594 182.320312 C 218.65625 181.890625 218.644531 181.453125 218.707031 181.019531 C 218.757812 180.585938 218.785156 180.144531 218.8125 179.710938 C 218.859375 179.285156 218.953125 178.871094 219.042969 178.472656 C 219.09375 178.273438 219.152344 178.085938 219.21875 177.90625 C 219.296875 177.730469 219.390625 177.566406 219.496094 177.40625 C 219.445312 177.636719 219.21875 177.449219 219.269531 177.449219 C 219.582031 176.664062 219.796875 176.789062 219.910156 176.25 C 220.074219 176.261719 220.160156 175.617188 220.367188 175.085938 C 220.398438 174.777344 220.496094 174.988281 220.300781 175.4375 C 220.367188 175.253906 220.449219 174.910156 220.652344 174.527344 C 220.851562 174.136719 221.082031 173.664062 221.371094 173.183594 C 221.695312 172.726562 222.019531 172.230469 222.386719 171.800781 C 222.773438 171.390625 223.152344 171 223.503906 170.710938 C 223.402344 170.664062 224.082031 169.6875 224.410156 169.40625 L 224.433594 169.695312 C 224.796875 169.539062 225.539062 168.824219 225.710938 168.9375 C 225.984375 168.554688 225.328125 169.113281 224.71875 169.664062 C 224.160156 170.265625 223.640625 170.84375 224.007812 170.359375 C 224.183594 170.328125 224.433594 169.976562 224.644531 169.6875 C 224.863281 169.398438 225.058594 169.195312 225.046875 169.394531 C 225.378906 169.140625 225.667969 168.839844 225.980469 168.558594 C 226.304688 168.308594 226.652344 168.089844 227.050781 167.972656 C 226.824219 168.0625 226.636719 168.597656 227.203125 168.238281 C 227.691406 167.90625 227.761719 167.863281 227.792969 167.808594 C 227.828125 167.757812 227.832031 167.710938 228.25 167.46875 L 228.757812 167.121094 C 228.691406 166.871094 229.761719 166.753906 229.25 166.671875 C 229.453125 166.792969 230.867188 165.953125 230.867188 166.386719 L 230.792969 166.710938 C 231.273438 166.5625 231.511719 166.203125 231.886719 165.972656 C 231.957031 165.984375 232.105469 166.007812 232.089844 166.058594 C 232.074219 165.558594 233.308594 165.894531 233.871094 165.445312 C 234.429688 165.472656 235.121094 165.457031 235.742188 165.445312 L 235.773438 165.445312 C 235.773438 165.445312 235.789062 165.445312 235.789062 165.445312 L 235.792969 165.445312 C 235.792969 163.355469 235.792969 168.296875 235.792969 167.789062 C 235.792969 167.789062 235.738281 167.789062 235.738281 167.789062 L 235.625 167.777344 C 235.550781 167.773438 235.476562 167.761719 235.40625 167.757812 C 235.265625 167.742188 235.132812 167.726562 235.003906 167.707031 C 234.757812 167.664062 234.558594 167.609375 234.4375 167.53125 C 234.015625 167.597656 233.613281 167.585938 233.195312 167.574219 C 232.777344 167.546875 232.339844 167.527344 231.886719 167.34375 C 232.078125 167.34375 232.332031 167.410156 232.410156 167.3125 C 231.855469 167.046875 231.691406 167.121094 231.140625 167.058594 C 231.210938 167.035156 230.933594 166.917969 230.585938 166.710938 C 230.238281 166.503906 229.8125 166.246094 229.535156 166.0625 C 228.730469 165.886719 228.894531 166.191406 228.757812 166.308594 C 228.507812 165.933594 227.941406 165.773438 227.371094 165.535156 C 226.816406 165.273438 226.191406 165.039062 225.9375 164.574219 C 226.191406 164.722656 227.074219 165.035156 226.550781 164.59375 C 226.355469 164.21875 226.03125 164.042969 225.613281 163.882812 C 225.410156 163.792969 225.179688 163.714844 224.960938 163.574219 C 224.75 163.433594 224.535156 163.253906 224.347656 163.007812 L 224.324219 163.488281 C 224.195312 163.21875 223.824219 162.957031 223.53125 162.722656 C 223.257812 162.472656 223.054688 162.273438 223.234375 162.191406 C 223.042969 162.085938 222.824219 161.796875 222.632812 161.582031 C 222.4375 161.363281 222.292969 161.1875 222.1875 161.355469 C 221.949219 160.890625 221.605469 160.449219 221.3125 159.953125 C 221.164062 159.710938 221.011719 159.460938 220.859375 159.210938 C 220.703125 158.964844 220.546875 158.714844 220.433594 158.453125 C 220.195312 157.9375 219.933594 157.460938 219.824219 156.992188 C 219.707031 156.523438 219.648438 156.101562 219.695312 155.765625 C 219.527344 155.523438 219.4375 154.800781 219.28125 154.996094 C 219.207031 155.515625 219.582031 155.601562 219.523438 155.808594 C 219.421875 155.566406 219.324219 155.542969 219.261719 155.527344 C 219.179688 154.890625 219.089844 154.414062 219.527344 154.90625 C 219.464844 154.214844 219.21875 153.914062 219.007812 153.539062 C 218.894531 153.355469 218.777344 153.148438 218.683594 152.886719 C 218.589844 152.621094 218.492188 152.289062 218.519531 151.835938 C 218.671875 151.90625 218.722656 151.761719 218.671875 151.246094 C 218.574219 150.929688 218.457031 150.578125 218.382812 150.277344 C 218.441406 149.203125 218.722656 149.667969 218.976562 149.640625 C 218.929688 149.066406 218.945312 148.359375 218.757812 148.101562 L 219.078125 147.402344 C 218.851562 147.914062 218.925781 146.929688 218.867188 146.65625 L 218.925781 146.929688 C 219.035156 146.820312 218.96875 146.15625 218.9375 145.820312 C 218.777344 145.898438 218.71875 146.574219 218.671875 146.949219 C 218.558594 146.652344 218.585938 146.199219 218.453125 145.804688 C 218.703125 145.933594 218.632812 144.867188 218.65625 144.414062 C 218.710938 143.886719 218.433594 143.820312 218.441406 143.667969 C 218.570312 143.652344 218.460938 142.8125 218.644531 143.21875 C 218.6875 143.398438 218.519531 143.628906 218.636719 143.921875 C 218.734375 143.578125 218.957031 143.617188 218.792969 142.902344 C 218.671875 142.363281 218.304688 143.042969 218.457031 142.015625 C 218.519531 142.285156 218.621094 142.335938 218.707031 142.542969 L 218.835938 141.582031 L 218.609375 141.542969 C 218.667969 141.414062 218.6875 141.5 218.71875 141.441406 C 218.476562 141.152344 218.644531 139.976562 218.375 139.757812 C 218.351562 139.273438 218.535156 138.738281 218.558594 138.277344 L 218.578125 138.363281 C 218.710938 137.796875 218.625 137.046875 218.472656 136.574219 L 218.523438 136.597656 C 218.542969 136.292969 218.503906 135.5625 218.371094 135.175781 C 218.542969 134.394531 219.226562 134.910156 218.941406 134.054688 C 218.929688 133.265625 218.523438 132.816406 218.382812 133.132812 C 218.535156 131.707031 218.160156 130.097656 218.519531 128.777344 C 218.425781 128.570312 218.371094 128.699219 218.316406 128.28125 C 218.40625 126.195312 218.042969 123.875 218.492188 122.210938 C 218.589844 122.820312 218.71875 122.253906 218.851562 122.238281 C 218.644531 121.738281 219.058594 121.636719 218.710938 121.457031 C 218.507812 121.507812 218.40625 121.457031 218.324219 122.042969 C 218.214844 120.796875 218.214844 118.90625 218.40625 118.210938 C 218.308594 118.558594 218.25 118.289062 218.1875 118.019531 C 218.515625 118.109375 218.566406 117.191406 218.449219 116.5 L 218.25 116.402344 L 218.453125 115.949219 C 218.390625 115.683594 218.035156 115.652344 218.226562 114.964844 C 218.304688 114.929688 218.382812 114.886719 218.441406 114.761719 C 218.28125 114.039062 218.003906 113.027344 218.171875 112.25 L 218.460938 111.613281 C 218.433594 111.28125 218.253906 110.71875 218.171875 111.308594 C 218.34375 109.976562 218.371094 109.117188 218.621094 108.695312 C 218.007812 106.40625 217.984375 103.074219 218.023438 100.414062 L 218.171875 100.488281 C 218.308594 99.773438 217.914062 100.117188 218.015625 99.617188 C 218.15625 99.847656 218.324219 99.070312 218.5 99.632812 C 218.65625 98.605469 218.238281 98.3125 218.171875 97.648438 C 217.980469 97.546875 218.300781 98.183594 218.050781 98.054688 C 217.980469 97.945312 218.203125 96.636719 217.90625 96.480469 C 218.023438 96.226562 218.242188 96.425781 218.359375 96.5625 L 218.21875 95.933594 C 218.566406 95.167969 218.835938 97.679688 219.261719 96.878906 L 219.21875 96.300781 C 219.527344 95.75 219.570312 97.828125 219.675781 96.378906 C 219.527344 95.75 219.101562 95.210938 218.96875 95.769531 C 218.886719 94.464844 218.257812 95.164062 218.285156 93.761719 C 218.457031 93.378906 218.324219 94.890625 218.570312 94.617188 C 218.808594 93.957031 218.4375 93.289062 218.519531 92.699219 C 218.40625 93.355469 218.105469 92.804688 218.054688 92.378906 C 218.191406 91.664062 218.335938 92.84375 218.367188 91.828125 C 218.191406 91.660156 218.066406 90.730469 217.949219 91.53125 C 217.5625 91.164062 218.054688 90.476562 217.753906 89.925781 C 218.023438 89.59375 218.386719 90.972656 218.523438 89.855469 C 218.257812 90.035156 218.167969 88.484375 217.773438 89.070312 C 217.851562 88.628906 218.058594 88.585938 218.21875 88.90625 C 218.382812 88.285156 217.738281 87.394531 218.257812 87.1875 L 217.988281 86.972656 C 218.074219 86.777344 218.140625 86.5 218.289062 86.183594 C 218.289062 85.632812 217.925781 84.414062 218.332031 84.464844 C 218.289062 84.285156 218.304688 83.035156 218.023438 83.519531 C 217.851562 84.300781 218.226562 84.417969 217.851562 84.851562 C 218.160156 84.300781 217.808594 83.730469 217.707031 83.273438 L 217.867188 83.203125 C 217.804688 82.933594 217.839844 82.316406 217.667969 82.152344 C 217.757812 82.355469 217.867188 82.25 217.902344 82.035156 L 217.664062 81.753906 C 217.546875 80.664062 218.082031 81.5 218.015625 80.441406 L 218.199219 81.246094 C 218.15625 81.066406 218.382812 80.710938 218.304688 80.199219 C 218.085938 80 217.824219 79.632812 217.65625 79.460938 C 217.5625 78.863281 217.902344 79.191406 217.679688 78.601562 L 217.941406 79.375 C 218.015625 79.492188 218.304688 78.851562 218.300781 78.058594 C 218.222656 77.546875 217.90625 76.757812 217.789062 77.5625 C 217.789062 77.160156 217.917969 76.597656 218.082031 76.921875 C 218.003906 76.011719 217.847656 77.039062 217.707031 76.257812 C 217.851562 75.9375 218.058594 74.941406 218.273438 74.339844 L 218.640625 75.15625 L 218.640625 74.609375 C 218.9375 75.3125 218.871094 74.253906 219.175781 74.652344 C 219.226562 74.277344 219.121094 73.828125 219.039062 73.472656 C 218.542969 74.558594 218.367188 72.257812 217.914062 72.570312 C 217.789062 71.085938 219.007812 71.640625 218.304688 70.089844 C 218.1875 70.347656 217.847656 69.613281 217.972656 70.550781 C 218.023438 69.625 217.519531 69.921875 217.707031 68.832031 C 217.890625 69.640625 218.167969 67.964844 218.433594 69.132812 C 218.285156 69.054688 218.320312 69.785156 218.359375 69.964844 C 218.535156 69.582031 218.8125 70.039062 218.8125 69.097656 C 218.769531 68.519531 218.761719 67.730469 218.527344 67.839844 C 218.269531 67.867188 218.554688 68.722656 218.292969 68.351562 C 218.203125 67.199219 218.59375 67.011719 218.140625 66.53125 C 218.175781 67.261719 217.914062 67.4375 217.734375 67.429688 L 217.628906 66.582031 L 217.800781 66.746094 C 217.921875 65.386719 217.488281 66.347656 217.535156 65.03125 L 217.871094 64.414062 C 218.164062 64.726562 217.746094 66.328125 218.21875 66.09375 C 218.238281 65.242188 218 64.953125 218.121094 64.148438 C 218.164062 64.328125 218.171875 64.570312 218.21875 64.75 C 218.234375 64.445312 218.867188 64.140625 218.492188 62.925781 C 218.351562 62.296875 218.324219 62.757812 218.148438 62.742188 C 218.089844 61.371094 217.914062 60.960938 217.882812 60.078125 C 218.226562 60.261719 217.917969 58.519531 218.269531 59.492188 C 218.066406 59.941406 218.085938 61.925781 218.417969 62.410156 C 218.828125 61.910156 218.359375 63.484375 218.773438 63.78125 C 218.785156 62.679688 219.1875 62.734375 219.453125 62.558594 C 219.472656 62.25 219.359375 61.957031 219.320312 61.777344 C 219.070312 61.648438 219.074219 62.046875 218.8125 62.066406 C 218.878906 60.84375 218.742188 59.660156 218.5 58.980469 C 218.621094 58.574219 218.871094 58.703125 218.894531 59.1875 C 218.824219 57.726562 218.855469 56.167969 218.929688 54.78125 C 218.523438 55.675781 218.835938 53.234375 218.5 53.847656 C 218.40625 54.589844 218.117188 55.226562 217.933594 54.820312 C 217.957031 54.355469 218.109375 54.835938 218.199219 54.640625 C 217.972656 54.050781 218.554688 53.722656 218.203125 53.140625 C 218.335938 54.472656 218.695312 53.402344 219.019531 53.648438 C 218.839844 52.6875 219.242188 53.6875 219.242188 52.738281 C 219.15625 52.261719 219.074219 51.722656 219.007812 51.179688 C 218.96875 50.921875 218.921875 50.664062 218.878906 50.402344 C 218.84375 50.148438 218.8125 49.894531 218.75 49.648438 C 218.769531 49.332031 218.773438 48.964844 218.703125 48.597656 C 218.617188 48.230469 218.523438 47.847656 218.390625 47.480469 C 218.238281 47.117188 218.085938 46.765625 217.925781 46.445312 C 217.75 46.132812 217.585938 45.847656 217.464844 45.597656 C 217.328125 45.007812 217.832031 45.1875 217.546875 44.582031 C 217.136719 43.929688 217.515625 45.273438 217.054688 44.222656 C 217.097656 44.238281 217.144531 44.253906 217.179688 44.273438 C 217.046875 44.15625 216.78125 43.707031 216.476562 43.277344 C 216.128906 42.886719 215.742188 42.527344 215.449219 42.589844 L 215.964844 42.574219 C 215.847656 42.390625 215.648438 42.304688 215.488281 42.222656 C 215.566406 42.125 215.460938 41.871094 215.78125 42.050781 C 215.609375 41.710938 215.320312 41.453125 214.992188 41.234375 C 214.652344 41.035156 214.289062 40.867188 213.972656 40.636719 L 214.238281 41.125 C 214.09375 41.042969 213.957031 40.960938 213.832031 40.882812 C 213.699219 40.808594 213.566406 40.738281 213.445312 40.667969 C 213.195312 40.523438 212.972656 40.371094 212.738281 40.226562 C 212.261719 39.984375 211.808594 39.671875 211.1875 39.519531 L 211.296875 39.320312 C 211.042969 39.28125 210.792969 39.222656 210.539062 39.191406 C 210.789062 39.03125 210.132812 38.71875 209.691406 38.796875 L 210.742188 38.78125 L 211.808594 38.875 C 212.296875 39.199219 211.121094 38.917969 211.378906 39.25 C 211.605469 39.5 212.679688 39.976562 212.964844 39.867188 C 212.558594 39.640625 212.511719 39.675781 212.160156 39.597656 C 212.148438 39.242188 212.785156 39.558594 213.207031 39.535156 C 212.980469 39.433594 212.699219 39.191406 212.609375 39.257812 C 212.855469 39.300781 213.113281 39.355469 213.378906 39.484375 C 213.636719 39.609375 213.925781 39.78125 214.285156 39.992188 C 213.738281 39.804688 214.4375 40.316406 214.203125 40.277344 C 214.308594 40.183594 214.527344 40.234375 214.824219 40.398438 C 215.121094 40.558594 215.496094 40.824219 215.839844 41.210938 C 215.921875 41.394531 216.058594 41.554688 216.230469 41.710938 C 216.398438 41.871094 216.585938 42.042969 216.796875 42.210938 C 217.234375 42.539062 217.667969 42.96875 217.992188 43.476562 C 217.46875 43.253906 216.953125 42.886719 216.382812 42.46875 C 216.765625 43.085938 216.917969 43.0625 217.234375 43.722656 C 217.621094 43.871094 218.015625 43.90625 218.632812 44.679688 L 218.476562 44.824219 C 218.722656 45.1875 218.90625 45.34375 219.089844 45.53125 C 219.179688 45.628906 219.273438 45.738281 219.371094 45.882812 C 219.453125 46.039062 219.53125 46.238281 219.621094 46.507812 C 219.691406 46.742188 219.773438 46.972656 219.832031 47.207031 C 219.882812 47.445312 219.941406 47.679688 219.992188 47.917969 C 220.113281 48.390625 220.164062 48.863281 220.226562 49.320312 C 220.308594 49.78125 220.300781 50.230469 220.324219 50.652344 C 220.347656 51.085938 220.339844 51.464844 220.332031 51.816406 L 220.128906 51.867188 C 220.574219 52.648438 220.292969 54.472656 220.492188 55.53125 C 220.292969 57.320312 220.691406 59.421875 220.332031 60.339844 C 220.492188 63.5 220.648438 66.265625 220.574219 69.539062 L 220.273438 68.988281 C 220.492188 69.574219 220.097656 69.371094 220.144531 69.949219 C 220.382812 69.285156 220.457031 70.742188 220.640625 71.152344 C 220.402344 72.609375 220.660156 74.480469 220.867188 75.777344 L 220.660156 75.828125 C 221.046875 77.132812 220.703125 78.695312 220.644531 80.320312 C 220.558594 80.511719 220.363281 80.808594 220.390625 81.292969 C 220.726562 82.171875 220.699219 82.636719 220.910156 83.933594 C 220.910156 84.875 220.828125 86.410156 220.695312 87.375 C 221.164062 90.9375 220.863281 94.566406 221.148438 98.269531 L 220.902344 98.535156 C 221.421875 102.121094 220.949219 106.53125 221.21875 109.59375 L 220.800781 109.296875 C 220.675781 110.257812 220.910156 111.484375 221.203125 111.242188 C 221.078125 112.203125 221.40625 113.644531 221.066406 114.253906 C 220.992188 115.238281 221.261719 115.457031 221.316406 116.273438 C 221.160156 118.242188 221.195312 118.976562 221.269531 120.828125 L 221.296875 120.371094 C 221.203125 120.167969 221.027344 120.152344 221 120.609375 C 221.117188 121.304688 220.886719 123.15625 221.382812 122.464844 C 221.097656 124.449219 221.617188 127.085938 221.230469 129.015625 C 221.367188 128.851562 221.394531 129.335938 221.484375 129.539062 C 221.488281 131.28125 221.214844 133.105469 221.445312 134.492188 C 221.378906 134.769531 221.214844 134.054688 221.199219 134.757812 C 221.25 135.175781 221.378906 134.769531 221.453125 135.285156 C 221.707031 138.097656 221.195312 140.984375 221.261719 143.550781 C 221.394531 145.824219 221.421875 148.15625 221.429688 150.457031 C 221.429688 152.527344 221.863281 154.554688 222.675781 156.324219 L 222.566406 156.324219 C 222.792969 156.578125 222.96875 156.882812 223.117188 157.21875 C 223.273438 157.546875 223.441406 157.886719 223.597656 158.21875 C 223.746094 158.5625 223.945312 158.867188 224.160156 159.121094 C 224.378906 159.378906 224.59375 159.601562 224.878906 159.699219 C 225.015625 159.984375 225.632812 160.597656 225.34375 160.5625 C 225.554688 160.71875 225.8125 160.90625 226.0625 161.148438 C 226.316406 161.378906 226.558594 161.683594 226.875 161.921875 C 227.183594 162.171875 227.480469 162.464844 227.828125 162.675781 C 228.179688 162.886719 228.542969 163.070312 228.902344 163.191406 C 228.792969 163.109375 228.714844 163.089844 228.550781 163.039062 C 228.84375 163.300781 229.179688 163.46875 229.503906 163.636719 C 229.835938 163.800781 230.164062 163.964844 230.515625 164.066406 C 230.859375 164.183594 231.210938 164.300781 231.570312 164.421875 C 231.9375 164.519531 232.304688 164.632812 232.683594 164.785156 C 232.515625 164.785156 232.214844 164.738281 232.144531 164.824219 C 232.722656 165.207031 233.683594 164.699219 233.953125 165.234375 C 234.316406 165.285156 234.234375 165.035156 234.015625 165.011719 C 234.234375 165.070312 234.453125 165.089844 234.675781 165.105469 L 235.355469 165.15625 L 235.695312 165.183594 L 235.785156 165.183594 C 235.785156 165.183594 235.804688 165.1875 235.804688 165.1875 C 235.804688 162.636719 235.804688 168.664062 235.804688 168.042969 C 235.804688 168.042969 235.796875 168.042969 235.796875 168.042969 L 235.789062 168.042969 C 235.789062 168.042969 235.746094 168.042969 235.746094 168.042969 L 235.574219 168.054688 L 234.886719 168.089844 C 234.65625 168.105469 234.421875 168.105469 234.195312 168.136719 L 233.511719 168.253906 L 232.824219 168.375 C 232.597656 168.429688 232.375 168.503906 232.148438 168.570312 C 230.363281 169.082031 228.691406 169.980469 227.238281 171.09375 C 226.089844 171.75 225.957031 171.679688 225.890625 171.558594 C 225.835938 171.445312 225.882812 171.347656 225.210938 172.199219 C 225.015625 172.25 225.246094 172.414062 225.152344 172.363281 C 224.925781 172.710938 224.613281 172.859375 224.328125 172.992188 C 224.039062 173.125 223.78125 173.257812 223.710938 173.570312 C 224.082031 173.5625 223.613281 173.980469 223.746094 174.101562 C 223.15625 174.683594 222.84375 175.082031 222.542969 175.433594 C 222.234375 175.78125 222.082031 176.171875 221.886719 176.804688 L 221.789062 176.652344 C 221.703125 177.039062 221.640625 177.441406 221.550781 177.839844 C 221.460938 178.234375 221.332031 178.617188 221.28125 179.015625 C 221.21875 179.40625 221.132812 179.785156 221.117188 180.15625 C 221.117188 180.527344 221.148438 180.886719 221.226562 181.210938 C 221.210938 181.339844 221.183594 181.460938 221.171875 181.589844 L 221.160156 181.972656 L 221.128906 182.738281 C 221.113281 182.980469 221.113281 183.261719 221.121094 183.546875 L 221.132812 184.394531 C 221.152344 185.527344 221.167969 186.648438 221.1875 187.773438 C 221.234375 190.015625 221.277344 192.246094 221.320312 194.46875 C 221.40625 198.910156 221.496094 203.328125 221.523438 207.78125 C 221.429688 216.582031 221.65625 225.199219 221.386719 234.140625 C 220.980469 236.234375 220.992188 236.386719 221.160156 238.6875 C 221.09375 238.597656 221.078125 238.449219 221.015625 238.605469 C 221.347656 238.722656 221.046875 240.230469 221.367188 240.449219 C 221.304688 243.753906 221.398438 246.796875 221.398438 250.195312 C 221.363281 249.660156 221.085938 249.390625 221.113281 250.027344 L 221.328125 250.695312 L 221.234375 250.800781 C 221.285156 251.242188 221.449219 251.714844 221.554688 251.265625 C 221.847656 259.808594 221.171875 268.210938 221.253906 276.574219 C 221.183594 277.570312 221.183594 278.773438 221.203125 279.996094 C 221.21875 280.609375 221.234375 281.226562 221.253906 281.828125 C 221.269531 282.109375 221.253906 282.484375 221.25 282.804688 C 221.234375 283.136719 221.25 283.460938 221.210938 283.769531 C 220.582031 287.421875 218.617188 290.492188 216.042969 292.664062 C 214.746094 293.757812 213.28125 294.628906 211.683594 295.257812 C 210.890625 295.578125 210.054688 295.8125 209.203125 296.007812 C 208.769531 296.078125 208.335938 296.167969 207.898438 296.230469 L 207.230469 296.285156 L 206.726562 296.332031 L 206.640625 296.332031 C 206.640625 296.332031 206.601562 296.34375 206.601562 296.34375 L 206.578125 296.34375 C 206.578125 296.34375 206.570312 296.34375 206.570312 296.34375 L 206.5625 296.34375 C 206.5625 295.699219 206.5625 297.785156 206.558594 294.898438 L 206.558594 296.34375 C 206.558594 296.34375 206.558594 296.34375 206.570312 296.332031 C 206.578125 296.328125 206.589844 296.316406 206.605469 296.300781 C 206.636719 296.277344 206.6875 296.242188 206.753906 296.195312 C 206.886719 296.101562 207.089844 295.980469 207.375 295.84375 C 207.660156 295.710938 208.03125 295.566406 208.484375 295.375 C 208.714844 295.28125 208.964844 295.195312 209.246094 295.109375 C 209.519531 294.996094 209.816406 294.882812 210.140625 294.773438 Z M 210.121094 294.789062 " fill-opacity="1" fill-rule="nonzero"/></g><path fill="#262626" d="M 208.914062 37.953125 C 209.128906 38.15625 209.855469 38.363281 209.21875 38.488281 C 209.179688 38.324219 208.816406 38.089844 208.914062 37.953125 Z M 208.914062 37.953125 " fill-opacity="1" fill-rule="nonzero"/><path fill="#262626" d="M 218.542969 52.886719 C 218.59375 52.914062 218.476562 53.167969 218.449219 53.234375 C 218.4375 52.988281 218.292969 52.757812 218.382812 52.566406 C 218.398438 52.816406 218.472656 52.773438 218.542969 52.886719 Z M 218.542969 52.886719 " fill-opacity="1" fill-rule="nonzero"/><path fill="#262626" d="M 218.441406 57.96875 C 218.292969 57.890625 218.175781 56.804688 218.15625 56.160156 Z M 218.441406 57.96875 " fill-opacity="1" fill-rule="nonzero"/><path fill="#262626" d="M 217.832031 62.699219 C 217.703125 63.109375 217.636719 62.996094 217.640625 62.445312 C 217.722656 62.40625 217.757812 62.589844 217.832031 62.699219 Z M 217.832031 62.699219 " fill-opacity="1" fill-rule="nonzero"/><path fill="#262626" d="M 218.167969 63.035156 C 218.167969 63.429688 218.082031 63.625 218 63.816406 C 218.125 63.800781 217.917969 62.90625 218.167969 63.035156 Z M 218.167969 63.035156 " fill-opacity="1" fill-rule="nonzero"/><path fill="#262626" d="M 217.734375 73.308594 C 217.746094 73.558594 217.871094 74.089844 217.703125 74.320312 C 217.820312 74.058594 217.515625 73.117188 217.734375 73.308594 Z M 217.734375 73.308594 " fill-opacity="1" fill-rule="nonzero"/><path fill="#262626" d="M 217.964844 78.082031 C 217.953125 78.234375 217.925781 78.300781 217.964844 78.480469 C 217.898438 78.761719 217.785156 78.464844 217.769531 78.226562 L 217.957031 78.082031 Z M 217.964844 78.082031 " fill-opacity="1" fill-rule="nonzero"/><path fill="#262626" d="M 225.0625 164.003906 C 224.898438 163.917969 224.734375 163.820312 224.589844 163.707031 L 224.742188 163.652344 C 224.835938 163.78125 224.949219 163.890625 225.058594 164.003906 Z M 225.0625 164.003906 " fill-opacity="1" fill-rule="nonzero"/><path fill="#262626" d="M 218.238281 184.511719 C 218.332031 185.027344 218.101562 184.871094 218.074219 184.957031 C 218.058594 184.492188 218.257812 185.128906 218.238281 184.511719 Z M 218.238281 184.511719 " fill-opacity="1" fill-rule="nonzero"/><path fill="#262626" d="M 218.984375 205.046875 L 218.976562 204.894531 L 219.28125 204.945312 Z M 218.984375 205.046875 " fill-opacity="1" fill-rule="nonzero"/><path fill="#000000" d="M 201.429688 325.027344 C 201.429688 324.464844 201.429688 324.441406 200.945312 324.441406 C 200.367188 325.101562 199.15625 326.007812 196.667969 326.007812 L 196.667969 326.71875 C 197.222656 326.71875 198.433594 326.71875 199.761719 326.082031 L 199.761719 338.847656 C 199.761719 339.730469 199.6875 340.023438 197.5625 340.023438 L 196.8125 340.023438 L 196.8125 340.734375 C 197.464844 340.683594 199.808594 340.683594 200.609375 340.683594 C 201.40625 340.683594 203.726562 340.683594 204.378906 340.734375 L 204.378906 340.023438 L 203.628906 340.023438 C 201.5 340.023438 201.429688 339.730469 201.429688 338.847656 Z M 201.429688 325.027344 " fill-opacity="1" fill-rule="nonzero"/><g clip-path="url(#6ff5b48584)"><path fill="#000000" d="M 223.238281 325.691406 C 223.429688 324.953125 223.476562 324.710938 224.664062 324.710938 C 225.050781 324.710938 225.289062 324.710938 225.289062 324.269531 C 225.289062 324 225.074219 324 224.976562 324 C 224.566406 324 224.105469 324.046875 223.671875 324.046875 L 222.34375 324.046875 C 221.328125 324.046875 220.265625 324 219.25 324 C 219.03125 324 218.742188 324 218.742188 324.441406 C 218.742188 324.683594 218.933594 324.683594 218.933594 324.710938 L 219.539062 324.710938 C 221.472656 324.710938 221.472656 324.90625 221.472656 325.273438 C 221.472656 325.296875 221.472656 325.46875 221.375 325.863281 L 218.597656 337.058594 C 217.96875 339.558594 216.347656 340.757812 215.1875 340.757812 C 214.367188 340.757812 213.207031 340.367188 212.917969 339.066406 C 213.011719 339.09375 213.132812 339.117188 213.230469 339.117188 C 214.027344 339.117188 214.65625 338.40625 214.65625 337.695312 C 214.65625 337.304688 214.414062 336.789062 213.691406 336.789062 C 213.253906 336.789062 212.238281 337.035156 212.238281 338.628906 C 212.238281 340.171875 213.496094 341.25 215.238281 341.25 C 217.4375 341.25 219.804688 339.558594 220.382812 337.230469 Z M 223.238281 325.691406 " fill-opacity="1" fill-rule="nonzero"/></g><path fill="#000000" d="M 248.675781 332.796875 C 249.015625 332.796875 249.449219 332.796875 249.449219 332.355469 C 249.449219 331.890625 249.039062 331.890625 248.675781 331.890625 L 234.441406 331.890625 C 234.101562 331.890625 233.667969 331.890625 233.667969 332.332031 C 233.667969 332.796875 234.078125 332.796875 234.441406 332.796875 Z M 248.675781 337.351562 C 249.015625 337.351562 249.449219 337.351562 249.449219 336.910156 C 249.449219 336.445312 249.039062 336.445312 248.675781 336.445312 L 234.441406 336.445312 C 234.101562 336.445312 233.667969 336.445312 233.667969 336.886719 C 233.667969 337.351562 234.078125 337.351562 234.441406 337.351562 Z M 248.675781 337.351562 " fill-opacity="1" fill-rule="nonzero"/><path fill="#000000" d="M 264.441406 325.027344 C 264.441406 324.464844 264.441406 324.441406 263.960938 324.441406 C 263.378906 325.101562 262.171875 326.007812 259.679688 326.007812 L 259.679688 326.71875 C 260.238281 326.71875 261.445312 326.71875 262.773438 326.082031 L 262.773438 338.847656 C 262.773438 339.730469 262.703125 340.023438 260.574219 340.023438 L 259.828125 340.023438 L 259.828125 340.734375 C 260.480469 340.683594 262.824219 340.683594 263.621094 340.683594 C 264.417969 340.683594 266.738281 340.683594 267.390625 340.734375 L 267.390625 340.023438 L 266.640625 340.023438 C 264.515625 340.023438 264.441406 339.730469 264.441406 338.847656 Z M 264.441406 325.027344 " fill-opacity="1" fill-rule="nonzero"/><path fill="#000000" d="M 291.230469 326.570312 C 291.496094 325.519531 291.882812 324.785156 293.71875 324.710938 C 293.789062 324.710938 294.082031 324.683594 294.082031 324.269531 C 294.082031 324 293.863281 324 293.765625 324 C 293.285156 324 292.050781 324.046875 291.566406 324.046875 L 290.40625 324.046875 C 290.070312 324.046875 289.632812 324 289.296875 324 C 289.148438 324 288.859375 324 288.859375 324.464844 C 288.859375 324.710938 289.054688 324.710938 289.222656 324.710938 C 290.671875 324.757812 290.769531 325.324219 290.769531 325.761719 C 290.769531 325.984375 290.746094 326.058594 290.671875 326.402344 L 287.941406 337.449219 L 282.769531 324.414062 C 282.601562 324.023438 282.578125 324 282.042969 324 L 279.097656 324 C 278.613281 324 278.394531 324 278.394531 324.464844 C 278.394531 324.710938 278.5625 324.710938 279.023438 324.710938 C 279.144531 324.710938 280.570312 324.710938 280.570312 324.929688 C 280.570312 324.980469 280.523438 325.175781 280.496094 325.25 L 277.285156 338.234375 C 276.992188 339.4375 276.414062 339.949219 274.816406 340.023438 C 274.695312 340.023438 274.457031 340.046875 274.457031 340.488281 C 274.457031 340.734375 274.695312 340.734375 274.769531 340.734375 C 275.253906 340.734375 276.484375 340.683594 276.96875 340.683594 L 278.128906 340.683594 C 278.46875 340.683594 278.878906 340.734375 279.214844 340.734375 C 279.386719 340.734375 279.652344 340.734375 279.652344 340.269531 C 279.652344 340.046875 279.410156 340.023438 279.3125 340.023438 C 278.515625 340 277.742188 339.851562 277.742188 338.96875 C 277.742188 338.773438 277.789062 338.554688 277.839844 338.359375 L 281.101562 325.25 C 281.246094 325.492188 281.246094 325.542969 281.34375 325.761719 L 287.097656 340.292969 C 287.214844 340.585938 287.265625 340.734375 287.484375 340.734375 C 287.722656 340.734375 287.75 340.660156 287.84375 340.246094 Z M 291.230469 326.570312 " fill-opacity="1" fill-rule="nonzero"/><path fill="#000000" d="M 304.828125 334.609375 C 304.828125 333.898438 304.25 333.308594 303.550781 333.308594 C 302.847656 333.308594 302.269531 333.898438 302.269531 334.609375 C 302.269531 335.320312 302.847656 335.90625 303.550781 335.90625 C 304.25 335.90625 304.828125 335.320312 304.828125 334.609375 Z M 304.828125 334.609375 " fill-opacity="1" fill-rule="nonzero"/><path fill="#000000" d="M 317.253906 333.554688 C 317.300781 333.410156 317.90625 332.183594 318.800781 331.398438 C 319.429688 330.8125 320.25 330.417969 321.191406 330.417969 C 322.160156 330.417969 322.496094 331.152344 322.496094 332.132812 C 322.496094 332.28125 322.496094 332.769531 322.207031 333.921875 L 321.601562 336.445312 C 321.410156 337.179688 320.949219 338.996094 320.902344 339.265625 C 320.804688 339.632812 320.660156 340.269531 320.660156 340.367188 C 320.660156 340.710938 320.925781 340.980469 321.289062 340.980469 C 322.015625 340.980469 322.136719 340.414062 322.351562 339.535156 L 323.804688 333.679688 C 323.851562 333.480469 325.109375 330.417969 327.765625 330.417969 C 328.734375 330.417969 329.070312 331.152344 329.070312 332.132812 C 329.070312 333.507812 328.128906 336.175781 327.597656 337.648438 C 327.378906 338.234375 327.257812 338.554688 327.257812 338.996094 C 327.257812 340.097656 328.007812 340.980469 329.167969 340.980469 C 331.417969 340.980469 332.261719 337.378906 332.261719 337.230469 C 332.261719 337.109375 332.164062 337.011719 332.019531 337.011719 C 331.804688 337.011719 331.777344 337.082031 331.65625 337.5 C 331.101562 339.460938 330.207031 340.488281 329.242188 340.488281 C 329 340.488281 328.613281 340.464844 328.613281 339.679688 C 328.613281 339.042969 328.902344 338.257812 329 337.988281 C 329.433594 336.8125 330.523438 333.921875 330.523438 332.5 C 330.523438 331.03125 329.675781 329.929688 327.839844 329.929688 C 326.21875 329.929688 324.914062 330.859375 323.949219 332.304688 C 323.875 330.984375 323.078125 329.929688 321.265625 329.929688 C 319.113281 329.929688 317.976562 331.472656 317.542969 332.085938 C 317.46875 330.6875 316.480469 329.929688 315.417969 329.929688 C 314.714844 329.929688 314.160156 330.273438 313.699219 331.203125 C 313.265625 332.085938 312.925781 333.578125 312.925781 333.679688 C 312.925781 333.777344 313.023438 333.898438 313.191406 333.898438 C 313.386719 333.898438 313.410156 333.875 313.554688 333.308594 C 313.917969 331.863281 314.375 330.417969 315.34375 330.417969 C 315.898438 330.417969 316.09375 330.8125 316.09375 331.546875 C 316.09375 332.085938 315.851562 333.039062 315.683594 333.800781 L 315.003906 336.445312 C 314.910156 336.910156 314.644531 338.015625 314.523438 338.457031 C 314.351562 339.09375 314.085938 340.246094 314.085938 340.367188 C 314.085938 340.710938 314.351562 340.980469 314.714844 340.980469 C 315.003906 340.980469 315.34375 340.832031 315.535156 340.464844 C 315.585938 340.34375 315.804688 339.484375 315.921875 338.996094 L 316.457031 336.789062 Z M 317.253906 333.554688 " fill-opacity="1" fill-rule="nonzero"/><g fill="#000000" fill-opacity="1"><g transform="translate(91.914323, 44.249997)"><g><path d="M 1.828125 0 L 1.828125 -1.796875 L 6.03125 -1.796875 L 6.03125 -14.5 L 2.3125 -11.84375 L 2.3125 -13.828125 L 6.21875 -16.515625 L 8.15625 -16.515625 L 8.15625 -1.796875 L 12.171875 -1.796875 L 12.171875 0 Z M 1.828125 0 "/></g></g><g transform="translate(105.261979, 44.249997)"><g/></g><g transform="translate(111.929947, 44.249997)"><g><path d="M 12.6875 0 L 3.84375 -14.0625 L 3.90625 -12.921875 L 3.96875 -10.96875 L 3.96875 0 L 1.96875 0 L 1.96875 -16.515625 L 4.578125 -16.515625 L 13.5 -2.359375 C 13.40625 -3.890625 13.359375 -5 13.359375 -5.6875 L 13.359375 -16.515625 L 15.375 -16.515625 L 15.375 0 Z M 12.6875 0 "/></g></g></g><g fill="#000000" fill-opacity="1"><g transform="translate(167.382973, 213.112704)"><g><path d="M 1.828125 0 L 1.828125 -1.796875 L 6.03125 -1.796875 L 6.03125 -14.5 L 2.3125 -11.84375 L 2.3125 -13.828125 L 6.21875 -16.515625 L 8.15625 -16.515625 L 8.15625 -1.796875 L 12.171875 -1.796875 L 12.171875 0 Z M 1.828125 0 "/></g></g><g transform="translate(180.730628, 213.112704)"><g/></g><g transform="translate(187.398596, 213.112704)"><g><path d="M 9 0 L 9 -8.046875 C 9 -9.265625 8.832031 -10.109375 8.5 -10.578125 C 8.164062 -11.046875 7.5625 -11.28125 6.6875 -11.28125 C 5.78125 -11.28125 5.066406 -10.9375 4.546875 -10.25 C 4.023438 -9.5625 3.765625 -8.59375 3.765625 -7.34375 L 3.765625 0 L 1.671875 0 L 1.671875 -9.96875 C 1.671875 -11.445312 1.644531 -12.351562 1.59375 -12.6875 L 3.59375 -12.6875 C 3.59375 -12.644531 3.597656 -12.535156 3.609375 -12.359375 C 3.617188 -12.191406 3.628906 -11.992188 3.640625 -11.765625 C 3.648438 -11.546875 3.664062 -11.128906 3.6875 -10.515625 L 3.71875 -10.515625 C 4.164062 -11.410156 4.679688 -12.035156 5.265625 -12.390625 C 5.859375 -12.742188 6.578125 -12.921875 7.421875 -12.921875 C 8.378906 -12.921875 9.132812 -12.726562 9.6875 -12.34375 C 10.25 -11.957031 10.640625 -11.347656 10.859375 -10.515625 L 10.90625 -10.515625 C 11.34375 -11.367188 11.867188 -11.984375 12.484375 -12.359375 C 13.109375 -12.734375 13.863281 -12.921875 14.75 -12.921875 C 16.03125 -12.921875 16.957031 -12.570312 17.53125 -11.875 C 18.113281 -11.175781 18.40625 -10.035156 18.40625 -8.453125 L 18.40625 0 L 16.328125 0 L 16.328125 -8.046875 C 16.328125 -9.265625 16.15625 -10.109375 15.8125 -10.578125 C 15.476562 -11.046875 14.875 -11.28125 14 -11.28125 C 13.082031 -11.28125 12.367188 -10.9375 11.859375 -10.25 C 11.347656 -9.570312 11.09375 -8.601562 11.09375 -7.34375 L 11.09375 0 Z M 9 0 "/></g></g></g><g fill="#000000" fill-opacity="1"><g transform="translate(263.365006, 175.706309)"><g><path d="M 1.828125 0 L 1.828125 -1.796875 L 6.03125 -1.796875 L 6.03125 -14.5 L 2.3125 -11.84375 L 2.3125 -13.828125 L 6.21875 -16.515625 L 8.15625 -16.515625 L 8.15625 -1.796875 L 12.171875 -1.796875 L 12.171875 0 Z M 1.828125 0 "/></g></g><g transform="translate(276.712661, 175.706309)"><g/></g><g transform="translate(283.380629, 175.706309)"><g><path d="M 5.359375 0.234375 C 2.554688 0.234375 0.894531 -1.210938 0.375 -4.109375 L 2.5625 -4.46875 C 2.707031 -3.5625 3.023438 -2.851562 3.515625 -2.34375 C 4.003906 -1.832031 4.625 -1.578125 5.375 -1.578125 C 6.1875 -1.578125 6.828125 -1.859375 7.296875 -2.421875 C 7.765625 -2.984375 8 -3.800781 8 -4.875 L 8 -14.6875 L 4.8125 -14.6875 L 4.8125 -16.515625 L 10.21875 -16.515625 L 10.21875 -4.921875 C 10.21875 -3.316406 9.785156 -2.054688 8.921875 -1.140625 C 8.054688 -0.222656 6.867188 0.234375 5.359375 0.234375 Z M 5.359375 0.234375 "/></g></g></g><g mask="url(#ce214efa73)"><g transform="matrix(1, 0, 0, 1, 36, 85)"><g clip-path="url(#6cf5c93e68)"><g clip-path="url(#e5e9b5eb73)"><path fill="#255d83" d="M 0 1.023438 L 74.726562 1.023438 L 74.726562 74.601562 L 0 74.601562 Z M 0 1.023438 " fill-opacity="1" fill-rule="nonzero"/></g></g></g></g><g mask="url(#b5a7e736e6)"><g transform="matrix(1, 0, 0, 1, 36, 93)"><g clip-path="url(#f384f05199)"><g clip-path="url(#5e151ab722)"><path fill="#255d83" d="M 0 0.878906 L 74.726562 0.878906 L 74.726562 74.457031 L 0 74.457031 Z M 0 0.878906 " fill-opacity="1" fill-rule="nonzero"/></g></g></g></g><g mask="url(#53b178a2fe)"><g transform="matrix(1, 0, 0, 1, 36, 101)"><g clip-path="url(#a4de29ef9d)"><g clip-path="url(#6920f7c5a1)"><path fill="#255d83" d="M 0 0.769531 L 74.726562 0.769531 L 74.726562 74.347656 L 0 74.347656 Z M 0 0.769531 " fill-opacity="1" fill-rule="nonzero"/></g></g></g></g><g mask="url(#004f799c1d)"><g transform="matrix(1, 0, 0, 1, 36, 110)"><g clip-path="url(#82a24fd6d3)"><g clip-path="url(#0f9e986efb)"><path fill="#255d83" d="M 0 0.8125 L 74.726562 0.8125 L 74.726562 74.386719 L 0 74.386719 Z M 0 0.8125 " fill-opacity="1" fill-rule="nonzero"/></g></g></g></g><g mask="url(#6d0f2f0fd7)"><g transform="matrix(1, 0, 0, 1, 36, 117)"><g clip-path="url(#da7cc637c5)"><g clip-path="url(#d74a689896)"><path fill="#255d83" d="M 0 0.1875 L 74.726562 0.1875 L 74.726562 73.761719 L 0 73.761719 Z M 0 0.1875 " fill-opacity="1" fill-rule="nonzero"/></g></g></g></g></svg>