<?xml version="1.0" encoding="UTF-8" standalone="no"?>
<!-- Created with Inkscape (http://www.inkscape.org/) -->

<svg
   xmlns:dc="http://purl.org/dc/elements/1.1/"
   xmlns:cc="http://creativecommons.org/ns#"
   xmlns:rdf="http://www.w3.org/1999/02/22-rdf-syntax-ns#"
   xmlns:svg="http://www.w3.org/2000/svg"
   xmlns="http://www.w3.org/2000/svg"
   version="1.0"
   width="303.76791"
   height="298.3764"
   id="svg2398">
  <metadata
     id="metadata21">
    <rdf:RDF>
      <cc:Work
         rdf:about="">
        <dc:format>image/svg+xml</dc:format>
        <dc:type
           rdf:resource="http://purl.org/dc/dcmitype/StillImage" />
        <dc:title></dc:title>
      </cc:Work>
    </rdf:RDF>
  </metadata>
  <defs
     id="defs2400" />
  <path
     d="m 156.10346,253.59951 -3.37562,-5.85267 -3.38039,-5.85267 6.75601,0 6.76077,0 -3.38039,5.85267 -3.38038,5.85267 z m 0.0666,-176.43086 0,173.75414"
     id="path7277"
     style="fill:#008000;stroke:#008000;stroke-width:4.7781682" />
  <path
     d="m 14.69106,195.43425 0,-40.84029 5.40575,0 0,16.76875 21.22837,0 0,-16.76875 5.40575,0 0,40.84029 -5.40575,0 0,-19.25054 -21.23312,0 0,19.25054 -5.401,0 0,0 z"
     id="text2160" />
  <path
     d="m 136.0803,80.23045 c 0,-6.77978 1.82094,-12.08567 5.45807,-15.92248 3.63713,-3.8368 8.33923,-5.75279 14.09678,-5.75279 3.77022,0 7.16963,0.89858 10.19815,2.7005 3.02858,1.80192 5.33449,4.31225 6.92246,7.53569 1.5879,3.22351 2.38193,6.87491 2.38193,10.96364 0,4.14111 -0.83676,7.84475 -2.50558,11.11582 -1.66876,3.27099 -4.04124,5.74328 -7.10305,7.42638 -3.06188,1.68302 -6.37092,2.51977 -9.91769,2.51977 -3.84632,0 -7.27895,-0.92711 -10.30753,-2.78603 -3.02852,-1.85899 -5.32015,-4.39311 -6.87959,-7.60704 -1.55944,-3.21399 -2.34395,-6.60864 -2.34395,-10.19346 l 0,0 z m 5.57214,0.0856 c 0,4.9208 1.32172,8.80041 3.96997,11.62925 2.64819,2.82884 5.96674,4.25043 9.96042,4.25043 4.06502,0 7.41687,-1.4311 10.04128,-4.28848 2.62447,-2.85738 3.94143,-6.91764 3.94143,-12.17603 0,-3.32332 -0.56105,-6.22825 -1.68309,-8.70529 -1.12204,-2.47705 -2.76701,-4.40255 -4.93031,-5.76707 -2.16322,-1.36452 -4.59271,-2.04915 -7.2837,-2.04915 -3.82729,0 -7.11732,1.3122 -9.87489,3.94143 -2.75757,2.62917 -4.14111,7.01744 -4.14111,13.16491 l 0,0 z"
     id="text2164" />
  <path
     d="m 260.34118,196.01902 0,-40.84022 5.40576,0 0,16.76874 21.22836,0 0,-16.76874 5.40576,0 0,40.84022 -5.40576,0 0,-19.25055 -21.22836,0 0,19.25055 -5.40576,0 z"
     id="text2168" />
  <path
     d="M 253.96082,148.36572 185.02209,98.44457"
     id="path2172"
     style="fill:none;stroke:#000000;stroke-width:4.75439596" />
  <path
     d="M 125.59211,98.44457 56.65338,148.36572"
     id="path2172_1_"
     style="fill:none;stroke:#000000;stroke-width:4.75439596" />
  <path
     d="m 11.11575,244.79911 0,-11.20136 -11.11575,0 0,-4.67832 11.11575,0 0,-11.11575 4.73539,0 0,11.11575 11.11582,0 0,4.67832 -11.11582,0 0,11.1966 -4.73539,0 0,0.005 z m 23.87187,-34.2364 22.31235,0 0,4.06502 -15.59915,0 c 1.85892,1.89228 4.76386,4.20762 8.71956,6.93666 3.52774,2.45326 5.99052,4.72588 7.38357,6.82735 1.39306,2.1014 2.08714,4.93982 2.08714,8.52463 0,4.81142 -1.29318,8.53884 -3.8843,11.18709 -2.59119,2.64819 -5.96681,3.9699 -10.12688,3.9699 -4.54998,0 -7.97785,-1.48817 -10.279,-4.45961 -2.30114,-2.97152 -3.45647,-6.49926 -3.45647,-10.58806 0,-4.75441 1.21715,-8.38203 3.6514,-10.87803 2.43424,-2.49607 5.33917,-3.81303 8.71955,-3.94144 -1.72582,-1.20757 -4.90177,-3.87954 -9.52777,-8.02541 l 0,-3.6181 z m 2.28681,26.52005 c 0,3.15692 0.83206,5.75755 2.49131,7.80195 1.65931,2.0444 3.78449,3.06656 6.36616,3.06656 2.26786,0 4.2647,-0.8748 6.00479,-2.61965 1.7401,-1.74484 2.60539,-4.50242 2.60539,-8.27264 0,-3.48977 -0.82725,-6.19496 -2.47698,-8.10626 -1.6498,-1.91123 -3.73225,-2.87164 -6.24258,-2.87164 -2.76702,0 -4.91604,1.07923 -6.44695,3.23295 -1.5309,2.15378 -2.30114,4.74014 -2.30114,7.76873 l 0,0 z"
     id="flowRoot3155"
     style="fill:#0000ff" />
  <path
     d="m 254.99249,244.79911 0,-11.20136 -11.11575,0 0,-4.67832 11.11575,0 0,-11.11575 4.73539,0 0,11.11575 11.11582,0 0,4.67832 -11.11582,0 0,11.1966 -4.73539,0 0,0.005 z m 23.87187,-34.2364 22.31235,0 0,4.06502 -15.59915,0 c 1.85892,1.89228 4.76386,4.20762 8.71956,6.93666 3.52774,2.45326 5.99052,4.72588 7.38357,6.82735 1.39306,2.1014 2.08721,4.93982 2.08721,8.52463 0,4.81142 -1.29325,8.53884 -3.88437,11.18709 -2.59119,2.64819 -5.96681,3.9699 -10.12688,3.9699 -4.54998,0 -7.97785,-1.48817 -10.279,-4.45961 -2.30114,-2.97152 -3.45647,-6.49926 -3.45647,-10.58806 0,-4.75441 1.21715,-8.38203 3.6514,-10.87803 2.43424,-2.49607 5.33917,-3.81303 8.71955,-3.94144 -1.72582,-1.20757 -4.90177,-3.87954 -9.52777,-8.02541 l 0,-3.6181 0,0 z m 2.28681,26.52005 c 0,3.15692 0.83206,5.75755 2.49131,7.80195 1.65931,2.0444 3.78449,3.06656 6.36616,3.06656 2.26786,0 4.2647,-0.8748 6.00479,-2.61965 1.7401,-1.74484 2.60539,-4.50242 2.60539,-8.27264 0,-3.48977 -0.82725,-6.19496 -2.47698,-8.10626 -1.6498,-1.91123 -3.73225,-2.87164 -6.24258,-2.87164 -2.76702,0 -4.91604,1.07923 -6.44695,3.23295 -1.5309,2.15378 -2.30114,4.74014 -2.30114,7.76873 l 0,0 z"
     id="flowRoot3163"
     style="fill:#0000ff" />
  <path
     d="m 132.98995,28.58348 0,-5.04445 15.40423,0 0,5.04445 -15.40423,0 z M 155.08361,0 l 22.31242,0 0,4.06502 -15.59922,0 c 1.85899,1.89228 4.76393,4.20763 8.71963,6.93667 3.52774,2.45326 5.99052,4.72587 7.38357,6.82734 1.39299,2.1014 2.08714,4.93982 2.08714,8.52464 0,4.81141 -1.29318,8.5389 -3.8843,11.18709 -2.59118,2.64819 -5.96681,3.9699 -10.12688,3.9699 -4.54998,0 -7.97792,-1.4881 -10.27899,-4.45962 -2.30115,-2.97151 -3.45648,-6.49926 -3.45648,-10.58806 0,-4.75441 1.21716,-8.38196 3.6514,-10.87802 2.43424,-2.49607 5.33917,-3.81303 8.71955,-3.94144 -1.72582,-1.20757 -4.90177,-3.87954 -9.52784,-8.02541 l 0,-3.61811 z m 2.28212,26.52005 c 0,3.15693 0.83207,5.75756 2.49131,7.80196 1.65932,2.0444 3.78449,3.06656 6.36617,3.06656 2.26785,0 4.26469,-0.8748 6.00479,-2.61965 1.74009,-1.74485 2.60538,-4.50242 2.60538,-8.27265 0,-3.48969 -0.82724,-6.19495 -2.47704,-8.10625 -1.64973,-1.91124 -3.73218,-2.87165 -6.24252,-2.87165 -2.76701,0 -4.91604,1.07924 -6.44694,3.23302 -1.53091,2.15372 -2.30115,4.74015 -2.30115,7.76866 l 0,0 z"
     id="flowRoot3171"
     style="fill:#ff0000" />
  <path
     d="m 64.21285,172.24703 181.21857,0"
     id="path3179"
     style="fill:#0000ff;stroke:#0000ff;stroke-width:4.5604167;stroke-dasharray:4.56041659, 4.56041659" />
  <path
     d="m 161.66847,172.92215 c 0,3.07139 -2.48656,5.56263 -5.56263,5.56263 -3.07132,0 -5.56264,-2.49124 -5.56264,-5.56263 0,-3.07132 2.49132,-5.56263 5.56264,-5.56263 3.07132,0 5.56263,2.49131 5.56263,5.56263 z"
     id="path4152"
     style="fill:#0000ff;stroke:#0000ff;stroke-width:4.5604167" />
  <path
     d="m 161.66847,78.90398 c 0,3.07132 -2.49131,5.56263 -5.56263,5.56263 -3.07132,0 -5.56263,-2.49131 -5.56263,-5.56263 0,-3.07132 2.49131,-5.56263 5.56263,-5.56263 3.07132,0 5.56263,2.49131 5.56263,5.56263 z"
     id="path4154"
     style="fill:#ff0000;stroke:#ff0000;stroke-width:4.5604167" />
  <path
     d="m 147.54316,298.37641 0,-27.28071 3.04761,0 0,2.56258 c 0.71786,-1.00314 1.52615,-1.75436 2.43424,-2.25827 0.90808,-0.50399 2.0016,-0.75122 3.28527,-0.75122 1.68308,0 3.17119,0.4374 4.45961,1.29793 1.28843,0.86054 2.2631,2.0872 2.91444,3.66567 0.65134,1.57846 0.9842,3.30428 0.9842,5.19181 0,2.01586 -0.36138,3.83674 -1.08876,5.44849 -0.72744,1.61175 -1.77814,2.85262 -3.15692,3.71322 -1.37878,0.86054 -2.83366,1.28843 -4.35505,1.28843 -1.11253,0 -2.11092,-0.23297 -2.99999,-0.70366 -0.88907,-0.47069 -1.61175,-1.06973 -2.18232,-1.7829 l 0,9.60387 -3.34233,0 0,0.005 z m 3.02383,-17.30602 c 0,2.53411 0.51343,4.41213 1.54042,5.62921 1.02692,1.21716 2.27261,1.82095 3.73217,1.82095 1.48817,0 2.75757,-0.63233 3.81779,-1.8827 1.06021,-1.25045 1.58797,-3.20449 1.58797,-5.84316 0,-2.51509 -0.51349,-4.39311 -1.54993,-5.64824 -1.03643,-1.2552 -2.27261,-1.87801 -3.70364,-1.87801 -1.42634,0 -2.68148,0.67037 -3.7798,1.99684 -1.09826,1.32647 -1.64498,3.26631 -1.64498,5.80511 l 0,0 z"
     id="text7279"
     style="fill:#008000" />
</svg>
