<?xml version="1.0" encoding="UTF-8" standalone="no"?>
<!-- Created with Serif DrawPlus 11, 0, 3, 23 (Feb 25, 14:12:55) (http://www.serif.com) -->
<svg version="1.1" xmlns="http://www.w3.org/2000/svg" xmlns:xlink="http://www.w3.org/1999/xlink" width="217.405" height="185.601">
	<defs>
		<linearGradient id="grad_dp_001" gradientUnits="userSpaceOnUse" x1="1027.88" y1="943.565" x2="1041.4" y2="973.824">
			<stop offset="0" stop-color="#4f00be"/>
			<stop offset="1" stop-color="#b30255"/>
		</linearGradient>
		<linearGradient id="grad_dp_002" gradientUnits="userSpaceOnUse" x1="1027.88" y1="943.565" x2="1041.4" y2="973.824">
			<stop offset="0" stop-color="#4f00be"/>
			<stop offset="1" stop-color="#b30255"/>
		</linearGradient>
		<linearGradient id="grad_dp_003" gradientUnits="userSpaceOnUse" x1="991.839" y1="935.527" x2="978.137" y2="948.252">
			<stop offset="0" stop-color="#4f00be"/>
			<stop offset="1" stop-color="#b30255"/>
		</linearGradient>
		<linearGradient id="grad_dp_004" gradientUnits="userSpaceOnUse" x1="991.839" y1="935.527" x2="978.137" y2="948.252">
			<stop offset="0" stop-color="#4f00be"/>
			<stop offset="1" stop-color="#b30255"/>
		</linearGradient>
		<linearGradient id="grad_dp_005" gradientUnits="userSpaceOnUse" x1="1041.16" y1="977.787" x2="1027.64" y2="947.528">
			<stop offset="0" stop-color="#4f00be"/>
			<stop offset="1" stop-color="#b30255"/>
		</linearGradient>
		<linearGradient id="grad_dp_006" gradientUnits="userSpaceOnUse" x1="1041.16" y1="977.787" x2="1027.64" y2="947.528">
			<stop offset="0" stop-color="#4f00be"/>
			<stop offset="1" stop-color="#b30255"/>
		</linearGradient>
	</defs>
	<g id="dp_group001" transform="matrix(1,0,0,1,-935.863,-843.913)">
		<g id="dp_group002">
			<g id="dp_group003">
				<path id="dp_path004" fill="black" fill-rule="evenodd" d="M 1000.09,938.055 L 1000.61,936.827 L 1001.65,934.372 L 994.208,934.836 L 999.043,940.509 Z "/>
				<path id="dp_path005" fill="black" d="M 1022.07,958.185 L 1021.78,957.663 L 1021.49,957.137 L 1021.19,956.617 L 1020.89,956.103 L 1020.58,955.589 L 1020.26,955.08 L 1019.94,954.575 L 1019.61,954.073 L 1019.28,953.576 L 1018.94,953.083 L 1018.6,952.595 L 1018.25,952.109 L 1017.9,951.628 L 1017.54,951.153 L 1017.17,950.681 L 1016.8,950.213 L 1016.43,949.751 L 1016.05,949.292 L 1015.66,948.839 L 1015.27,948.389 L 1014.88,947.945 L 1014.48,947.505 L 1014.08,947.071 L 1013.67,946.641 L 1013.25,946.216 L 1012.84,945.797 L 1012.42,945.383 L 1011.99,944.972 L 1011.56,944.568 L 1011.13,944.169 L 1010.69,943.776 L 1010.25,943.388 L 1009.8,943.005 L 1009.35,942.628 L 1008.9,942.257 L 1008.44,941.891 L 1007.98,941.531 L 1007.51,941.176 L 1007.05,940.828 L 1006.57,940.485 L 1006.1,940.149 L 1005.62,939.819 L 1005.14,939.493 L 1004.65,939.176 L 1004.17,938.864 L 1003.68,938.559 L 1003.18,938.259 L 1002.69,937.965 L 1002.19,937.679 L 1001.69,937.399 L 1001.18,937.125 L 1000.66,936.851 L 1000.62,936.831 L 1000.07,938.049 L 1000.08,938.051 L 1000.56,938.301 L 1001.05,938.567 L 1001.53,938.839 L 1002.02,939.117 L 1002.5,939.4 L 1002.98,939.692 L 1003.46,939.989 L 1003.93,940.293 L 1004.4,940.603 L 1004.87,940.917 L 1005.34,941.24 L 1005.8,941.568 L 1006.26,941.9 L 1006.71,942.24 L 1007.16,942.584 L 1007.61,942.936 L 1008.06,943.292 L 1008.5,943.655 L 1008.94,944.021 L 1009.37,944.393 L 1009.8,944.771 L 1010.23,945.156 L 1010.65,945.544 L 1011.07,945.937 L 1011.49,946.337 L 1011.9,946.741 L 1012.31,947.149 L 1012.71,947.564 L 1013.11,947.983 L 1013.5,948.407 L 1013.89,948.833 L 1014.27,949.267 L 1014.65,949.705 L 1015.03,950.148 L 1015.4,950.593 L 1015.76,951.045 L 1016.12,951.5 L 1016.48,951.961 L 1016.83,952.425 L 1017.17,952.893 L 1017.51,953.365 L 1017.85,953.843 L 1018.18,954.323 L 1018.5,954.807 L 1018.82,955.295 L 1019.13,955.787 L 1019.44,956.283 L 1019.74,956.783 L 1020.04,957.287 L 1020.33,957.793 L 1020.61,958.303 L 1020.89,958.82 Z "/>
			</g>
		</g>
		<g id="dp_group006">
			<g id="dp_group007">
				<path id="dp_path008" fill="#efa002" fill-rule="evenodd" d="M 1049.07,880.636 L 1050.88,882.595 L 1054.49,886.512 L 1059.77,872.568 L 1045.45,876.719 Z "/>
				<path id="dp_path009" fill="#efa002" d="M 937.671,987.152 L 1050.88,882.596 L 1049.07,880.636 L 935.863,985.192 Z "/>
			</g>
		</g>
		<g id="dp_group010">
			<g id="dp_group011">
				<path id="dp_path012" fill="#efa002" fill-rule="evenodd" d="M 1080.23,894.756 L 1082.04,896.715 L 1085.66,900.632 L 1090.93,886.688 L 1076.61,890.839 Z "/>
				<path id="dp_path013" fill="#efa002" d="M 968.837,1001.27 L 1082.04,896.716 L 1080.23,894.756 L 967.029,999.312 Z "/>
			</g>
		</g>
		<g id="dp_group014">
			<g id="dp_group015">
				<path id="dp_path016" fill="#efa002" fill-rule="evenodd" d="M 1142.57,922.997 L 1144.38,924.956 L 1147.99,928.873 L 1153.27,914.929 L 1138.95,919.08 Z "/>
				<path id="dp_path017" fill="#efa002" d="M 1031.17,1029.51 L 1144.38,924.957 L 1142.57,922.997 L 1029.36,1027.55 Z "/>
			</g>
		</g>
		<text id="dp_text001" transform="matrix(1,0,0,1,1059.59,870.689)" xml:space="preserve" fill="#efa002" font-family="Arial" font-size="27" font-weight="700" x="0" y="0">E </text>
		<text id="dp_text002" transform="matrix(1,0,0,1,1113.45,968.524)" xml:space="preserve" fill="#4f00be" font-family="Arial" font-size="27" font-weight="700" x="0" y="0">p </text>
		<g id="dp_group020">
			<g id="dp_group021">
				<path id="dp_path022" fill="black" d="M 1030.52,923.511 L 1017.8,935.248 L 1001.28,927.252 L 1013.99,915.515 L 1030.52,923.511 L 1031.69,923.337 L 1013.88,914.717 L 1000.11,927.425 L 1017.92,936.045 L 1031.69,923.337 Z "/>
			</g>
		</g>
		<g id="dp_group023">
			<g id="dp_group024">
				<path id="dp_path025" fill="url(#grad_dp_001)" fill-rule="evenodd" d="M 1079.2,956.601 L 1079.37,961.932 L 1079.71,972.593 L 1105.94,958.424 L 1078.86,945.94 Z "/>
				<path id="dp_path026" fill="url(#grad_dp_002)" d="M 1079.2,956.603 L 963.204,960.263 L 963.372,965.593 L 1079.37,961.933 Z "/>
			</g>
		</g>
		<g id="dp_group027">
			<g id="dp_group028">
				<path id="dp_path029" fill="#efa002" fill-rule="evenodd" d="M 1111.4,908.876 L 1113.21,910.835 L 1116.83,914.752 L 1122.1,900.808 L 1107.78,904.959 Z "/>
				<path id="dp_path030" fill="#efa002" d="M 1000,1015.39 L 1113.21,910.836 L 1111.4,908.876 L 998.196,1013.43 Z "/>
			</g>
		</g>
		<path id="dp_path031" fill="black" fill-rule="evenodd" d="M 987.453,950.307 C 988.616,946.889 990.207,944.256 992.224,942.407 C 993.747,941.019 995.243,940.325 996.709,940.325 C 998.133,940.325 999.123,940.993 999.677,942.329 C 1000.45,944.196 1000.29,946.733 999.2,949.943 C 998.163,952.999 996.651,955.409 994.669,957.18 C 993.127,958.552 991.624,959.236 990.164,959.236 C 989.376,959.236 988.72,959.045 988.197,958.663 C 987.676,958.28 987.284,957.729 987.027,957.009 C 986.767,956.289 986.64,955.527 986.644,954.72 C 986.656,953.332 986.927,951.86 987.453,950.307 Z M 996.884,949.369 C 997.64,947.116 998.037,945.309 998.076,943.945 C 998.1,942.9 997.916,942.153 997.52,941.705 C 997.231,941.379 996.827,941.213 996.304,941.213 C 995.713,941.213 995.093,941.443 994.443,941.9 C 993.791,942.359 993.156,943.12 992.536,944.192 C 991.916,945.26 991.157,946.987 990.263,949.369 Z M 989.967,950.236 C 989.477,951.78 989.123,953.169 988.903,954.403 C 988.733,955.34 988.711,956.156 988.843,956.849 C 988.917,957.267 989.113,957.62 989.433,957.912 C 989.751,958.203 990.149,958.347 990.629,958.347 C 991.184,958.347 991.803,958.087 992.477,957.565 C 993.156,957.045 993.817,956.207 994.467,955.053 C 995.116,953.899 995.816,952.293 996.567,950.236 Z "/>
		<text id="dp_text003" transform="matrix(0.87462,0.48481,-0.48481,0.87462,1037.44,912.08)" xml:space="preserve" fill="#4f00be" font-family="Arial" font-size="27" font-weight="700" x="0" y="0">p</text>
		<text id="dp_text004" transform="matrix(0.87462,0.48481,-0.48481,0.87462,1037.44,912.08)" xml:space="preserve" fill="#4f00be" font-family="Arial" font-size="27" font-weight="400" x="16.2853" y="0">sin</text>
		<text id="dp_text005" transform="matrix(0.87462,0.48481,-0.48481,0.87462,1037.44,912.08)" xml:space="preserve" fill="#4f00be" font-family="Arial" font-size="27" font-weight="700" x="50.42" y="0"> </text>
		<text id="dp_text006" transform="matrix(0.737867,-0.674947,0.674947,0.737867,975.679,933.702)" xml:space="preserve" fill="#4f00be" font-family="Arial" font-size="27" font-weight="700" x="0" y="0">p</text>
		<text id="dp_text007" transform="matrix(0.737867,-0.674947,0.674947,0.737867,975.679,933.702)" xml:space="preserve" fill="#4f00be" font-family="Arial" font-size="27" font-weight="400" x="16.2853" y="0">cos</text>
		<text id="dp_text008" transform="matrix(0.737867,-0.674947,0.674947,0.737867,975.679,933.702)" xml:space="preserve" fill="#4f00be" font-family="Arial" font-size="27" font-weight="700" x="57.8867" y="0"> </text>
		<g id="dp_group038">
			<g id="dp_group039">
				<path id="dp_path040" fill="url(#grad_dp_003)" fill-rule="evenodd" d="M 998.756,926.371 L 1001.48,929.301 L 1006.92,935.164 L 1014.77,914.227 L 993.312,920.508 Z "/>
				<path id="dp_path041" fill="url(#grad_dp_004)" d="M 963.696,964.393 L 1001.48,929.303 L 998.756,926.372 L 960.973,961.463 Z "/>
			</g>
		</g>
		<g id="dp_group042">
			<g id="dp_group043">
				<path id="dp_path044" fill="url(#grad_dp_005)" fill-rule="evenodd" d="M 1088.65,948.173 L 1086.96,951.8 L 1083.59,959.053 L 1105.94,958.424 L 1092.02,940.92 Z "/>
				<path id="dp_path045" fill="url(#grad_dp_006)" d="M 1012.39,917.105 L 1086.96,951.801 L 1088.65,948.175 L 1014.08,913.479 Z "/>
			</g>
		</g>
		<g id="dp_group046">
			<g id="dp_group047">
				<path id="dp_path048" fill="#d60000" fill-rule="evenodd" d="M 961.467,897.629 L 968.133,897.629 L 981.467,897.629 L 964.8,864.296 L 948.133,897.629 Z "/>
				<path id="dp_path049" fill="#d60000" d="M 968.136,965.567 L 968.136,897.629 L 961.469,897.629 L 961.469,965.567 Z "/>
			</g>
		</g>
		<path id="dp_path050" fill="#d60000" fill-rule="evenodd" d="M 969.993,846.469 C 970.367,846.469 970.656,846.336 970.86,846.069 C 971.065,845.805 971.167,845.512 971.167,845.192 C 971.167,844.872 971.06,844.579 970.847,844.313 C 970.633,844.047 970.287,843.913 969.807,843.913 L 960.479,843.913 C 959.963,843.913 959.505,844.02 959.105,844.233 C 958.705,844.447 958.345,844.72 958.025,845.059 C 957.705,845.396 957.425,845.773 957.185,846.189 C 956.945,846.607 956.736,847.029 956.559,847.456 C 956.523,847.563 956.513,847.633 956.532,847.669 C 956.549,847.793 956.629,847.892 956.772,847.963 C 956.843,848.016 956.923,848.043 957.012,848.043 L 957.519,848.043 C 957.643,848.043 957.732,847.989 957.785,847.883 C 957.999,847.367 958.376,847.003 958.919,846.789 C 959.46,846.576 960.043,846.469 960.665,846.469 L 963.196,846.469 L 962.479,854.345 C 962.425,854.929 962.559,855.36 962.879,855.633 C 963.199,855.909 963.552,856.047 963.943,856.047 C 964.333,856.047 964.693,855.919 965.02,855.66 C 965.349,855.405 965.487,855.027 965.433,854.532 L 964.716,846.469 Z "/>
		<path id="dp_path051" fill="#4f00be" fill-rule="evenodd" d="M 1086.57,930.869 C 1089.24,928.44 1091.9,926.905 1094.56,926.263 C 1096.57,925.784 1098.21,925.9 1099.5,926.611 C 1100.74,927.299 1101.29,928.363 1101.13,929.8 C 1100.9,931.807 1099.53,933.952 1097.02,936.233 C 1094.64,938.405 1092.15,939.784 1089.56,940.376 C 1087.54,940.829 1085.9,940.701 1084.62,939.996 C 1083.93,939.613 1083.45,939.129 1083.18,938.543 C 1082.9,937.955 1082.83,937.284 1082.95,936.529 C 1083.07,935.773 1083.33,935.044 1083.72,934.34 C 1084.41,933.131 1085.35,931.975 1086.57,930.869 Z M 1095.27,934.611 C 1097.03,933.004 1098.25,931.615 1098.94,930.44 C 1099.47,929.537 1099.67,928.795 1099.54,928.211 C 1099.44,927.784 1099.17,927.445 1098.71,927.192 C 1098.19,926.907 1097.54,926.807 1096.75,926.892 C 1095.96,926.979 1095.03,927.337 1093.97,927.976 C 1092.91,928.611 1091.41,929.756 1089.48,931.407 Z M 1088.8,932.023 C 1087.63,933.139 1086.64,934.181 1085.85,935.155 C 1085.25,935.893 1084.84,936.597 1084.62,937.267 C 1084.48,937.669 1084.48,938.073 1084.62,938.483 C 1084.76,938.891 1085.04,939.209 1085.46,939.443 C 1085.94,939.711 1086.61,939.783 1087.45,939.652 C 1088.3,939.525 1089.28,939.112 1090.41,938.416 C 1091.54,937.719 1092.93,936.653 1094.58,935.216 Z "/>
		<path id="dp_path052" fill="#4f00be" fill-rule="evenodd" d="M 1015.63,885.605 C 1014.18,882.297 1013.58,879.28 1013.82,876.555 C 1014.01,874.503 1014.65,872.981 1015.73,871.993 C 1016.78,871.032 1017.96,870.859 1019.27,871.471 C 1021.1,872.329 1022.7,874.309 1024.06,877.415 C 1025.35,880.372 1025.86,883.171 1025.59,885.815 C 1025.38,887.868 1024.73,889.387 1023.65,890.371 C 1023.07,890.903 1022.45,891.204 1021.81,891.273 C 1021.17,891.343 1020.51,891.2 1019.83,890.843 C 1019.15,890.485 1018.55,890.008 1018.01,889.409 C 1017.08,888.376 1016.29,887.107 1015.63,885.605 Z M 1021.96,878.553 C 1021,876.38 1020.07,874.777 1019.18,873.744 C 1018.49,872.956 1017.86,872.529 1017.26,872.465 C 1016.83,872.419 1016.42,872.569 1016.03,872.921 C 1015.59,873.32 1015.29,873.908 1015.12,874.684 C 1014.95,875.463 1014.99,876.452 1015.26,877.663 C 1015.52,878.869 1016.12,880.656 1017.07,883.019 Z M 1017.44,883.857 C 1018.11,885.328 1018.79,886.593 1019.46,887.652 C 1019.97,888.459 1020.5,889.076 1021.07,889.5 C 1021.4,889.757 1021.78,889.887 1022.22,889.885 C 1022.65,889.887 1023.04,889.724 1023.39,889.4 C 1023.8,889.027 1024.09,888.417 1024.23,887.577 C 1024.38,886.736 1024.31,885.671 1024.01,884.381 C 1023.71,883.091 1023.14,881.433 1022.31,879.408 Z "/>
	</g>
</svg>