<?xml version="1.0" encoding="UTF-8" standalone="no"?>
<!-- Generator: Adobe Illustrator 21.0.2, SVG Export Plug-In . SVG Version: 6.00 Build 0)  -->

<svg
   xmlns:dc="http://purl.org/dc/elements/1.1/"
   xmlns:cc="http://creativecommons.org/ns#"
   xmlns:rdf="http://www.w3.org/1999/02/22-rdf-syntax-ns#"
   xmlns:svg="http://www.w3.org/2000/svg"
   xmlns="http://www.w3.org/2000/svg"
   xmlns:sodipodi="http://sodipodi.sourceforge.net/DTD/sodipodi-0.dtd"
   xmlns:inkscape="http://www.inkscape.org/namespaces/inkscape"
   version="1.1"
   id="Layer_1"
   x="0px"
   y="0px"
   viewBox="0 0 994.7 665.3"
   style="enable-background:new 0 0 994.7 665.3;"
   xml:space="preserve"
   sodipodi:docname="Free_body1.3.svg"
   inkscape:version="0.92.3 (2405546, 2018-03-11)"><metadata
   id="metadata209"><rdf:RDF><cc:Work
       rdf:about=""><dc:format>image/svg+xml</dc:format><dc:type
         rdf:resource="http://purl.org/dc/dcmitype/StillImage" /><dc:title>Artboard 1</dc:title></cc:Work></rdf:RDF></metadata><defs
   id="defs207">
	
	
	
	
	
	
</defs><sodipodi:namedview
   pagecolor="#ffffff"
   bordercolor="#666666"
   borderopacity="1"
   objecttolerance="10"
   gridtolerance="10"
   guidetolerance="10"
   inkscape:pageopacity="0"
   inkscape:pageshadow="2"
   inkscape:window-width="1440"
   inkscape:window-height="837"
   id="namedview205"
   showgrid="false"
   inkscape:zoom="0.95405649"
   inkscape:cx="523.57605"
   inkscape:cy="313.16042"
   inkscape:window-x="-8"
   inkscape:window-y="-8"
   inkscape:window-maximized="1"
   inkscape:current-layer="Layer_1" />
<style
   type="text/css"
   id="style113">
	.st0{fill:#FFFFFF;stroke:#000000;stroke-miterlimit:10;}
	.st1{fill:none;stroke:#0B21F4;stroke-width:5;}
	.st2{fill:none;stroke:#F7063A;stroke-width:7;}
	.st3{enable-background:new    ;}
	.st4{fill:none;stroke:#090A0F;stroke-width:8;}
	.st5{fill:none;stroke:#090A0F;stroke-width:8;stroke-dasharray:12.11,12.11;}
	.st6{fill:#090A0F;}
	.st7{fill:none;stroke:#08080A;stroke-width:7;}
	.st8{fill:#08080A;}
	.st9{fill:none;stroke:#08080A;stroke-width:7;stroke-dasharray:12.52,12.52;}
</style>

<title
   id="title117">Artboard 1</title>
<g
   id="Shapes">
	<polygon
   class="st1"
   points="487.8,350.9 662.3,234.4 609.7,158.4 435.7,275.3  "
   id="polygon119" />
	<path
   class="st2"
   d="m 281.31138,657.49778 c 0,0 3.6695,-98.00356 -41.4765,-134.02291"
   id="path121"
   inkscape:connector-curvature="0"
   style="fill:none;stroke:#f7063a;stroke-width:7" />
	<polyline
   class="st2"
   points="886,656.7 886,569.3 974.7,569.3  "
   id="polyline123" />
	<polygon
   class="st2"
   points="38.7,656.7 974.7,32.7 974.7,656.7  "
   id="polygon125" />
</g>

<g
   id="Layer_1_1_">
	<line
   class="st4"
   x1="558.2"
   y1="256.8"
   x2="553.3"
   y2="260.2"
   id="line175" />
	<line
   class="st5"
   x1="543.2"
   y1="266.9"
   x2="447.6"
   y2="331"
   id="line177" />
	<line
   class="st4"
   x1="442.6"
   y1="334.4"
   x2="437.6"
   y2="337.7"
   id="line179" />
	<polygon
   class="st6"
   points="405.7,359.1 438.4,310.6 440,336.1 463,347.3  "
   id="polygon181" />
	<line
   class="st4"
   x1="561"
   y1="255.6"
   x2="681.2"
   y2="173.9"
   id="line183" />
	<polygon
   class="st6"
   points="712.9,152.3 680.6,201 678.8,175.5 655.7,164.5  "
   id="polygon185" />
	<line
   class="st7"
   x1="577.4"
   y1="296.7"
   x2="414.8"
   y2="54.3"
   id="line187" />
	<polygon
   class="st8"
   points="393.9,23.1 441.3,55 416.3,56.6 405.4,79.1  "
   id="polygon189" />
	<line
   class="st7"
   x1="575.1"
   y1="294.4"
   x2="578.5"
   y2="299.4"
   id="line191" />
	<line
   class="st9"
   x1="585.5"
   y1="309.7"
   x2="680.2"
   y2="449.7"
   id="line193" />
	<line
   class="st7"
   x1="683.7"
   y1="454.9"
   x2="687.1"
   y2="459.8"
   id="line195" />
	<polygon
   class="st8"
   points="707.6,490.1 661.3,459.2 685.6,457.6 696.1,435.6  "
   id="polygon197" />
	<line
   class="st7"
   x1="551.3"
   y1="259.5"
   x2="551.4"
   y2="573.5"
   id="line199" />
	<polygon
   class="st8"
   points="551.4,611 529.8,558.1 551.4,570.7 573,558.1  "
   id="polygon201" />
</g>
<g
   id="g4000"><g
     class="st3"
     id="g140"
     style="enable-background:new">
		
		
		
		
		
		
	</g><g
     class="st3"
     id="g154"
     style="enable-background:new">
		
		
		
		
		
		
	</g><g
     class="st3"
     id="g160"
     style="enable-background:new">
		<path
   d="m 458.1,474.5 c 1.3,0.9 2,2.4 2,4.4 0,0.9 -0.2,2.2 -0.7,3.8 -0.4,1.6 -1.3,4.3 -2.4,7.9 3,-4.6 5.6,-8.1 7.8,-10.5 3.9,-4.3 7.4,-6.5 10.4,-6.5 1.3,0 2.4,0.4 3.5,1.3 1.1,0.9 1.6,2.2 1.6,4.2 0,0.6 -0.3,2 -0.8,4.3 l -6.4,22.1 c -0.1,0.3 -0.1,0.7 0.1,1.1 0.2,0.4 0.5,0.5 1.1,0.5 0.5,0 0.9,-0.1 1.3,-0.4 0.4,-0.3 0.8,-0.6 1.4,-1.2 0.5,-0.5 1,-1 1.3,-1.4 0.3,-0.4 1.3,-1.6 2.9,-3.5 l 1.3,1 -0.4,0.6 c -1.9,2.8 -3.9,5 -5.9,6.6 -2,1.6 -3.9,2.5 -5.8,2.5 -0.9,0 -1.6,-0.2 -2.2,-0.6 -0.9,-0.7 -1.4,-1.9 -1.4,-3.5 0,-0.4 0,-0.8 0.1,-1.3 0.1,-0.5 0.2,-1 0.3,-1.5 l 6.3,-22.7 c 0.1,-0.3 0.1,-0.6 0.2,-0.8 0.1,-0.2 0.1,-0.4 0.1,-0.6 0,-0.6 -0.2,-1.1 -0.5,-1.5 -0.3,-0.4 -0.8,-0.5 -1.3,-0.5 -1.8,0 -4,1.4 -6.5,4.1 -2.5,2.7 -4.6,5.5 -6.4,8.3 -1.7,2.9 -2.8,5.3 -3.5,7.2 -0.7,1.9 -1.9,6.2 -3.7,12.7 h -6.3 l 8.1,-28.9 c 0.1,-0.2 0.1,-0.5 0.1,-0.7 0,-0.2 0.1,-0.5 0.1,-0.7 0,-0.6 -0.1,-1.2 -0.4,-1.5 -0.3,-0.4 -0.8,-0.5 -1.4,-0.5 -1.7,0 -3.9,1.4 -6.4,4.3 -2.6,2.8 -4.6,5.5 -6.3,8 -1.6,2.4 -3.1,5.6 -4.6,9.6 -0.9,2.4 -2,5.9 -3.4,10.5 H 425 l 7.8,-28.8 c 0.1,-0.3 0.1,-0.6 0.2,-0.9 0.1,-0.3 0.1,-0.6 0.1,-0.9 0,-1.1 -0.4,-1.7 -1.1,-1.9 -0.7,-0.2 -2.1,-0.3 -4.2,-0.2 v -1.3 c 2.7,-0.4 7.1,-1.3 13.2,-2.7 l 0.3,0.3 -4.6,16.6 c 3,-4.4 5.9,-8.1 8.6,-11 3.7,-3.9 7,-5.9 9.9,-5.9 1.1,-0.3 2,-0.1 2.9,0.5 z"
   id="path156"
   inkscape:connector-curvature="0" />
		<path
   d="m 486.9,512.5 c 1.6,-1.8 4,-3.6 7.4,-5.5 -0.7,-0.4 -1.2,-0.9 -1.7,-1.4 -0.4,-0.5 -0.6,-1.1 -0.6,-1.9 0,-1.1 0.8,-2.4 2.3,-3.8 0.9,-0.8 2.3,-1.9 4.2,-3.2 -1.7,-0.6 -3.2,-1.6 -4.5,-2.8 -1.5,-1.6 -2.3,-3.7 -2.3,-6.2 0,-4.1 1.6,-7.5 4.8,-10.2 3.2,-2.7 7.1,-4.1 11.8,-4.1 2.5,0 4.5,0.4 6.2,1.2 1.7,0.8 2.7,1.4 3,1.9 h 5.5 v 3.3 h -4 c 0.2,0.6 0.3,1.1 0.4,1.6 0.1,0.5 0.1,1.2 0.1,2.1 0,4.4 -1.7,7.8 -5.1,10.3 -3.4,2.5 -7,3.8 -11,3.8 -0.4,0 -0.8,0 -1.1,-0.1 -0.4,0 -0.8,-0.1 -1.3,-0.2 -0.4,0 -1,0.4 -1.7,1.2 -0.7,0.8 -1.1,1.5 -1.1,2.1 0,0.9 3,2.5 8.9,4.7 5.9,2.2 8.9,5.5 8.9,9.8 0,3.2 -1.5,6.1 -4.5,8.5 -3,2.4 -7.5,3.7 -13.5,3.7 -4.2,0 -7.5,-0.9 -9.9,-2.7 -2.4,-1.8 -3.6,-4 -3.6,-6.5 0.1,-1.8 0.9,-3.7 2.4,-5.6 z m 20.9,10.9 c 2.1,-1.5 3.2,-3.4 3.2,-5.5 0,-1.6 -0.6,-3 -1.7,-4.1 -0.6,-0.6 -1.6,-1.2 -2.9,-1.9 -1.1,-0.5 -3,-1.3 -5.6,-2.3 -2.6,-1 -4.2,-1.5 -4.6,-1.5 -0.7,0 -2.1,0.9 -4.1,2.8 -2,1.9 -3,4 -3,6.4 0,3.6 1.6,6.1 4.7,7.4 1.6,0.7 3.6,1.1 6,1.1 3.2,-0.1 5.8,-0.8 8,-2.4 z m -8.7,-29.8 c 0.9,1.6 2.4,2.5 4.7,2.5 2.4,0 4.6,-1.5 6.5,-4.6 1.9,-3.1 2.9,-6.5 2.9,-10.2 0,-1.8 -0.4,-3.2 -1.2,-4.2 -0.8,-1 -2,-1.5 -3.5,-1.5 -3,0 -5.5,1.6 -7.3,4.8 -1.9,3.2 -2.8,6.3 -2.8,9.3 -0.1,1.6 0.2,2.9 0.7,3.9 z"
   id="path158"
   inkscape:connector-curvature="0" />
	</g><g
     class="st3"
     id="g164"
     style="enable-background:new">
		<path
   d="m 483.9,112 c 2.4,-0.4 4.1,-1.2 5,-2.6 1,-1.3 2.2,-4.6 3.6,-9.7 l 9.6,-34.8 c 0.1,-0.2 -0.2,-0.6 -0.7,-1.4 -0.5,-0.8 -1,-1.4 -1.5,-1.7 -0.5,-0.4 -1.1,-0.6 -1.8,-0.8 -0.7,-0.2 -1.7,-0.3 -2.9,-0.5 v -1.3 h 13.3 l 17,41 h 0.3 l 8.3,-31.7 c 0.2,-0.9 0.4,-1.8 0.6,-2.6 0.1,-0.8 0.2,-1.3 0.2,-1.7 0,-1.5 -0.6,-2.6 -1.9,-3.1 -0.8,-0.4 -2.1,-0.6 -3.9,-0.7 v -1.3 h 16.5 v 1.3 c -2.5,0.5 -4.2,1.4 -5.1,2.6 -0.9,1.2 -2.1,4.4 -3.5,9.6 l -9.9,35.5 c -0.3,1.2 -0.5,2 -0.7,2.5 -0.1,0.5 -0.5,1.8 -1,3.9 h -1.6 L 504.9,69.2 h -0.4 l -9.2,34.5 c -0.2,0.6 -0.3,1.4 -0.5,2.2 -0.2,0.9 -0.3,1.6 -0.3,2.1 0,1.5 0.7,2.6 2.1,3.2 0.8,0.4 2.1,0.6 3.8,0.6 v 1.3 h -16.5 z"
   id="path162"
   inkscape:connector-curvature="0" />
	</g><g
     class="st3"
     id="g168"
     style="enable-background:new">
		
	</g><g
     class="st3"
     id="g172"
     style="enable-background:new">
		<path
   d="m 216.7,591.3 c -0.1,8.8 -2.5,17.6 -7.3,26.5 -2.3,4.2 -5.1,7.6 -8.2,10.2 -3.3,2.7 -6.8,4.1 -10.6,4.1 -2.6,-0.1 -4.7,-0.7 -6.4,-1.9 -1.6,-1.2 -2.9,-2.8 -3.8,-4.7 -0.9,-1.9 -1.5,-4 -1.8,-6.2 -0.3,-2.2 -0.5,-4.3 -0.5,-6.4 0.1,-8.8 2.6,-17.4 7.5,-26 2.4,-4 5.1,-7.3 8.3,-9.8 3.1,-2.5 6.5,-3.8 10.1,-3.8 2.6,0 4.8,0.5 6.6,1.6 1.6,1.1 2.9,2.6 3.8,4.3 1.6,3.8 2.4,7.9 2.3,12.1 z m -29.1,11.5 c -1.8,5.1 -2.7,11.5 -2.9,19.3 0,2 0.5,3.8 1.6,5.5 1,1.6 2.6,2.4 4.8,2.5 1.1,0 2.2,-0.3 3.2,-1 1,-0.6 1.9,-1.5 2.8,-2.5 1.8,-2.2 3.3,-4.8 4.7,-7.9 2.8,-6.8 4.6,-12.1 5.4,-15.9 z m 20.3,-2.8 c 0.6,-2.5 1.1,-5 1.6,-7.5 0.4,-2.4 0.6,-4.8 0.6,-7.3 0.1,-2.4 -0.2,-4.7 -0.7,-6.8 -0.4,-1 -1,-1.8 -1.8,-2.4 -0.9,-0.5 -2.1,-0.8 -3.6,-0.8 -2.1,0.1 -4,1 -5.6,2.7 -1.7,1.8 -3.2,4.1 -4.5,6.8 -1.3,2.6 -2.3,5.3 -3.2,8.1 -0.9,2.8 -1.7,5.1 -2.1,7.1 h 19.3 z"
   id="path170"
   inkscape:connector-curvature="0" />
	</g><g
     aria-label="mg sin θ"
     style="font-style:normal;font-weight:normal;font-size:83.60559845px;line-height:1.25;font-family:sans-serif;letter-spacing:0px;word-spacing:0px;fill:#000000;fill-opacity:1;stroke:none;stroke-width:1"
     id="text3916"><path
       d="m 113.44063,334.43741 -5.30699,18.41119 q 3.5516,-6.49086 6.04181,-9.75671 3.87819,-5.06206 7.55226,-7.34815 2.16362,-1.30633 4.53136,-1.30633 2.04115,0 3.38831,1.30633 1.34716,1.30634 1.34716,3.34749 0,2.00033 -0.93893,5.22535 l -2.89843,10.36906 q 6.65415,-12.45103 12.61432,-17.47227 3.30666,-2.77596 6.53169,-2.77596 1.87786,0 3.06172,1.30633 1.2247,1.26552 1.2247,3.95984 0,2.36774 -0.73482,5.02123 l -4.49053,15.88017 q -1.46963,5.18453 -1.46963,5.75605 0,0.57152 0.3674,0.97975 0.24494,0.28576 0.65317,0.28576 0.40823,0 1.42881,-0.77563 2.32691,-1.79622 4.36806,-4.73548 l 1.34716,0.85729 q -1.02057,1.63292 -3.63325,4.49053 -2.57185,2.85761 -4.40889,3.87819 -1.83703,1.02058 -3.38831,1.02058 -1.4288,0 -2.40856,-0.97976 -0.93893,-0.97975 -0.93893,-2.40856 0,-1.9595 1.67375,-7.87884 l 3.71489,-13.1042 q 1.26552,-4.53136 1.34716,-5.02124 0.12247,-0.77563 0.12247,-1.51045 0,-1.02058 -0.44905,-1.5921 -0.48988,-0.57152 -1.10222,-0.57152 -1.71457,0 -3.63325,1.75539 -5.63358,5.18453 -10.53235,14.533 -3.22502,6.16428 -6.04181,15.79852 h -6.16428 l 6.98074,-24.69794 q 1.14305,-4.00066 1.14305,-5.34782 0,-1.10222 -0.44906,-1.63292 -0.44905,-0.5307 -1.10222,-0.5307 -1.34716,0 -2.85761,0.97975 -2.44939,1.5921 -6.32757,6.81745 -3.83737,5.22535 -5.96017,10.00165 -1.02058,2.24527 -4.85794,14.41053 h -6.041813 l 7.552263,-26.45333 0.97975,-3.42914 q 0.28577,-0.77563 0.28577,-1.14304 0,-0.89811 -0.81647,-1.5921 -0.81646,-0.73482 -2.08197,-0.73482 -0.5307,0 -2.93926,0.48988 l -0.367408,-1.51045 z"
       style="font-style:italic;font-variant:normal;font-weight:normal;font-stretch:normal;font-family:Times;-inkscape-font-specification:'Times Italic';stroke-width:1"
       id="path4002" /><path
       d="m 199.2915,336.96844 -1.18387,4.24559 h -6.81745 q 0.77564,2.20445 0.77564,4.12313 0,5.38864 -4.57218,9.59342 -4.613,4.20477 -12.65514,4.65382 -4.32725,1.30634 -6.49087,3.10255 -0.81646,0.65317 -0.81646,1.34716 0,0.81647 0.73482,1.51046 0.73481,0.65317 3.71489,1.34716 l 7.91967,1.83704 q 6.57251,1.55127 8.69531,3.67407 2.08198,2.16362 2.08198,4.98041 0,3.34749 -2.49021,6.12346 -2.44938,2.77597 -7.22568,4.32724 -4.73547,1.5921 -10.49152,1.5921 -5.06206,0 -9.22601,-1.22469 -4.16395,-1.18387 -5.96016,-3.22502 -1.79622,-2.04115 -1.79622,-4.20478 0,-1.75539 1.18387,-3.67407 1.14305,-1.87786 2.89844,-3.10255 1.10222,-0.77564 6.24592,-3.67408 -1.87786,-1.46963 -1.87786,-3.22502 0,-1.63292 1.63293,-3.46996 1.67374,-1.83703 7.02156,-4.04148 -4.49054,-0.85728 -7.14403,-3.75572 -2.61268,-2.89843 -2.61268,-6.45004 0,-5.79687 5.06206,-10.36905 5.10288,-4.57218 13.55325,-4.57218 3.06173,0 5.02124,0.61234 1.9595,0.61235 3.79654,1.91869 z m -14.1656,6.40921 q 0,-3.26584 -1.83703,-5.1437 -1.79622,-1.87786 -4.73548,-1.87786 -4.613,0 -7.63391,4.65383 -2.98008,4.613 -2.98008,9.63424 0,3.14337 1.91868,5.1437 1.91869,2.00033 4.65383,2.00033 2.16362,0 4.16395,-1.18387 2.04115,-1.18387 3.42914,-3.26584 1.38798,-2.08198 2.20444,-5.307 0.81646,-3.22502 0.81646,-4.65383 z m -19.55424,28.00461 q -3.30666,1.51046 -5.02123,3.87819 -1.67374,2.36774 -1.67374,4.65383 0,2.69432 2.44938,4.44971 3.51078,2.53103 10.28741,2.53103 5.83769,0 9.96082,-2.00033 4.16395,-1.9595 4.16395,-5.10288 0,-1.5921 -1.55128,-3.0209 -1.51045,-1.42881 -5.91934,-2.32692 -2.40856,-0.48987 -12.69597,-3.06173 z"
       style="font-style:italic;font-variant:normal;font-weight:normal;font-stretch:normal;font-family:Times;-inkscape-font-specification:'Times Italic';stroke-width:1"
       id="path4004" /><path
       d="m 245.21743,332.88613 v 12.73679 h -1.34716 q -1.55128,-6.00099 -4.00066,-8.16461 -2.40856,-2.16362 -6.16428,-2.16362 -2.85762,0 -4.61301,1.51045 -1.75539,1.51046 -1.75539,3.34749 0,2.28609 1.30634,3.91902 1.26551,1.67374 5.1437,3.5516 l 5.96017,2.89844 q 8.28708,4.04148 8.28708,10.65481 0,5.10288 -3.87819,8.24626 -3.83737,3.10255 -8.61367,3.10255 -3.42913,0 -7.83802,-1.22469 -1.34716,-0.40823 -2.20445,-0.40823 -0.93893,0 -1.46963,1.0614 h -1.34716 v -13.34914 h 1.34716 q 1.14305,5.71523 4.36807,8.61366 3.22502,2.89844 7.22568,2.89844 2.81679,0 4.57218,-1.63292 1.79622,-1.67375 1.79622,-4.00066 0,-2.81679 -2.00033,-4.73547 -1.95951,-1.91869 -7.87885,-4.85795 -5.91934,-2.93926 -7.75638,-5.30699 -1.83704,-2.32692 -1.83704,-5.87852 0,-4.61301 3.14338,-7.71556 3.18419,-3.10255 8.20543,-3.10255 2.20444,0 5.34782,0.93893 2.08197,0.61235 2.77597,0.61235 0.65316,0 1.02057,-0.28576 0.36741,-0.28577 0.85729,-1.26552 z"
       style="font-style:normal;font-variant:normal;font-weight:normal;font-stretch:normal;font-family:Times;-inkscape-font-specification:Times;stroke-width:1"
       id="path4006" /><path
       d="m 263.05709,313.33189 q 1.71457,0 2.89844,1.22469 1.22469,1.18387 1.22469,2.89844 0,1.71457 -1.22469,2.93926 -1.18387,1.22469 -2.89844,1.22469 -1.71457,0 -2.93926,-1.22469 -1.22469,-1.22469 -1.22469,-2.93926 0,-1.71457 1.18387,-2.89844 1.22469,-1.22469 2.98008,-1.22469 z m 3.38832,19.55424 v 30.04576 q 0,3.51078 0.48987,4.69465 0.5307,1.14305 1.51045,1.71457 1.02058,0.57152 3.67408,0.57152 v 1.46963 h -18.16626 v -1.46963 q 2.73515,0 3.67408,-0.5307 0.93893,-0.5307 1.46963,-1.75539 0.57152,-1.22469 0.57152,-4.69465 v -14.41053 q 0,-6.08264 -0.36741,-7.87885 -0.28576,-1.30634 -0.8981,-1.79621 -0.61235,-0.5307 -1.67375,-0.5307 -1.14305,0 -2.77597,0.61234 l -0.57152,-1.46963 11.26716,-4.57218 z"
       style="font-style:normal;font-variant:normal;font-weight:normal;font-stretch:normal;font-family:Times;-inkscape-font-specification:Times;stroke-width:1"
       id="path4008" /><path
       d="m 287.63258,340.8058 q 6.57251,-7.91967 12.53267,-7.91967 3.06173,0 5.26617,1.55128 2.20445,1.51045 3.51079,5.02123 0.8981,2.44938 0.8981,7.51144 v 15.96181 q 0,3.55161 0.57153,4.81712 0.44905,1.02058 1.4288,1.5921 1.02058,0.57152 3.7149,0.57152 v 1.46963 H 297.0627 v -1.46963 h 0.77564 q 2.61267,0 3.63325,-0.77563 1.0614,-0.81647 1.46963,-2.36774 0.16329,-0.61235 0.16329,-3.83737 v -15.30864 q 0,-5.10288 -1.34716,-7.38897 -1.30634,-2.32691 -4.44971,-2.32691 -4.85794,0 -9.67506,5.30699 v 19.71753 q 0,3.79655 0.44905,4.69465 0.57152,1.18387 1.55128,1.75539 1.02057,0.5307 4.0823,0.5307 v 1.46963 h -18.49284 v -1.46963 h 0.81646 q 2.85761,0 3.83737,-1.4288 1.02057,-1.46963 1.02057,-5.55194 v -13.87983 q 0,-6.73581 -0.32658,-8.20544 -0.28576,-1.46962 -0.93893,-2.00032 -0.61235,-0.5307 -1.67375,-0.5307 -1.14304,0 -2.73514,0.61234 l -0.61235,-1.46963 11.26716,-4.57218 h 1.7554 z"
       style="font-style:normal;font-variant:normal;font-weight:normal;font-stretch:normal;font-family:Times;-inkscape-font-specification:Times;stroke-width:1"
       id="path4010" /><path
       d="m 367.89068,313.33189 q 11.34881,0 11.34881,15.55358 0,9.3893 -4.61301,20.81976 -4.57218,11.38963 -10.49152,17.02321 -5.87852,5.63358 -12.12445,5.63358 -5.10288,0 -8.3279,-4.32725 -3.1842,-4.36806 -3.1842,-10.85893 0,-4.16395 1.83704,-11.5121 1.83704,-7.34814 5.51111,-14.81876 3.67408,-7.51144 9.18519,-12.49185 5.55193,-5.02124 10.85893,-5.02124 z m 2.53103,27.75967 q 2.73514,-8.61366 2.73514,-16.73745 0,-9.30765 -5.26617,-9.30765 -4.61301,0 -9.06272,6.98074 -4.44971,6.93992 -8.16461,19.06436 z m -20.53399,2.32692 q -3.75572,11.71621 -3.75572,17.96214 0,4.0823 1.67374,6.69498 1.67375,2.57185 4.98041,2.57185 2.73515,0 5.14371,-2.16362 2.40856,-2.20445 5.63358,-8.89943 3.22502,-6.69498 6.08263,-16.16592 z"
       style="font-style:italic;font-variant:normal;font-weight:normal;font-stretch:normal;font-family:Times;-inkscape-font-specification:'Times Italic';stroke-width:1"
       id="path4012" /></g><g
     aria-label="mg cos θ"
     style="font-style:normal;font-weight:normal;font-size:83.60559845px;line-height:1.25;font-family:sans-serif;letter-spacing:0px;word-spacing:0px;fill:#000000;fill-opacity:1;stroke:none;stroke-width:1"
     id="text3916-2"><path
       d="m 680.04615,355.7977 -5.307,18.41119 q 3.55161,-6.49086 6.04181,-9.75671 3.87819,-5.06205 7.55227,-7.34815 2.16362,-1.30633 4.53135,-1.30633 2.04116,0 3.38832,1.30633 1.34716,1.30634 1.34716,3.34749 0,2.00033 -0.93893,5.22535 l -2.89844,10.36906 q 6.65416,-12.45103 12.61432,-17.47227 3.30667,-2.77596 6.53169,-2.77596 1.87786,0 3.06173,1.30633 1.22469,1.26552 1.22469,3.95984 0,2.36774 -0.73482,5.02123 l -4.49053,15.88017 q -1.46963,5.18453 -1.46963,5.75605 0,0.57152 0.36741,0.97975 0.24494,0.28576 0.65317,0.28576 0.40823,0 1.4288,-0.77563 2.32692,-1.79622 4.36807,-4.73548 l 1.34716,0.85729 q -1.02058,1.63292 -3.63325,4.49053 -2.57185,2.85761 -4.40889,3.87819 -1.83704,1.02058 -3.38831,1.02058 -1.42881,0 -2.40856,-0.97976 -0.93893,-0.97975 -0.93893,-2.40856 0,-1.9595 1.67374,-7.87884 l 3.7149,-13.1042 q 1.26551,-4.53136 1.34716,-5.02124 0.12247,-0.77563 0.12247,-1.51045 0,-1.02058 -0.44906,-1.5921 -0.48987,-0.57152 -1.10222,-0.57152 -1.71457,0 -3.63325,1.75539 -5.63358,5.18453 -10.53234,14.533 -3.22502,6.16428 -6.04182,15.79852 h -6.16428 l 6.98075,-24.69794 q 1.14304,-4.00066 1.14304,-5.34782 0,-1.10222 -0.44905,-1.63292 -0.44906,-0.5307 -1.10222,-0.5307 -1.34717,0 -2.85762,0.97975 -2.44938,1.5921 -6.32757,6.81745 -3.83737,5.22535 -5.96016,10.00165 -1.02058,2.24527 -4.85795,14.41053 h -6.04181 l 7.55227,-26.45333 0.97975,-3.42914 q 0.28576,-0.77563 0.28576,-1.14304 0,-0.89811 -0.81646,-1.5921 -0.81646,-0.73481 -2.08198,-0.73481 -0.5307,0 -2.93926,0.48987 l -0.3674,-1.51045 z"
       style="font-style:italic;font-variant:normal;font-weight:normal;font-stretch:normal;font-family:Times;-inkscape-font-specification:'Times Italic';stroke-width:1"
       id="path4015" /><path
       d="m 765.89702,358.32873 -1.18387,4.24559 h -6.81745 q 0.77564,2.20445 0.77564,4.12313 0,5.38864 -4.57218,9.59342 -4.61301,4.20477 -12.65515,4.65382 -4.32724,1.30634 -6.49086,3.10255 -0.81646,0.65317 -0.81646,1.34717 0,0.81646 0.73481,1.51045 0.73482,0.65317 3.7149,1.34716 l 7.91967,1.83704 q 6.57251,1.55127 8.69531,3.67407 2.08197,2.16362 2.08197,4.98041 0,3.34749 -2.4902,6.12346 -2.44939,2.77597 -7.22568,4.32724 -4.73548,1.5921 -10.49153,1.5921 -5.06205,0 -9.226,-1.22469 -4.16395,-1.18387 -5.96017,-3.22502 -1.79621,-2.04115 -1.79621,-4.20478 0,-1.75539 1.18387,-3.67407 1.14304,-1.87786 2.89843,-3.10255 1.10222,-0.77564 6.24593,-3.67408 -1.87786,-1.46963 -1.87786,-3.22502 0,-1.63292 1.63292,-3.46996 1.67374,-1.83703 7.02156,-4.04148 -4.49053,-0.85728 -7.14403,-3.75572 -2.61267,-2.89843 -2.61267,-6.45004 0,-5.79687 5.06205,-10.36905 5.10288,-4.57218 13.55326,-4.57218 3.06172,0 5.02123,0.61234 1.95951,0.61235 3.79654,1.91869 z m -14.1656,6.40921 q 0,-3.26584 -1.83704,-5.1437 -1.79621,-1.87786 -4.73547,-1.87786 -4.61301,0 -7.63391,4.65383 -2.98008,4.613 -2.98008,9.63424 0,3.14337 1.91868,5.1437 1.91868,2.00033 4.65383,2.00033 2.16362,0 4.16395,-1.18387 2.04115,-1.18387 3.42913,-3.26584 1.38799,-2.08198 2.20445,-5.307 0.81646,-3.22502 0.81646,-4.65383 z m -19.55424,28.00461 q -3.30667,1.51046 -5.02124,3.87819 -1.67374,2.36774 -1.67374,4.65383 0,2.69432 2.44938,4.44971 3.51078,2.53103 10.28741,2.53103 5.8377,0 9.96082,-2.00033 4.16395,-1.9595 4.16395,-5.10288 0,-1.5921 -1.55127,-3.0209 -1.51045,-1.42881 -5.91934,-2.32692 -2.40856,-0.48987 -12.69597,-3.06173 z"
       style="font-style:italic;font-variant:normal;font-weight:normal;font-stretch:normal;font-family:Times;-inkscape-font-specification:'Times Italic';stroke-width:1"
       id="path4017" /><path
       d="m 819.41603,378.53613 q -1.51046,7.38898 -5.91934,11.38963 -4.40889,3.95984 -9.75671,3.95984 -6.3684,0 -11.10387,-5.34782 -4.73547,-5.34782 -4.73547,-14.45136 0,-8.81778 5.22535,-14.32889 5.26617,-5.51111 12.61432,-5.51111 5.51111,0 9.06271,2.93926 3.55161,2.89844 3.55161,6.04181 0,1.55128 -1.02058,2.53103 -0.97975,0.93893 -2.77597,0.93893 -2.40856,0 -3.63325,-1.55128 -0.69399,-0.85728 -0.93893,-3.26584 -0.20411,-2.40856 -1.63292,-3.67407 -1.42881,-1.22469 -3.95983,-1.22469 -4.08231,0 -6.57251,3.0209 -3.30667,4.00066 -3.30667,10.57317 0,6.69498 3.26584,11.83868 3.30667,5.10288 8.89943,5.10288 4.00066,0 7.18485,-2.73514 2.24527,-1.87786 4.36807,-6.81745 z"
       style="font-style:normal;font-variant:normal;font-weight:normal;font-stretch:normal;font-family:Times;-inkscape-font-specification:Times;stroke-width:1"
       id="path4019" /><path
       d="m 843.01175,354.24642 q 8.49119,0 13.6349,6.45004 4.36806,5.51111 4.36806,12.65515 0,5.02123 -2.40856,10.16494 -2.40855,5.1437 -6.65415,7.75637 -4.20478,2.61268 -9.3893,2.61268 -8.45037,0 -13.43078,-6.7358 -4.20478,-5.67441 -4.20478,-12.73679 0,-5.14371 2.53103,-10.20577 2.57185,-5.10288 6.7358,-7.51144 4.16395,-2.44938 8.81778,-2.44938 z m -1.26551,2.6535 q -2.16362,0 -4.36807,1.30634 -2.16362,1.26551 -3.51078,4.49053 -1.34716,3.22502 -1.34716,8.28708 0,8.16461 3.22502,14.08395 3.26584,5.91934 8.57284,5.91934 3.95983,0 6.53169,-3.26584 2.57185,-3.26584 2.57185,-11.22634 0,-9.96082 -4.28642,-15.67605 -2.89844,-3.91901 -7.38897,-3.91901 z"
       style="font-style:normal;font-variant:normal;font-weight:normal;font-stretch:normal;font-family:Times;-inkscape-font-specification:Times;stroke-width:1"
       id="path4021" /><path
       d="m 890.69307,354.24642 v 12.73679 h -1.34717 q -1.55127,-6.00099 -4.00065,-8.16461 -2.40856,-2.16362 -6.16428,-2.16362 -2.85762,0 -4.61301,1.51045 -1.75539,1.51046 -1.75539,3.34749 0,2.28609 1.30634,3.91902 1.26551,1.67374 5.1437,3.5516 l 5.96017,2.89844 q 8.28708,4.04148 8.28708,10.65481 0,5.10288 -3.87819,8.24626 -3.83737,3.10255 -8.61367,3.10255 -3.42913,0 -7.83802,-1.22469 -1.34716,-0.40823 -2.20445,-0.40823 -0.93893,0 -1.46963,1.0614 h -1.34716 v -13.34914 h 1.34716 q 1.14305,5.71523 4.36807,8.61366 3.22502,2.89844 7.22568,2.89844 2.81679,0 4.57218,-1.63292 1.79621,-1.67375 1.79621,-4.00066 0,-2.81679 -2.00032,-4.73547 -1.95951,-1.91869 -7.87885,-4.85795 -5.91934,-2.93926 -7.75638,-5.30699 -1.83704,-2.32692 -1.83704,-5.87852 0,-4.61301 3.14338,-7.71556 3.18419,-3.10255 8.20543,-3.10255 2.20444,0 5.34782,0.93893 2.08197,0.61235 2.77596,0.61235 0.65317,0 1.02058,-0.28576 0.36741,-0.28577 0.85728,-1.26552 z"
       style="font-style:normal;font-variant:normal;font-weight:normal;font-stretch:normal;font-family:Times;-inkscape-font-specification:Times;stroke-width:1"
       id="path4023" /><path
       d="m 948.37603,334.69218 q 11.34881,0 11.34881,15.55358 0,9.3893 -4.61301,20.81976 -4.57218,11.38963 -10.49152,17.02321 -5.87852,5.63358 -12.12444,5.63358 -5.10289,0 -8.32791,-4.32725 -3.18419,-4.36806 -3.18419,-10.85893 0,-4.16395 1.83703,-11.5121 1.83704,-7.34814 5.51111,-14.81876 3.67408,-7.51144 9.18519,-12.49185 5.55193,-5.02124 10.85893,-5.02124 z m 2.53103,27.75967 q 2.73514,-8.61366 2.73514,-16.73745 0,-9.30765 -5.26617,-9.30765 -4.613,0 -9.06272,6.98074 -4.44971,6.93992 -8.1646,19.06436 z m -20.53399,2.32692 q -3.75572,11.71621 -3.75572,17.96214 0,4.0823 1.67374,6.69498 1.67375,2.57185 4.98041,2.57185 2.73515,0 5.14371,-2.16362 2.40856,-2.20445 5.63358,-8.89943 3.22502,-6.69498 6.08263,-16.16592 z"
       style="font-style:italic;font-variant:normal;font-weight:normal;font-stretch:normal;font-family:Times;-inkscape-font-specification:'Times Italic';stroke-width:1"
       id="path4025" /></g><g
     aria-label="f"
     style="font-style:normal;font-weight:normal;font-size:83.60559845px;line-height:1.25;font-family:sans-serif;letter-spacing:0px;word-spacing:0px;fill:#000000;fill-opacity:1;stroke:none;stroke-width:1"
     id="text3916-7"><path
       d="m 761.50591,107.44154 -0.73482,2.69432 h -5.96016 l -4.49054,17.83968 q -2.98008,11.79786 -6.00099,18.2479 -4.28641,9.10354 -9.226,12.5735 -3.75572,2.65349 -7.51144,2.65349 -2.44939,0 -4.16395,-1.46963 -1.26552,-1.02057 -1.26552,-2.65349 0,-1.30634 1.0614,-2.2861 1.02058,-0.93893 2.53103,-0.93893 1.10222,0 1.87786,0.694 0.73481,0.69399 0.73481,1.5921 0,0.8981 -0.85728,1.67374 -0.65317,0.57152 -0.65317,0.85728 0,0.36741 0.28576,0.57153 0.36741,0.28576 1.14305,0.28576 1.75539,0 3.7149,-1.10222 1.91868,-1.10223 3.42913,-3.30667 1.51045,-2.16362 2.85761,-6.28675 0.57153,-1.71457 3.06173,-11.30798 l 7.10321,-27.63721 h -7.10321 l 0.57153,-2.69432 q 3.38831,0 4.73547,-0.44905 1.34716,-0.48988 2.44938,-1.79621 1.14305,-1.34716 2.93926,-4.98042 2.40856,-4.898762 4.613,-7.593083 3.02091,-3.633251 6.32758,-5.429465 3.34749,-1.837037 6.28675,-1.837037 3.10255,0 4.98041,1.592099 1.87786,1.551276 1.87786,3.388313 0,1.428806 -0.93893,2.408559 -0.93893,0.979754 -2.40856,0.979754 -1.26552,0 -2.08198,-0.734815 -0.77564,-0.734815 -0.77564,-1.755391 0,-0.653169 0.5307,-1.592099 0.5307,-0.979753 0.5307,-1.306337 0,-0.571523 -0.3674,-0.857284 -0.5307,-0.408231 -1.55128,-0.408231 -2.57185,0 -4.613,1.632922 -2.73515,2.163621 -4.89877,6.776626 -1.10222,2.408559 -4.04148,11.961149 z"
       style="font-style:italic;font-variant:normal;font-weight:normal;font-stretch:normal;font-family:Times;-inkscape-font-specification:'Times Italic';stroke-width:1"
       id="path4028" /></g></g></svg>