<?xml version="1.0" encoding="UTF-8" standalone="no"?>
<!-- Created with Inkscape (http://www.inkscape.org/) -->
<svg id="svg1" height="355.22" viewBox="0,0,707.30463,355.22021" width="707.3" xmlns="http://www.w3.org/2000/svg" xmlns:svg="http://www.w3.org/2000/svg">
 <g id="g1">
  <path id="path1" d="m0 0h530.477v266.414h-530.477z" fill="#fff" transform="scale(1.3333333)"/>
  <path id="path2" d="m513.875 78.77v105.726c0 2.473-2.527 4.465-5.668 4.465h-218.719c-3.14 0-5.672-1.992-5.672-4.465v-105.726z" fill="#99c1f1" transform="scale(1.3333333)"/>
  <path id="path3" d="m513.875 63.77v120.726c0 2.473-2.527 4.465-5.668 4.465h-218.719c-3.14 0-5.672-1.992-5.672-4.465v-120.726" fill="none" stroke="#000" stroke-linecap="round" stroke-linejoin="round" stroke-width="1.984" transform="scale(1.3333333)"/>
  <path id="path4" d="m66.957 40.867h133.758c3.14 0 5.668 1.992 5.668 4.465s-2.528 4.465-5.668 4.465h-133.758c-3.141 0-5.672-1.992-5.672-4.465s2.531-4.465 5.672-4.465z" fill="#b5835a" stroke="#000" stroke-linecap="round" stroke-linejoin="round" stroke-width="1.417" transform="scale(1.3333333)"/>
  <path id="path5" d="m68.246 45.332c0 1.176-.953 2.125-2.125 2.125-1.176 0-2.125-.949-2.125-2.125 0-1.172.949-2.125 2.125-2.125 1.172 0 2.125.953 2.125 2.125z" fill="#fff" stroke="#000" stroke-linecap="round" stroke-linejoin="round" stroke-width="1.417" transform="scale(1.3333333)"/>
  <path id="path6" d="m203.246 45.332c0 1.176-.953 2.125-2.125 2.125-1.176 0-2.125-.949-2.125-2.125 0-1.172.949-2.125 2.125-2.125 1.172 0 2.125.953 2.125 2.125z" fill="#fff" stroke="#000" stroke-linecap="round" stroke-linejoin="round" stroke-width="1.417" transform="scale(1.3333333)"/>
  <path id="path7" d="m135.961 45.332c0 1.176-.953 2.125-2.125 2.125-1.176 0-2.125-.949-2.125-2.125 0-1.172.949-2.125 2.125-2.125 1.172 0 2.125.953 2.125 2.125z" fill="#fff" stroke="#000" stroke-linecap="round" stroke-linejoin="round" stroke-width="1.417" transform="scale(1.3333333)"/>
  <path id="path8" d="m133.836 45.332v-58.937" fill="none" stroke="#000" stroke-linecap="round" stroke-linejoin="round" stroke-width="1.984" transform="scale(1.3333333)"/>
  <path id="path9" d="m185.309 112.613 15.812-67.281" fill="none" stroke="#000" stroke-linecap="round" stroke-linejoin="round" stroke-width="1.984" transform="scale(1.3333333)"/>
  <path id="path10" d="m204.676 104.312-3.555-58.98" fill="none" stroke="#000" stroke-linecap="round" stroke-linejoin="round" stroke-width="1.984" transform="scale(1.3333333)"/>
  <path id="path11" d="m195.809 121.544 31.546-16.018-19.261-3.266-33.321 15.553z" fill="#f6d32d" fill-rule="evenodd" stroke="#000" stroke-linecap="round" stroke-linejoin="round" stroke-width="1.437" transform="scale(1.3333333 1.2966787)"/>
  <path id="path12" d="m174.73 117.809-5.949 15.022 33.66 5.993-6.632-17.28z" fill="#f8e45c" fill-rule="evenodd" stroke="#000" stroke-linecap="round" stroke-linejoin="round" stroke-width="1.437" transform="scale(1.3333333 1.2966787)"/>
  <path id="path13" d="m195.809 121.544 31.546-16.018 6.102 15.906-31.016 17.392z" fill="#f5c211" fill-rule="evenodd" stroke="#000" stroke-linecap="round" stroke-linejoin="round" stroke-width="1.437" transform="scale(1.3333333 1.2966787)"/>
  <path id="path14" d="m216.535 128.82-15.414-83.488" fill="none" stroke="#000" stroke-linecap="round" stroke-linejoin="round" stroke-width="1.984" transform="scale(1.3333333)"/>
  <path id="path15" d="m69.676 113.996-3.555-68.664" fill="none" stroke="#000" stroke-linecap="round" stroke-linejoin="round" stroke-width="1.984" transform="scale(1.3333333)"/>
  <path id="path16" d="m34.098 130.035c-.012-.023-.133-.359-.274-.742-.219-.586-1.89-5.105-2.222-6.008-.059-.156-.184-.496-.282-.754-.093-.261-.297-.804-.445-1.207-.301-.82-1.238-3.347-2.074-5.609-.301-.817-.61-1.649-.684-1.852-.078-.199-.168-.449-.207-.551l-.066-.187.39.25c1.418.898 2.989 1.789 4.45 2.52 2.054 1.027 3.527 1.582 4.839 1.816.27.047.352.055.809.055.469.004.527 0 .695-.043.688-.176 1.379-.754 2.02-1.68 1.441-2.09 2.746-6.16 3.691-11.508.106-.597.274-1.644.301-1.875.008-.07.02-.125.027-.125.008 0 .067.094.133.207.438.758 1.172 1.957 1.723 2.817 2.523 3.918 4.918 6.843 6.883 8.414.953.761 1.851 1.23 2.613 1.363.23.039.668.039.894 0 .481-.082 1.04-.363 1.571-.785.273-.219.789-.735 1.062-1.063 1.61-1.937 3.258-5.23 4.864-9.718.371-1.043 1.074-3.208 1.289-3.989.027-.093.054-.168.058-.168.008 0 .024.043.039.094.207.793.953 3.078 1.442 4.43 1.562 4.308 3.16 7.461 4.73 9.351.278.328.789.84 1.063 1.063.418.332.816.558 1.222.691.321.11.508.133.903.121.265-.008.359-.023.558-.074.614-.16 1.172-.434 1.891-.937.926-.645 2.074-1.747 3.223-3.094 1.843-2.153 4.113-5.434 5.886-8.516.067-.113.129-.207.137-.207s.016.024.016.047c0 .074.172 1.164.277 1.781.519 2.965 1.141 5.532 1.867 7.672 1.141 3.379 2.473 5.328 3.875 5.688.168.043.227.047.695.043.458 0 .54-.008.809-.055 1.02-.184 2.188-.578 3.633-1.231.543-.246 1.902-.929 2.523-1.265 1.028-.563 2.235-1.27 3.133-1.84l.391-.25-.067.187c-.039.102-.144.387-.234.633-.094.25-.406 1.094-.695 1.883-.293.785-.743 2.004-1.004 2.707-.258.703-.582 1.57-.715 1.93-.348.941-1.883 5.097-2.004 5.426-.059.152-.34.91-.625 1.687-.285.774-.582 1.57-.652 1.766-.075.199-.157.422-.188.5-.027.082-.058.164-.07.191l-63.934-.101c-.16.144-.168.148-.183.101z" fill="#f6d32d" stroke="#000" stroke-width="1.417" transform="scale(1.3333333)"/>
  <path id="path17" d="m44.773 130.402 21.348-85.07" fill="none" stroke="#000" stroke-linecap="round" stroke-linejoin="round" stroke-width="1.984" transform="scale(1.3333333)"/>
  <path id="path18" d="m82.129 131.191-16.008-85.859" fill="none" stroke="#000" stroke-linecap="round" stroke-linejoin="round" stroke-width="1.984" transform="scale(1.3333333)"/>
  <path id="path19" d="m328.065-50.16h130.304c3.059-.002 5.52 1.939 5.52 4.349 0 2.411-2.461 4.348-5.52 4.346l-130.304.001c-3.062.002-5.524-1.939-5.524-4.349.001-2.406 2.465-4.349 5.524-4.347z" fill="#b5835a" stroke="#000" stroke-linecap="round" stroke-linejoin="round" stroke-width="1.381" transform="matrix(1.3333333 .3090547 -.3090547 1.3333333 0 0)"/>
  <path id="path20" d="m329.319-45.81c-.001 1.141-.926 2.07-2.067 2.069-1.145 0-2.07-.926-2.074-2.07.001-1.144.93-2.071 2.071-2.07 1.145.001 2.071.927 2.07 2.071z" fill="#fff" stroke="#000" stroke-linecap="round" stroke-linejoin="round" stroke-width="1.381" transform="matrix(1.3333333 .3090547 -.3090547 1.3333333 0 0)"/>
  <path id="path21" d="m460.834-45.813c0 1.144-.926 2.07-2.071 2.07-1.144.003-2.07-.927-2.069-2.068 0-1.144.926-2.07 2.071-2.07 1.141.002 2.066.928 2.069 2.068z" fill="#fff" stroke="#000" stroke-linecap="round" stroke-linejoin="round" stroke-width="1.381" transform="matrix(1.3333333 .3090547 -.3090547 1.3333333 0 0)"/>
  <path id="path22" d="m395.288-45.812c-.001 1.145-.931 2.071-2.071 2.07-1.145 0-2.071-.926-2.07-2.071.001-1.141.926-2.07 2.067-2.069 1.145.001 2.07.927 2.074 2.07z" fill="#fff" stroke="#000" stroke-linecap="round" stroke-linejoin="round" stroke-width="1.381" transform="matrix(1.3333333 .3090547 -.3090547 1.3333333 0 0)"/>
  <path id="path23" d="m403.836 45.332v-58.937" fill="none" stroke="#000" stroke-linecap="round" stroke-linejoin="round" stroke-width="1.984" transform="scale(1.3333333)"/>
  <path id="path24" d="m453.57 127.809 15.813-67.282" fill="none" stroke="#000" stroke-linecap="round" stroke-linejoin="round" stroke-width="1.984" transform="scale(1.3333333)"/>
  <path id="path25" d="m472.938 119.504-3.555-58.977" fill="none" stroke="#000" stroke-linecap="round" stroke-linejoin="round" stroke-width="1.984" transform="scale(1.3333333)"/>
  <path id="path26" d="m464.07 137.165 31.547-16.014-19.262-3.27-33.32 15.557z" fill="#f6d32d" fill-rule="evenodd" stroke="#000" stroke-linecap="round" stroke-linejoin="round" stroke-width="1.437" transform="scale(1.3333333 1.2966787)"/>
  <path id="path27" d="m442.992 133.43-5.949 15.022 33.66 5.993-6.633-17.28z" fill="#f8e45c" fill-rule="evenodd" stroke="#000" stroke-linecap="round" stroke-linejoin="round" stroke-width="1.437" transform="scale(1.3333333 1.2966787)"/>
  <path id="path28" d="m464.07 137.165 31.547-16.014 6.102 15.906-31.016 17.388z" fill="#f5c211" fill-rule="evenodd" stroke="#000" stroke-linecap="round" stroke-linejoin="round" stroke-width="1.437" transform="scale(1.3333333 1.2966787)"/>
  <path id="path29" d="m484.797 144.016-15.414-83.489" fill="none" stroke="#000" stroke-linecap="round" stroke-linejoin="round" stroke-width="1.984" transform="scale(1.3333333)"/>
  <path id="path30" d="m341.426 98.707-3.559-68.664" fill="none" stroke="#000" stroke-linecap="round" stroke-linejoin="round" stroke-width="1.984" transform="scale(1.3333333)"/>
  <path id="path31" d="m305.848 114.746c-.012-.027-.137-.359-.278-.742-.215-.586-1.886-5.106-2.218-6.008-.059-.16-.188-.5-.282-.758-.097-.258-.297-.8-.445-1.203-.305-.82-1.238-3.347-2.074-5.609-.301-.817-.61-1.649-.688-1.852-.074-.203-.164-.453-.203-.554l-.066-.184.39.246c1.418.902 2.989 1.793 4.45 2.523 2.054 1.028 3.523 1.579 4.839 1.817.27.047.352.055.809.055.469 0 .527-.004.695-.047.684-.172 1.379-.75 2.02-1.68 1.437-2.09 2.746-6.16 3.691-11.504.106-.598.274-1.644.297-1.875.008-.07.024-.129.027-.129.008 0 .071.094.137.211.434.754 1.168 1.957 1.723 2.817 2.523 3.914 4.914 6.839 6.879 8.41.957.765 1.855 1.234 2.613 1.367.231.039.672.039.898 0 .481-.086 1.036-.363 1.567-.789.277-.219.789-.735 1.062-1.063 1.614-1.933 3.262-5.226 4.868-9.715.371-1.042 1.07-3.207 1.289-3.992.027-.09.05-.168.058-.168.004 0 .024.043.035.098.211.793.954 3.078 1.446 4.426 1.562 4.308 3.16 7.465 4.73 9.351.274.328.789.844 1.063 1.063.418.336.816.562 1.218.695.325.106.512.133.903.117.269-.008.359-.019.562-.07.61-.16 1.168-.438 1.891-.938.922-.648 2.07-1.75 3.223-3.093 1.843-2.157 4.109-5.438 5.886-8.516.067-.117.129-.211.137-.211s.012.024.012.051c0 .074.172 1.164.277 1.777.52 2.969 1.145 5.532 1.867 7.676 1.141 3.375 2.473 5.328 3.875 5.684.168.043.227.047.696.047.457 0 .543-.008.808-.055 1.02-.184 2.192-.582 3.637-1.234.543-.243 1.902-.926 2.523-1.266 1.024-.559 2.231-1.27 3.129-1.84l.391-.246-.067.184c-.035.101-.14.39-.234.636-.09.246-.406 1.094-.695 1.879-.293.789-.742 2.008-1 2.707-.262.703-.582 1.574-.715 1.934-.348.937-1.887 5.097-2.008 5.426-.055.152-.336.91-.625 1.683-.285.777-.578 1.574-.652 1.77-.074.195-.157.422-.184.5-.031.078-.062.164-.07.191l-63.934-.105c-.164.148-.172.152-.187.105z" fill="#f6d32d" stroke="#000" stroke-width="1.417" transform="scale(1.3333333)"/>
  <path id="path32" d="m316.523 115.109 21.344-85.066" fill="none" stroke="#000" stroke-linecap="round" stroke-linejoin="round" stroke-width="1.984" transform="scale(1.3333333)"/>
  <path id="path33" d="m353.879 115.902-16.012-85.859" fill="none" stroke="#000" stroke-linecap="round" stroke-linejoin="round" stroke-width="1.984" transform="scale(1.3333333)"/>
  <path id="path34" d="m114.137 232.898c0-2.441.351-4.793 1.051-7.05.722-2.282 1.839-4.332 3.359-6.153h2.492c-1.402 1.883-2.461 3.953-3.18 6.211-.699 2.262-1.05 4.582-1.05 6.961 0 2.321.351 4.598 1.05 6.84.719 2.219 1.77 4.27 3.149 6.148h-2.461c-1.52-1.757-2.637-3.75-3.359-5.968-.7-2.239-1.051-4.571-1.051-6.989zm16.441-8.132c1.961 0 3.41.429 4.352 1.293.937.859 1.41 2.226 1.41 4.109v10.949h-1.922l-.508-2.281h-.121c-.699.879-1.441 1.531-2.219 1.949-.781.422-1.84.633-3.183.633-1.457 0-2.668-.383-3.629-1.141-.961-.781-1.438-1.992-1.438-3.629 0-1.601.629-2.832 1.887-3.691 1.262-.879 3.203-1.359 5.82-1.441l2.731-.09v-.961c0-1.34-.289-2.27-.871-2.789-.578-.52-1.399-.778-2.457-.778-.84 0-1.641.129-2.403.387-.757.242-1.468.524-2.129.84l-.808-1.977c.699-.382 1.527-.703 2.488-.96.961-.282 1.961-.422 3-.422zm3.152 8.492-2.371.09c-2 .078-3.39.398-4.171.961-.758.558-1.141 1.347-1.141 2.367 0 .902.273 1.562.812 1.98.559.422 1.27.629 2.129.629 1.34 0 2.461-.367 3.36-1.109.922-.758 1.382-1.918 1.382-3.481zm12.84-.36c0 2.418-.363 4.75-1.082 6.989-.699 2.218-1.808 4.211-3.328 5.968h-2.461c1.379-1.878 2.418-3.929 3.121-6.148.719-2.242 1.078-4.519 1.078-6.84 0-2.379-.359-4.699-1.078-6.961-.703-2.258-1.75-4.328-3.152-6.211h2.492c1.52 1.821 2.629 3.871 3.328 6.153.719 2.257 1.082 4.609 1.082 7.05z" transform="scale(1.3333333)"/>
  <path id="path35" d="m384.141 232.898c0-2.441.347-4.793 1.047-7.05.722-2.282 1.839-4.332 3.359-6.153h2.492c-1.398 1.883-2.461 3.953-3.18 6.211-.699 2.262-1.05 4.582-1.05 6.961 0 2.321.351 4.598 1.05 6.84.719 2.219 1.77 4.27 3.149 6.148h-2.461c-1.52-1.757-2.637-3.75-3.359-5.968-.7-2.239-1.047-4.571-1.047-6.989zm12.988-14.582v5.551c0 .68-.02 1.321-.059 1.918-.023.582-.05 1.043-.093 1.383h.152c.461-.68 1.09-1.25 1.891-1.711.796-.461 1.828-.691 3.089-.691 2 0 3.598.699 4.801 2.101 1.219 1.379 1.828 3.449 1.828 6.211 0 2.758-.609 4.84-1.828 6.238-1.222 1.399-2.82 2.102-4.801 2.102-1.261 0-2.293-.23-3.089-.691-.801-.461-1.43-1.012-1.891-1.649h-.211l-.539 2.039h-1.891v-22.801zm4.531 8.641c-1.722 0-2.91.488-3.57 1.469-.641.98-.961 2.5-.961 4.562v.117c0 1.981.32 3.5.961 4.563.66 1.039 1.867 1.559 3.629 1.559 1.441 0 2.511-.532 3.211-1.59.718-1.059 1.078-2.59 1.078-4.59 0-4.059-1.449-6.09-4.348-6.09zm16.528 5.941c0 2.418-.36 4.75-1.079 6.989-.699 2.218-1.812 4.211-3.332 5.968h-2.457c1.379-1.878 2.418-3.929 3.118-6.148.722-2.242 1.082-4.519 1.082-6.84 0-2.379-.36-4.699-1.082-6.961-.7-2.258-1.75-4.328-3.149-6.211h2.488c1.52 1.821 2.633 3.871 3.332 6.153.719 2.257 1.079 4.609 1.079 7.05z" transform="scale(1.3333333)"/>
 </g>
</svg>
