<svg width="233mm" height="230mm" version="1.1" viewBox="0 0 233 230" xmlns="http://www.w3.org/2000/svg">
 <rect width="233" height="230" fill="#fff"/>
 <g fill="none"><path d="m59 167c5 4 10 12 10 19" stroke="#aaa"/><path d="m173 53-133 133" stroke="#7bf" stroke-width="2"/><path d="m41 53 132 0v133" stroke="#ccc"/></g>
 <path d="m54 18v-15m-6 15h9m-6 0 0-15m-3 0h9m158 173v-15c7 0 7 8 0 8h4m-10 7h9m-6 0 0-15m-3 0h10c6 0 6 8 0 8l6 7h-4l-6-7" fill="none" stroke="#000"/><path d="m218 181 13 5-13 5 4-5zm-183-166 5-13 5 13l-5-4z" fill="#249"/>
 <path d="m45 53h-5m5 99h-5m5-66h-5m5 33h-5m5-99h-5m0-9v217m182-42h-220m171-5v5m-166-5v5m66-5v5m66-5v5m-33-5v5m99-5v5m-160 33h-5" stroke="#249"/>
 <circle cx="173" cy="53" r="3" fill="#249"/>
 <g font-family="Times" font-size="25px">
 <text x="123" y="48" font-style="italic">z = <tspan font-style="normal">4 + 4</tspan>i</text>
 <g text-anchor="middle"><text x="206" y="207">5</text><text x="173" y="207">4</text><text x="139" y="207">3</text><text x="107" y="207">2</text><text x="73" y="207">1</text></g>
 <g text-anchor="end"><text x="84" y="175" font-style="italic">φ</text><text x="33" y="61" font-style="normal">4<tspan font-style="italic">i</tspan></text><text x="33" y="95" font-style="normal">3<tspan font-style="italic">i </tspan></text><text x="33" y="127" font-style="normal" >2<tspan font-style="italic">i</tspan></text><text x="33" y="161" font-style="italic">i</text></g></g></svg>
