<?xml version="1.0" encoding="UTF-8"?>
<svg width="600" height="450" version="1.1" xmlns="http://www.w3.org/2000/svg" xmlns:xlink="http://www.w3.org/1999/xlink">
	<use transform="translate(271.66)" xlink:href="#c"/>
	<g id="d">
		<g fill="none" stroke="#000" stroke-linecap="round">
			<circle cx="125.84" cy="73.69" r="51.925" fill="#fff"/>
			<path d="m125.84 26.08v-4.3144"/>
			<path d="m159.55 40.03 3.0507-3.0507"/>
			<path d="m173.45 73.69h4.3143"/>
			<path d="m159.55 107.36c1.016 1.0161 2.0328 2.0328 3.0506 3.0507"/>
			<path d="m125.84 121.3c-3e-5 1.437-8e-5 2.875-1.2e-4 4.3142"/>
			<path d="m92.18 107.36c-1.0161 1.016-2.033 2.0328-3.0507 3.0506"/>
			<path d="m78.24 73.69c-1.437-4e-5 -2.875-8e-5 -4.3142-1.2e-4"/>
			<path d="m92.18 40.03c-1.016-1.0161-2.0328-2.0328-3.0506-3.0507"/>
		</g>
		<path d="m125.84 31.66q-1.5512 0-2.3368 1.5313-0.7755 1.5214-0.7755 4.5841 0 3.0527 0.7755 4.5841 0.78561 1.5214 2.3368 1.5214 1.5611 0 2.3367-1.5214 0.78549-1.5313 0.78549-4.5841 0-3.0627-0.78549-4.5841-0.77562-1.5313-2.3367-1.5313zm0-1.591q2.4959 0 3.8084 1.9788 1.3224 1.9688 1.3224 5.7276 0 3.7488-1.3224 5.7276-1.3126 1.9688-3.8084 1.9688t-3.8184-1.9688q-1.3126-1.9788-1.3126-5.7276 0-3.7588 1.3126-5.7276 1.3225-1.9788 3.8184-1.9788z"/>
		<path d="m146.85 52.24h3.2813v-11.326l-3.5697 0.71594v-1.8296l3.5499-0.71595h2.0086v13.156h3.2814v1.6904h-8.5515z"/>
		<path d="m161.95 78.04h7.0103v1.6904h-9.4267v-1.6904q1.1437-1.1833 3.1124-3.172 1.9788-1.9987 2.486-2.5754 0.9645-1.0839 1.3424-1.8296 0.3877-0.75572 0.3877-1.4816 0-1.1833-0.8352-1.9291-0.8254-0.74577-2.1578-0.74577-0.9446 0-1.9986 0.32814-1.0442 0.32813-2.2374 0.99436v-2.0285q1.2132-0.48723 2.2671-0.73584 1.054-0.24859 1.9291-0.24859 2.3069 0 3.6791 1.1535 1.3724 1.1535 1.3724 3.0825 0 0.91482-0.3481 1.7401-0.338 0.81539-1.243 1.9291-0.2485 0.28837-1.5809 1.6706-1.3326 1.3722-3.7588 3.8482z"/>
		<path id="b" d="m153.75 98.78q1.4418 0.30825 2.2472 1.2827 0.8155 0.97449 0.8155 2.4064 0 2.1975-1.5116 3.4007-1.5113 1.2032-4.2955 1.2032-0.9347 0-1.9292-0.18892-0.9844-0.17899-2.0384-0.5469v-1.939q0.8352 0.48725 1.8296 0.73584 0.9943 0.24859 2.0783 0.24859 1.8893 0 2.8737-0.74578 0.9944-0.74578 0.9944-2.1677 0-1.3126-0.9248-2.0484-0.9148-0.74577-2.5556-0.74577h-1.7301v-1.6506h1.8098q1.4816 0 2.2669-0.58668 0.7856-0.59663 0.7856-1.7103 0-1.1435-0.8154-1.7501-0.8052-0.6165-2.3169-0.6165-0.8253 0-1.7699 0.17898-0.9447 0.17898-2.0782 0.55684v-1.7898q1.1435-0.3182 2.1378-0.4773 1.0044-0.15911 1.8893-0.15911 2.2871 0 3.6195 1.0441 1.3325 1.0342 1.3325 2.8041 0 1.233-0.7059 2.0882-0.7061 0.84521-2.0086 1.1734z"/>
		<path d="m126.46 103.76-5.0713 7.9251h5.0713zm-0.52707-1.7501h2.5257v9.6752h2.118v1.6706h-2.118v3.5002h-1.9987v-3.5002h-6.7021v-1.939z"/>
		<path d="m96.99 91.11h7.8854v1.6904h-6.0458v3.6394q0.43756-0.14915 0.87499-0.21876 0.43756-0.0795 0.87512-0.0795 2.4859 0 3.9377 1.3622t1.4518 3.6891q0 2.3964-1.4916 3.7289-1.4914 1.3225-4.2061 1.3225-0.93479 0-1.9092-0.1591-0.96462-0.15909-1.9988-0.4773v-2.0185q0.89496 0.48724 1.8495 0.72589 0.95464 0.23865 2.0186 0.23865 1.7203 0 2.7246-0.90487 1.0043-0.90488 1.0043-2.4561 0-1.5512-1.0043-2.4561-1.0043-0.90487-2.7246-0.90487-0.80546 0-1.6109 0.17898-0.79548 0.17898-1.6308 0.55684z"/>
		<path d="m87.83 73.19q-1.3524 0-2.1477 0.92477-0.78561 0.92476-0.78561 2.5356 0 1.6009 0.78561 2.5356 0.79536 0.92475 2.1477 0.92475t2.138-0.92475q0.79547-0.93471 0.79547-2.5356 0-1.6109-0.79547-2.5356-0.78561-0.92477-2.138-0.92477zm3.9875-6.2944v1.8296q-0.75566-0.35797-1.5313-0.54689-0.76563-0.18893-1.5214-0.18893-1.9888 0-3.0428 1.3424-1.044 1.3424-1.1932 4.057 0.58662-0.8651 1.4716-1.3225 0.88498-0.46736 1.949-0.46736 2.2374 0 3.5301 1.3622 1.3026 1.3524 1.3026 3.6891 0 2.287-1.3523 3.6692-1.3524 1.3822-3.5997 1.3822-2.5753 0-3.9377-1.9688-1.3622-1.9788-1.3622-5.7276 0-3.5201 1.6705-5.6082 1.6706-2.0982 4.4847-2.0982 0.75565 0 1.5213 0.14916 0.77562 0.14915 1.6109 0.44747z"/>
		<path d="m96.78 40.34h9.5459v0.85517l-5.3894 13.991h-2.098l5.0712-13.156h-7.1297z"/>
		<path id="a" d="m132.23 84.92q0-1.367-0.56736-2.119-0.56043-0.75187-1.579-0.75187-1.0116 0-1.5788 0.75187-0.56054 0.75188-0.56054 2.119 0 1.3602 0.56054 2.1121 0.56724 0.75187 1.5788 0.75187 1.0185 0 1.579-0.75187 0.56736-0.75188 0.56736-2.1121zm1.2577 2.9665q0 1.9549-0.86806 2.905-0.86807 0.95694-2.6589 0.95694-0.66309 0-1.2509-0.10255-0.5878-0.0957-1.1414-0.30074v-1.2235q0.55361 0.30076 1.0936 0.44429 0.53998 0.14354 1.1004 0.14354 1.2373 0 1.8524-0.64934 0.61517-0.64251 0.61517-1.948v-0.622q-0.38964 0.67669-0.99799 1.0116-0.60835 0.33494-1.4559 0.33494-1.408 0-2.2693-1.0731-0.86126-1.0731-0.86126-2.8435 0-1.7771 0.86126-2.8503 0.86125-1.0732 2.2693-1.0731 0.84751 0 1.4559 0.33493 0.60835 0.33492 0.99799 1.0116v-1.162h1.2577zm-14.449-9.6856h1.2645v6.2816l3.7525-3.3015h1.6062l-4.0601 3.5816 4.2311 4.0738h-1.6405l-3.8893-3.7389v3.7389h-1.2645z"/>
		<path d="m125.84 125.62v84.53" fill="none" stroke="#000" stroke-linecap="round"/>
		<path d="m141.85 210.15h-32.037l-13.053 38.86h58.143z" fill="#ccc" stroke="#000" stroke-linecap="round"/>
	</g>
	<g id="c" stroke="#000">
		<path d="m53.06 242.31v185.43h145.56v-185.43h-5.8732v179.56h-133.82v-179.56z" fill="#f2f2f2"/>
		<path d="m198.65 273.5 25.213 12.058v-6.5111l-25.214-12.059z" fill="#f2f2f2"/>
		<rect x="192.75" y="266.98" width="5.8729" height="6.5123" rx="0" ry="0" fill="#ccc"/>
		<path d="m296.75 402.77a53.912 53.912 0 0 1-45.482 24.966 53.912 53.912 0 0 1-45.482-24.967" fill="#fff"/>
		<ellipse cx="251.25" cy="402.77" rx="45.481" ry="4.8282" fill="#fff"/>
		<path d="m192.75 273.5h-133.82v148.37h133.82z" fill="#44e7e7"/>
	</g>
	<path d="m562.35 410.65c-10.194 10.903-24.453 17.091-39.379 17.091-14.926 1e-5 -29.185-6.1885-39.38-17.091z" fill="#44e7e7" stroke="#000"/>
	<use transform="translate(361.5,285.55)" xlink:href="#b"/>
	<use transform="translate(403.88,300.86)" xlink:href="#a"/>
	<path d="m387.85 409v-26.57h-5.6634l15.313-20.976 15.313 20.976h-5.6634v26.57z" fill="none" stroke="#000"/>
	<use transform="translate(245.68,278.74)" xlink:href="#b"/>
	<use transform="translate(271.26,312.67)" xlink:href="#a"/>
	<use transform="translate(271.66,109.26)" xlink:href="#d"/>
	<path d="m125.84 73.69-31.071-31.071" fill="none" stroke="#f00" stroke-linecap="round" stroke-width="2.5"/>
	<path d="m397.55 182.95v43.941" fill="none" stroke="#f00" stroke-linecap="round" stroke-width="2.5"/>
</svg>
