<?xml version="1.0" encoding="UTF-8" standalone="no"?>
<svg
   xmlns:dc="http://purl.org/dc/elements/1.1/"
   xmlns:cc="http://creativecommons.org/ns#"
   xmlns:rdf="http://www.w3.org/1999/02/22-rdf-syntax-ns#"
   xmlns:svg="http://www.w3.org/2000/svg"
   xmlns="http://www.w3.org/2000/svg"
   viewBox="0 0 1241.0524 419.9065"
   height="111.10027mm"
   width="328.36179mm"
   id="svg815"
   version="1.1">
  <metadata
     id="metadata821">
    <rdf:RDF>
      <cc:Work
         rdf:about="">
        <dc:format>image/svg+xml</dc:format>
        <dc:type
           rdf:resource="http://purl.org/dc/dcmitype/StillImage" />
        <dc:title></dc:title>
      </cc:Work>
    </rdf:RDF>
  </metadata>
  <defs
     id="defs819" />
  <g
     transform="translate(21.083363,-17.991119)"
     style="display:inline"
     id="layer4">
    <path
       id="path828-0"
       d="m 1190.9698,131.10655 -61.6841,22.17919 -38.4032,9.65403 c -3.7981,-2.47066 -3.6857,-2.59057 -4.4539,-0.0112 -0.916,5.03826 -63.6103,16.99437 -87.85711,12.85714 -2.2542,-0.38464 -3.2121,3.49292 -5.3571,4.28572 -10.05545,3.71651 -32.14295,1.07143 -32.14295,1.07143 0,0 -14.3534,-8.02626 -21.1797,-9.01523 -4.2561,-0.61661 -5.8652,5.60029 -9.4479,5.23831 -6.2725,-0.63375 -9.0433,-11.7467 -14.3724,-12.29451 -4.0391,-0.41521 -11.0281,5.17332 -11.0281,5.17332 l -29.6861,-8.38761 c -8.8685,4.03126 -10.5053,19.50384 -20.3572,23.57143 -7.2256,0.29421 -13.8396,-6.02739 -18.2143,-11.78571 -3.6216,-4.76713 -6.4961,-11.26541 -5.3571,-17.14286 0.9657,-4.98324 10.1757,-6.7378 9.6428,-11.78571 -0.48,-4.54839 -10.7142,-8.57143 -10.7142,-8.57143 0,0 4.8171,-8.82055 2.1428,-11.78572 -3.1187,-3.45795 -9.5612,2.68701 -13.9286,1.07143 -3.3159,-1.22664 -7.5,-7.5 -7.5,-7.5 -9.8244,2.15079 -18.4479,1.09917 -31.0714,10.71429 -5.9294,-3.29412 -14.6398,54.1809 -25.7143,71.78571 -4.7199,7.50318 -17.6167,6.43949 -29.22762,6.09906 -10.06048,-0.29497 -19.15555,0.89717 -21.1295,-2.88477 -10.2914,-19.71752 -12.77753,-46.86213 -31.07143,-60 -3.8155,-2.74012 -10.939,-5.76623 -13.92857,-2.14286 -17.92208,21.72167 -39.67963,58.93879 -45.37881,60.50879 -20.21126,5.56776 -35.33548,13.66188 -53.19262,0.56264 -5.83839,0 -49.43164,-55.71411 -69.57786,-46.20141 -6.66005,3.14476 -16.55913,7.0628 -25.38954,15.4752 -8.97237,8.54763 -16.90282,21.61251 -27.03435,27.57452 -19.48998,11.4691 -47.31359,6.59851 -65.57439,-5.23591 -23.2795,-15.08692 -48.00331,-28.54969 -68.36808,-29.01181 -32.61995,-0.74022 -53.32407,11.26319 -81.69772,23.45582 -21.20246,9.11105 -28.62321,24.05419 -59.98804,19.61455 C 133.8641,204.15687 122.93303,181.89543 93.40733,178.31794 82.096146,176.94742 70.872296,172.7149 57.738176,171.62022 38.353066,170.00453 16.097476,173.47865 6.63e-5,179 l 0.00344,185.51795 160.6142437,8.33376 134.85537,-34.85026 77.27667,-10.6066 37.88072,4.54568 39.39595,-4.54568 108.33886,-36.36549 94.7018,-20.45559 87.88327,-6.06092 28.78935,-2.27284 46.97209,-14.39468 32.19862,-2.65164 41.28998,-1.89404 102.65676,-22.72843 89.77731,-28.78935 12.8794,-0.75762 88.2621,-50.76016 z"
       style="display:inline;opacity:0.70899999;fill:#aaccff;stroke:#000000;stroke-width:0;stroke-linecap:butt;stroke-linejoin:miter;stroke-miterlimit:4;stroke-dasharray:none;stroke-opacity:1" />
  </g>
  <g
     transform="translate(21.083363,-17.991119)"
     style="display:inline;opacity:1"
     id="layer2">
    <path
       id="path828"
       d="m 4e-5,179 c 16.097411,-5.52135 38.353005,-8.99547 57.738116,-7.37978 13.134114,1.09468 24.357967,5.3272 35.669144,6.69772 29.52572,3.57749 40.45679,25.83893 69.3199,29.92445 31.36483,4.43964 38.78558,-10.5035 59.98804,-19.61455 28.37365,-12.19263 49.07777,-24.19604 81.69772,-23.45582 20.36477,0.46212 45.08858,13.92489 68.36808,29.01181 18.2608,11.83442 46.08441,16.70501 65.57439,5.23591 10.13153,-5.96201 18.06198,-19.02689 27.03435,-27.57452 8.83041,-8.4124 18.72949,-12.33044 25.38954,-15.4752 20.14622,-9.5127 63.73947,46.20141 69.57786,46.20141 17.85714,13.09924 32.98136,5.00512 53.19262,-0.56264 5.69918,-1.57 27.45673,-38.78712 45.37881,-60.50879 2.98957,-3.62337 10.11307,-0.59726 13.92857,2.14286 18.2939,13.13787 20.78003,40.28248 31.07143,60 1.97395,3.78194 11.06902,2.5898 21.1295,2.88477 11.6109,0.34043 24.50771,1.40412 29.22764,-6.09906 11.07444,-17.60481 19.78487,-75.07983 25.71429,-71.78571 12.62353,-9.61512 21.24703,-8.5635 31.07143,-10.71429 0,0 4.18408,6.27336 7.5,7.5 4.36733,1.61558 10.80988,-4.52938 13.92857,-1.07143 2.67426,2.96517 -2.14286,11.78572 -2.14286,11.78572 0,0 10.2342,4.02304 10.71429,8.57143 0.53282,5.04791 -8.67713,6.80247 -9.64286,11.78571 -1.13902,5.87745 1.73549,12.37573 5.35714,17.14286 4.37467,5.75832 10.98869,12.07992 18.21429,11.78571 9.85191,-4.06759 11.48867,-19.54017 20.35714,-23.57143 l 29.68618,8.38761 c 0,0 6.98899,-5.58853 11.02811,-5.17332 5.32906,0.54781 8.09981,11.66076 14.37237,12.29451 3.58272,0.36198 5.19174,-5.85492 9.44787,-5.23831 6.82631,0.98897 21.17976,9.01523 21.17976,9.01523 0,0 22.08746,2.64508 32.14286,-1.07143 2.14501,-0.7928 3.10288,-4.67036 5.35714,-4.28572 24.24683,4.13723 86.94113,-7.81888 87.85713,-12.85714 0.7682,-2.57937 0.6558,-2.45946 4.4539,0.0112 l 38.4032,-9.65403 61.6841,-22.17919"
       style="display:inline;opacity:1;fill:none;stroke:#5f5fd3;stroke-width:13.47399998;stroke-linecap:butt;stroke-linejoin:miter;stroke-miterlimit:4;stroke-dasharray:none;stroke-opacity:1" />
  </g>
  <g
     transform="translate(21.083363,-17.991119)"
     style="display:inline;opacity:1"
     id="layer5">
    <path
       id="path869"
       d="M 1.0714286,369.71429 0,419 c 3.0616768,-3.94765 26.984383,-5.28767 52.5,-6.42857 L 161.78571,419 c 51.71328,-8.121 101.44263,-38.56562 165,-39.64286 0,0 42.14231,-1.39423 63.21429,-1.07143 15.01524,0.23002 11.60834,5.65276 45,2.14286 33.39166,-3.5099 212.24673,-81.75174 339.64286,-70.71428 49.02081,-19.76453 76.00277,-19.93898 99.64285,-17.14286 72.5,-6.70757 144.99999,-29.17153 217.49999,-55.71429 l 16.0714,2.14286 92.6786,-57.32142 0.5357,-50.89287 -90,54.64286 -52.5,16.07143 -113.5714,30 -71.78572,12.85714 -42.85714,-2.14285 -46.07143,18.21428 -90,6.42857 -85.71428,11.78572 -96.42857,27.85714 -72.85715,23.57143 -36.42857,2.14286 H 367.5 l -86.78571,4.28571 -73.92858,28.92857 -73.92857,3.21429 -124.2857114,1.07143 z"
       style="fill:#c87137;stroke:#000000;stroke-width:0;stroke-linecap:butt;stroke-linejoin:miter;stroke-miterlimit:4;stroke-dasharray:none;stroke-opacity:1" />
    <path
       id="path871"
       d="M 50.002551,44.738478 V 170.50248"
       style="fill:none;stroke:#000000;stroke-width:5.6692915;stroke-linecap:butt;stroke-linejoin:miter;stroke-miterlimit:4;stroke-dasharray:none;stroke-opacity:1" />
    <path
       id="path871-5"
       d="M 301.53054,43.980859 V 157.95915"
       style="display:inline;fill:none;stroke:#000000;stroke-width:5.6692915;stroke-linecap:butt;stroke-linejoin:miter;stroke-miterlimit:4;stroke-dasharray:none;stroke-opacity:1" />
    <path
       id="path871-5-4"
       d="M 490.17653,43.980867 V 150.45915"
       style="display:inline;fill:none;stroke:#000000;stroke-width:5.6692915;stroke-linecap:butt;stroke-linejoin:miter;stroke-miterlimit:4;stroke-dasharray:none;stroke-opacity:1" />
    <path
       id="path871-5-4-2"
       d="M 665.18545,43.980869 V 140.28057"
       style="display:inline;fill:none;stroke:#000000;stroke-width:5.6692915;stroke-linecap:butt;stroke-linejoin:miter;stroke-miterlimit:4;stroke-dasharray:none;stroke-opacity:1" />
    <path
       id="path871-5-4-2-1"
       d="M 801.76016,47.011327 V 118.13246"
       style="display:inline;fill:none;stroke:#000000;stroke-width:5.6692915;stroke-linecap:butt;stroke-linejoin:miter;stroke-miterlimit:4;stroke-dasharray:none;stroke-opacity:1" />
    <path
       id="path871-5-4-2-1-6"
       d="m 801.76016,118.13246 v 95.22827"
       style="display:inline;fill:#808080;stroke:#808080;stroke-width:5.6692915;stroke-linecap:butt;stroke-linejoin:miter;stroke-miterlimit:4;stroke-dasharray:none;stroke-opacity:1" />
    <path
       id="path871-5-4-2-1-6-7"
       d="m 665.18545,140.28057 v 79.15684"
       style="display:inline;fill:#808080;stroke:#808080;stroke-width:5.6692915;stroke-linecap:butt;stroke-linejoin:miter;stroke-miterlimit:4;stroke-dasharray:none;stroke-opacity:1" />
    <path
       id="path871-5-4-2-1-6-7-8"
       d="m 489.64286,163.52872 v 57.19255"
       style="display:inline;fill:#808080;stroke:#808080;stroke-width:5.6692915;stroke-linecap:butt;stroke-linejoin:miter;stroke-miterlimit:4;stroke-dasharray:none;stroke-opacity:1" />
    <path
       id="path871-5-4-2-1-6-7-8-2"
       d="M 301.53054,157.95915 V 215.1517"
       style="display:inline;fill:#808080;stroke:#808080;stroke-width:5.6692915;stroke-linecap:butt;stroke-linejoin:miter;stroke-miterlimit:4;stroke-dasharray:none;stroke-opacity:1" />
    <path
       id="path871-5-4-2-1-6-7-8-2-6"
       d="m 50.002551,170.50248 v 57.19255"
       style="display:inline;fill:#808080;stroke:#808080;stroke-width:5.6692915;stroke-linecap:butt;stroke-linejoin:miter;stroke-miterlimit:4;stroke-dasharray:none;stroke-opacity:1" />
  </g>
  <g
     transform="translate(21.083363,-17.991119)"
     style="display:inline;opacity:1"
     id="layer6">
    <path
       id="path1150"
       d="M 60.589296,70.249998 H 141.14813"
       style="fill:none;stroke:#000000;stroke-width:5.56703901;stroke-linecap:butt;stroke-linejoin:miter;stroke-miterlimit:4;stroke-dasharray:none;stroke-opacity:1" />
    <path
       transform="matrix(0.00526378,-0.91411473,0.86747095,0.00554681,-18.15484,160.05683)"
       d="m 104.314,95.642967 -10.949428,0 5.474715,-9.482483 z"
       id="path1152"
       style="opacity:1;fill:#000000;fill-opacity:1;stroke:#000000;stroke-width:4.72440958;stroke-linecap:round;stroke-linejoin:miter;stroke-miterlimit:4;stroke-dasharray:none;stroke-dashoffset:0;stroke-opacity:1;paint-order:stroke fill markers" />
    <path
       id="path1150-8"
       d="m 228.55395,70.249998 h 59.66597"
       style="display:inline;opacity:1;fill:none;stroke:#000000;stroke-width:4.79105377;stroke-linecap:butt;stroke-linejoin:miter;stroke-miterlimit:4;stroke-dasharray:none;stroke-opacity:1" />
    <path
       transform="matrix(-0.00526378,-0.91411473,-0.86747095,0.00554681,369.7429,160.05683)"
       d="m 104.314,95.642967 -10.949428,0 5.474715,-9.482483 z"
       id="path1152-1"
       style="display:inline;opacity:1;fill:#000000;fill-opacity:1;stroke:#000000;stroke-width:4.72440958;stroke-linecap:round;stroke-linejoin:miter;stroke-miterlimit:4;stroke-dasharray:none;stroke-dashoffset:0;stroke-opacity:1;paint-order:stroke fill markers" />
    <path
       id="path1150-7"
       d="m 502.4713,70.249998 h 44.11667"
       style="display:inline;opacity:1;fill:none;stroke:#000000;stroke-width:4.11973238;stroke-linecap:butt;stroke-linejoin:miter;stroke-miterlimit:4;stroke-dasharray:none;stroke-opacity:1" />
    <path
       id="path1150-8-9"
       d="m 447.88893,70.249998 h 34.99705"
       style="display:inline;opacity:1;fill:none;stroke:#000000;stroke-width:3.66930103;stroke-linecap:butt;stroke-linejoin:miter;stroke-miterlimit:4;stroke-dasharray:none;stroke-opacity:1" />
    <path
       id="path1150-6"
       d="m 309.51805,70.249998 h 41.89298"
       style="display:inline;opacity:1;fill:none;stroke:#000000;stroke-width:4.01456356;stroke-linecap:butt;stroke-linejoin:miter;stroke-miterlimit:4;stroke-dasharray:none;stroke-opacity:1" />
    <path
       id="path1150-8-9-4"
       d="m 625.43544,70.249998 h 30.91302"
       style="display:inline;opacity:1;fill:none;stroke:#000000;stroke-width:3.44856405;stroke-linecap:butt;stroke-linejoin:miter;stroke-miterlimit:4;stroke-dasharray:none;stroke-opacity:1" />
    <path
       id="path1150-8-9-8"
       d="m 766.9851,70.249998 h 28.03276"
       style="display:inline;opacity:1;fill:none;stroke:#000000;stroke-width:3.28398061;stroke-linecap:butt;stroke-linejoin:miter;stroke-miterlimit:4;stroke-dasharray:none;stroke-opacity:1" />
    <path
       id="path1150-8-9-8-7"
       d="m 677.59077,70.249998 h 13.56848"
       style="display:inline;opacity:1;fill:none;stroke:#000000;stroke-width:2.28472066;stroke-linecap:butt;stroke-linejoin:miter;stroke-miterlimit:4;stroke-dasharray:none;stroke-opacity:1" />
    <path
       transform="matrix(0.00526378,-0.91411473,0.86747095,0.00554681,233.11964,160.12253)"
       d="m 104.314,95.642967 -10.949428,0 5.474715,-9.482483 z"
       id="path1152-2"
       style="display:inline;opacity:1;fill:#000000;fill-opacity:1;stroke:#000000;stroke-width:4.72440958;stroke-linecap:round;stroke-linejoin:miter;stroke-miterlimit:4;stroke-dasharray:none;stroke-dashoffset:0;stroke-opacity:1;paint-order:stroke fill markers" />
    <path
       transform="matrix(0.00526378,-0.91411473,0.86747095,0.00554681,421.42307,160.05683)"
       d="m 104.314,95.642967 -10.949428,0 5.474715,-9.482483 z"
       id="path1152-8"
       style="display:inline;opacity:1;fill:#000000;fill-opacity:1;stroke:#000000;stroke-width:4.72440958;stroke-linecap:round;stroke-linejoin:miter;stroke-miterlimit:4;stroke-dasharray:none;stroke-dashoffset:0;stroke-opacity:1;paint-order:stroke fill markers" />
    <path
       transform="matrix(0.00526378,-0.91411473,0.86747095,0.00554681,597.00333,160.05683)"
       d="m 104.314,95.642967 -10.949428,0 5.474715,-9.482483 z"
       id="path1152-18"
       style="display:inline;opacity:1;fill:#000000;fill-opacity:1;stroke:#000000;stroke-width:4.72440958;stroke-linecap:round;stroke-linejoin:miter;stroke-miterlimit:4;stroke-dasharray:none;stroke-dashoffset:0;stroke-opacity:1;paint-order:stroke fill markers" />
    <path
       transform="matrix(-0.00526378,-0.91411473,-0.86747095,0.00554681,870.27985,160.05683)"
       d="m 104.314,95.642967 -10.949428,0 5.474715,-9.482483 z"
       id="path1152-18-9"
       style="display:inline;opacity:1;fill:#000000;fill-opacity:1;stroke:#000000;stroke-width:4.72440958;stroke-linecap:round;stroke-linejoin:miter;stroke-miterlimit:4;stroke-dasharray:none;stroke-dashoffset:0;stroke-opacity:1;paint-order:stroke fill markers" />
    <path
       transform="matrix(-0.00526378,-0.91411473,-0.86747095,0.00554681,733.37171,160.05683)"
       d="m 104.314,95.642967 -10.949428,0 5.474715,-9.482483 z"
       id="path1152-18-8"
       style="display:inline;opacity:1;fill:#000000;fill-opacity:1;stroke:#000000;stroke-width:4.72440958;stroke-linecap:round;stroke-linejoin:miter;stroke-miterlimit:4;stroke-dasharray:none;stroke-dashoffset:0;stroke-opacity:1;paint-order:stroke fill markers" />
    <path
       transform="matrix(-0.00526378,-0.91411473,-0.86747095,0.00554681,558.14797,160.05683)"
       d="m 104.314,95.642967 -10.949428,0 5.474715,-9.482483 z"
       id="path1152-18-8-9"
       style="display:inline;opacity:1;fill:#000000;fill-opacity:1;stroke:#000000;stroke-width:4.72440958;stroke-linecap:round;stroke-linejoin:miter;stroke-miterlimit:4;stroke-dasharray:none;stroke-dashoffset:0;stroke-opacity:1;paint-order:stroke fill markers" />
    <text
       id="text1398"
       y="92.818817"
       x="139.09343"
       style="font-style:normal;font-variant:normal;font-weight:bold;font-stretch:normal;font-size:80px;line-height:1.25;font-family:sans-serif;-inkscape-font-specification:'sans-serif Bold';letter-spacing:0px;word-spacing:0px;fill:#000000;fill-opacity:1;stroke:none"
       xml:space="preserve"><tspan
         y="92.818817"
         x="139.09343"
         id="tspan1396"><tspan
           id="tspan1446"
           style="font-size:73.33333588px">位</tspan><tspan
           id="tspan1434"
           style="font-size:53.33333206px;baseline-shift:sub">1</tspan></tspan></text>
    <text
       id="text1398-0"
       y="92.604904"
       x="355.37387"
       style="font-style:normal;font-variant:normal;font-weight:bold;font-stretch:normal;font-size:80px;line-height:1.25;font-family:sans-serif;-inkscape-font-specification:'sans-serif Bold';letter-spacing:0px;word-spacing:0px;display:inline;opacity:1;fill:#000000;fill-opacity:1;stroke:none"
       xml:space="preserve"><tspan
         y="92.604904"
         x="355.37387"
         id="tspan1396-9"><tspan
           id="tspan1444"
           style="font-size:73.33333588px">位</tspan><tspan
           id="tspan1436"
           style="font-size:53.33333206px;baseline-shift:sub">2</tspan></tspan></text>
    <text
       id="text1398-4"
       y="93.676331"
       x="540.73102"
       style="font-style:normal;font-variant:normal;font-weight:bold;font-stretch:normal;font-size:80px;line-height:1.25;font-family:sans-serif;-inkscape-font-specification:'sans-serif Bold';letter-spacing:0px;word-spacing:0px;display:inline;opacity:1;fill:#000000;fill-opacity:1;stroke:none"
       xml:space="preserve"><tspan
         y="93.676331"
         x="540.73102"
         id="tspan1396-4"><tspan
           id="tspan1442"
           style="font-size:73.33333588px">位</tspan><tspan
           id="tspan1438"
           style="font-size:53.33333206px;baseline-shift:sub">3</tspan></tspan></text>
    <text
       transform="scale(0.97913854,1.0213059)"
       id="text1398-7"
       y="90.698097"
       x="706.60449"
       style="font-style:normal;font-variant:normal;font-weight:bold;font-stretch:normal;font-size:69.07489777px;line-height:1.25;font-family:sans-serif;-inkscape-font-specification:'sans-serif Bold';letter-spacing:0px;word-spacing:0px;display:inline;opacity:1;fill:#000000;fill-opacity:1;stroke:none;stroke-width:0.94193035"
       xml:space="preserve"><tspan
         style="stroke-width:0.94193035"
         y="90.698097"
         x="706.60449"
         id="tspan1396-46">位<tspan
   id="tspan1440"
   style="font-size:50.23628616px;baseline-shift:sub;stroke-width:0.94193035">4</tspan></tspan></text>
  </g>
  <g
     transform="translate(21.083363,-17.991119)"
     style="display:inline"
     id="layer3">
    <path
       id="path855"
       d="m 1.5152288,370.51268 68.1852972,-7.57615 95.459414,7.57615 90.91373,-22.72843 71.21575,-16.66752 h 83.33759 l 65.15484,-10.6066 115.15739,-40.91118 146.97719,-18.18275 39.39595,-1.51523 48.48732,-16.66751 h 42.42641 l 81.82236,-13.63706 118.18783,-36.36549 22.9464,-0.97952 c 0,0 103.9229,-66.96907 105.546,-67.30556 l 3.6161,-0.13392"
       style="fill:none;stroke:#782121;stroke-width:14.60787392;stroke-linecap:butt;stroke-linejoin:miter;stroke-miterlimit:4;stroke-dasharray:none;stroke-opacity:1" />
  </g>
</svg>
