<?xml version="1.0" encoding="UTF-8"?>
<svg height="360" width="600" xmlns="http://www.w3.org/2000/svg" xmlns:xlink="http://www.w3.org/1999/xlink">
 <g>
  <use transform="translate(293.9)" xlink:href="#c"/>
  <circle cx="446.91" cy="180" fill="#e1e8ef" r="99.54" stroke="#000" stroke-width="2.61"/>
  <path id="c" d="m11.3 10.61h283.42v338.79h-283.42z" fill="#bdcee0" stroke="#000" stroke-width="2.645"/>
  <g id="d">
   <path d="m37.434 180.07a5.2911 5.2911 0 0 0 5.3681 5.2131h4.8465c2.676 53.961 46.047 97.334 100.01 100.01v9.8992c-9.6218.1111-18.269 6.9698-18.269 16.435 0 9.5419 8.7864 16.445 18.501 16.445h10.116c9.7151 0 18.496-6.9034 18.496-16.445 0-9.4651-8.6422-16.325-18.264-16.435v-9.8992c53.961-2.676 97.329-46.047 100.01-100.01h4.8515a5.2911 5.2911 0 1 0 0-10.581h-4.8515c-2.6757-53.961-46.044-97.334-100.01-100.01v-9.8992c9.6218-.1111 18.264-6.9698 18.264-16.435 0-9.5419-8.7813-16.445-18.496-16.445h-10.116c-9.7151 0-18.501 6.9034-18.501 16.445 0 9.4651 8.6472 16.325 18.269 16.435v9.8992c-53.961 2.676-97.334 46.047-100.01 100.01h-4.8465a5.2911 5.2911 0 0 0 -5.3681 5.3681zm20.816 5.2131h3.0947a5.2911 5.2911 0 1 0 0-10.581h-3.0947c2.7387-49.98 44.026-89.562 94.699-89.562s91.956 39.584 94.694 89.562h-3.0947a5.2911 5.2911 0 0 0 -5.3631 5.3681 5.2911 5.2911 0 0 0 5.3631 5.2131h3.0947c-2.7384 49.98-44.02 89.562-94.694 89.562s-91.961-39.584-94.699-89.562zm81.721 126.34c0-2.818 3.0019-5.8641 7.9203-5.8641h10.116c4.9184 0 7.9153 3.0461 7.9153 5.8641 0 2.8183-2.9969 5.8641-7.9153 5.8641h-10.116c-4.9184 0-7.9203-3.0458-7.9203-5.8641zm0-263.27c0-2.8183 3.0019-5.8641 7.9203-5.8641h10.116c4.9184 0 7.9153 3.0458 7.9153 5.8641 0 2.818-2.9969 5.8641-7.9153 5.8641h-10.116c-4.9184 0-7.9203-3.0461-7.9203-5.8641z" fill="#fff" stroke="#000" stroke-width="2.645"/>
   <path d="m37.699 180.02h230.52" fill="none" stroke="#000" stroke-width="2.645"/>
   <g id="i">
    <g id="j">
     <g id="a">
      <path d="m116.4 43.485 7.0101 26.163" fill="none" stroke="#b83333" stroke-linecap="round" stroke-width="2.645"/>
      <path d="m126.01 54.872-1.6714 18.401-10.648-15.1c4.3537 1.7016 9.3251.353 12.319-3.3008z" fill="#b83333" fill-rule="evenodd" stroke="#b83333" stroke-linejoin="round"/>
     </g>
     <use transform="matrix(.8660254 -.5 .5 .8660254 -69.52 100.6)" xlink:href="#a"/>
     <use transform="matrix(.5 -.8660254 .8660254 .5 -79.42 222.48)" xlink:href="#a"/>
    </g>
    <use transform="matrix(0 1 -1 0 332.98 27.06)" xlink:href="#j"/>
   </g>
   <use transform="matrix(-1 0 0 -1 305.92 360.04)" xlink:href="#i"/>
  </g>
  <g id="g">
   <g id="h">
    <use transform="matrix(-.9999933 -.0036652 .0036652 -.9999933 253.72 166.1)" xlink:href="#a"/>
    <use transform="matrix(-.8678522 .4968225 -.4968225 -.8678522 233.26 117.59)" xlink:href="#a"/>
    <use transform="matrix(-.5031708 .864187 -.864187 -.5031708 191.28 85.8)" xlink:href="#a"/>
   </g>
   <use transform="matrix(0 1 -1 0 332.98 27.06)" xlink:href="#h"/>
  </g>
  <use transform="matrix(-1 0 0 -1 305.92 360.04)" xlink:href="#g"/>
  <g id="e">
   <g id="f">
    <g id="b">
     <path d="m428.3 110.34-3.8166-14.244" fill="none" stroke="#b83333" stroke-linecap="round" stroke-width="1.323"/>
     <path d="m423.18 103.6.83562-9.2002 5.3237 7.5498c-2.1768-.85077-4.6624-.17647-6.1593 1.6504z" fill="#b83333" fill-rule="evenodd" stroke="#b83333" stroke-linejoin="round" stroke-width=".496"/>
    </g>
    <use transform="matrix(.8660254 -.5 .5 .8660254 -30.14 247.54)" xlink:href="#b"/>
    <use transform="matrix(.5 -.8660254 .8660254 .5 67.52 476.99)" xlink:href="#b"/>
   </g>
   <use transform="matrix(0 1 -1 0 626.87 -266.83)" xlink:href="#f"/>
  </g>
  <use transform="matrix(-1 0 0 -1 893.7 360.04)" xlink:href="#e"/>
  <use transform="translate(293.95 .01)" xlink:href="#d"/>
  <g fill="#000080">
   <g fill-rule="evenodd" stroke="#000080" stroke-linecap="round" stroke-width="1.323">
    <path d="m212.4 39.193h-45.072"/>
    <path d="m284.9 232.26h-45.072"/>
    <path d="m289.4 177.49h-36.166"/>
    <path d="m113.3 304.98h-34.063"/>
   </g>
   <g font-family='DejaVu Sans' font-size="26.254" letter-spacing="0" word-spacing="0">
    <text fill="#000080" x="20" y="40">a)</text>
    <text fill="#000080" x="315" y="40">b)</text>
    <text fill="#000080" x="197" y="36">1</text>
    <text fill="#000080" x="275" y="176">2</text>
    <text fill="#000080" x="267" y="255">3</text>
    <text fill="#000080" x="75" y="327">4</text>
    <text fill="#000080" x="438" y="162">5</text>
   </g>
  </g>
 </g>
</svg>
