<svg version="1.1" viewBox="0.0 0.0 960.0 720.0" fill="none" stroke="none" stroke-linecap="square" stroke-miterlimit="10" xmlns:xlink="http://www.w3.org/1999/xlink" xmlns="http://www.w3.org/2000/svg"><clipPath id="p.0"><path d="m0 0l960.0 0l0 720.0l-960.0 0l0 -720.0z" clip-rule="nonzero"/></clipPath><g clip-path="url(#p.0)"><path fill="#000000" fill-opacity="0.0" d="m0 0l960.0 0l0 720.0l-960.0 0z" fill-rule="evenodd"/><path fill="#3ae43a" d="m34.94488 30.288713l890.1102 0l0 682.29926l-890.1102 0z" fill-rule="evenodd"/><path stroke="#000000" stroke-width="1.0" stroke-linejoin="round" stroke-linecap="butt" d="m34.94488 30.288713l890.1102 0l0 682.29926l-890.1102 0z" fill-rule="evenodd"/><path fill="#000000" fill-opacity="0.0" d="m675.126 36.12861l0 682.2992" fill-rule="evenodd"/><path stroke="#ffffff" stroke-width="4.0" stroke-linejoin="round" stroke-linecap="butt" d="m675.126 36.12861l0 682.2992" fill-rule="evenodd"/><path fill="#000000" fill-opacity="0.0" d="m26.947506 274.93176l52.062992 0" fill-rule="evenodd"/><path stroke="#ffffff" stroke-width="3.0" stroke-linejoin="round" stroke-linecap="butt" d="m26.947506 274.93176l52.062992 0" fill-rule="evenodd"/><path fill="#000000" fill-opacity="0.0" d="m82.608925 274.93176l0 165.19684" fill-rule="evenodd"/><path stroke="#ffffff" stroke-width="3.0" stroke-linejoin="round" stroke-linecap="butt" d="m82.608925 274.93176l0 165.19684" fill-rule="evenodd"/><path fill="#000000" fill-opacity="0.0" d="m87.99475 440.1181l-61.039368 0" fill-rule="evenodd"/><path stroke="#ffffff" stroke-width="3.0" stroke-linejoin="round" stroke-linecap="butt" d="m87.99475 440.1181l-61.039368 0" fill-rule="evenodd"/><path fill="#000000" fill-opacity="0.0" d="m30.538057 186.95276l159.81102 0" fill-rule="evenodd"/><path stroke="#ffffff" stroke-width="4.0" stroke-linejoin="round" stroke-linecap="butt" d="m30.538057 186.95276l159.81102 0" fill-rule="evenodd"/><path fill="#000000" fill-opacity="0.0" d="m192.13387 186.95276l-1.7952881 337.54327" fill-rule="evenodd"/><path stroke="#ffffff" stroke-width="4.0" stroke-linejoin="round" stroke-linecap="butt" d="m192.13387 186.95276l-1.7952881 337.54327" fill-rule="evenodd"/><path fill="#000000" fill-opacity="0.0" d="m193.92914 528.09973l-177.76378 -3.5905151" fill-rule="evenodd"/><path stroke="#ffffff" stroke-width="4.0" stroke-linejoin="round" stroke-linecap="butt" d="m193.92914 528.09973l-177.76378 -3.5905151" fill-rule="evenodd"/><path fill="#000000" fill-opacity="0.0" d="m558.4199 344.06036l0 0c0 -59.99466 53.457947 -108.62991 119.40161 -108.62991l0 0c65.943665 0 119.40155 48.635254 119.40155 108.62991l0 0c0 59.99466 -53.457886 108.62991 -119.40155 108.62991l0 0c-65.943665 0 -119.40161 -48.635254 -119.40161 -108.62991z" fill-rule="evenodd"/><path stroke="#ffffff" stroke-width="4.0" stroke-linejoin="round" stroke-linecap="butt" d="m558.4199 344.06036l0 0c0 -59.99466 53.457947 -108.62991 119.40161 -108.62991l0 0c65.943665 0 119.40155 48.635254 119.40155 108.62991l0 0c0 59.99466 -53.457886 108.62991 -119.40155 108.62991l0 0c-65.943665 0 -119.40161 -48.635254 -119.40161 -108.62991z" fill-rule="evenodd"/><path fill="#000000" fill-opacity="0.0" d="m190.33858 292.88715l18.850403 0l0 0c10.410782 0 18.850388 24.522095 18.850388 54.771637c0 30.249573 -8.439606 54.771667 -18.850388 54.771667l-18.850403 0z" fill-rule="evenodd"/><path stroke="#ffffff" stroke-width="4.0" stroke-linejoin="round" stroke-linecap="butt" d="m190.33858 292.88715l18.850403 0l0 0c10.410782 0 18.850388 24.522095 18.850388 54.771637c0 30.249573 -8.439606 54.771667 -18.850388 54.771667l-18.850403 0z" fill-rule="evenodd"/><path fill="#000000" fill-opacity="0.0" d="m37.721718 659.17084c6.960346 4.055786 31.588852 14.196777 41.762085 24.334778c10.173241 10.1380005 16.064453 30.411072 19.277344 36.493286" fill-rule="evenodd"/><path stroke="#ffffff" stroke-width="3.0" stroke-linejoin="round" stroke-linecap="butt" d="m37.721718 659.17084c6.960346 4.055786 31.588852 14.196777 41.762085 24.334778c10.173241 10.1380005 16.064453 30.411072 19.277344 36.493286" fill-rule="evenodd"/><path fill="#000000" fill-opacity="0.0" d="m98.65513 33.45071c-4.0556183 6.96035 -14.196144 31.588848 -24.33371 41.76209c-10.137558 10.173241 -30.409721 16.064445 -36.49167 19.277336" fill-rule="evenodd"/><path stroke="#ffffff" stroke-width="3.0" stroke-linejoin="round" stroke-linecap="butt" d="m98.65513 33.45071c-4.0556183 6.96035 -14.196144 31.588848 -24.33371 41.76209c-10.137558 10.173241 -30.409721 16.064445 -36.49167 19.277336" fill-rule="evenodd"/><path fill="#ffff00" d="m38.624672 687.45404l0 0c0 -10.906494 8.43961 -19.747986 18.850395 -19.747986l0 0c4.9994354 0 9.794106 2.0805664 13.329239 5.7840576c3.5351334 3.7034912 5.5211563 8.72644 5.5211563 13.963928l0 0c0 10.906555 -8.439613 19.748047 -18.850395 19.748047l0 0c-10.410786 0 -18.850395 -8.841492 -18.850395 -19.748047z" fill-rule="evenodd"/><path stroke="#000000" stroke-width="1.0" stroke-linejoin="round" stroke-linecap="butt" d="m38.624672 687.45404l0 0c0 -10.906494 8.43961 -19.747986 18.850395 -19.747986l0 0c4.9994354 0 9.794106 2.0805664 13.329239 5.7840576c3.5351334 3.7034912 5.5211563 8.72644 5.5211563 13.963928l0 0c0 10.906555 -8.439613 19.748047 -18.850395 19.748047l0 0c-10.410786 0 -18.850395 -8.841492 -18.850395 -19.748047z" fill-rule="evenodd"/><path fill="#4a86e8" d="m48.939632 305.45407l0 0c0 -7.4362793 6.6346474 -13.464569 14.818897 -13.464569l0 0c8.18425 0 14.818901 6.02829 14.818901 13.464569l0 0c0 7.4362793 -6.634651 13.464569 -14.818901 13.464569l0 0c-8.18425 0 -14.818897 -6.02829 -14.818897 -13.464569z" fill-rule="evenodd"/><path stroke="#000000" stroke-width="1.0" stroke-linejoin="round" stroke-linecap="butt" d="m48.939632 305.45407l0 0c0 -7.4362793 6.6346474 -13.464569 14.818897 -13.464569l0 0c8.18425 0 14.818901 6.02829 14.818901 13.464569l0 0c0 7.4362793 -6.634651 13.464569 -14.818901 13.464569l0 0c-8.18425 0 -14.818897 -6.02829 -14.818897 -13.464569z" fill-rule="evenodd"/><path fill="#4a86e8" d="m44.90814 320.0748l37.700787 0l0 39.496063l-37.700787 0z" fill-rule="evenodd"/><path stroke="#000000" stroke-width="1.0" stroke-linejoin="round" stroke-linecap="butt" d="m44.90814 320.0748l37.700787 0l0 39.496063l-37.700787 0z" fill-rule="evenodd"/><path fill="#4a86e8" d="m44.002625 357.97244l17.952755 0l0 26.929138l-17.952755 0z" fill-rule="evenodd"/><path stroke="#000000" stroke-width="1.0" stroke-linejoin="round" stroke-linecap="butt" d="m44.002625 357.97244l17.952755 0l0 26.929138l-17.952755 0z" fill-rule="evenodd"/><path fill="#4a86e8" d="m64.65879 357.97244l17.952759 0l0 26.929138l-17.952759 0z" fill-rule="evenodd"/><path stroke="#000000" stroke-width="1.0" stroke-linejoin="round" stroke-linecap="butt" d="m64.65879 357.97244l17.952759 0l0 26.929138l-17.952759 0z" fill-rule="evenodd"/><path fill="#4a86e8" d="m137.37796 443.9357l37.700775 0l0 39.496063l-37.700775 0z" fill-rule="evenodd"/><path stroke="#000000" stroke-width="1.0" stroke-linejoin="round" stroke-linecap="butt" d="m137.37796 443.9357l37.700775 0l0 39.496063l-37.700775 0z" fill-rule="evenodd"/><path fill="#4a86e8" d="m131.53018 481.50394l17.952759 0l0 26.929138l-17.952759 0z" fill-rule="evenodd"/><path stroke="#000000" stroke-width="1.0" stroke-linejoin="round" stroke-linecap="butt" d="m131.53018 481.50394l17.952759 0l0 26.929138l-17.952759 0z" fill-rule="evenodd"/><path fill="#4a86e8" d="m157.12599 481.50394l17.952744 0l0 26.929138l-17.952744 0z" fill-rule="evenodd"/><path stroke="#000000" stroke-width="1.0" stroke-linejoin="round" stroke-linecap="butt" d="m157.12599 481.50394l17.952744 0l0 26.929138l-17.952744 0z" fill-rule="evenodd"/><path fill="#4a86e8" d="m141.40945 428.49213l0 0c0 -7.4362793 6.6346436 -13.464569 14.818893 -13.464569l0 0c8.18425 0 14.818893 6.02829 14.818893 13.464569l0 0c0 7.4362793 -6.6346436 13.464569 -14.818893 13.464569l0 0c-8.18425 0 -14.818893 -6.02829 -14.818893 -13.464569z" fill-rule="evenodd"/><path stroke="#000000" stroke-width="1.0" stroke-linejoin="round" stroke-linecap="butt" d="m141.40945 428.49213l0 0c0 -7.4362793 6.6346436 -13.464569 14.818893 -13.464569l0 0c8.18425 0 14.818893 6.02829 14.818893 13.464569l0 0c0 7.4362793 -6.6346436 13.464569 -14.818893 13.464569l0 0c-8.18425 0 -14.818893 -6.02829 -14.818893 -13.464569z" fill-rule="evenodd"/><path fill="#ff0000" d="m141.40814 322.51968l0 0c0 -7.4362793 6.6346436 -13.464569 14.818893 -13.464569l0 0c8.18425 0 14.818893 6.02829 14.818893 13.464569l0 0c0 7.4362793 -6.6346436 13.464569 -14.818893 13.464569l0 0c-8.18425 0 -14.818893 -6.02829 -14.818893 -13.464569z" fill-rule="evenodd"/><path stroke="#000000" stroke-width="1.0" stroke-linejoin="round" stroke-linecap="butt" d="m141.40814 322.51968l0 0c0 -7.4362793 6.6346436 -13.464569 14.818893 -13.464569l0 0c8.18425 0 14.818893 6.02829 14.818893 13.464569l0 0c0 7.4362793 -6.6346436 13.464569 -14.818893 13.464569l0 0c-8.18425 0 -14.818893 -6.02829 -14.818893 -13.464569z" fill-rule="evenodd"/><path fill="#4a86e8" d="m101.88976 186.95276l0 0c0 -7.4362793 6.6346436 -13.464569 14.818901 -13.464569l0 0c8.18425 0 14.818893 6.02829 14.818893 13.464569l0 0c0 7.4362793 -6.6346436 13.464569 -14.818893 13.464569l0 0c-8.1842575 0 -14.818901 -6.02829 -14.818901 -13.464569z" fill-rule="evenodd"/><path stroke="#000000" stroke-width="1.0" stroke-linejoin="round" stroke-linecap="butt" d="m101.88976 186.95276l0 0c0 -7.4362793 6.6346436 -13.464569 14.818901 -13.464569l0 0c8.18425 0 14.818893 6.02829 14.818893 13.464569l0 0c0 7.4362793 -6.6346436 13.464569 -14.818893 13.464569l0 0c-8.1842575 0 -14.818901 -6.02829 -14.818901 -13.464569z" fill-rule="evenodd"/><path fill="#ff0000" d="m137.37796 335.98294l37.700775 0l0 39.496063l-37.700775 0z" fill-rule="evenodd"/><path stroke="#000000" stroke-width="1.0" stroke-linejoin="round" stroke-linecap="butt" d="m137.37796 335.98294l37.700775 0l0 39.496063l-37.700775 0z" fill-rule="evenodd"/><path fill="#4a86e8" d="m93.8294 201.3202l37.700783 0l0 39.496063l-37.700783 0z" fill-rule="evenodd"/><path stroke="#000000" stroke-width="1.0" stroke-linejoin="round" stroke-linecap="butt" d="m93.8294 201.3202l37.700783 0l0 39.496063l-37.700783 0z" fill-rule="evenodd"/><path fill="#ff0000" d="m131.52887 375.92914l17.952759 0l0 26.929138l-17.952759 0z" fill-rule="evenodd"/><path stroke="#000000" stroke-width="1.0" stroke-linejoin="round" stroke-linecap="butt" d="m131.52887 375.92914l17.952759 0l0 26.929138l-17.952759 0z" fill-rule="evenodd"/><path fill="#ff0000" d="m157.12466 375.92914l17.952759 0l0 26.929138l-17.952759 0z" fill-rule="evenodd"/><path stroke="#000000" stroke-width="1.0" stroke-linejoin="round" stroke-linecap="butt" d="m157.12466 375.92914l17.952759 0l0 26.929138l-17.952759 0z" fill-rule="evenodd"/><path fill="#4a86e8" d="m113.13386 241.71785l17.952751 0l0 26.929123l-17.952751 0z" fill-rule="evenodd"/><path stroke="#000000" stroke-width="1.0" stroke-linejoin="round" stroke-linecap="butt" d="m113.13386 241.71785l17.952751 0l0 26.929123l-17.952751 0z" fill-rule="evenodd"/><path fill="#4a86e8" d="m97.13386 245.75853l17.952759 0l0 26.929123l-17.952759 0z" fill-rule="evenodd"/><path stroke="#000000" stroke-width="1.0" stroke-linejoin="round" stroke-linecap="butt" d="m97.13386 245.75853l17.952759 0l0 26.929123l-17.952759 0z" fill-rule="evenodd"/><path fill="#ffff00" d="m287.17847 525.5105l0 0c0 -21.760895 17.894531 -39.40158 39.968506 -39.40158l0 0c10.600311 0 20.766449 4.151245 28.262024 11.540466c7.4955444 7.389221 11.706482 17.411163 11.706482 27.861115l0 0c0 21.760864 -17.8945 39.40155 -39.968506 39.40155l0 0c-22.073975 0 -39.968506 -17.640686 -39.968506 -39.40155z" fill-rule="evenodd"/><path stroke="#000000" stroke-width="1.0" stroke-linejoin="round" stroke-linecap="butt" d="m287.17847 525.5105l0 0c0 -21.760895 17.894531 -39.40158 39.968506 -39.40158l0 0c10.600311 0 20.766449 4.151245 28.262024 11.540466c7.4955444 7.389221 11.706482 17.411163 11.706482 27.861115l0 0c0 21.760864 -17.8945 39.40155 -39.968506 39.40155l0 0c-22.073975 0 -39.968506 -17.640686 -39.968506 -39.40155z" fill-rule="evenodd"/><path fill="#000000" fill-opacity="0.0" d="m308.88715 565.395l74.99213 -1.0078735" fill-rule="evenodd"/><path stroke="#000000" stroke-width="1.0" stroke-linejoin="round" stroke-linecap="butt" d="m308.88715 565.395l68.992645 -0.9272461" fill-rule="evenodd"/><path fill="#000000" stroke="#000000" stroke-width="1.0" stroke-linecap="butt" d="m377.902 566.1193l4.5154724 -1.7125244l-4.5598755 -1.5906372z" fill-rule="evenodd"/><path fill="#000000" fill-opacity="0.0" d="m307.39108 475.06036l126.61417 9.952759" fill-rule="evenodd"/><path stroke="#000000" stroke-width="1.0" stroke-linejoin="round" stroke-linecap="butt" d="m307.39108 475.06036l120.63263 9.482574" fill-rule="evenodd"/><path fill="#000000" stroke="#000000" stroke-width="1.0" stroke-linecap="butt" d="m427.89426 486.18958l4.653595 -1.2910156l-4.3947144 -2.0022888z" fill-rule="evenodd"/><path fill="#000000" fill-opacity="0.0" d="m308.88715 486.39896l114.11023 9.606293" fill-rule="evenodd"/><path stroke="#000000" stroke-width="1.0" stroke-linejoin="round" stroke-linecap="butt" d="m308.88715 486.39896l108.13138 9.102966" fill-rule="evenodd"/><path fill="#000000" stroke="#000000" stroke-width="1.0" stroke-linecap="butt" d="m416.87997 497.14783l4.6606445 -1.2652283l-4.383545 -2.0265808z" fill-rule="evenodd"/><path fill="#000000" fill-opacity="0.0" d="m304.88715 580.5617l119.1181 -14.5512085" fill-rule="evenodd"/><path stroke="#000000" stroke-width="1.0" stroke-linejoin="round" stroke-linecap="butt" d="m304.88715 580.5617l113.162384 -13.823669" fill-rule="evenodd"/><path fill="#000000" stroke="#000000" stroke-width="1.0" stroke-linecap="butt" d="m418.24982 568.37756l4.3043213 -2.1898193l-4.704895 -1.0892334z" fill-rule="evenodd"/><path fill="#000000" fill-opacity="0.0" d="m308.00787 464.48557l166.01575 14.015747" fill-rule="evenodd"/><path stroke="#000000" stroke-width="1.0" stroke-linejoin="round" stroke-linecap="butt" d="m308.00787 464.48557l160.03702 13.510986" fill-rule="evenodd"/><path fill="#000000" stroke="#000000" stroke-width="1.0" stroke-linecap="butt" d="m467.90594 479.64243l4.6609497 -1.2640991l-4.3830566 -2.027649z" fill-rule="evenodd"/><path fill="#000000" fill-opacity="0.0" d="m317.00787 596.48553l142.99213 -30.992126" fill-rule="evenodd"/><path stroke="#000000" stroke-width="1.0" stroke-linejoin="round" stroke-linecap="butt" d="m317.00787 596.48553l137.1283 -29.721191" fill-rule="evenodd"/><path fill="#000000" stroke="#000000" stroke-width="1.0" stroke-linecap="butt" d="m454.48602 568.3786l4.0852356 -2.5755005l-4.784973 -0.6529541z" fill-rule="evenodd"/><path fill="#000000" fill-opacity="0.0" d="m326.00787 610.48553l161.00787 -41.007874" fill-rule="evenodd"/><path stroke="#000000" stroke-width="1.0" stroke-linejoin="round" stroke-linecap="butt" d="m326.00787 610.48553l155.19348 -39.526978" fill-rule="evenodd"/><path fill="#000000" stroke="#000000" stroke-width="1.0" stroke-linecap="butt" d="m481.60904 572.5592l3.9900208 -2.7207031l-4.805359 -0.4805298z" fill-rule="evenodd"/><path fill="#000000" fill-opacity="0.0" d="m386.0071 523.4856c2.7848816 -5.569763 10.569733 -15.215088 5.0 -17.99997c-9.734253 -4.8671265 -24.734253 24.132843 -15.0 28.99997" fill-rule="evenodd"/><path stroke="#000000" stroke-width="1.0" stroke-linejoin="round" stroke-linecap="butt" d="m386.00708 523.4856c2.784912 -5.569763 10.569763 -15.215088 5.0 -18.0c-4.8671265 -2.4335632 -11.050659 3.5996704 -14.800659 10.84967c-1.875 3.625 -3.141632 7.554199 -3.3310852 10.881348c-0.023712158 0.41589355 -0.030548096 0.82232666 -0.01965332 1.2177124c0.0054626465 0.19763184 0.015350342 0.39245605 0.029785156 0.5843506c0.0072021484 0.09588623 0.015533447 0.19104004 0.025054932 0.28546143l0.0045166016 0.03955078" fill-rule="evenodd"/><path fill="#000000" stroke="#000000" stroke-width="1.0" stroke-linecap="butt" d="m371.4995 530.1949l3.7542114 3.0379028l-0.92318726 -4.7402954z" fill-rule="evenodd"/><path fill="#000000" fill-opacity="0.0" d="m398.00787 551.48615c6.4013977 -3.2006836 16.401398 -15.799316 10.0 -19.0c-8.646118 -4.323059 -21.0 10.333313 -21.0 20.0" fill-rule="evenodd"/><path stroke="#000000" stroke-width="1.0" stroke-linejoin="round" stroke-linecap="butt" d="m398.00787 551.48615c6.401367 -3.2006836 16.401367 -15.799316 10.0 -19.0c-4.3230896 -2.16156 -9.57309 0.42181396 -13.742279 4.753845c-2.0846252 2.1660156 -3.8990479 4.769226 -5.1923523 7.4350586c-0.1616211 0.33325195 -0.31515503 0.66748047 -0.4600525 1.0019531c-0.07241821 0.1671753 -0.14273071 0.3345337 -0.2107544 0.50177l-0.17068481 0.4335327" fill-rule="evenodd"/><path fill="#000000" stroke="#000000" stroke-width="1.0" stroke-linecap="butt" d="m386.61475 546.2754l0.6913147 4.779602l2.542694 -4.105774z" fill-rule="evenodd"/><path fill="#000000" fill-opacity="0.0" d="m415.00787 519.4845c6.0369263 0 13.731262 2.2687378 18.0 -2.0c3.3082275 -3.3082275 3.0923157 -9.815369 1.0 -14.0c-4.541168 -9.082336 -18.917664 7.458832 -28.0 12.0" fill-rule="evenodd"/><path stroke="#000000" stroke-width="1.0" stroke-linejoin="round" stroke-linecap="butt" d="m415.00787 519.4845c6.0368958 0 13.731262 2.2687988 18.0 -2.0c3.3082275 -3.3082275 3.0923157 -9.815369 1.0 -14.0c-2.2705994 -4.541168 -7.0 -2.676422 -12.297089 0.89120483c-2.6484985 1.783844 -5.4389343 3.9933472 -8.134918 6.040802c-0.6739502 0.5118408 -1.3420715 1.0135803 -2.0005188 1.4959717c-0.16464233 0.12060547 -0.32867432 0.23999023 -0.4920044 0.35803223l-0.006134033 0.0043945312" fill-rule="evenodd"/><path fill="#000000" stroke="#000000" stroke-width="1.0" stroke-linecap="butt" d="m410.19366 510.87933l-2.950653 3.82312l4.7177734 -1.0320435z" fill-rule="evenodd"/><path fill="#000000" fill-opacity="0.0" d="m444.00787 544.48444c5.81958 -1.1638794 15.747864 -10.439087 11.0 -14.0c-8.537506 -6.403137 -25.0 9.328125 -25.0 20.0" fill-rule="evenodd"/><path stroke="#000000" stroke-width="1.0" stroke-linejoin="round" stroke-linecap="butt" d="m444.00787 544.48444c5.81958 -1.1638794 15.747864 -10.439087 11.0 -14.0c-4.268738 -3.201538 -10.518738 -0.86950684 -15.701569 3.5968628c-2.5914001 2.2332764 -4.9160156 5.0 -6.5927734 7.8754883c-0.41918945 0.7188721 -0.7978821 1.4445801 -1.130127 2.1704102c-0.041534424 0.09069824 -0.082336426 0.18145752 -0.122406006 0.27215576l-0.10354614 0.23883057" fill-rule="evenodd"/><path fill="#000000" stroke="#000000" stroke-width="1.0" stroke-linecap="butt" d="m429.74802 544.26666l0.5886841 4.793335l2.630127 -4.050293z" fill-rule="evenodd"/><path fill="#000000" fill-opacity="0.0" d="m362.01575 540.21655c-10.883209 10.883179 -28.818207 16.530273 -44.0 14.0c-12.34198 -2.0570068 -22.404358 -13.808777 -28.0 -25.0" fill-rule="evenodd"/><path stroke="#000000" stroke-width="1.0" stroke-linejoin="round" stroke-linecap="butt" d="m362.01575 540.21655c-10.883209 10.883179 -28.818207 16.530273 -44.0 14.0c-6.1709595 -1.0285034 -11.772064 -4.480713 -16.529877 -9.074646c-2.3789062 -2.296997 -4.5469666 -4.8794556 -6.4700623 -7.587097c-0.48077393 -0.6768799 -0.946228 -1.3616333 -1.3958435 -2.0516968c-0.22479248 -0.34503174 -0.44561768 -0.6913452 -0.66244507 -1.0387573l-0.008483887 -0.01373291" fill-rule="evenodd"/><path fill="#000000" stroke="#000000" stroke-width="1.0" stroke-linecap="butt" d="m294.38992 533.6431l-3.6594849 -3.1513062l0.77770996 4.7662964z" fill-rule="evenodd"/><path fill="#000000" fill-opacity="0.0" d="m304.7533 507.66412c10.644196 -15.966309 55.0 -2.1891174 55.0 17.0" fill-rule="evenodd"/><path stroke="#000000" stroke-width="1.0" stroke-linejoin="round" stroke-linecap="butt" d="m304.7533 507.66412c5.3220825 -7.983185 19.072083 -8.530426 31.491547 -4.683319c6.2097473 1.9236145 12.086853 4.945801 16.41153 8.686401c2.162323 1.8702698 3.936554 3.9201965 5.1701965 6.1022034c0.15420532 0.2727661 0.2999878 0.5475464 0.43701172 0.8243408l0.110321045 0.2310791" fill-rule="evenodd"/><path fill="#000000" stroke="#000000" stroke-width="1.0" stroke-linecap="butt" d="m356.7664 519.2046l2.6508179 4.036804l0.56417847 -4.7962646z" fill-rule="evenodd"/><path fill="#000000" fill-opacity="0.0" d="m38.26496 679.18c36.674057 -49.575745 109.27996 -97.41638 108.2026 -149.20319c-0.6643524 -31.934174 -8.964066 -63.835754 -27.8927 -90.969604c-14.42527 -20.678375 -58.028416 -23.227509 -78.21 -41.053497" fill-rule="evenodd"/><path stroke="#000000" stroke-width="4.0" stroke-linejoin="round" stroke-linecap="butt" d="m38.26496 679.18c36.674057 -49.575806 109.27996 -97.41644 108.2026 -149.20319c-0.6643524 -31.934204 -8.964081 -63.835785 -27.892693 -90.969574c-7.212639 -10.339203 -21.71975 -16.146088 -36.94639 -21.596436c-3.8066635 -1.3625793 -7.6582947 -2.7028809 -11.452164 -4.0861206c-1.8969345 -0.6916504 -3.7794342 -1.3940125 -5.6346436 -2.115265c-0.9276047 -0.36065674 -1.8483887 -0.7260132 -2.7607498 -1.0971375l-0.5842781 -0.24069214" fill-rule="evenodd"/><path fill="#000000" stroke="#000000" stroke-width="4.0" stroke-linecap="butt" d="m64.477516 404.13687l-19.036983 -3.279358l12.475246 14.74884z" fill-rule="evenodd"/><path fill="#000000" fill-opacity="0.0" d="m339.00787 457.00262l-2.9921265 -109.98425" fill-rule="evenodd"/><path stroke="#000000" stroke-width="1.0" stroke-linejoin="round" stroke-linecap="butt" d="m339.00787 457.00262l-2.8289795 -103.98648" fill-rule="evenodd"/><path fill="#000000" stroke="#000000" stroke-width="1.0" stroke-linecap="butt" d="m337.83005 352.97122l-1.7745361 -4.4914856l-1.52771 4.5813293z" fill-rule="evenodd"/><path fill="#000000" fill-opacity="0.0" d="m349.4567 349.44882l114.11023 0l0 64.62991l-114.11023 0z" fill-rule="evenodd"/><path fill="#000000" d="m359.84732 376.3688l0 -13.359375l2.65625 0l3.15625 9.453125q0.4375 1.328125 0.640625 1.984375q0.234375 -0.734375 0.703125 -2.140625l3.203125 -9.296875l2.375 0l0 13.359375l-1.703125 0l0 -11.171875l-3.875 11.171875l-1.59375 0l-3.859375 -11.375l0 11.375l-1.703125 0zm21.697052 -1.1875q-0.921875 0.765625 -1.765625 1.09375q-0.828125 0.3125 -1.796875 0.3125q-1.59375 0 -2.453125 -0.78125q-0.859375 -0.78125 -0.859375 -1.984375q0 -0.71875 0.328125 -1.296875q0.328125 -0.59375 0.84375 -0.9375q0.53125 -0.359375 1.1875 -0.546875q0.46875 -0.125 1.453125 -0.25q1.984375 -0.234375 2.921875 -0.5625q0.015625 -0.34375 0.015625 -0.421875q0 -1.0 -0.46875 -1.421875q-0.625 -0.546875 -1.875 -0.546875q-1.15625 0 -1.703125 0.40625q-0.546875 0.40625 -0.8125 1.421875l-1.609375 -0.21875q0.21875 -1.015625 0.71875 -1.640625q0.5 -0.640625 1.453125 -0.984375q0.953125 -0.34375 2.1875 -0.34375q1.25 0 2.015625 0.296875q0.78125 0.28125 1.140625 0.734375q0.375 0.4375 0.515625 1.109375q0.078125 0.421875 0.078125 1.515625l0 2.1875q0 2.28125 0.109375 2.890625q0.109375 0.59375 0.40625 1.15625l-1.703125 0q-0.265625 -0.515625 -0.328125 -1.1875zm-0.140625 -3.671875q-0.890625 0.375 -2.671875 0.625q-1.015625 0.140625 -1.4375 0.328125q-0.421875 0.1875 -0.65625 0.53125q-0.21875 0.34375 -0.21875 0.78125q0 0.65625 0.5 1.09375q0.5 0.4375 1.453125 0.4375q0.9375 0 1.671875 -0.40625q0.75 -0.421875 1.09375 -1.140625q0.265625 -0.5625 0.265625 -1.640625l0 -0.609375zm3.891327 5.65625l1.59375 0.234375q0.109375 0.75 0.5625 1.078125q0.609375 0.453125 1.671875 0.453125q1.140625 0 1.75 -0.453125q0.625 -0.453125 0.84375 -1.265625q0.125 -0.5 0.109375 -2.109375q-1.0625 1.265625 -2.671875 1.265625q-2.0 0 -3.09375 -1.4375q-1.09375 -1.4375 -1.09375 -3.453125q0 -1.390625 0.5 -2.5625q0.515625 -1.171875 1.453125 -1.796875q0.953125 -0.640625 2.25 -0.640625q1.703125 0 2.8125 1.375l0 -1.15625l1.515625 0l0 8.359375q0 2.265625 -0.46875 3.203125q-0.453125 0.9375 -1.453125 1.484375q-0.984375 0.546875 -2.453125 0.546875q-1.71875 0 -2.796875 -0.78125q-1.0625 -0.765625 -1.03125 -2.34375zm1.359375 -5.8125q0 1.90625 0.75 2.78125q0.765625 0.875 1.90625 0.875q1.125 0 1.890625 -0.859375q0.765625 -0.875 0.765625 -2.734375q0 -1.78125 -0.796875 -2.671875q-0.78125 -0.90625 -1.890625 -0.90625q-1.09375 0 -1.859375 0.890625q-0.765625 0.875 -0.765625 2.625zm9.328857 5.015625l0 -9.671875l1.46875 0l0 1.375q1.0625 -1.59375 3.078125 -1.59375q0.875 0 1.609375 0.3125q0.734375 0.3125 1.09375 0.828125q0.375 0.5 0.515625 1.203125q0.09375 0.453125 0.09375 1.59375l0 5.953125l-1.640625 0l0 -5.890625q0 -1.0 -0.203125 -1.484375q-0.1875 -0.5 -0.671875 -0.796875q-0.484375 -0.296875 -1.140625 -0.296875q-1.046875 0 -1.8125 0.671875q-0.75 0.65625 -0.75 2.515625l0 5.28125l-1.640625 0zm16.703827 0l0 -1.421875q-1.125 1.640625 -3.0625 1.640625q-0.859375 0 -1.609375 -0.328125q-0.734375 -0.328125 -1.09375 -0.828125q-0.359375 -0.5 -0.5 -1.21875q-0.109375 -0.46875 -0.109375 -1.53125l0 -5.984375l1.640625 0l0 5.359375q0 1.28125 0.109375 1.734375q0.15625 0.640625 0.65625 1.015625q0.5 0.375 1.234375 0.375q0.734375 0 1.375 -0.375q0.65625 -0.390625 0.921875 -1.03125q0.265625 -0.65625 0.265625 -1.890625l0 -5.1875l1.640625 0l0 9.671875l-1.46875 0zm3.3913574 -2.890625l1.625 -0.25q0.125 0.96875 0.75 1.5q0.625 0.515625 1.75 0.515625q1.125 0 1.671875 -0.453125q0.546875 -0.46875 0.546875 -1.09375q0 -0.546875 -0.484375 -0.875q-0.328125 -0.21875 -1.671875 -0.546875q-1.8125 -0.46875 -2.515625 -0.796875q-0.6875 -0.328125 -1.046875 -0.90625q-0.359375 -0.59375 -0.359375 -1.3125q0 -0.640625 0.296875 -1.1875q0.296875 -0.5625 0.8125 -0.921875q0.375 -0.28125 1.03125 -0.46875q0.671875 -0.203125 1.421875 -0.203125q1.140625 0 2.0 0.328125q0.859375 0.328125 1.265625 0.890625q0.421875 0.5625 0.578125 1.5l-1.609375 0.21875q-0.109375 -0.75 -0.640625 -1.171875q-0.515625 -0.421875 -1.46875 -0.421875q-1.140625 0 -1.625 0.375q-0.46875 0.375 -0.46875 0.875q0 0.3125 0.1875 0.578125q0.203125 0.265625 0.640625 0.4375q0.234375 0.09375 1.4375 0.421875q1.75 0.453125 2.4375 0.75q0.6875 0.296875 1.078125 0.859375q0.390625 0.5625 0.390625 1.40625q0 0.828125 -0.484375 1.546875q-0.46875 0.71875 -1.375 1.125q-0.90625 0.390625 -2.046875 0.390625q-1.875 0 -2.875 -0.78125q-0.984375 -0.78125 -1.25 -2.328125z" fill-rule="nonzero"/><path fill="#000000" d="m360.0817 398.76883l0 -8.40625l-1.453125 0l0 -1.265625l1.453125 0l0 -1.03125q0 -0.96875 0.171875 -1.453125q0.234375 -0.640625 0.828125 -1.03125q0.59375 -0.390625 1.671875 -0.390625q0.6875 0 1.53125 0.15625l-0.25 1.4375q-0.5 -0.09375 -0.953125 -0.09375q-0.75 0 -1.0625 0.328125q-0.3125 0.3125 -0.3125 1.1875l0 0.890625l1.890625 0l0 1.265625l-1.890625 0l0 8.40625l-1.625 0zm4.1832886 -4.84375q0 -2.6875 1.484375 -3.96875q1.25 -1.078125 3.046875 -1.078125q2.0 0 3.265625 1.3125q1.265625 1.296875 1.265625 3.609375q0 1.859375 -0.5625 2.9375q-0.5625 1.0625 -1.640625 1.65625q-1.0625 0.59375 -2.328125 0.59375q-2.03125 0 -3.28125 -1.296875q-1.25 -1.3125 -1.25 -3.765625zm1.6875 0q0 1.859375 0.796875 2.796875q0.8125 0.921875 2.046875 0.921875q1.21875 0 2.03125 -0.921875q0.8125 -0.9375 0.8125 -2.84375q0 -1.796875 -0.8125 -2.71875q-0.8125 -0.921875 -2.03125 -0.921875q-1.234375 0 -2.046875 0.921875q-0.796875 0.90625 -0.796875 2.765625zm9.281982 4.84375l0 -9.671875l1.46875 0l0 1.46875q0.5625 -1.03125 1.03125 -1.359375q0.484375 -0.328125 1.0625 -0.328125q0.828125 0 1.6875 0.53125l-0.5625 1.515625q-0.609375 -0.359375 -1.203125 -0.359375q-0.546875 0 -0.96875 0.328125q-0.421875 0.328125 -0.609375 0.890625q-0.28125 0.875 -0.28125 1.921875l0 5.0625l-1.625 0zm12.540802 -3.546875l1.609375 0.21875q-0.265625 1.65625 -1.359375 2.609375q-1.078125 0.9375 -2.671875 0.9375q-1.984375 0 -3.1875 -1.296875q-1.203125 -1.296875 -1.203125 -3.71875q0 -1.578125 0.515625 -2.75q0.515625 -1.171875 1.578125 -1.75q1.0625 -0.59375 2.3125 -0.59375q1.578125 0 2.578125 0.796875q1.0 0.796875 1.28125 2.265625l-1.59375 0.234375q-0.234375 -0.96875 -0.8125 -1.453125q-0.578125 -0.5 -1.390625 -0.5q-1.234375 0 -2.015625 0.890625q-0.78125 0.890625 -0.78125 2.8125q0 1.953125 0.75 2.84375q0.75 0.875 1.953125 0.875q0.96875 0 1.609375 -0.59375q0.65625 -0.59375 0.828125 -1.828125zm9.640625 0.4375l1.6875 0.203125q-0.40625 1.484375 -1.484375 2.3125q-1.078125 0.8125 -2.765625 0.8125q-2.125 0 -3.375 -1.296875q-1.234375 -1.3125 -1.234375 -3.671875q0 -2.453125 1.25 -3.796875q1.265625 -1.34375 3.265625 -1.34375q1.9375 0 3.15625 1.328125q1.234375 1.3125 1.234375 3.703125q0 0.15625 0 0.4375l-7.21875 0q0.09375 1.59375 0.90625 2.453125q0.8125 0.84375 2.015625 0.84375q0.90625 0 1.546875 -0.46875q0.640625 -0.484375 1.015625 -1.515625zm-5.390625 -2.65625l5.40625 0q-0.109375 -1.21875 -0.625 -1.828125q-0.78125 -0.953125 -2.03125 -0.953125q-1.125 0 -1.90625 0.765625q-0.765625 0.75 -0.84375 2.015625z" fill-rule="nonzero"/></g></svg>