<?xml version="1.0" encoding="UTF-8" standalone="no"?>
<svg xmlns:rdf="http://www.w3.org/1999/02/22-rdf-syntax-ns#" xmlns="http://www.w3.org/2000/svg" xmlns:cc="http://creativecommons.org/ns#" xmlns:dc="http://purl.org/dc/elements/1.1/" height="100%" width="100%" version="1.1" viewBox="0 0 651.71247 365.20258">
<title>Nonsinusoidal wavelength</title>
<defs>
<marker id="e" refY="0" refX="0" orient="auto" overflow="visible">
<path d="m5.77 0-8.65 5v-10l8.65 5z" fill-rule="evenodd" transform="scale(.4)" stroke="#000" stroke-width="1pt"/>
</marker>
<marker id="d" refY="0" refX="0" orient="auto" overflow="visible">
<path d="m5.77 0-8.65 5v-10l8.65 5z" fill-rule="evenodd" transform="scale(.2)" stroke="#0865b7" stroke-width="1pt" fill="#0865b7"/>
</marker>
<marker id="f" refY="0" refX="0" orient="auto" overflow="visible">
<path d="m5.77 0-8.65 5v-10l8.65 5z" fill-rule="evenodd" transform="scale(-.4)" stroke="#000" stroke-width="1pt"/>
</marker>
<marker id="c" refY="0" refX="0" orient="auto" overflow="visible">
<path d="m5.77 0-8.65 5v-10l8.65 5z" fill-rule="evenodd" transform="scale(.2)" stroke="#0865b7" stroke-width="1pt" fill="#0865b7"/>
</marker>
<marker id="a" refY="0" refX="0" orient="auto" overflow="visible">
<path d="m5.77 0-8.65 5v-10l8.65 5z" fill-rule="evenodd" transform="scale(.2)" stroke="#0865b7" stroke-width="1pt" fill="#0865b7"/>
</marker>
<marker id="b" refY="0" refX="0" orient="auto" overflow="visible">
<path d="m5.77 0-8.65 5v-10l8.65 5z" fill-rule="evenodd" transform="scale(.2)" stroke="#0865b7" stroke-width="1pt" fill="#0865b7"/>
</marker>
</defs>
<g transform="translate(-44.5 -368)" fill="none">
<path marker-end="url(#e)" d="m105 390v282h570" marker-start="url(#f)" stroke="#000" stroke-linecap="square" stroke-width="4"/>
<path stroke-linejoin="round" d="m170 602c21.8-61.1 36.6-69.6 53.2-77.1 25.4-11.5 26.1-70.3 51.8-71.1 13.6-.402 24 30.7 27 60.9 4.27 42.7 15.3 66.7 49.9 67.3 26.4.408 34.5.179 34.5.179l19.3 24.8 2.09-5.68c21.8-61.1 36.6-69.6 53.2-77.1 25.4-11.5 26.1-70.3 51.8-71.1 13.6-.402 24 30.7 27 60.9 4.27 42.7 15.3 66.7 49.9 67.3 26.4.408 34.5.179 34.5.179l19.3 24.8" stroke="#640000" stroke-linecap="round" stroke-width="10"/>
</g>
<g transform="translate(-44.5 -368)">
<g transform="translate(-2.02 -7.56)" fill="none">
<path d="m276 406v82.8" stroke="#000" stroke-miterlimit="0" stroke-dasharray="3.04564335, 3.04564335" stroke-width="3.05"/>
<path marker-end="url(#d)" d="m379 435h-94.3" stroke="#0865b7" stroke-width="4"/>
</g>
<switch style="word-spacing:0px;letter-spacing:0px;text-anchor:middle;text-align:center"><text style="word-spacing:0px;letter-spacing:0px;text-anchor:middle;text-align:center" line-height="125%" font-size="13.8px" y="442.70184" x="393.22171" font-family="sans-serif" xml:space="preserve" fill="#080387" id="trsvg5-ca" systemLanguage="ca"><tspan font-weight="bold" font-size="45px" y="442.70184" x="393.22171" font-family="Arial" fill="#080387" id="trsvg1-ca">λ</tspan></text><text style="word-spacing:0px;letter-spacing:0px;text-anchor:middle;text-align:center" line-height="125%" font-size="13.8px" y="442.70184" x="393.22171" font-family="sans-serif" xml:space="preserve" fill="#080387" id="trsvg5-yue" systemLanguage="yue"><tspan font-weight="bold" font-size="45px" y="442.70184" x="393.22171" font-family="Arial" fill="#080387" id="trsvg1-yue">λ</tspan></text><text style="word-spacing:0px;letter-spacing:0px;text-anchor:middle;text-align:center" line-height="125%" font-size="13.8px" y="442.70184" x="393.22171" font-family="sans-serif" xml:space="preserve" fill="#080387" id="trsvg5"><tspan font-weight="bold" font-size="45px" y="442.70184" x="393.22171" font-family="Arial" fill="#080387" id="trsvg1">λ</tspan></text></switch>
<g transform="matrix(-1 0 0 1 789 -7.56)" fill="none">
<path d="m276 406v82.8" stroke="#000" stroke-miterlimit="0" stroke-dasharray="3.04564335, 3.04564335" stroke-width="3.05"/>
<path marker-end="url(#c)" d="m379 435h-94.3" stroke="#0865b7" stroke-width="4"/>
</g>
<g transform="translate(-105 206)">
<g transform="translate(-2.02 -7.56)" fill="none">
<path d="m276 394v65.3" stroke="#000" stroke-miterlimit="0" stroke-dasharray="3.04564335, 3.04564335" stroke-width="3.05"/>
<path marker-end="url(#a)" d="m379 435h-94.3" stroke="#0865b7" stroke-width="4"/>
</g>
<switch style="word-spacing:0px;letter-spacing:0px;text-anchor:middle;text-align:center"><text style="word-spacing:0px;letter-spacing:0px;text-anchor:middle;text-align:center" line-height="125%" font-size="13.8px" y="442.70184" x="393.22171" font-family="sans-serif" xml:space="preserve" fill="#080387" id="trsvg6-ca" systemLanguage="ca"><tspan font-weight="bold" font-size="45px" y="442.70184" x="393.22171" font-family="Arial" fill="#080387" id="trsvg2-ca">λ</tspan></text><text style="word-spacing:0px;letter-spacing:0px;text-anchor:middle;text-align:center" line-height="125%" font-size="13.8px" y="442.70184" x="393.22171" font-family="sans-serif" xml:space="preserve" fill="#080387" id="trsvg6-yue" systemLanguage="yue"><tspan font-weight="bold" font-size="45px" y="442.70184" x="393.22171" font-family="Arial" fill="#080387" id="trsvg2-yue">λ</tspan></text><text style="word-spacing:0px;letter-spacing:0px;text-anchor:middle;text-align:center" line-height="125%" font-size="13.8px" y="442.70184" x="393.22171" font-family="sans-serif" xml:space="preserve" fill="#080387" id="trsvg6"><tspan font-weight="bold" font-size="45px" y="442.70184" x="393.22171" font-family="Arial" fill="#080387" id="trsvg2">λ</tspan></text></switch>
<g transform="matrix(-1 0 0 1 789 -7.56)" fill="none">
<path d="m276 394v65.3" stroke="#000" stroke-miterlimit="0" stroke-dasharray="3.04564335, 3.04564335" stroke-width="3.05"/>
<path marker-end="url(#b)" d="m379 435h-94.3" stroke="#0865b7" stroke-width="4"/>
</g>
</g>
<switch style="word-spacing:0px;letter-spacing:0px;text-anchor:middle;text-align:center"><text style="word-spacing:0px;letter-spacing:0px;text-anchor:middle;text-align:center" xml:space="preserve" font-size="45px" y="716.57312" x="610.36499" font-family="sans-serif" line-height="125%" fill="#000000" id="trsvg7-es" systemLanguage="es"><tspan font-weight="bold" font-size="35px" y="716.57312" x="610.36499" font-family="Arial" id="trsvg3-es">Espacio</tspan></text><text style="word-spacing:0px;letter-spacing:0px;text-anchor:middle;text-align:center" xml:space="preserve" font-size="45px" y="716.57312" x="610.36499" font-family="sans-serif" line-height="125%" fill="#000000" id="trsvg7-ca" systemLanguage="ca"><tspan font-weight="bold" font-size="35px" y="716.57312" x="610.36499" font-family="Arial" id="trsvg3-ca">Espai</tspan></text><text style="word-spacing:0px;letter-spacing:0px;text-anchor:middle;text-align:center" xml:space="preserve" font-size="45px" y="716.57312" x="610.36499" font-family="sans-serif" line-height="125%" fill="#000000" id="trsvg7-yue" systemLanguage="yue"><tspan font-weight="bold" font-size="35px" y="716.57312" x="610.36499" font-family="Arial" id="trsvg3-yue">空間</tspan></text><text style="word-spacing:0px;letter-spacing:0px;text-anchor:middle;text-align:center" xml:space="preserve" font-size="45px" y="716.57312" x="610.36499" font-family="sans-serif" line-height="125%" fill="#000000" id="trsvg7"><tspan font-weight="bold" font-size="35px" y="716.57312" x="610.36499" font-family="Arial" id="trsvg3">Space</tspan></text></switch>
<switch style="word-spacing:0px;letter-spacing:0px;text-anchor:middle;text-align:center"><text style="word-spacing:0px;letter-spacing:0px;text-anchor:middle;text-align:center" line-height="125%" xml:space="preserve" transform="rotate(-90)" font-size="45px" y="79.57148" x="-488.82504" font-family="sans-serif" fill="#000000" id="trsvg8-es" systemLanguage="es"><tspan font-weight="bold" font-size="35px" y="79.57148" x="-488.82504" font-family="Arial" id="trsvg4-es">Amplitud</tspan></text><text style="word-spacing:0px;letter-spacing:0px;text-anchor:middle;text-align:center" line-height="125%" xml:space="preserve" transform="rotate(-90)" font-size="45px" y="79.57148" x="-488.82504" font-family="sans-serif" fill="#000000" id="trsvg8-ca" systemLanguage="ca"><tspan font-weight="bold" font-size="35px" y="79.57148" x="-488.82504" font-family="Arial" id="trsvg4-ca">Amplitud</tspan></text><text style="word-spacing:0px;letter-spacing:0px;text-anchor:middle;text-align:center" line-height="125%" xml:space="preserve" transform="rotate(-90)" font-size="45px" y="79.57148" x="-488.82504" font-family="sans-serif" fill="#000000" id="trsvg8-yue" systemLanguage="yue"><tspan font-weight="bold" font-size="35px" y="79.57148" x="-488.82504" font-family="Arial" id="trsvg4-yue">波幅</tspan></text><text style="word-spacing:0px;letter-spacing:0px;text-anchor:middle;text-align:center" line-height="125%" xml:space="preserve" transform="rotate(-90)" font-size="45px" y="79.57148" x="-488.82504" font-family="sans-serif" fill="#000000" id="trsvg8"><tspan font-weight="bold" font-size="35px" y="79.57148" x="-488.82504" font-family="Arial" id="trsvg4">Amplitude</tspan></text></switch>
</g>
</svg>
