<?xml version="1.0" encoding="UTF-8" standalone="no"?>
<!DOCTYPE svg PUBLIC "-//W3C//DTD SVG 1.1//EN" "http://www.w3.org/Graphics/SVG/1.1/DTD/svg11.dtd">
<svg width="320" height="400" viewBox="0 0 320 400" version="1.1" xmlns="http://www.w3.org/2000/svg" xmlns:xlink="http://www.w3.org/1999/xlink">
  <g stroke="#000" stroke-width="1">
    <g fill="url(#g)">
      <rect x="40" y="70" width="240" height="10"/>
      <path d="M39.266,331.416c37.641,-13.852 78.311,-21.416 120.734,-21.416c42.423,0 83.093,7.564 120.734,21.416l-3.449,9.388c-36.566,-13.456 -76.074,-20.804 -117.285,-20.804c-41.211,0 -80.719,7.348 -117.285,20.804l-3.449,-9.388Z"/>
      <path d="M276.437,170.133l3.327,9.433c-37.473,13.233 -77.784,20.434 -119.764,20.434c-41.98,0 -82.291,-7.201 -119.764,-20.434l3.327,-9.433c36.432,12.866 75.624,19.867 116.437,19.867c40.813,0 80.005,-7.001 116.437,-19.867Z"/>
    </g>
    <g fill="#ddd">
      <rect x="100" y="60" width="120" height="10"/>
      <path d="M92.609,306.309c21.832,-4.142 44.361,-6.309 67.391,-6.309c23.03,0 45.559,2.167 67.391,6.309l-1.872,9.825c-21.226,-4.027 -43.128,-6.134 -65.519,-6.134c-22.391,0 -44.293,2.107 -65.519,6.134l-1.872,-9.825Z"/>
      <path d="M216.071,175.39l1.649,9.864c-18.779,3.122 -38.061,4.746 -57.72,4.746c-19.659,0 -38.941,-1.624 -57.72,-4.746l1.649,-9.864c18.243,3.032 36.974,4.61 56.071,4.61c19.097,0 37.828,-1.578 56.071,-4.61Z"/>
    </g>
  </g>
  <g fill="none" stroke="#000" stroke-width="0.7">
    <path d="M268,157c-14.725,-8.618 -44.757,0.087 -55,18"/>
    <path d="M268,286.649c-14.725,-8.618 -47.792,-3.288 -55,17"/>
    <path d="M249.338,235.451c-14.144,1.534 -54.828,-8.952 -58,-46"/>
    <path d="M249.338,365.1c-14.144,1.534 -65.828,-16.952 -69,-54"/>
  </g>
  <g fill="none" stroke="#000" stroke-width="1.5">
    <path d="M91,152l61,0"/>
    <path d="M146,286l-47,0"/>
    <path d="M229,152l-61,0"/>
    <path d="M174,286l47,0"/>
    <path d="M143,146l10,6l-10,6"/>
    <path d="M108,292l-10,-6l10,-6"/>
    <path d="M177,158l-10,-6l10,-6"/>
    <path d="M212,280l10,6l-10,6"/>
  </g>
  <g fill="#000" stroke="none">
    <path d="M279,285l0,-6l2,0l0,6l6,0l0,2l-6,0l0,6l-2,0l0,-6l-6,0l0,-2l6,0"/>
    <path d="M265,235l0,-6l2,0l0,6l6,0l0,2l-6,0l0,6l-2,0l0,-6l-6,0l0,-2l6,0"/>
    <rect x="273" y="155" width="14" height="2"/>
    <rect x="259" y="364" width="14" height="2"/>
  </g>
  <defs>
    <linearGradient id="g" gradientUnits="userSpaceOnUse">
      <stop offset="0" stop-color="#f2ec69"/>
      <stop offset="0.2" stop-color="#f2ec69"/>
      <stop offset="0.5" stop-color="#f8b159"/>
      <stop offset="0.8" stop-color="#f2ec69"/>
      <stop offset="1" stop-color="#f2ec69"/>
    </linearGradient>
  </defs>
</svg>
