<?xml version="1.0" encoding="UTF-8" standalone="no"?>
<!-- Generator: Adobe Illustrator 15.0.0, SVG Export Plug-In . SVG Version: 6.00 Build 0)  -->

<svg
   xmlns:dc="http://purl.org/dc/elements/1.1/"
   xmlns:cc="http://creativecommons.org/ns#"
   xmlns:rdf="http://www.w3.org/1999/02/22-rdf-syntax-ns#"
   xmlns:svg="http://www.w3.org/2000/svg"
   xmlns="http://www.w3.org/2000/svg"
   xmlns:sodipodi="http://sodipodi.sourceforge.net/DTD/sodipodi-0.dtd"
   xmlns:inkscape="http://www.inkscape.org/namespaces/inkscape"
   version="1.1"
   x="0px"
   y="0px"
   width="1791.2157"
   height="2016.3973"
   viewBox="0 0 1791.2157 2016.3972"
   enable-background="new 0 0 841.89 595.28"
   xml:space="preserve"
   id="svg2"
   inkscape:version="0.48.5 r10040"
   sodipodi:docname="Points_of_sail_for_rotorships.svg"><metadata
     id="metadata163"><rdf:RDF><cc:Work
         rdf:about=""><dc:format>image/svg+xml</dc:format><dc:type
           rdf:resource="http://purl.org/dc/dcmitype/StillImage" /></cc:Work></rdf:RDF></metadata><defs
     id="defs161" /><sodipodi:namedview
     pagecolor="#ffffff"
     bordercolor="#666666"
     borderopacity="1"
     objecttolerance="10"
     gridtolerance="10"
     guidetolerance="10"
     inkscape:pageopacity="0"
     inkscape:pageshadow="2"
     inkscape:window-width="1117"
     inkscape:window-height="999"
     id="namedview159"
     showgrid="false"
     inkscape:zoom="0.381955"
     inkscape:cx="888.77774"
     inkscape:cy="1198.2846"
     inkscape:window-x="0"
     inkscape:window-y="0"
     inkscape:window-maximized="0"
     inkscape:current-layer="svg2"
     fit-margin-top="10"
     fit-margin-left="10"
     fit-margin-bottom="10"
     fit-margin-right="10" /><g
     id="Layer_4"
     transform="translate(468.04811,305.2853)"><g
       id="g5"><polygon
         stroke-miterlimit="10"
         points="419,552.545 419,552.545 419,552.545 "
         id="polygon7"
         style="fill:none;stroke:#000000;stroke-width:2;stroke-miterlimit:10" /><polygon
         stroke-miterlimit="10"
         points="418.999,552.546 419,552.546 419,552.545 "
         id="polygon9"
         style="fill:none;stroke:#000000;stroke-width:2;stroke-miterlimit:10" /><rect
         x="418.99899"
         y="552.54401"
         stroke-miterlimit="10"
         width="0.001"
         height="0.001"
         id="rect11"
         style="fill:none;stroke:#000000;stroke-width:2;stroke-miterlimit:10" /><path
         d="M 419,552.545 964.887,6.658 C 885.977,-72.253 790.06,-134.153 683.11,-173.09 L 419,552.545 l 0,0 z"
         id="path13"
         inkscape:connector-curvature="0"
         style="fill:#ffef6d" /><path
         d="M 964.886,1098.431 C 1104.591,958.727 1191,765.727 1191,552.544 1191,339.362 1104.592,146.363 964.887,6.658 L 419,552.545 964.886,1098.431 z"
         id="path15"
         inkscape:connector-curvature="0"
         style="fill:#69cd87" /><path
         d="m 419,552.545 0,0 264.108,725.633 c 106.95,-38.937 202.867,-100.836 281.777,-179.747 L 419,552.545 z"
         id="path17"
         inkscape:connector-curvature="0"
         style="fill:#ffef6d" /><path
         d="m -126.886,1098.431 c 78.91,78.91 174.827,140.811 281.777,179.746 l 264.108,-725.631 -545.885,545.885 z"
         id="path19"
         inkscape:connector-curvature="0"
         style="fill:#ffef6d" /><path
         d="m 418.999,552.546 -264.108,725.631 c 82.396,29.997 171.34,46.367 264.109,46.367 92.769,0 181.712,-16.369 264.108,-46.366 l -264.109,-725.632 0,0 z"
         id="path21"
         inkscape:connector-curvature="0"
         style="fill:#ff937e" /><path
         d="M 154.891,-173.089 C 47.94,-134.153 -47.977,-72.252 -126.887,6.658 L 419,552.545 154.891,-173.089 z"
         id="path23"
         inkscape:connector-curvature="0"
         style="fill:#ffef6d" /><path
         d="m 419,552.545 264.11,-725.634 c -82.397,-29.997 -171.341,-46.367 -264.11,-46.367 -92.769,0 -181.713,16.37 -264.109,46.367 L 419,552.545 l 0,0 z"
         id="path25"
         inkscape:connector-curvature="0"
         style="fill:#ff937e" /><path
         d="m 419,552.545 0,0 L -126.887,6.658 C -266.591,146.363 -353,339.362 -353,552.544 c 0,213.183 86.409,406.183 226.114,545.887 L 419,552.545 l 0,0 z"
         id="path27"
         inkscape:connector-curvature="0"
         style="fill:#69cd87" /></g></g><g
     id="g30"
     transform="translate(468.04811,305.2853)"><g
       id="g32"><path
         style="fill:#ffffff;stroke:#000000;stroke-miterlimit:10"
         inkscape:connector-curvature="0"
         id="path34"
         d="m 1175,552.332 c 0,0 -95,56.184 -168,65.165 -73,8.98 -236,0 -236,0 0,0 -19,-32.145 -19,-65.165 0,-33.02 19,-64.741 19,-64.741 0,0 163,-8.98 236,0 73,8.981 168,64.741 168,64.741"
         stroke-miterlimit="10" /><circle
         style="fill:#ffffff;stroke:#000000;stroke-miterlimit:10"
         sodipodi:ry="47.5"
         sodipodi:rx="47.5"
         sodipodi:cy="552.87701"
         sodipodi:cx="1000.5"
         id="circle36"
         r="47.5"
         cy="552.87701"
         cx="1000.5"
         stroke-miterlimit="10"
         d="m 1048,552.87701 c 0,26.23353 -21.2665,47.5 -47.5,47.5 -26.23353,0 -47.5,-21.26647 -47.5,-47.5 0,-26.23352 21.26647,-47.5 47.5,-47.5 26.2335,0 47.5,21.26648 47.5,47.5 z" /><circle
         style="fill:none;stroke:#000000;stroke-width:11;stroke-miterlimit:10"
         sodipodi:ry="29.5"
         sodipodi:rx="29.5"
         sodipodi:cy="552.87701"
         sodipodi:cx="1000.5"
         id="circle38"
         r="29.5"
         cy="552.87701"
         cx="1000.5"
         stroke-miterlimit="10"
         d="m 1030,552.87701 c 0,16.2924 -13.2076,29.5 -29.5,29.5 -16.2924,0 -29.5,-13.2076 -29.5,-29.5 0,-16.2924 13.2076,-29.5 29.5,-29.5 16.2924,0 29.5,13.2076 29.5,29.5 z" /></g><g
       id="g40"><path
         style="fill:#ffffff;stroke:#000000;stroke-miterlimit:10"
         inkscape:connector-curvature="0"
         id="path42"
         d="m -337,552.756 c 0,0 95,-56.184 168,-65.165 73,-8.98 236,0 236,0 0,0 19,32.145 19,65.165 0,33.02 -19,64.741 -19,64.741 0,0 -163,8.98 -236,0 -73,-8.981 -168,-64.741 -168,-64.741"
         stroke-miterlimit="10" /><circle
         style="fill:#ffffff;stroke:#000000;stroke-miterlimit:10"
         sodipodi:ry="47.5"
         sodipodi:rx="47.5"
         sodipodi:cy="552.211"
         sodipodi:cx="-162.5"
         id="circle44"
         r="47.5"
         cy="552.211"
         cx="-162.5"
         stroke-miterlimit="10"
         d="m -115,552.211 c 0,26.23352 -21.26647,47.5 -47.5,47.5 -26.23353,0 -47.5,-21.26648 -47.5,-47.5 0,-26.23353 21.26647,-47.5 47.5,-47.5 26.23353,0 47.5,21.26647 47.5,47.5 z" /><circle
         style="fill:none;stroke:#000000;stroke-width:11;stroke-miterlimit:10"
         sodipodi:ry="29.5"
         sodipodi:rx="29.5"
         sodipodi:cy="552.211"
         sodipodi:cx="-162.5"
         id="circle46"
         r="29.5"
         cy="552.211"
         cx="-162.5"
         stroke-miterlimit="10"
         d="m -133,552.211 c 0,16.2924 -13.2076,29.5 -29.5,29.5 -16.2924,0 -29.5,-13.2076 -29.5,-29.5 0,-16.2924 13.2076,-29.5 29.5,-29.5 16.2924,0 29.5,13.2076 29.5,29.5 z" /></g></g><g
     id="g48"
     transform="translate(468.04811,305.2853)"><g
       id="g50"><path
         style="fill:#ffffff;stroke:#000000;stroke-miterlimit:10"
         inkscape:connector-curvature="0"
         id="path52"
         d="m 953.423,17.821 c 0,0 -27.447,106.903 -72.716,164.873 -45.268,57.969 -166.877,166.877 -166.877,166.877 0,0 -36.164,-9.295 -59.514,-32.644 -23.348,-23.349 -32.344,-59.214 -32.344,-59.214 0,0 108.909,-121.608 166.878,-166.877 57.969,-45.268 164.573,-73.015 164.573,-73.015"
         stroke-miterlimit="10" /><circle
         style="fill:#ffffff;stroke:#000000;stroke-miterlimit:10"
         sodipodi:ry="47.5"
         sodipodi:rx="47.5"
         sodipodi:cy="141.597"
         sodipodi:cx="830.41803"
         id="circle54"
         r="47.5"
         cy="141.597"
         cx="830.41803"
         stroke-miterlimit="10"
         d="m 877.91803,141.597 c 0,26.23353 -21.26647,47.5 -47.5,47.5 -26.23353,0 -47.5,-21.26647 -47.5,-47.5 0,-26.23353 21.26647,-47.5 47.5,-47.5 26.23353,0 47.5,21.26647 47.5,47.5 z" /><circle
         style="fill:none;stroke:#000000;stroke-width:11;stroke-miterlimit:10"
         sodipodi:ry="29.5"
         sodipodi:rx="29.5"
         sodipodi:cy="141.597"
         sodipodi:cx="830.41803"
         id="circle56"
         r="29.5"
         cy="141.597"
         cx="830.41803"
         stroke-miterlimit="10"
         d="m 859.91803,141.597 c 0,16.2924 -13.2076,29.5 -29.5,29.5 -16.2924,0 -29.5,-13.2076 -29.5,-29.5 0,-16.2924 13.2076,-29.5 29.5,-29.5 16.2924,0 29.5,13.2076 29.5,29.5 z" /></g><g
       id="g58"><path
         style="fill:#ffffff;stroke:#000000;stroke-miterlimit:10"
         inkscape:connector-curvature="0"
         id="path60"
         d="m -115.423,1087.267 c 0,0 27.447,-106.903 72.715,-164.873 45.269,-57.969 166.877,-166.877 166.877,-166.877 0,0 36.165,9.295 59.514,32.644 23.349,23.349 32.344,59.214 32.344,59.214 0,0 -108.908,121.608 -166.877,166.877 -57.969,45.268 -164.573,73.015 -164.573,73.015"
         stroke-miterlimit="10" /><circle
         style="fill:#ffffff;stroke:#000000;stroke-miterlimit:10"
         sodipodi:ry="47.5"
         sodipodi:rx="47.5"
         sodipodi:cy="963.49103"
         sodipodi:cx="7.5819998"
         id="circle62"
         r="47.5"
         cy="963.49103"
         cx="7.5819998"
         stroke-miterlimit="10"
         d="m 55.082,963.49103 c 0,26.23352 -21.266475,47.49997 -47.5000002,47.49997 -26.2335258,0 -47.4999998,-21.26645 -47.4999998,-47.49997 0,-26.23353 21.266474,-47.5 47.4999998,-47.5 26.2335252,0 47.5000002,21.26647 47.5000002,47.5 z" /><circle
         style="fill:none;stroke:#000000;stroke-width:11;stroke-miterlimit:10"
         sodipodi:ry="29.5"
         sodipodi:rx="29.5"
         sodipodi:cy="963.49103"
         sodipodi:cx="7.5819998"
         id="circle64"
         r="29.5"
         cy="963.49103"
         cx="7.5819998"
         stroke-miterlimit="10"
         d="m 37.082,963.49103 c 0,16.2924 -13.2076,29.5 -29.5000002,29.5 -16.2924001,0 -29.4999998,-13.2076 -29.4999998,-29.5 0,-16.2924 13.2075997,-29.5 29.4999998,-29.5 16.2924002,0 29.5000002,13.2076 29.5000002,29.5 z" /></g></g><g
     id="g66"
     transform="translate(468.04811,305.2853)"><g
       id="g68"><path
         style="fill:#ffffff;stroke:#000000;stroke-miterlimit:10"
         inkscape:connector-curvature="0"
         id="path70"
         d="m 953.723,1086.967 c 0,0 -106.903,-27.447 -164.873,-72.716 -57.969,-45.268 -166.877,-166.877 -166.877,-166.877 0,0 9.295,-36.164 32.644,-59.514 23.349,-23.348 59.214,-32.344 59.214,-32.344 0,0 121.609,108.908 166.877,166.877 45.268,57.97 73.015,164.574 73.015,164.574"
         stroke-miterlimit="10" /><circle
         style="fill:#ffffff;stroke:#000000;stroke-miterlimit:10"
         sodipodi:ry="47.5"
         sodipodi:rx="47.5"
         sodipodi:cy="963.96198"
         sodipodi:cx="829.94702"
         id="circle72"
         r="47.5"
         cy="963.96198"
         cx="829.94702"
         stroke-miterlimit="10"
         d="m 877.44702,963.96198 c 0,26.23352 -21.26647,47.50002 -47.5,47.50002 -26.23352,0 -47.5,-21.2665 -47.5,-47.50002 0,-26.23353 21.26648,-47.5 47.5,-47.5 26.23353,0 47.5,21.26647 47.5,47.5 z" /><circle
         style="fill:none;stroke:#000000;stroke-width:11;stroke-miterlimit:10"
         sodipodi:ry="29.5"
         sodipodi:rx="29.5"
         sodipodi:cy="963.96198"
         sodipodi:cx="829.94702"
         id="circle74"
         r="29.5"
         cy="963.96198"
         cx="829.94702"
         stroke-miterlimit="10"
         d="m 859.44702,963.96198 c 0,16.2924 -13.2076,29.5 -29.5,29.5 -16.2924,0 -29.5,-13.2076 -29.5,-29.5 0,-16.29241 13.2076,-29.5 29.5,-29.5 16.2924,0 29.5,13.20759 29.5,29.5 z" /></g><g
       id="g76"><path
         style="fill:#ffffff;stroke:#000000;stroke-miterlimit:10"
         inkscape:connector-curvature="0"
         id="path78"
         d="m -115.723,18.121 c 0,0 106.903,27.447 164.873,72.715 57.969,45.269 166.877,166.877 166.877,166.877 0,0 -9.295,36.165 -32.644,59.514 -23.349,23.348 -59.214,32.344 -59.214,32.344 0,0 -121.608,-108.908 -166.877,-166.877 -45.268,-57.969 -73.015,-164.573 -73.015,-164.573"
         stroke-miterlimit="10" /><circle
         style="fill:#ffffff;stroke:#000000;stroke-miterlimit:10"
         sodipodi:ry="47.5"
         sodipodi:rx="47.5"
         sodipodi:cy="141.12601"
         sodipodi:cx="8.0530005"
         id="circle80"
         r="47.5"
         cy="141.12601"
         cx="8.0530005"
         stroke-miterlimit="10"
         d="m 55.553,141.12601 c 0,26.23352 -21.266474,47.5 -47.4999995,47.5 -26.2335255,0 -47.5000005,-21.26648 -47.5000005,-47.5 0,-26.23353 21.266475,-47.500003 47.5000005,-47.500003 26.2335255,0 47.4999995,21.266473 47.4999995,47.500003 z" /><circle
         style="fill:none;stroke:#000000;stroke-width:11;stroke-miterlimit:10"
         sodipodi:ry="29.5"
         sodipodi:rx="29.5"
         sodipodi:cy="141.12601"
         sodipodi:cx="8.0530005"
         id="circle82"
         r="29.5"
         cy="141.12601"
         cx="8.0530005"
         stroke-miterlimit="10"
         d="m 37.553,141.12601 c 0,16.2924 -13.207599,29.5 -29.4999995,29.5 -16.2924002,0 -29.5000005,-13.2076 -29.5000005,-29.5 0,-16.2924 13.2076003,-29.5 29.5000005,-29.5 16.2924005,0 29.4999995,13.2076 29.4999995,29.5 z" /></g></g><g
     id="g84"
     transform="translate(468.04811,305.2853)"><g
       id="g86"><path
         style="fill:#ffffff;stroke:#000000;stroke-miterlimit:10"
         inkscape:connector-curvature="0"
         id="path88"
         d="m 418.788,-203.456 c 0,0 56.184,95 65.165,168 8.98,73 0,236 0,236 0,0 -32.145,19 -65.165,19 -33.02,0 -64.741,-19 -64.741,-19 0,0 -8.98,-163 0,-236 8.981,-73 64.741,-168 64.741,-168"
         stroke-miterlimit="10" /><circle
         style="fill:#ffffff;stroke:#000000;stroke-miterlimit:10"
         sodipodi:ry="47.5"
         sodipodi:rx="47.5"
         sodipodi:cy="-28.955999"
         sodipodi:cx="419.33301"
         id="circle90"
         r="47.5"
         cy="-28.955999"
         cx="419.33301"
         stroke-miterlimit="10"
         d="m 466.83301,-28.955999 c 0,26.2335252 -21.26648,47.5 -47.5,47.5 -26.23353,0 -47.5,-21.2664748 -47.5,-47.5 0,-26.233526 21.26647,-47.5 47.5,-47.5 26.23352,0 47.5,21.266474 47.5,47.5 z" /><circle
         style="fill:none;stroke:#000000;stroke-width:11;stroke-miterlimit:10"
         sodipodi:ry="29.5"
         sodipodi:rx="29.5"
         sodipodi:cy="-28.955999"
         sodipodi:cx="419.33301"
         id="circle92"
         r="29.5"
         cy="-28.955999"
         cx="419.33301"
         stroke-miterlimit="10"
         d="m 448.83301,-28.955999 c 0,16.2924 -13.2076,29.49999963 -29.5,29.49999963 -16.2924,0 -29.5,-13.20759963 -29.5,-29.49999963 0,-16.2924 13.2076,-29.5 29.5,-29.5 16.2924,0 29.5,13.2076 29.5,29.5 z" /></g><g
       id="g94"><path
         style="fill:#ffffff;stroke:#000000;stroke-miterlimit:10"
         inkscape:connector-curvature="0"
         id="path96"
         d="m 419.212,1308.544 c 0,0 -56.184,-95 -65.165,-168 -8.98,-73 0,-236 0,-236 0,0 32.145,-19 65.165,-19 33.02,0 64.741,19 64.741,19 0,0 8.98,163 0,236 -8.981,73 -64.741,168 -64.741,168"
         stroke-miterlimit="10" /><circle
         style="fill:#ffffff;stroke:#000000;stroke-miterlimit:10"
         sodipodi:ry="47.5"
         sodipodi:rx="47.5"
         sodipodi:cy="1134.0439"
         sodipodi:cx="418.66699"
         id="circle98"
         r="47.5"
         cy="1134.0439"
         cx="418.66699"
         stroke-miterlimit="10"
         d="m 466.16699,1134.0439 c 0,26.2336 -21.26647,47.5 -47.5,47.5 -26.23352,0 -47.5,-21.2664 -47.5,-47.5 0,-26.2335 21.26648,-47.5 47.5,-47.5 26.23353,0 47.5,21.2665 47.5,47.5 z" /><circle
         style="fill:none;stroke:#000000;stroke-width:11;stroke-miterlimit:10"
         sodipodi:ry="29.5"
         sodipodi:rx="29.5"
         sodipodi:cy="1134.0439"
         sodipodi:cx="418.66699"
         id="circle100"
         r="29.5"
         cy="1134.0439"
         cx="418.66699"
         stroke-miterlimit="10"
         d="m 448.16699,1134.0439 c 0,16.2924 -13.2076,29.5 -29.5,29.5 -16.2924,0 -29.5,-13.2076 -29.5,-29.5 0,-16.2924 13.2076,-29.5 29.5,-29.5 16.2924,0 29.5,13.2076 29.5,29.5 z" /></g></g><rect
     id="rect102"
     height="24"
     width="24"
     y="266.56531"
     x="924.0481" /><rect
     id="rect104"
     height="22"
     width="22"
     y="1429.5653"
     x="923.0481" /><polygon
     id="polygon106"
     points="-264.28,1621.112 -226.947,1621.112 -226.947,1701.112 -112.271,1701.112 -112.271,1621.112 -74.938,1621.112 -169.605,1526.445 -169.614,1526.445 "
     transform="translate(468.04811,305.2853)" /><polygon
     id="polygon108"
     points="913.72,1621.112 951.053,1621.112 951.053,1701.112 1065.729,1701.112 1065.729,1621.112 1103.062,1621.112 1008.395,1526.445 1008.387,1526.445 "
     transform="translate(468.04811,305.2853)" /><polygon
     id="polygon110"
     points="324.72,1621.112 362.053,1621.112 362.053,1701.112 476.729,1701.112 476.729,1621.112 514.062,1621.112 419.395,1526.445 419.387,1526.445 "
     transform="translate(468.04811,305.2853)" /><g
     style="font-size:66.36759949px;font-family:ArialMT"
     id="text112"
     transform="translate(468.04811,305.2853)"><path
       d="m 396.07637,-242.7578 -26.11928,0 0,-4.92572 10.04588,0 0,-32.34124 -10.04588,0 0,-4.40722 c 1.36105,4e-5 2.81932,-0.10798 4.37482,-0.32406 1.55548,-0.23761 2.7329,-0.57247 3.53226,-1.00459 0.99377,-0.54006 1.77151,-1.22059 2.33324,-2.04158 0.58329,-0.84251 0.91815,-1.96592 1.00459,-3.37023 l 5.02293,0 0,43.48892 9.85144,0 0,4.92572"
       style="font-size:66.36759949px;font-family:ArialMT"
       id="path4007"
       inkscape:connector-curvature="0" /><path
       d="m 441.44485,-256.20631 c -4e-5,4.16959 -1.63114,7.63703 -4.89331,10.40234 -3.24064,2.76532 -7.3238,4.14798 -12.24949,4.14798 -5.22819,0 -9.39777,-1.35025 -12.50874,-4.05076 -3.08938,-2.7005 -4.63407,-6.15714 -4.63406,-10.36994 -10e-6,-2.67888 0.77774,-5.09853 2.33323,-7.25895 1.55548,-2.18199 3.74829,-3.91031 6.57843,-5.18497 l 0,-0.19444 c -2.59249,-1.38263 -4.51525,-2.89491 -5.76828,-4.53684 -1.23143,-1.64188 -1.84715,-3.69426 -1.84714,-6.15715 -10e-6,-3.62944 1.49067,-6.654 4.47203,-9.0737 2.98135,-2.4196 6.77285,-3.62943 11.37453,-3.62948 4.81767,5e-5 8.66319,1.15587 11.53655,3.46745 2.87331,2.31168 4.30997,5.24982 4.31001,8.81445 -4e-5,2.18204 -0.68056,4.33164 -2.04158,6.4488 -1.36109,2.09562 -3.35946,3.73753 -5.99512,4.92572 l 0,0.19444 c 3.02453,1.29626 5.33616,2.89496 6.93489,4.79609 1.59867,1.90118 2.39801,4.32083 2.39805,7.25896 m -7.68023,-23.5592 c -3e-5,-2.31159 -0.8966,-4.14794 -2.68971,-5.50903 -1.77155,-1.38262 -4.03997,-2.07394 -6.80527,-2.07399 -2.72212,5e-5 -4.95814,0.64817 -6.70805,1.94437 -1.72834,1.29628 -2.5925,3.0462 -2.59248,5.24978 -2e-5,1.55552 0.43206,2.90577 1.29624,4.05075 0.88575,1.12344 2.2144,2.12803 3.98594,3.01377 0.79933,0.3889 1.94435,0.89659 3.43504,1.52308 1.51226,0.62655 2.98134,1.14504 4.40723,1.55549 2.13877,-1.42584 3.61864,-2.90571 4.43963,-4.43963 0.82092,-1.53385 1.2314,-3.30538 1.23143,-5.31459 m 1.00458,24.17492 c -3e-5,-1.98756 -0.44291,-3.57546 -1.32864,-4.76369 -0.86419,-1.20981 -2.57091,-2.41964 -5.12016,-3.62948 -1.01541,-0.47527 -2.12802,-0.91815 -3.33782,-1.32865 -1.20985,-0.41045 -2.81935,-0.98296 -4.82851,-1.71752 -1.94437,1.05862 -3.51067,2.49529 -4.69887,4.31 -1.16663,1.81476 -1.74994,3.86714 -1.74993,6.15715 -10e-6,2.91656 1.00458,5.32541 3.01376,7.22655 2.00916,1.90116 4.55844,2.85174 7.64783,2.85174 3.15417,0 5.67103,-0.81015 7.55061,-2.43046 1.90113,-1.62029 2.8517,-3.84551 2.85173,-6.67564"
       style="font-size:66.36759949px;font-family:ArialMT"
       id="path4009"
       inkscape:connector-curvature="0" /><path
       d="m 483.28107,-266.90031 c -4e-5,8.66324 -1.36109,15.02562 -4.08316,19.08717 -2.70054,4.03995 -6.90252,6.05993 -12.60596,6.05993 -5.7899,0 -10.02428,-2.05238 -12.70317,-6.15715 -2.6573,-4.10476 -3.98595,-10.41313 -3.98595,-18.92514 0,-8.57677 1.35025,-14.90674 4.05076,-18.98994 2.70049,-4.10472 6.91328,-6.1571 12.63836,-6.15715 5.78986,5e-5 10.01344,2.08483 12.67077,6.25436 2.67886,4.14802 4.01831,10.42398 4.01835,18.82792 m -8.52279,14.71235 c 0.75611,-1.74991 1.2638,-3.8023 1.52308,-6.15715 0.28082,-2.37643 0.42125,-5.22816 0.42128,-8.5552 -3e-5,-3.28378 -0.14046,-6.13551 -0.42128,-8.5552 -0.25928,-2.41961 -0.77777,-4.47199 -1.55549,-6.15715 -0.75617,-1.66347 -1.79316,-2.9165 -3.11098,-3.7591 -1.29627,-0.84251 -2.97058,-1.26379 -5.02294,-1.26383 -2.0308,4e-5 -3.71591,0.42132 -5.05534,1.26383 -1.31786,0.8426 -2.36566,2.11724 -3.14339,3.82392 -0.73455,1.59873 -1.24224,3.68352 -1.52309,6.25436 -0.25925,2.57091 -0.38888,5.39024 -0.38887,8.45798 -1e-5,3.37025 0.11881,6.18958 0.35647,8.45798 0.23763,2.26844 0.74533,4.29922 1.52308,6.09234 0.71292,1.68513 1.71751,2.97056 3.01377,3.85632 1.31783,0.88577 3.05695,1.32866 5.21737,1.32865 2.03076,1e-5 3.71587,-0.42127 5.05535,-1.26383 1.33942,-0.84256 2.37641,-2.11719 3.11098,-3.82392"
       style="font-size:66.36759949px;font-family:ArialMT"
       id="path4011"
       inkscape:connector-curvature="0" /></g><g
     style="font-size:45.00030136px;font-family:Arial-BoldMT"
     id="text114"
     transform="translate(468.04811,305.2853)"><path
       d="m 495.44049,-295.28531 c 1.62597,3e-5 3.21534,0.41751 4.7681,1.25245 1.55272,0.83499 2.76123,2.02885 3.62551,3.58157 0.86424,1.55276 1.29637,3.1641 1.2964,4.83402 -3e-5,2.68069 -0.94486,4.96586 -2.8345,6.85551 -1.88967,1.88967 -4.16752,2.8345 -6.83354,2.83449 -2.68069,1e-5 -4.96586,-0.94482 -6.85551,-2.83449 -1.88967,-1.88965 -2.8345,-4.17482 -2.83449,-6.85551 -1e-5,-1.68457 0.43212,-3.29591 1.29639,-4.83402 0.86426,-1.55272 2.07276,-2.74658 3.62551,-3.58157 1.55274,-0.83494 3.13478,-1.25242 4.74613,-1.25245 m 0.022,1.66994 c -1.36232,2e-5 -2.68069,0.34426 -3.9551,1.03272 -1.27443,0.6885 -2.27053,1.67727 -2.9883,2.96633 -0.71779,1.28908 -1.07668,2.6221 -1.07667,3.99905 -1e-5,2.21194 0.78369,4.1016 2.35109,5.66898 1.56738,1.5674 3.45704,2.3511 5.66898,2.35109 2.21192,10e-6 4.09425,-0.78369 5.64701,-2.35109 1.56738,-1.56738 2.35107,-3.45704 2.35109,-5.66898 -2e-5,-1.37695 -0.35891,-2.70997 -1.07666,-3.99905 -0.7178,-1.28906 -1.7139,-2.27783 -2.98831,-2.96633 -1.27443,-0.68846 -2.58548,-1.0327 -3.93313,-1.03272"
       style="font-size:45.00030136px;font-family:Arial-BoldMT"
       id="path4004"
       inkscape:connector-curvature="0" /></g><g
     style="font-size:66.36759949px;font-family:ArialMT"
     id="text116"
     transform="translate(468.04811,305.2853)"><path
       d="m 1013.5862,6.2333999 -26.11931,0 0,-4.9257203 10.04588,0 0,-32.3412426 -10.04588,0 0,-4.407223 c 1.36104,4.2e-5 2.81932,-0.107979 4.37482,-0.324061 1.55547,-0.237602 2.73289,-0.572464 3.53226,-1.004587 0.99377,-0.540058 1.77151,-1.220584 2.33323,-2.041582 0.58329,-0.842511 0.91816,-1.96592 1.00459,-3.370229 l 5.02291,0 0,43.4889246 9.8515,0 0,4.9257203"
       style="font-size:66.36759949px;font-family:ArialMT"
       id="path4017"
       inkscape:connector-curvature="0" /><path
       d="m 1054.353,-17.001741 c 1.0369,0.928996 1.8903,2.095612 2.5601,3.499854 0.6697,1.40428 1.0045,3.219018 1.0046,5.4442169 -10e-5,2.2036238 -0.3998,4.2235991 -1.1991,6.0599321 -0.7994,1.83634952 -1.9228,3.4350466 -3.3702,4.7960961 -1.6203,1.5122845 -3.5323,2.6356932 -5.7359,3.3702297 -2.182,0.7129325 -4.58,1.0693988 -7.1941,1.0693998 -2.6789,-1e-6 -5.3146,-0.3240613 -7.9071,-0.9721817 -2.5925,-0.6265164 -4.7205,-1.3178449 -6.384,-2.0739875 l 0,-6.7728653 0.4861,0 c 1.8363,1.2098336 3.9967,2.21442028 6.4812,3.01376302 2.4845,0.79935438 4.8825,1.19902858 7.1942,1.19902398 1.361,4.6e-6 2.8085,-0.2268375 4.3424,-0.68052711 1.5338,-0.45367902 2.7761,-1.12340348 3.7267,-2.00917539 0.9937,-0.9505693 1.7283,-1.998364 2.2036,-3.1433873 0.4968,-1.1450023 0.7453,-2.5924713 0.7453,-4.3424113 0,-1.728306 -0.2809,-3.154171 -0.8425,-4.277599 -0.5402,-1.144994 -1.2963,-2.04156 -2.2685,-2.689703 -0.9722,-0.669702 -2.1496,-1.123387 -3.5322,-1.361054 -1.3827,-0.259225 -2.8734,-0.388849 -4.4721,-0.388873 l -2.9165,0 0,-5.379405 2.2684,0 c 3.2838,2.9e-5 5.8979,-0.680497 7.8423,-2.041581 1.9659,-1.382626 2.9489,-3.391799 2.9489,-6.027526 0,-1.16658 -0.2484,-2.181969 -0.7453,-3.046169 -0.4969,-0.885725 -1.1883,-1.609459 -2.074,-2.171206 -0.929,-0.561662 -1.9228,-0.950534 -2.9813,-1.166618 -1.0587,-0.215997 -2.2577,-0.324017 -3.5971,-0.32406 -2.0524,4.3e-5 -4.2344,0.367311 -6.546,1.101805 -2.3117,0.734579 -4.4937,1.771572 -6.5461,3.110982 l -0.324,0 0,-6.772866 c 1.5339,-0.756094 3.5754,-1.447423 6.1247,-2.073987 2.5709,-0.648072 5.0553,-0.972133 7.4534,-0.972182 2.3548,4.9e-5 4.4288,0.21609 6.222,0.648121 1.7931,0.432129 3.4134,1.123458 4.8609,2.073988 1.5554,1.037039 2.7329,2.290072 3.5322,3.759102 0.7994,1.469116 1.199,3.186635 1.1991,5.152563 -10e-5,2.678935 -0.9506,5.022971 -2.8518,7.032113 -1.8795,1.9876 -4.1048,3.240633 -6.6756,3.759103 l 0,0.453685 c 1.037,0.172858 2.2252,0.540126 3.5647,1.101805 1.3394,0.540126 2.4736,1.220653 3.4026,2.041582"
       style="font-size:66.36759949px;font-family:ArialMT"
       id="path4019"
       inkscape:connector-curvature="0" /><path
       d="m 1100.4668,-9.0946639 c 0,2.2468329 -0.4105,4.3964323 -1.2314,6.4488049 -0.821,2.05239023 -1.9444,3.7807114 -3.3703,5.1849687 -1.5555,1.5122847 -3.4134,2.6789015 -5.5738,3.4998538 -2.1388,0.7993488 -4.6233,1.1990231 -7.4534,1.1990241 -2.6357,-1e-6 -5.1742,-0.2808532 -7.6154,-0.8425575 -2.4413,-0.5401005 -4.5045,-1.1990229 -6.1896,-1.9767693 l 0,-6.8376775 0.4537,0 c 1.7715,1.1234174 3.8455,2.0847961 6.222,2.88413888 2.3764,0.77775032 4.7096,1.16662252 6.9997,1.16661792 1.5339,4.6e-6 3.0137,-0.2160355 4.4396,-0.64812105 1.4475,-0.43207504 2.7329,-1.18821556 3.8563,-2.26842385 0.9506,-0.9289651 1.6635,-2.0415718 2.1388,-3.3378236 0.4969,-1.29623 0.7453,-2.797709 0.7454,-4.5044415 -10e-5,-1.6634941 -0.2917,-3.0677551 -0.875,-4.2127871 -0.5617,-1.144993 -1.3503,-2.063164 -2.3656,-2.754515 -1.1235,-0.82093 -2.4953,-1.393436 -4.1156,-1.717521 -1.5987,-0.34564 -3.3919,-0.518472 -5.3794,-0.518496 -1.9012,2.4e-5 -3.7375,0.129648 -5.509,0.388872 -1.75,0.259273 -3.2623,0.518521 -4.5369,0.777746 l 0,-24.855444 29.0358,0 0,5.671059 -22.7814,0 0,12.832798 c 0.9289,-0.08639 1.8795,-0.151198 2.8517,-0.194436 0.9722,-0.04318 1.8147,-0.06478 2.5277,-0.06481 2.6141,3e-5 4.9041,0.226873 6.8701,0.680528 1.9659,0.432109 3.7699,1.209854 5.4118,2.333236 1.7283,1.188247 3.0677,2.722132 4.0183,4.601659 0.9506,1.879572 1.4259,4.23441 1.4259,7.0645201"
       style="font-size:66.36759949px;font-family:ArialMT"
       id="path4021"
       inkscape:connector-curvature="0" /></g><g
     style="font-size:66.36759949px;font-family:ArialMT"
     id="text118"
     transform="translate(468.04811,305.2853)"><path
       d="m 1246.2759,546.24197 c -1e-4,4.21281 -0.4862,8.03672 -1.4583,11.47174 -0.9506,3.43505 -2.3981,6.3624 -4.3424,8.78204 -1.966,2.46286 -4.4289,4.36402 -7.3886,5.70347 -2.9598,1.33945 -6.438,2.00917 -10.4347,2.00917 -1.1235,0 -2.1821,-0.0648 -3.1758,-0.19444 -0.9938,-0.10802 -1.8796,-0.29165 -2.6573,-0.5509 l 0,-6.18955 0.324,0 c 0.6265,0.32406 1.5123,0.63732 2.6573,0.93977 1.145,0.28086 2.4197,0.42128 3.8239,0.42128 4.7745,0 8.512,-1.42586 11.2125,-4.2776 2.7221,-2.87332 4.2992,-6.82686 4.7313,-11.86062 -2.0092,1.20985 -3.8995,2.07401 -5.671,2.59249 -1.7716,0.51851 -3.7052,0.77776 -5.8007,0.77774 -1.9876,2e-5 -3.7915,-0.19441 -5.4118,-0.5833 -1.5987,-0.38886 -3.2082,-1.145 -4.8285,-2.26843 -1.9012,-1.31782 -3.3379,-2.99213 -4.31,-5.02294 -0.9506,-2.03075 -1.4259,-4.4612 -1.4259,-7.29136 0,-4.92568 1.6203,-8.93323 4.8609,-12.02265 3.2406,-3.08932 7.1941,-4.63401 11.8606,-4.63406 2.3332,5e-5 4.4936,0.36732 6.4812,1.1018 1.9876,0.71299 3.7267,1.79319 5.2174,3.24061 1.8363,1.79318 3.2514,4.10481 4.2452,6.9349 0.9937,2.80856 1.4906,6.44883 1.4907,10.92084 m -6.546,-1.39346 c -10e-5,-3.3486 -0.3457,-6.0383 -1.037,-8.06911 -0.6914,-2.03074 -1.642,-3.60784 -2.8518,-4.73129 -1.0154,-0.97213 -2.1064,-1.66346 -3.273,-2.07398 -1.1666,-0.43204 -2.4305,-0.64808 -3.7915,-0.64812 -3.111,4e-5 -5.5739,0.97222 -7.3886,2.91654 -1.7931,1.9444 -2.6897,4.67731 -2.6897,8.19873 0,2.05242 0.2917,3.72673 0.875,5.02294 0.5833,1.29627 1.5663,2.43048 2.9489,3.40264 0.9722,0.66975 2.0416,1.12343 3.2082,1.36105 1.1666,0.21606 2.4629,0.32408 3.8888,0.32406 1.6851,2e-5 3.3918,-0.22682 5.1201,-0.68053 1.7283,-0.45366 3.3486,-1.11258 4.8609,-1.97676 0.022,-0.45366 0.043,-0.89655 0.065,-1.32865 0.043,-0.45366 0.065,-1.02617 0.065,-1.71752"
       style="font-size:66.36759949px;font-family:ArialMT"
       id="path4027"
       inkscape:connector-curvature="0" /><path
       d="m 1288.5334,549.12611 c -10e-5,8.66323 -1.3611,15.02561 -4.0832,19.08716 -2.7005,4.03996 -6.9025,6.05993 -12.6059,6.05993 -5.7899,0 -10.0243,-2.05238 -12.7032,-6.15715 -2.6573,-4.10475 -3.986,-10.41313 -3.986,-18.92513 0,-8.57677 1.3503,-14.90675 4.0508,-18.98995 2.7005,-4.10472 6.9133,-6.1571 12.6384,-6.15715 5.7898,5e-5 10.0134,2.08484 12.6707,6.25437 2.6789,4.14801 4.0183,10.42398 4.0184,18.82792 m -8.5228,14.71234 c 0.7561,-1.74991 1.2638,-3.80229 1.5231,-6.15715 0.2808,-2.37642 0.4212,-5.22815 0.4212,-8.55519 0,-3.28379 -0.1404,-6.13552 -0.4212,-8.5552 -0.2593,-2.41962 -0.7778,-4.472 -1.5555,-6.15715 -0.7562,-1.66347 -1.7932,-2.91651 -3.111,-3.75911 -1.2963,-0.84251 -2.9706,-1.26379 -5.0229,-1.26383 -2.0308,4e-5 -3.716,0.42132 -5.0554,1.26383 -1.3179,0.8426 -2.3656,2.11724 -3.1434,3.82392 -0.7345,1.59873 -1.2422,3.68352 -1.5231,6.25437 -0.2592,2.57091 -0.3888,5.39023 -0.3888,8.45798 0,3.37025 0.1188,6.18957 0.3564,8.45798 0.2377,2.26843 0.7454,4.29921 1.5231,6.09234 0.7129,1.68512 1.7175,2.97056 3.0138,3.85632 1.3178,0.88577 3.0569,1.32865 5.2174,1.32864 2.0307,10e-6 3.7158,-0.42127 5.0553,-1.26383 1.3394,-0.84255 2.3764,-2.11719 3.111,-3.82392"
       style="font-size:66.36759949px;font-family:ArialMT"
       id="path4029"
       inkscape:connector-curvature="0" /></g><g
     style="font-size:66.36759949px;font-family:ArialMT"
     id="text120"
     transform="translate(468.04811,305.2853)"><path
       d="m -423.89213,546.24197 c -3e-5,4.21281 -0.48612,8.03672 -1.45827,11.47174 -0.95061,3.43505 -2.39808,6.3624 -4.34241,8.78204 -1.966,2.46286 -4.42885,4.36402 -7.38858,5.70347 -2.95977,1.33945 -6.43802,2.00917 -10.43475,2.00917 -1.12342,0 -2.18202,-0.0648 -3.17579,-0.19444 -0.9938,-0.10802 -1.87956,-0.29165 -2.6573,-0.5509 l 0,-6.18955 0.32406,0 c 0.62651,0.32406 1.51227,0.63732 2.6573,0.93977 1.145,0.28086 2.41964,0.42128 3.82391,0.42128 4.77447,0 8.51197,-1.42586 11.2125,-4.2776 2.72208,-2.87332 4.29917,-6.82686 4.73128,-11.86062 -2.0092,1.20985 -3.89955,2.07401 -5.67106,2.59249 -1.77155,0.51851 -3.70511,0.77776 -5.80068,0.77774 -1.98759,2e-5 -3.79153,-0.19441 -5.41181,-0.5833 -1.59871,-0.38886 -3.20821,-1.145 -4.82851,-2.26843 -1.90116,-1.31782 -3.33783,-2.99213 -4.31,-5.02294 -0.95058,-2.03075 -1.42587,-4.4612 -1.42587,-7.29136 0,-4.92568 1.6203,-8.93323 4.86091,-12.02265 3.24059,-3.08932 7.19413,-4.63401 11.86062,-4.63406 2.33321,5e-5 4.49361,0.36732 6.48121,1.1018 1.98754,0.71299 3.72666,1.79319 5.21737,3.24061 1.83631,1.79318 3.25137,4.10481 4.2452,6.9349 0.99374,2.80856 1.49064,6.44883 1.49067,10.92084 m -6.54602,-1.39346 c -3e-5,-3.3486 -0.34569,-6.0383 -1.03699,-8.06911 -0.69136,-2.03074 -1.64194,-3.60784 -2.85174,-4.73129 -1.01541,-0.97213 -2.10641,-1.66346 -3.27301,-2.07398 -1.16664,-0.43204 -2.43047,-0.64808 -3.79151,-0.64812 -3.11099,4e-5 -5.57385,0.97222 -7.38858,2.91654 -1.79314,1.9444 -2.68971,4.67731 -2.6897,8.19873 -1e-5,2.05242 0.29165,3.72673 0.87497,5.02294 0.58329,1.29627 1.56628,2.43048 2.94895,3.40264 0.97216,0.66975 2.04156,1.12343 3.2082,1.36105 1.1666,0.21606 2.46284,0.32408 3.88872,0.32406 1.68509,2e-5 3.39181,-0.22682 5.12016,-0.68053 1.72829,-0.45366 3.34859,-1.11258 4.86091,-1.97676 0.0216,-0.45366 0.0432,-0.89655 0.0648,-1.32865 0.0432,-0.45366 0.0648,-1.02617 0.0648,-1.71752"
       style="font-size:66.36759949px;font-family:ArialMT"
       id="path3989"
       inkscape:connector-curvature="0" /><path
       d="m -381.63463,549.12611 c -4e-5,8.66323 -1.36109,15.02561 -4.08316,19.08716 -2.70054,4.03996 -6.90252,6.05993 -12.60596,6.05993 -5.7899,0 -10.02428,-2.05238 -12.70317,-6.15715 -2.6573,-4.10475 -3.98595,-10.41313 -3.98595,-18.92513 0,-8.57677 1.35025,-14.90675 4.05076,-18.98995 2.70049,-4.10472 6.91328,-6.1571 12.63836,-6.15715 5.78986,5e-5 10.01344,2.08484 12.67077,6.25437 2.67886,4.14801 4.01831,10.42398 4.01835,18.82792 m -8.52279,14.71234 c 0.75611,-1.74991 1.2638,-3.80229 1.52308,-6.15715 0.28082,-2.37642 0.42125,-5.22815 0.42128,-8.55519 -3e-5,-3.28379 -0.14046,-6.13552 -0.42128,-8.5552 -0.25928,-2.41962 -0.77777,-4.472 -1.55549,-6.15715 -0.75617,-1.66347 -1.79316,-2.91651 -3.11098,-3.75911 -1.29627,-0.84251 -2.97058,-1.26379 -5.02294,-1.26383 -2.0308,4e-5 -3.71591,0.42132 -5.05534,1.26383 -1.31786,0.8426 -2.36566,2.11724 -3.14339,3.82392 -0.73455,1.59873 -1.24224,3.68352 -1.52308,6.25437 -0.25926,2.57091 -0.38889,5.39023 -0.38888,8.45798 -1e-5,3.37025 0.11881,6.18957 0.35647,8.45798 0.23763,2.26843 0.74533,4.29921 1.52308,6.09234 0.71292,1.68512 1.71751,2.97056 3.01377,3.85632 1.31783,0.88577 3.05695,1.32865 5.21737,1.32864 2.03076,10e-6 3.71587,-0.42127 5.05535,-1.26383 1.33942,-0.84255 2.37641,-2.11719 3.11098,-3.82392"
       style="font-size:66.36759949px;font-family:ArialMT"
       id="path3991"
       inkscape:connector-curvature="0" /></g><g
     style="font-size:66.36759949px;font-family:ArialMT"
     id="text122"
     transform="translate(468.04811,305.2853)"><path
       d="m 1005.4181,1141.2881 -7.16176,0 0,13.5781 -6.22196,0 0,-13.5781 -23.10552,0 0,-7.4534 23.36477,-27.2211 5.96271,0 0,29.4895 7.16176,0 0,5.185 m -13.38372,-5.185 0,-21.7769 -18.6983,21.7769 18.6983,0"
       style="font-size:66.36759949px;font-family:ArialMT"
       id="path4032"
       inkscape:connector-curvature="0" /><path
       d="m 1046.1849,1139.5381 c 0,2.2469 -0.4105,4.3965 -1.2314,6.4489 -0.821,2.0523 -1.9444,3.7807 -3.3703,5.1849 -1.5555,1.5123 -3.4134,2.6789 -5.5738,3.4999 -2.1388,0.7993 -4.6233,1.199 -7.4534,1.199 -2.6357,0 -5.1742,-0.2809 -7.6154,-0.8426 -2.4413,-0.5401 -4.5045,-1.199 -6.1896,-1.9767 l 0,-6.8377 0.4537,0 c 1.7715,1.1234 3.8455,2.0848 6.222,2.8841 2.3764,0.7778 4.7096,1.1667 6.9997,1.1667 1.5338,0 3.0137,-0.2161 4.4396,-0.6482 1.4475,-0.432 2.7329,-1.1882 3.8563,-2.2684 0.9506,-0.929 1.6635,-2.0416 2.1388,-3.3378 0.4969,-1.2962 0.7453,-2.7977 0.7454,-4.5045 -1e-4,-1.6635 -0.2917,-3.0677 -0.875,-4.2127 -0.5617,-1.145 -1.3503,-2.0632 -2.3656,-2.7546 -1.1235,-0.8209 -2.4953,-1.3934 -4.1156,-1.7175 -1.5987,-0.3456 -3.3919,-0.5185 -5.3794,-0.5185 -1.9012,0 -3.7375,0.1297 -5.509,0.3889 -1.75,0.2593 -3.2623,0.5185 -4.5369,0.7777 l 0,-24.8554 29.0358,0 0,5.6711 -22.7814,0 0,12.8328 c 0.9289,-0.086 1.8795,-0.1512 2.8517,-0.1945 0.9722,-0.043 1.8147,-0.065 2.5277,-0.065 2.614,0 4.9041,0.2269 6.8701,0.6805 1.9659,0.4321 3.7698,1.2099 5.4118,2.3333 1.7283,1.1882 3.0677,2.7221 4.0183,4.6016 0.9506,1.8796 1.4259,4.2344 1.4259,7.0645"
       style="font-size:66.36759949px;font-family:ArialMT"
       id="path4034"
       inkscape:connector-curvature="0" /></g><g
     style="font-size:66.36759949px;font-family:ArialMT"
     id="text124"
     transform="translate(468.04811,305.2853)"><path
       d="m 435.67727,1370.2901 c -4e-5,8.6632 -1.36109,15.0256 -4.08316,19.0872 -2.70054,4.0399 -6.90252,6.0599 -12.60596,6.0599 -5.78989,0 -10.02428,-2.0524 -12.70317,-6.1571 -2.6573,-4.1048 -3.98595,-10.4132 -3.98595,-18.9252 0,-8.5768 1.35025,-14.9067 4.05076,-18.9899 2.7005,-4.1047 6.91328,-6.1571 12.63836,-6.1572 5.78986,1e-4 10.01344,2.0849 12.67077,6.2544 2.67886,4.148 4.01831,10.424 4.01835,18.8279 m -8.52279,14.7124 c 0.75611,-1.75 1.2638,-3.8023 1.52308,-6.1572 0.28082,-2.3764 0.42125,-5.2282 0.42128,-8.5552 -3e-5,-3.2838 -0.14046,-6.1355 -0.42128,-8.5552 -0.25928,-2.4196 -0.77777,-4.472 -1.55549,-6.1571 -0.75617,-1.6635 -1.79316,-2.9165 -3.11098,-3.7591 -1.29627,-0.8426 -2.97058,-1.2638 -5.02294,-1.2639 -2.0308,1e-4 -3.71591,0.4213 -5.05534,1.2639 -1.31786,0.8426 -2.36566,2.1172 -3.14339,3.8239 -0.73455,1.5987 -1.24224,3.6835 -1.52308,6.2543 -0.25926,2.5709 -0.38889,5.3903 -0.38888,8.458 -10e-6,3.3703 0.11882,6.1896 0.35647,8.458 0.23763,2.2684 0.74533,4.2992 1.52309,6.0923 0.71291,1.6852 1.7175,2.9706 3.01376,3.8564 1.31783,0.8857 3.05695,1.3286 5.21737,1.3286 2.03076,0 3.71587,-0.4213 5.05535,-1.2638 1.33942,-0.8426 2.37641,-2.1172 3.11098,-3.8239"
       style="font-size:66.36759949px;font-family:ArialMT"
       id="path3972"
       inkscape:connector-curvature="0" /></g><g
     style="font-size:66.36759949px;font-family:ArialMT"
     id="text126"
     transform="translate(468.04811,305.2853)"><path
       d="m -183.69232,1141.2881 -7.16174,0 0,13.5781 -6.22196,0 0,-13.5781 -23.10552,0 0,-7.4534 23.36477,-27.2211 5.96271,0 0,29.4895 7.16174,0 0,5.185 m -13.3837,-5.185 0,-21.7769 -18.69829,21.7769 18.69829,0"
       style="font-size:66.36759949px;font-family:ArialMT"
       id="path3981"
       inkscape:connector-curvature="0" /><path
       d="m -142.9255,1139.5381 c -4e-5,2.2469 -0.41052,4.3965 -1.23143,6.4489 -0.82099,2.0523 -1.9444,3.7807 -3.37023,5.1849 -1.55552,1.5123 -3.41347,2.6789 -5.57384,3.4999 -2.13883,0.7993 -4.62329,1.199 -7.4534,1.199 -2.63571,0 -5.17418,-0.2809 -7.61542,-0.8426 -2.44127,-0.5401 -4.50445,-1.199 -6.18956,-1.9767 l 0,-6.8377 0.45369,0 c 1.77152,1.1234 3.84551,2.0848 6.22196,2.8841 2.37643,0.7778 4.70966,1.1667 6.99971,1.1667 1.53386,0 3.01374,-0.2161 4.43963,-0.6482 1.44744,-0.432 2.73288,-1.1882 3.85632,-2.2684 0.95055,-0.929 1.66348,-2.0416 2.1388,-3.3378 0.49686,-1.2962 0.74531,-2.7977 0.74534,-4.5045 -3e-5,-1.6635 -0.29169,-3.0677 -0.87497,-4.2127 -0.56173,-1.145 -1.35028,-2.0632 -2.36564,-2.7546 -1.12343,-0.8209 -2.49529,-1.3934 -4.11557,-1.7175 -1.59872,-0.3456 -3.39185,-0.5185 -5.3794,-0.5185 -1.90117,0 -3.73751,0.1297 -5.50903,0.3889 -1.74994,0.2593 -3.26222,0.5185 -4.53685,0.7777 l 0,-24.8554 29.03583,0 0,5.6711 -22.78146,0 0,12.8328 c 0.92896,-0.086 1.87954,-0.1512 2.85173,-0.1945 0.97217,-0.043 1.81472,-0.065 2.52768,-0.065 2.61406,0 4.90409,0.2269 6.87008,0.6805 1.96594,0.4321 3.76987,1.2099 5.41181,2.3333 1.72829,1.1882 3.06774,2.7221 4.01835,4.6016 0.95054,1.8796 1.42583,4.2344 1.42587,7.0645"
       style="font-size:66.36759949px;font-family:ArialMT"
       id="path3983"
       inkscape:connector-curvature="0" /></g><g
     style="font-size:66.36759949px;font-family:ArialMT"
     id="text128"
     transform="translate(468.04811,305.2853)"><path
       d="m -219.52613,6.2333999 -26.11928,0 0,-4.9257203 10.04587,0 0,-32.3412426 -10.04587,0 0,-4.407223 c 1.36104,4.2e-5 2.81931,-0.107979 4.37481,-0.324061 1.55548,-0.237602 2.7329,-0.572464 3.53226,-1.004587 0.99377,-0.540058 1.77152,-1.220584 2.33324,-2.041582 0.58329,-0.842511 0.91815,-1.96592 1.00459,-3.370229 l 5.02294,0 0,43.4889246 9.85144,0 0,4.9257203"
       style="font-size:66.36759949px;font-family:ArialMT"
       id="path3997"
       inkscape:connector-curvature="0" /><path
       d="m -178.75932,-17.001741 c 1.03696,0.928996 1.89032,2.095612 2.56008,3.499854 0.66969,1.40428 1.00455,3.219018 1.00459,5.4442169 -4e-5,2.2036238 -0.39971,4.2235991 -1.19902,6.0599321 -0.79939,1.83634952 -1.9228,3.4350466 -3.37023,4.7960961 -1.62034,1.5122845 -3.53229,2.6356932 -5.73588,3.3702297 -2.18203,0.7129325 -4.58007,1.0693988 -7.19414,1.0693998 -2.67892,-1e-6 -5.31461,-0.3240613 -7.90708,-0.9721817 -2.59249,-0.6265164 -4.72049,-1.3178449 -6.38399,-2.0739875 l 0,-6.7728653 0.48609,0 c 1.83634,1.2098336 3.99674,2.21442028 6.48121,3.01376302 2.48445,0.79935438 4.8825,1.19902858 7.19415,1.19902398 1.36103,4.6e-6 2.8085,-0.2268375 4.34241,-0.68052711 1.53386,-0.45367902 2.77609,-1.12340348 3.72669,-2.00917539 0.99376,-0.9505693 1.7283,-1.998364 2.20362,-3.1433873 0.49686,-1.1450023 0.7453,-2.5924713 0.74533,-4.3424113 -3e-5,-1.728306 -0.28088,-3.154171 -0.84255,-4.277599 -0.54013,-1.144994 -1.29627,-2.04156 -2.26843,-2.689703 -0.9722,-0.669702 -2.14962,-1.123387 -3.53226,-1.361054 -1.38268,-0.259225 -2.87335,-0.388849 -4.47203,-0.388873 l -2.91655,0 0,-5.379405 2.26843,0 c 3.28379,2.9e-5 5.89787,-0.680497 7.84226,-2.041581 1.96594,-1.382626 2.94892,-3.391799 2.94895,-6.027526 -3e-5,-1.16658 -0.24847,-2.181969 -0.74534,-3.046169 -0.49692,-0.885725 -1.18825,-1.609459 -2.07398,-2.171206 -0.929,-0.561662 -1.92279,-0.950534 -2.98136,-1.166618 -1.05862,-0.215997 -2.25764,-0.324017 -3.59707,-0.32406 -2.0524,4.3e-5 -4.23441,0.367311 -6.54603,1.101805 -2.31164,0.734579 -4.49364,1.771572 -6.54602,3.110982 l -0.32406,0 0,-6.772866 c 1.53388,-0.756094 3.57546,-1.447423 6.12474,-2.073987 2.57087,-0.648072 5.05533,-0.972133 7.4534,-0.972182 2.35481,4.9e-5 4.4288,0.21609 6.22196,0.648121 1.79311,0.432129 3.41341,1.123458 4.86091,2.073988 1.55546,1.037039 2.73287,2.290072 3.53226,3.759102 0.79931,1.469116 1.19899,3.186635 1.19902,5.152563 -3e-5,2.678935 -0.95061,5.022971 -2.85173,7.032113 -1.87958,1.9876 -4.1048,3.240633 -6.67565,3.759103 l 0,0.453685 c 1.03697,0.172858 2.22519,0.540126 3.56467,1.101805 1.33942,0.540126 2.47363,1.220653 3.40263,2.041582"
       style="font-size:66.36759949px;font-family:ArialMT"
       id="path3999"
       inkscape:connector-curvature="0" /><path
       d="m -132.6455,-9.0946639 c -4e-5,2.2468329 -0.41051,4.3964323 -1.23143,6.4488049 -0.82099,2.05239023 -1.9444,3.7807114 -3.37023,5.1849687 -1.55552,1.5122847 -3.41347,2.6789015 -5.57384,3.4998538 -2.13883,0.7993488 -4.62329,1.1990231 -7.45339,1.1990241 -2.63571,-1e-6 -5.17419,-0.2808532 -7.61543,-0.8425575 -2.44126,-0.5401005 -4.50445,-1.1990229 -6.18955,-1.9767693 l 0,-6.8376775 0.45368,0 c 1.77152,1.1234174 3.84551,2.0847961 6.22196,2.88413888 2.37643,0.77775032 4.70967,1.16662252 6.99971,1.16661792 1.53387,4.6e-6 3.01374,-0.2160355 4.43963,-0.64812105 1.44745,-0.43207504 2.73289,-1.18821556 3.85632,-2.26842385 0.95055,-0.9289651 1.66348,-2.0415718 2.1388,-3.3378236 0.49686,-1.29623 0.74531,-2.797709 0.74534,-4.5044415 -3e-5,-1.6634941 -0.29168,-3.0677551 -0.87496,-4.2127871 -0.56174,-1.144993 -1.35028,-2.063164 -2.36564,-2.754515 -1.12344,-0.82093 -2.4953,-1.393436 -4.11557,-1.717521 -1.59872,-0.34564 -3.39186,-0.518472 -5.37941,-0.518496 -1.90117,2.4e-5 -3.73751,0.129648 -5.50903,0.388872 -1.74994,0.259273 -3.26222,0.518521 -4.53685,0.777746 l 0,-24.855444 29.03583,0 0,5.671059 -22.78146,0 0,12.832798 c 0.92896,-0.08639 1.87954,-0.151198 2.85174,-0.194436 0.97216,-0.04318 1.81472,-0.06478 2.52767,-0.06481 2.61406,3e-5 4.90409,0.226873 6.87008,0.680528 1.96594,0.432109 3.76988,1.209854 5.41181,2.333236 1.72829,1.188247 3.06774,2.722132 4.01835,4.601659 0.95054,1.879572 1.42583,4.23441 1.42587,7.0645201"
       style="font-size:66.36759949px;font-family:ArialMT"
       id="path4001"
       inkscape:connector-curvature="0" /></g><g
     style="font-size:45.00030136px;font-family:Arial-BoldMT"
     id="text130"
     transform="translate(468.04811,305.2853)"><path
       d="m 1117.4591,-47.319514 c 1.6259,2.2e-5 3.2153,0.417505 4.7681,1.252449 1.5527,0.834987 2.7612,2.028842 3.6255,3.581567 0.8642,1.552761 1.2964,3.164098 1.2964,4.834017 0,2.680692 -0.9449,4.965861 -2.8345,6.855515 -1.8897,1.889665 -4.1675,2.834494 -6.8336,2.834491 -2.6806,3e-6 -4.9658,-0.944826 -6.8555,-2.834491 -1.8896,-1.889654 -2.8345,-4.174823 -2.8345,-6.855515 0,-1.684567 0.4322,-3.295904 1.2964,-4.834017 0.8643,-1.552725 2.0728,-2.74658 3.6255,-3.581567 1.5528,-0.834944 3.1348,-1.252427 4.7462,-1.252449 m 0.022,1.669933 c -1.3623,2e-5 -2.6806,0.344261 -3.9551,1.032721 -1.2744,0.688501 -2.2705,1.677276 -2.9883,2.966329 -0.7177,1.289086 -1.0766,2.622102 -1.0766,3.99905 0,2.21194 0.7837,4.101599 2.3511,5.668983 1.5673,1.567399 3.457,2.351095 5.6689,2.35109 2.212,5e-6 4.0943,-0.783691 5.6471,-2.35109 1.5673,-1.567384 2.351,-3.457043 2.351,-5.668983 0,-1.376948 -0.3589,-2.709964 -1.0766,-3.99905 -0.7178,-1.289053 -1.7139,-2.277828 -2.9883,-2.966329 -1.2745,-0.68846 -2.5855,-1.032701 -3.9332,-1.032721"
       style="font-size:45.00030136px;font-family:Arial-BoldMT"
       id="path4014"
       inkscape:connector-curvature="0" /></g><g
     style="font-size:45.00030136px;font-family:Arial-BoldMT"
     id="text132"
     transform="translate(468.04811,305.2853)"><path
       d="m 1303.4776,519.73618 c 1.626,2e-5 3.2154,0.4175 4.7681,1.25245 1.5528,0.83498 2.7613,2.02884 3.6255,3.58157 0.8643,1.55276 1.2964,3.16409 1.2964,4.83401 0,2.68069 -0.9448,4.96586 -2.8345,6.85552 -1.8896,1.88966 -4.1675,2.83449 -6.8335,2.83449 -2.6807,0 -4.9659,-0.94483 -6.8555,-2.83449 -1.8897,-1.88966 -2.8345,-4.17483 -2.8345,-6.85552 0,-1.68457 0.4321,-3.2959 1.2964,-4.83401 0.8642,-1.55273 2.0728,-2.74659 3.6255,-3.58157 1.5527,-0.83495 3.1348,-1.25243 4.7461,-1.25245 m 0.022,1.66993 c -1.3623,2e-5 -2.6807,0.34426 -3.9551,1.03272 -1.2744,0.6885 -2.2705,1.67728 -2.9883,2.96633 -0.7178,1.28909 -1.0767,2.6221 -1.0767,3.99905 0,2.21194 0.7837,4.1016 2.3511,5.66899 1.5674,1.56739 3.4571,2.35109 5.669,2.35109 2.2119,0 4.0943,-0.7837 5.647,-2.35109 1.5674,-1.56739 2.3511,-3.45705 2.3511,-5.66899 0,-1.37695 -0.3589,-2.70996 -1.0767,-3.99905 -0.7178,-1.28905 -1.7139,-2.27783 -2.9883,-2.96633 -1.2744,-0.68846 -2.5854,-1.0327 -3.9331,-1.03272"
       style="font-size:45.00030136px;font-family:Arial-BoldMT"
       id="path4024"
       inkscape:connector-curvature="0" /></g><g
     style="font-size:45.00030136px;font-family:Arial-BoldMT"
     id="text134"
     transform="translate(468.04811,305.2853)"><path
       d="m 1063.4522,1095.7938 c 1.626,0 3.2154,0.4175 4.7681,1.2524 1.5528,0.835 2.7613,2.0289 3.6256,3.5816 0.8642,1.5528 1.2963,3.1641 1.2963,4.834 0,2.6807 -0.9448,4.9659 -2.8344,6.8555 -1.8897,1.8897 -4.1676,2.8345 -6.8336,2.8345 -2.6807,0 -4.9659,-0.9448 -6.8555,-2.8345 -1.8897,-1.8896 -2.8345,-4.1748 -2.8345,-6.8555 0,-1.6845 0.4321,-3.2959 1.2964,-4.834 0.8643,-1.5527 2.0728,-2.7466 3.6255,-3.5816 1.5527,-0.8349 3.1348,-1.2524 4.7461,-1.2524 m 0.022,1.6699 c -1.3623,0 -2.6807,0.3443 -3.9551,1.0328 -1.2744,0.6885 -2.2705,1.6772 -2.9883,2.9663 -0.7178,1.2891 -1.0767,2.6221 -1.0767,3.999 0,2.212 0.7837,4.1016 2.3511,5.669 1.5674,1.5674 3.4571,2.3511 5.669,2.3511 2.2119,0 4.0943,-0.7837 5.647,-2.3511 1.5674,-1.5674 2.3511,-3.457 2.3511,-5.669 0,-1.3769 -0.3589,-2.7099 -1.0767,-3.999 -0.7178,-1.2891 -1.7139,-2.2778 -2.9883,-2.9663 -1.2744,-0.6885 -2.5854,-1.0328 -3.9331,-1.0328"
       style="font-size:45.00030136px;font-family:Arial-BoldMT"
       id="path4037"
       inkscape:connector-curvature="0" /></g><g
     style="font-size:45.00030136px;font-family:Arial-BoldMT"
     id="text136"
     transform="translate(468.04811,305.2853)"><path
       d="m 446.39169,1338.8192 c 1.62597,0 3.21534,0.4175 4.7681,1.2524 1.55273,0.835 2.76123,2.0289 3.62551,3.5816 0.86424,1.5528 1.29638,3.1641 1.2964,4.834 -2e-5,2.6807 -0.94485,4.9659 -2.83449,6.8555 -1.88968,1.8897 -4.16753,2.8345 -6.83354,2.8345 -2.6807,0 -4.96587,-0.9448 -6.85552,-2.8345 -1.88967,-1.8896 -2.83449,-4.1748 -2.83449,-6.8555 0,-1.6845 0.43213,-3.2959 1.29639,-4.834 0.86426,-1.5527 2.07276,-2.7466 3.62552,-3.5816 1.55273,-0.8349 3.13477,-1.2524 4.74612,-1.2524 m 0.022,1.6699 c -1.36233,0 -2.6807,0.3443 -3.95511,1.0327 -1.27443,0.6885 -2.27053,1.6773 -2.9883,2.9664 -0.71778,1.2891 -1.07667,2.6221 -1.07667,3.999 0,2.212 0.78369,4.1016 2.35109,5.669 1.56739,1.5674 3.45705,2.3511 5.66899,2.3511 2.21191,0 4.09424,-0.7837 5.64701,-2.3511 1.56737,-1.5674 2.35106,-3.457 2.35109,-5.669 -3e-5,-1.3769 -0.35891,-2.7099 -1.07667,-3.999 -0.7178,-1.2891 -1.7139,-2.2779 -2.9883,-2.9664 -1.27444,-0.6884 -2.58548,-1.0327 -3.93313,-1.0327"
       style="font-size:45.00030136px;font-family:Arial-BoldMT"
       id="path3975"
       inkscape:connector-curvature="0" /></g><g
     style="font-size:45.00030136px;font-family:Arial-BoldMT"
     id="text138"
     transform="translate(468.04811,305.2853)"><path
       d="m -128.66541,1104.7948 c 1.62598,0 3.21534,0.4175 4.7681,1.2524 1.55273,0.835 2.76123,2.0289 3.62552,3.5816 0.86424,1.5527 1.29637,3.1641 1.29639,4.834 -2e-5,2.6807 -0.94485,4.9659 -2.83449,6.8555 -1.88968,1.8897 -4.16753,2.8345 -6.83354,2.8345 -2.6807,0 -4.96587,-0.9448 -6.85552,-2.8345 -1.88966,-1.8896 -2.83449,-4.1748 -2.83449,-6.8555 0,-1.6846 0.43213,-3.2959 1.2964,-4.834 0.86425,-1.5527 2.07276,-2.7466 3.62551,-3.5816 1.55273,-0.8349 3.13477,-1.2524 4.74612,-1.2524 m 0.022,1.6699 c -1.36233,0 -2.6807,0.3443 -3.95511,1.0327 -1.27443,0.6885 -2.27053,1.6773 -2.9883,2.9664 -0.71778,1.289 -1.07667,2.6221 -1.07667,3.999 0,2.2119 0.78369,4.1016 2.35109,5.669 1.56739,1.5674 3.45705,2.3511 5.66899,2.3511 2.21191,0 4.09424,-0.7837 5.64701,-2.3511 1.56737,-1.5674 2.35107,-3.4571 2.35109,-5.669 -2e-5,-1.3769 -0.35891,-2.71 -1.07667,-3.999 -0.7178,-1.2891 -1.7139,-2.2779 -2.9883,-2.9664 -1.27444,-0.6884 -2.58548,-1.0327 -3.93313,-1.0327"
       style="font-size:45.00030136px;font-family:Arial-BoldMT"
       id="path3978"
       inkscape:connector-curvature="0" /></g><g
     style="font-size:45.00030136px;font-family:Arial-BoldMT"
     id="text140"
     transform="translate(468.04811,305.2853)"><path
       d="m -371.68939,514.7352 c 1.62597,2e-5 3.21533,0.41751 4.7681,1.25245 1.55272,0.83499 2.76122,2.02884 3.62551,3.58157 0.86424,1.55276 1.29637,3.1641 1.29639,4.83402 -2e-5,2.68069 -0.94485,4.96586 -2.83449,6.85551 -1.88968,1.88966 -4.16752,2.83449 -6.83354,2.83449 -2.68069,0 -4.96586,-0.94483 -6.85551,-2.83449 -1.88967,-1.88965 -2.8345,-4.17482 -2.8345,-6.85551 0,-1.68457 0.43213,-3.29591 1.2964,-4.83402 0.86426,-1.55273 2.07276,-2.74658 3.62551,-3.58157 1.55274,-0.83494 3.13478,-1.25243 4.74613,-1.25245 m 0.022,1.66993 c -1.36233,3e-5 -2.68069,0.34427 -3.9551,1.03273 -1.27444,0.6885 -2.27053,1.67727 -2.98831,2.96633 -0.71778,1.28908 -1.07667,2.6221 -1.07666,3.99905 -1e-5,2.21193 0.78369,4.10159 2.35109,5.66898 1.56738,1.5674 3.45704,2.35109 5.66898,2.35109 2.21191,0 4.09425,-0.78369 5.64701,-2.35109 1.56737,-1.56739 2.35107,-3.45705 2.35109,-5.66898 -2e-5,-1.37695 -0.35891,-2.70997 -1.07667,-3.99905 -0.71779,-1.28906 -1.71389,-2.27783 -2.9883,-2.96633 -1.27444,-0.68846 -2.58548,-1.0327 -3.93313,-1.03273"
       style="font-size:45.00030136px;font-family:Arial-BoldMT"
       id="path3986"
       inkscape:connector-curvature="0" /></g><g
     style="font-size:45.00030136px;font-family:Arial-BoldMT"
     id="text142"
     transform="translate(468.04811,305.2853)"><path
       d="m -118.66541,-50.320914 c 1.62598,2.2e-5 3.21534,0.417505 4.7681,1.252449 1.55273,0.834987 2.76123,2.028842 3.62552,3.581567 0.86424,1.552761 1.29637,3.164098 1.29639,4.834017 -2e-5,2.680692 -0.94485,4.965861 -2.83449,6.855515 -1.88968,1.889665 -4.16753,2.834494 -6.83354,2.834491 -2.6807,3e-6 -4.96587,-0.944826 -6.85552,-2.834491 -1.88966,-1.889654 -2.83449,-4.174823 -2.83449,-6.855515 0,-1.684567 0.43213,-3.295904 1.2964,-4.834017 0.86425,-1.552725 2.07276,-2.74658 3.62551,-3.581567 1.55273,-0.834944 3.13477,-1.252427 4.74612,-1.252449 m 0.022,1.669933 c -1.36233,2e-5 -2.6807,0.344261 -3.95511,1.032721 -1.27443,0.688501 -2.27053,1.677276 -2.9883,2.966329 -0.71778,1.289086 -1.07667,2.622102 -1.07667,3.99905 0,2.21194 0.78369,4.101599 2.35109,5.668983 1.56739,1.567399 3.45705,2.351095 5.66899,2.35109 2.21191,5e-6 4.09424,-0.783691 5.64701,-2.35109 1.56737,-1.567384 2.35107,-3.457043 2.35109,-5.668983 -2e-5,-1.376948 -0.35891,-2.709964 -1.07667,-3.99905 -0.7178,-1.289053 -1.7139,-2.277828 -2.9883,-2.966329 -1.27444,-0.68846 -2.58548,-1.032701 -3.93313,-1.032721"
       style="font-size:45.00030136px;font-family:Arial-BoldMT"
       id="path3994"
       inkscape:connector-curvature="0" /></g><polygon
     id="polygon144"
     points="40.765,156.818 66.598,156.695 53.21,125.759 "
     transform="matrix(-1,0,0,-1,575.41111,587.8623)" /><polygon
     id="polygon146"
     points="-117.29,536.259 -129.735,567.318 -103.902,567.195 "
     transform="matrix(1,0,0,-1,468.04811,1408.8623)" /><polygon
     id="polygon148"
     points="53.71,948.259 41.265,979.318 67.098,979.195 "
     transform="matrix(1,0,0,-1,468.04811,2232.8623)" /><polygon
     id="polygon150"
     points="876.503,973.256 888.949,942.196 863.116,942.319 "
     transform="matrix(1,0,0,-1,468.04811,2220.7373)" /><polygon
     id="polygon152"
     points="1047.503,563.256 1059.949,532.196 1034.116,532.319 "
     transform="matrix(1,0,0,-1,468.04811,1400.7373)" /><polygon
     id="polygon154"
     points="877.003,154.256 889.449,123.196 863.616,123.319 "
     transform="matrix(1,0,0,-1,468.04811,582.7373)" /><g
     id="Layer_3"
     transform="translate(468.04811,305.2853)"><circle
       stroke-miterlimit="10"
       cx="419"
       cy="552.54401"
       r="772"
       id="circle157"
       sodipodi:cx="419"
       sodipodi:cy="552.54401"
       sodipodi:rx="772"
       sodipodi:ry="772"
       style="fill:none;stroke:#000000;stroke-width:2;stroke-miterlimit:10"
       d="m 1191,552.54401 c 0,426.36382 -345.63617,771.99999 -772,771.99999 -426.3638269,0 -772,-345.63617 -772,-771.99999 0,-426.36383 345.6361731,-772 772,-772 426.36383,0 772,345.63617 772,772 z" /></g><path
     inkscape:connector-curvature="0"
     id="path4215"
     style="font-size:58.06204987px;font-style:normal;font-weight:normal;line-height:125%;letter-spacing:0px;word-spacing:0px;fill:#000000;fill-opacity:1;stroke:none;font-family:Sans"
     d="m 904.79839,586.02025 -5.98198,0 -4.13919,-11.7655 -18.25779,0 -4.13919,11.7655 -5.69847,0 15.36603,-42.21405 7.48456,0 15.36603,42.21405 m -11.85056,-16.5851 -7.39951,-20.7243 -7.42786,20.7243 14.82737,0" /><path
     inkscape:connector-curvature="0"
     id="path4217"
     style="font-size:58.06204987px;font-style:normal;font-weight:normal;line-height:125%;letter-spacing:0px;word-spacing:0px;fill:#000000;fill-opacity:1;stroke:none;font-family:Sans"
     d="m 899.32672,1166.6408 -27.81195,0 0,-42.2141 27.81195,0 0,4.9897 -22.19853,0 0,11.5671 22.19853,0 0,4.9897 -22.19853,0 0,15.6779 22.19853,0 0,4.9897" /><g
     style="font-size:40px;font-style:normal;font-weight:normal;line-height:125%;letter-spacing:0px;word-spacing:0px;fill:#000000;fill-opacity:1;stroke:none;font-family:Sans"
     id="text4143"
     transform="translate(468.04811,305.2853)"><path
       d="m 218.93358,367.54661 c -4e-5,2.09796 -0.39695,3.95019 -1.19073,5.55672 -0.79385,1.60654 -1.86172,2.92957 -3.20362,3.96908 -1.58766,1.24743 -3.33595,2.13575 -5.24486,2.66496 -1.89007,0.52921 -4.29987,0.79382 -7.22941,0.79382 l -14.96912,0 0,-42.21406 12.50262,0 c 3.08075,4e-5 5.38659,0.11344 6.91755,0.34021 1.53091,0.22684 2.99569,0.69935 4.39434,1.41753 1.54981,0.81276 2.67438,1.86173 3.37373,3.14692 0.69928,1.26636 1.04894,2.78784 1.04897,4.56444 -3e-5,2.00348 -0.51034,3.71396 -1.53093,5.13146 -1.02066,1.39866 -2.38148,2.52323 -4.08249,3.37373 l 0,0.2268 c 2.85393,0.58594 5.10308,1.84281 6.74744,3.77063 1.6443,1.90896 2.46647,4.32821 2.46651,7.25776 m -9.44076,-19.02326 c -2e-5,-1.02059 -0.17013,-1.88056 -0.51031,-2.57991 -0.34023,-0.69928 -0.88834,-1.26629 -1.64433,-1.70103 -0.88835,-0.51028 -1.96567,-0.82213 -3.23197,-0.93557 -1.26635,-0.13227 -2.83508,-0.19842 -4.7062,-0.19846 l -6.69075,0 0,12.19077 7.25776,0 c 1.75772,2e-5 3.15635,-0.085 4.19589,-0.25516 1.0395,-0.18898 2.00342,-0.56699 2.89176,-1.13402 0.88829,-0.56699 1.51201,-1.29465 1.87114,-2.183 0.37798,-0.90719 0.56699,-1.97506 0.56701,-3.20362 m 3.60053,19.25006 c -3e-5,-1.70102 -0.25519,-3.0524 -0.76546,-4.05413 -0.51035,-1.00171 -1.43646,-1.85222 -2.77836,-2.55156 -0.90725,-0.47249 -2.01292,-0.77489 -3.31703,-0.90722 -1.28525,-0.15118 -2.85398,-0.22678 -4.7062,-0.2268 l -8.81704,0 0,15.70624 7.42786,0 c 2.45703,0 4.46993,-0.12285 6.03868,-0.36856 1.56871,-0.2646 2.85394,-0.73711 3.85569,-1.41753 1.05839,-0.73711 1.83331,-1.57818 2.32475,-2.52321 0.49138,-0.94501 0.73708,-2.16408 0.73711,-3.65723"
       style="font-size:58.06204987px"
       id="path4220"
       inkscape:connector-curvature="0" /><path
       d="m 222.76091,722.3545 c -4e-5,3.8368 -0.84111,7.31447 -2.5232,10.43302 -1.66328,3.11858 -3.88407,5.53783 -6.6624,7.25776 -1.92787,1.19073 -4.08251,2.05069 -6.46394,2.5799 -2.36257,0.52922 -5.48114,0.79382 -9.3557,0.79382 l -10.65983,0 0,-42.21406 10.54643,0 c 4.12027,4e-5 7.39003,0.30245 9.80931,0.90722 2.43812,0.58595 4.49827,1.39867 6.18043,2.43815 2.87283,1.79558 5.11253,4.18648 6.7191,7.17271 1.60649,2.98629 2.40976,6.53011 2.4098,10.63148 m -5.86858,-0.0851 c -3e-5,-3.30755 -0.57649,-6.09536 -1.72938,-8.36343 -1.15296,-2.26802 -2.8729,-4.05411 -5.15981,-5.35827 -1.66327,-0.94498 -3.43045,-1.59705 -5.30157,-1.95619 -1.87116,-0.37797 -4.11086,-0.56698 -6.71909,-0.56701 l -5.27322,0 0,32.57485 5.27322,0 c 2.70274,0 5.05583,-0.19845 7.0593,-0.59537 2.02232,-0.3969 3.87455,-1.13401 5.55672,-2.21134 2.09791,-1.34192 3.66664,-3.10911 4.7062,-5.30157 1.05839,-2.19243 1.5876,-4.93299 1.58763,-8.22167"
       style="font-size:58.06204987px"
       id="path4222"
       inkscape:connector-curvature="0" /></g><g
     style="font-size:40px;font-style:normal;font-weight:normal;line-height:125%;letter-spacing:0px;word-spacing:0px;fill:#000000;fill-opacity:1;stroke:none;font-family:Sans"
     id="text4191"
     transform="translate(468.04811,305.2853)"><path
       d="m 639.1347,369.41177 c -3e-5,2.09572 -0.39652,3.94598 -1.18945,5.55078 -0.793,1.60483 -1.85973,2.92644 -3.20019,3.96485 -1.58597,1.24609 -3.33239,2.13346 -5.23926,2.66211 -1.88805,0.52864 -4.29527,0.79297 -7.22168,0.79297 l -14.95313,0 0,-42.16895 12.48926,0 c 3.07745,4e-5 5.38084,0.11332 6.91016,0.33985 1.52927,0.2266 2.99248,0.6986 4.38965,1.41601 1.54814,0.81189 2.67151,1.85974 3.37011,3.14356 0.69854,1.26501 1.04782,2.78486 1.04785,4.55957 -3e-5,2.00133 -0.50979,3.70999 -1.52929,5.12597 -1.01956,1.39716 -2.37894,2.52054 -4.07813,3.37012 l 0,0.22656 c 2.85088,0.58531 5.09763,1.84084 6.74024,3.7666 1.64254,1.90692 2.46383,4.32359 2.46386,7.25 m -9.43066,-19.00293 c -3e-5,-1.01949 -0.16995,-1.87854 -0.50977,-2.57714 -0.33987,-0.69854 -0.88739,-1.26494 -1.64257,-1.69922 -0.8874,-0.50973 -1.96357,-0.82126 -3.22852,-0.93457 -1.26499,-0.13213 -2.83205,-0.19821 -4.70117,-0.19825 l -6.68359,0 0,12.17774 7.25,0 c 1.75583,2e-5 3.15297,-0.0849 4.1914,-0.25488 1.03839,-0.18878 2.00128,-0.56638 2.88867,-1.13282 0.88735,-0.56638 1.51039,-1.29326 1.86914,-2.18066 0.37758,-0.90622 0.56638,-1.97295 0.56641,-3.2002 m 3.59668,19.2295 c -3e-5,-1.69921 -0.25491,-3.04914 -0.76465,-4.04981 -0.50979,-1.00063 -1.43492,-1.85024 -2.77539,-2.54883 -0.90628,-0.47198 -2.01077,-0.77407 -3.31348,-0.90625 -1.28387,-0.15102 -2.85093,-0.22654 -4.70117,-0.22656 l -8.80761,0 0,15.68945 7.41992,0 c 2.4544,10e-6 4.46514,-0.12271 6.03222,-0.36816 1.56703,-0.26432 2.85089,-0.73632 3.85157,-1.41602 1.05726,-0.73632 1.83135,-1.57648 2.32226,-2.5205 0.49086,-0.944 0.7363,-2.16178 0.73633,-3.65332"
       style="font-size:58px"
       id="path4210"
       inkscape:connector-curvature="0" /><path
       d="m 642.95795,723.84048 c -4e-5,3.8327 -0.84021,7.30666 -2.52051,10.42188 -1.6615,3.11524 -3.87992,5.53191 -6.65527,7.25 -1.92582,1.18945 -4.07816,2.0485 -6.45704,2.57715 -2.36005,0.52864 -5.47528,0.79297 -9.3457,0.79297 l -10.64844,0 0,-42.16895 10.53516,0 c 4.11587,4e-5 7.38214,0.30213 9.79883,0.90625 2.43552,0.58533 4.49346,1.39718 6.17383,2.43555 2.86975,1.79366 5.10706,4.182 6.71191,7.16504 1.60478,2.9831 2.40719,6.52313 2.40723,10.62011 m -5.86231,-0.085 c -3e-5,-3.30401 -0.57588,-6.08884 -1.72754,-8.35449 -1.15172,-2.26559 -2.86982,-4.04977 -5.15429,-5.35254 -1.66149,-0.94397 -3.42679,-1.59534 -5.2959,-1.9541 -1.86916,-0.37757 -4.10647,-0.56637 -6.71192,-0.56641 l -5.26757,0 0,32.54004 5.26757,0 c 2.69985,10e-6 5.05044,-0.19823 7.05176,-0.59472 2.02016,-0.39648 3.87042,-1.13281 5.55078,-2.20899 2.09567,-1.34048 3.66273,-3.10578 4.70117,-5.2959 1.05726,-2.19008 1.58591,-4.92771 1.58594,-8.21289"
       style="font-size:58px"
       id="path4212"
       inkscape:connector-curvature="0" /></g><g
     style="font-size:40px;font-style:normal;font-weight:normal;line-height:125%;letter-spacing:0px;word-spacing:0px;fill:#000000;fill-opacity:1;stroke:none;font-family:Sans"
     id="text4205"
     transform="translate(468.04811,305.2853)"><path
       d="m 160.45799,564.44888 c -1.03956,0.45361 -1.98458,0.87887 -2.83506,1.27577 -0.83165,0.39691 -1.92787,0.81272 -3.28867,1.24743 -1.15295,0.35911 -2.40983,0.66151 -3.77063,0.90722 -1.34196,0.26461 -2.82564,0.39691 -4.45105,0.39691 -3.06188,0 -5.84969,-0.42526 -8.36343,-1.27578 -2.49486,-0.86942 -4.66841,-2.22079 -6.52064,-4.05414 -1.81444,-1.79553 -3.23197,-4.07303 -4.25259,-6.83249 -1.02062,-2.77835 -1.53093,-6.00086 -1.53093,-9.66756 0,-3.47765 0.49141,-6.58677 1.47423,-9.32735 0.98282,-2.74053 2.40035,-5.05583 4.25259,-6.9459 1.79553,-1.8333 3.95963,-3.23193 6.49229,-4.19589 2.55154,-0.96388 5.37715,-1.44584 8.47684,-1.44588 2.26802,4e-5 4.52661,0.2741 6.77579,0.82216 2.26802,0.54816 4.78177,1.51208 7.54126,2.89177 l 0,6.66239 -0.42526,0 c -2.32478,-1.94671 -4.63063,-3.36424 -6.91754,-4.25259 -2.28698,-0.88828 -4.73458,-1.33244 -7.34281,-1.33248 -2.13577,4e-5 -4.06361,0.3497 -5.78353,1.04897 -1.70105,0.68045 -3.22253,1.74833 -4.56445,3.20362 -1.30414,1.41756 -2.32476,3.2131 -3.06186,5.38662 -0.71823,2.15467 -1.07733,4.64952 -1.07732,7.48456 -1e-5,2.96738 0.39689,5.51893 1.19072,7.65466 0.81271,2.13576 1.85223,3.8746 3.11857,5.21652 1.32301,1.39863 2.86339,2.43815 4.62115,3.11856 1.77662,0.66152 3.64775,0.99228 5.61342,0.99227 2.70273,10e-6 5.23538,-0.46305 7.59796,-1.38918 2.36252,-0.92611 4.57386,-2.31529 6.63404,-4.16754 l 0.39691,0 0,6.57735"
       style="font-size:58.06204987px"
       id="path4225"
       inkscape:connector-curvature="0" /><path
       d="m 711.36705,564.44888 c -1.03956,0.45361 -1.98458,0.87887 -2.83506,1.27577 -0.83165,0.39691 -1.92788,0.81272 -3.28867,1.24743 -1.15296,0.35911 -2.40983,0.66151 -3.77063,0.90722 -1.34196,0.26461 -2.82564,0.39691 -4.45105,0.39691 -3.06188,0 -5.84969,-0.42526 -8.36343,-1.27578 -2.49486,-0.86942 -4.66841,-2.22079 -6.52064,-4.05414 -1.81444,-1.79553 -3.23197,-4.07303 -4.25259,-6.83249 -1.02063,-2.77835 -1.53094,-6.00086 -1.53093,-9.66756 -10e-6,-3.47765 0.4914,-6.58677 1.47423,-9.32735 0.98281,-2.74053 2.40034,-5.05583 4.25259,-6.9459 1.79553,-1.8333 3.95962,-3.23193 6.49229,-4.19589 2.55154,-0.96388 5.37715,-1.44584 8.47683,-1.44588 2.26803,4e-5 4.52662,0.2741 6.7758,0.82216 2.26801,0.54816 4.78177,1.51208 7.54126,2.89177 l 0,6.66239 -0.42526,0 c -2.32478,-1.94671 -4.63063,-3.36424 -6.91755,-4.25259 -2.28697,-0.88828 -4.73458,-1.33244 -7.34281,-1.33248 -2.13576,4e-5 -4.0636,0.3497 -5.78352,1.04897 -1.70105,0.68045 -3.22253,1.74833 -4.56445,3.20362 -1.30414,1.41756 -2.32476,3.2131 -3.06186,5.38662 -0.71823,2.15467 -1.07734,4.64952 -1.07733,7.48456 -10e-6,2.96738 0.3969,5.51893 1.19073,7.65466 0.81271,2.13576 1.85223,3.8746 3.11857,5.21652 1.32301,1.39863 2.86339,2.43815 4.62115,3.11856 1.77661,0.66152 3.64775,0.99228 5.61342,0.99227 2.70273,10e-6 5.23538,-0.46305 7.59796,-1.38918 2.36252,-0.92611 4.57386,-2.31529 6.63404,-4.16754 l 0.39691,0 0,6.57735"
       style="font-size:58.06204987px"
       id="path4227"
       inkscape:connector-curvature="0" /></g></svg>