<?xml version="1.0" encoding="UTF-8" standalone="no"?>
<!-- Created with Serif DrawPlus 11, 0, 3, 23 (Feb 25, 14:12:55) (http://www.serif.com) -->
<svg version="1.1" xmlns="http://www.w3.org/2000/svg" xmlns:xlink="http://www.w3.org/1999/xlink" xmlns:inkscape="http://www.inkscape.org/namespaces/inkscape" width="598.355" height="314.833">
	<g id="dp_group001" transform="matrix(1,0,0,1,-79.2013,-136.108)">
		<g id="dp_group002">
			<g id="dp_group003">
				<g id="dp_group004">
					<path id="dp_path005" fill="#00b050" fill-rule="evenodd" d="M 116.639,221.423 L 118.948,221.848 L 123.567,222.699 L 119.919,210.089 L 112.021,220.573 Z "/>
					<path id="dp_path006" fill="#00b050" d="M 110.048,270.216 L 118.949,221.848 L 116.64,221.424 L 107.739,269.792 Z "/>
				</g>
			</g>
			<g id="dp_group007">
				<g id="dp_group008">
					<path id="dp_path009" fill="#00b050" fill-rule="evenodd" d="M 246.368,313.115 L 247.045,315.363 L 248.401,319.859 L 257.947,310.849 L 245.012,308.619 Z "/>
					<path id="dp_path010" fill="#00b050" d="M 167.431,339.365 L 247.045,315.364 L 246.368,313.116 L 166.753,337.117 Z "/>
				</g>
			</g>
			<text id="dp_text001" transform="matrix(1,9.4369e-016,-8.88178e-016,1,79.5557,224.18)" xml:space="preserve" fill="black" font-family="Arial" font-size="31" font-weight="700" x="0" y="0">v </text>
			<text id="dp_text002" transform="matrix(1,1.2837e-015,-1.22818e-015,1,90.2183,235.23)" xml:space="preserve" fill="black" font-family="Arial" font-size="20" font-weight="400" font-style="italic" x="0" y="0">A </text>
			<text id="dp_text003" transform="matrix(1,9.4369e-016,-8.88178e-016,1,208.152,355.547)" xml:space="preserve" fill="black" font-family="Arial" font-size="31" font-weight="700" x="0" y="0">v </text>
			<text id="dp_text004" transform="matrix(1,1.2837e-015,-1.22818e-015,1,218.814,366.596)" xml:space="preserve" fill="black" font-family="Arial" font-size="20" font-weight="400" font-style="italic" x="0" y="0">B </text>
			<g id="dp_group015">
				<path id="dp_path158" fill="#f6ac00" fill-rule="evenodd" stroke="none" stroke-width="1.33333" d="M 111.088,269.129 C 124.091,272.879 131.593,286.459 127.845,299.469 C 124.097,312.469 110.517,319.968 97.5147,316.219 C 84.512,312.469 77.0093,298.889 80.7573,285.889 C 84.5053,272.889 98.0853,265.389 111.088,269.129 Z "/>
				<text id="dp_text005" transform="matrix(1,9.4369e-016,-8.88178e-016,1,94.3183,301.765)" xml:space="preserve" fill="black" font-family="Arial" font-size="24" font-weight="400" font-style="italic" x="0" y="0">A </text>
			</g>
			<g id="dp_group017">
				<path id="dp_path158" fill="#f6ac00" fill-rule="evenodd" stroke="none" stroke-width="1.33333" d="M 151.42,322.509 C 164.423,326.259 171.925,339.839 168.177,352.849 C 164.429,365.849 150.849,373.348 137.847,369.599 C 124.844,365.849 117.341,352.269 121.089,339.269 C 124.837,326.269 138.417,318.769 151.42,322.509 Z "/>
				<text id="dp_text006" transform="matrix(1,9.4369e-016,-8.88178e-016,1,136.634,356.745)" xml:space="preserve" fill="black" font-family="Arial" font-size="24" font-weight="400" font-style="italic" x="0" y="0">B </text>
			</g>
		</g>
		<g id="dp_group019">
			<g id="dp_group020">
				<g id="dp_group021">
					<path id="dp_path022" fill="#02612b" fill-rule="evenodd" d="M 577.856,355.263 L 579.247,352.233 L 582.028,346.175 L 563.405,346.793 L 575.075,361.321 Z "/>
					<path id="dp_path023" fill="#02612b" d="M 638.936,379.64 L 579.248,352.232 L 577.856,355.261 L 637.544,382.669 Z "/>
				</g>
			</g>
			<g id="dp_group024">
				<text id="dp_text007" transform="matrix(1,9.4369e-016,-8.88178e-016,1,592.185,419.797)" xml:space="preserve" fill="black" font-family="Arial" font-size="31" font-weight="700" x="0" y="0">v </text>
				<text id="dp_text008" transform="matrix(1,1.2837e-015,-1.22818e-015,1,602.848,430.847)" xml:space="preserve" fill="black" font-family="Arial" font-size="20" font-weight="400" font-style="italic" x="0" y="0">B </text>
			</g>
			<g id="dp_group027">
				<g id="dp_group028">
					<path id="dp_path029" fill="#00b050" fill-rule="evenodd" d="M 560.679,359.477 L 562.988,359.903 L 567.607,360.753 L 563.959,348.144 L 556.061,358.628 Z "/>
					<path id="dp_path030" fill="#00b050" d="M 554.088,408.271 L 562.989,359.903 L 560.68,359.479 L 551.779,407.847 Z "/>
				</g>
			</g>
			<g id="dp_group031">
				<g id="dp_group032">
					<path id="dp_path033" fill="#00b050" fill-rule="evenodd" d="M 632.209,382.933 L 632.887,385.181 L 634.243,389.677 L 643.788,380.668 L 630.853,378.437 Z "/>
					<path id="dp_path034" fill="#00b050" d="M 553.272,409.184 L 632.887,385.183 L 632.209,382.935 L 552.595,406.936 Z "/>
				</g>
			</g>
			<g id="dp_group035">
				<text id="dp_text009" transform="matrix(1,9.4369e-016,-8.88178e-016,1,526.038,374.568)" xml:space="preserve" fill="black" font-family="Arial" font-size="31" font-weight="700" x="0" y="0">v </text>
				<text id="dp_text010" transform="matrix(1,1.2837e-015,-1.22818e-015,1,536.701,385.618)" xml:space="preserve" fill="black" font-family="Arial" font-size="20" font-weight="400" font-style="italic" x="0" y="0">A </text>
			</g>
			<g id="dp_group038">
				<g id="dp_group039">
					<text id="dp_text011" transform="matrix(1,9.4369e-016,-8.88178e-016,1,653.608,346.663)" xml:space="preserve" fill="black" font-family="Arial" font-size="31" font-weight="700" x="0" y="0">v </text>
					<text id="dp_text012" transform="matrix(1,1.2837e-015,-1.22818e-015,1,664.27,357.712)" xml:space="preserve" fill="black" font-family="Arial" font-size="20" font-weight="400" font-style="italic" x="0" y="0">B </text>
				</g>
				<g id="dp_group042">
					<text id="dp_text013" transform="matrix(1,9.4369e-016,-8.88178e-016,1,602.217,346.663)" xml:space="preserve" fill="black" font-family="Arial" font-size="31" font-weight="700" x="0" y="0">v </text>
					<text id="dp_text014" transform="matrix(1,1.2837e-015,-1.22818e-015,1,612.88,357.712)" xml:space="preserve" fill="black" font-family="Arial" font-size="20" font-weight="400" font-style="italic" x="0" y="0">A </text>
				</g>
				<text id="dp_text015" transform="matrix(1,9.4369e-016,-8.88178e-016,1,631.014,350.587)" xml:space="preserve" fill="black" font-family="Times New Roman" font-size="31" font-weight="700" x="0" y="0">−</text>
				<text id="dp_text016" transform="matrix(1,9.4369e-016,-8.88178e-016,1,631.014,350.587)" xml:space="preserve" fill="black" font-family="Arial" font-size="31" font-weight="700" x="17.6907" y="0"> </text>
			</g>
		</g>
		<g id="dp_group047">
			<g id="dp_group048">
				<g id="dp_group049">
					<text id="dp_text017" transform="matrix(1,9.4369e-016,-8.88178e-016,1,467.196,228.667)" xml:space="preserve" fill="black" font-family="Arial" font-size="31" font-weight="700" x="0" y="0">v </text>
					<text id="dp_text018" transform="matrix(1,1.2837e-015,-1.22818e-015,1,477.858,239.716)" xml:space="preserve" fill="black" font-family="Arial" font-size="20" font-weight="400" font-style="italic" x="0" y="0">A </text>
				</g>
				<g id="dp_group052">
					<text id="dp_text019" transform="matrix(1,9.4369e-016,-8.88178e-016,1,415.805,228.667)" xml:space="preserve" fill="black" font-family="Arial" font-size="31" font-weight="700" x="0" y="0">v </text>
					<text id="dp_text020" transform="matrix(1,1.2837e-015,-1.22818e-015,1,426.468,239.716)" xml:space="preserve" fill="black" font-family="Arial" font-size="20" font-weight="400" font-style="italic" x="0" y="0">B </text>
				</g>
				<text id="dp_text021" transform="matrix(1,9.4369e-016,-8.88178e-016,1,444.602,232.591)" xml:space="preserve" fill="black" font-family="Times New Roman" font-size="31" font-weight="700" x="0" y="0">−</text>
				<text id="dp_text022" transform="matrix(1,9.4369e-016,-8.88178e-016,1,444.602,232.591)" xml:space="preserve" fill="black" font-family="Arial" font-size="31" font-weight="700" x="17.6907" y="0"> </text>
			</g>
			<g id="dp_group057">
				<path id="dp_path158" fill="#f6ac00" fill-rule="evenodd" stroke="none" stroke-width="1.33333" d="M 330.661,145.497 C 343.664,149.247 351.167,162.827 347.419,175.837 C 343.671,188.837 330.091,196.336 317.088,192.587 C 304.085,188.837 296.583,175.257 300.331,162.257 C 304.079,149.257 317.659,141.757 330.661,145.497 Z "/>
				<text id="dp_text023" transform="matrix(1,9.4369e-016,-8.88178e-016,1,313.892,178.133)" xml:space="preserve" fill="black" font-family="Arial" font-size="24" font-weight="400" font-style="italic" x="0" y="0">A </text>
			</g>
			<g id="dp_group059">
				<path id="dp_path158" fill="#f6ac00" fill-rule="evenodd" stroke="none" stroke-width="1.33333" d="M 370.993,198.877 C 383.996,202.627 391.499,216.207 387.751,229.217 C 384.003,242.217 370.423,249.716 357.42,245.967 C 344.417,242.217 336.915,228.637 340.663,215.637 C 344.411,202.637 357.991,195.137 370.993,198.877 Z "/>
				<text id="dp_text024" transform="matrix(1,9.4369e-016,-8.88178e-016,1,356.208,233.113)" xml:space="preserve" fill="black" font-family="Arial" font-size="24" font-weight="400" font-style="italic" x="0" y="0">B </text>
			</g>
			<g id="dp_group061">
				<g id="dp_group062">
					<path id="dp_path063" fill="#02612b" fill-rule="evenodd" d="M 446.409,258.092 L 445.019,261.121 L 442.237,267.18 L 460.86,266.561 L 449.191,252.033 Z "/>
					<path id="dp_path064" fill="#02612b" d="M 385.329,233.715 L 445.017,261.123 L 446.409,258.093 L 386.721,230.685 Z "/>
				</g>
			</g>
		</g>
		<g id="dp_group065">
			<g id="dp_group066">
				<g id="dp_group067">
					<text id="dp_text025" transform="matrix(1,9.4369e-016,-8.88178e-016,1,389.396,324.884)" xml:space="preserve" fill="black" font-family="Arial" font-size="31" font-weight="700" x="0" y="0">v </text>
					<text id="dp_text026" transform="matrix(1,1.2837e-015,-1.22818e-015,1,400.058,335.934)" xml:space="preserve" fill="black" font-family="Arial" font-size="20" font-weight="400" font-style="italic" x="0" y="0">B </text>
				</g>
				<g id="dp_group070">
					<text id="dp_text027" transform="matrix(1,9.4369e-016,-8.88178e-016,1,338.005,324.884)" xml:space="preserve" fill="black" font-family="Arial" font-size="31" font-weight="700" x="0" y="0">v </text>
					<text id="dp_text028" transform="matrix(1,1.2837e-015,-1.22818e-015,1,348.668,335.934)" xml:space="preserve" fill="black" font-family="Arial" font-size="20" font-weight="400" font-style="italic" x="0" y="0">A </text>
				</g>
				<text id="dp_text029" transform="matrix(1,9.4369e-016,-8.88178e-016,1,366.802,328.808)" xml:space="preserve" fill="black" font-family="Times New Roman" font-size="31" font-weight="700" x="0" y="0">−</text>
				<text id="dp_text030" transform="matrix(1,9.4369e-016,-8.88178e-016,1,366.802,328.808)" xml:space="preserve" fill="black" font-family="Arial" font-size="31" font-weight="700" x="17.6907" y="0"> </text>
			</g>
			<g id="dp_group075">
				<path id="dp_path158" fill="#f6ac00" fill-rule="evenodd" stroke="none" stroke-width="1.33333" d="M 402.461,348.915 C 415.464,352.664 422.967,366.244 419.219,379.255 C 415.471,392.255 401.891,399.753 388.888,396.004 C 375.885,392.255 368.383,378.675 372.131,365.675 C 375.879,352.675 389.459,345.175 402.461,348.915 Z "/>
				<text id="dp_text031" transform="matrix(1,9.4369e-016,-8.88178e-016,1,385.692,381.55)" xml:space="preserve" fill="black" font-family="Arial" font-size="24" font-weight="400" font-style="italic" x="0" y="0">A </text>
			</g>
			<g id="dp_group077">
				<path id="dp_path158" fill="#f6ac00" fill-rule="evenodd" stroke="none" stroke-width="1.33333" d="M 442.793,402.295 C 455.796,406.044 463.299,419.624 459.551,432.635 C 455.803,445.635 442.223,453.133 429.22,449.384 C 416.217,445.635 408.715,432.055 412.463,419.055 C 416.211,406.055 429.791,398.555 442.793,402.295 Z "/>
				<text id="dp_text032" transform="matrix(1,9.4369e-016,-8.88178e-016,1,428.008,436.53)" xml:space="preserve" fill="black" font-family="Arial" font-size="24" font-weight="400" font-style="italic" x="0" y="0">B </text>
			</g>
			<g id="dp_group079">
				<g id="dp_group080">
					<path id="dp_path081" fill="#02612b" fill-rule="evenodd" d="M 313.877,335.333 L 315.268,332.304 L 318.049,326.245 L 299.427,326.864 L 311.096,341.392 Z "/>
					<path id="dp_path082" fill="#02612b" d="M 374.957,359.711 L 315.269,332.303 L 313.877,335.332 L 373.565,362.74 Z "/>
				</g>
			</g>
		</g>
		<g id="dp_group083">
			<g id="dp_group084">
				<text id="dp_text033" transform="matrix(1,9.4369e-016,-8.88178e-016,1,598.854,238.797)" xml:space="preserve" fill="black" font-family="Arial" font-size="31" font-weight="700" x="0" y="0">v </text>
				<text id="dp_text034" transform="matrix(1,1.2837e-015,-1.22818e-015,1,609.517,249.847)" xml:space="preserve" fill="black" font-family="Arial" font-size="20" font-weight="400" font-style="italic" x="0" y="0">B </text>
			</g>
			<g id="dp_group087">
				<g id="dp_group088">
					<path id="dp_path089" fill="#00b050" fill-rule="evenodd" d="M 567.348,178.477 L 569.657,178.903 L 574.276,179.753 L 570.628,167.144 L 562.731,177.628 Z "/>
					<path id="dp_path090" fill="#00b050" d="M 560.757,227.271 L 569.659,178.903 L 567.349,178.479 L 558.448,226.847 Z "/>
				</g>
			</g>
			<g id="dp_group091">
				<g id="dp_group092">
					<path id="dp_path093" fill="#00b050" fill-rule="evenodd" d="M 638.879,201.933 L 639.556,204.181 L 640.912,208.677 L 650.457,199.668 L 637.523,197.437 Z "/>
					<path id="dp_path094" fill="#00b050" d="M 559.941,228.184 L 639.556,204.183 L 638.879,201.935 L 559.264,225.936 Z "/>
				</g>
			</g>
			<g id="dp_group095">
				<text id="dp_text035" transform="matrix(1,9.4369e-016,-8.88178e-016,1,532.708,193.568)" xml:space="preserve" fill="black" font-family="Arial" font-size="31" font-weight="700" x="0" y="0">v </text>
				<text id="dp_text036" transform="matrix(1,1.2837e-015,-1.22818e-015,1,543.37,204.618)" xml:space="preserve" fill="black" font-family="Arial" font-size="20" font-weight="400" font-style="italic" x="0" y="0">A </text>
			</g>
			<g id="dp_group098">
				<g id="dp_group099">
					<text id="dp_text037" transform="matrix(1,9.4369e-016,-8.88178e-016,1,646.937,167.108)" xml:space="preserve" fill="black" font-family="Arial" font-size="31" font-weight="700" x="0" y="0">v </text>
					<text id="dp_text038" transform="matrix(1,1.2837e-015,-1.22818e-015,1,657.6,178.158)" xml:space="preserve" fill="black" font-family="Arial" font-size="20" font-weight="400" font-style="italic" x="0" y="0">A </text>
				</g>
				<g id="dp_group102">
					<text id="dp_text039" transform="matrix(1,9.4369e-016,-8.88178e-016,1,595.546,167.108)" xml:space="preserve" fill="black" font-family="Arial" font-size="31" font-weight="700" x="0" y="0">v </text>
					<text id="dp_text040" transform="matrix(1,1.2837e-015,-1.22818e-015,1,606.209,178.158)" xml:space="preserve" fill="black" font-family="Arial" font-size="20" font-weight="400" font-style="italic" x="0" y="0">B </text>
				</g>
				<text id="dp_text041" transform="matrix(1,9.4369e-016,-8.88178e-016,1,624.344,171.032)" xml:space="preserve" fill="black" font-family="Times New Roman" font-size="31" font-weight="700" x="0" y="0">−</text>
				<text id="dp_text042" transform="matrix(1,9.4369e-016,-8.88178e-016,1,624.344,171.032)" xml:space="preserve" fill="black" font-family="Arial" font-size="31" font-weight="700" x="17.6907" y="0"> </text>
			</g>
			<g id="dp_group107">
				<g id="dp_group108">
					<path id="dp_path109" fill="#02612b" fill-rule="evenodd" d="M 632.364,192.297 L 630.973,195.327 L 628.192,201.385 L 646.815,200.767 L 635.145,186.239 Z "/>
					<path id="dp_path110" fill="#02612b" d="M 571.284,167.92 L 630.972,195.328 L 632.364,192.299 L 572.676,164.891 Z "/>
				</g>
			</g>
		</g>
	</g>
</svg>