<?xml version="1.0" encoding="UTF-8" standalone="no"?>
<!-- Created with Inkscape (http://www.inkscape.org/) -->

<svg
   xmlns:svg="http://www.w3.org/2000/svg"
   xmlns="http://www.w3.org/2000/svg"
   version="1.1"
   width="861.02002"
   height="432.67999"
   id="svg4830">
  <defs
     id="defs4832">
    <marker
       refX="0"
       refY="0"
       orient="auto"
       id="Arrow2Lstart"
       style="overflow:visible">
      <path
         d="M 8.7185878,4.0337352 -2.2072895,0.01601326 8.7185884,-4.0017078 c -1.7454984,2.3720609 -1.7354408,5.6174519 -6e-7,8.035443 z"
         transform="matrix(1.1,0,0,1.1,1.1,0)"
         id="path4233"
         style="font-size:12px;fill-rule:evenodd;stroke-width:0.625;stroke-linejoin:round" />
    </marker>
    <marker
       refX="0"
       refY="0"
       orient="auto"
       id="Arrow2Lend"
       style="overflow:visible">
      <path
         d="M 8.7185878,4.0337352 -2.2072895,0.01601326 8.7185884,-4.0017078 c -1.7454984,2.3720609 -1.7354408,5.6174519 -6e-7,8.035443 z"
         transform="matrix(-1.1,0,0,-1.1,-1.1,0)"
         id="path4236"
         style="font-size:12px;fill-rule:evenodd;stroke-width:0.625;stroke-linejoin:round" />
    </marker>
    <marker
       refX="0"
       refY="0"
       orient="auto"
       id="marker4749"
       style="overflow:visible">
      <path
         d="M 8.7185878,4.0337352 -2.2072895,0.01601326 8.7185884,-4.0017078 c -1.7454984,2.3720609 -1.7354408,5.6174519 -6e-7,8.035443 z"
         transform="matrix(1.1,0,0,1.1,1.1,0)"
         id="path4751"
         style="font-size:12px;fill-rule:evenodd;stroke-width:0.625;stroke-linejoin:round" />
    </marker>
    <marker
       refX="0"
       refY="0"
       orient="auto"
       id="marker4753"
       style="overflow:visible">
      <path
         d="M 8.7185878,4.0337352 -2.2072895,0.01601326 8.7185884,-4.0017078 c -1.7454984,2.3720609 -1.7354408,5.6174519 -6e-7,8.035443 z"
         transform="matrix(-1.1,0,0,-1.1,-1.1,0)"
         id="path4755"
         style="font-size:12px;fill-rule:evenodd;stroke-width:0.625;stroke-linejoin:round" />
    </marker>
    <marker
       refX="0"
       refY="0"
       orient="auto"
       id="marker4757"
       style="overflow:visible">
      <path
         d="M 8.7185878,4.0337352 -2.2072895,0.01601326 8.7185884,-4.0017078 c -1.7454984,2.3720609 -1.7354408,5.6174519 -6e-7,8.035443 z"
         transform="matrix(1.1,0,0,1.1,1.1,0)"
         id="path4759"
         style="font-size:12px;fill-rule:evenodd;stroke-width:0.625;stroke-linejoin:round" />
    </marker>
    <marker
       refX="0"
       refY="0"
       orient="auto"
       id="marker4761"
       style="overflow:visible">
      <path
         d="M 8.7185878,4.0337352 -2.2072895,0.01601326 8.7185884,-4.0017078 c -1.7454984,2.3720609 -1.7354408,5.6174519 -6e-7,8.035443 z"
         transform="matrix(-1.1,0,0,-1.1,-1.1,0)"
         id="path4763"
         style="font-size:12px;fill-rule:evenodd;stroke-width:0.625;stroke-linejoin:round" />
    </marker>
    <marker
       refX="0"
       refY="0"
       orient="auto"
       id="marker4765"
       style="overflow:visible">
      <path
         d="M 8.7185878,4.0337352 -2.2072895,0.01601326 8.7185884,-4.0017078 c -1.7454984,2.3720609 -1.7354408,5.6174519 -6e-7,8.035443 z"
         transform="matrix(1.1,0,0,1.1,1.1,0)"
         id="path4767"
         style="font-size:12px;fill-rule:evenodd;stroke-width:0.625;stroke-linejoin:round" />
    </marker>
    <marker
       refX="0"
       refY="0"
       orient="auto"
       id="marker4769"
       style="overflow:visible">
      <path
         d="M 8.7185878,4.0337352 -2.2072895,0.01601326 8.7185884,-4.0017078 c -1.7454984,2.3720609 -1.7354408,5.6174519 -6e-7,8.035443 z"
         transform="matrix(1.1,0,0,1.1,1.1,0)"
         id="path4771"
         style="font-size:12px;fill-rule:evenodd;stroke-width:0.625;stroke-linejoin:round" />
    </marker>
    <marker
       refX="0"
       refY="0"
       orient="auto"
       id="marker4773"
       style="overflow:visible">
      <path
         d="M 8.7185878,4.0337352 -2.2072895,0.01601326 8.7185884,-4.0017078 c -1.7454984,2.3720609 -1.7354408,5.6174519 -6e-7,8.035443 z"
         transform="matrix(-1.1,0,0,-1.1,-1.1,0)"
         id="path4775"
         style="font-size:12px;fill-rule:evenodd;stroke-width:0.625;stroke-linejoin:round" />
    </marker>
    <marker
       refX="0"
       refY="0"
       orient="auto"
       id="marker4777"
       style="overflow:visible">
      <path
         d="M 8.7185878,4.0337352 -2.2072895,0.01601326 8.7185884,-4.0017078 c -1.7454984,2.3720609 -1.7354408,5.6174519 -6e-7,8.035443 z"
         transform="matrix(1.1,0,0,1.1,1.1,0)"
         id="path4779"
         style="font-size:12px;fill-rule:evenodd;stroke-width:0.625;stroke-linejoin:round" />
    </marker>
    <marker
       refX="0"
       refY="0"
       orient="auto"
       id="marker4781"
       style="overflow:visible">
      <path
         d="M 8.7185878,4.0337352 -2.2072895,0.01601326 8.7185884,-4.0017078 c -1.7454984,2.3720609 -1.7354408,5.6174519 -6e-7,8.035443 z"
         transform="matrix(-1.1,0,0,-1.1,-1.1,0)"
         id="path4783"
         style="font-size:12px;fill-rule:evenodd;stroke-width:0.625;stroke-linejoin:round" />
    </marker>
  </defs>
  <g
     transform="translate(-58.063431,-401.73736)"
     id="layer1">
    <path
       d="m 596.42356,669.39161 64.99996,0"
       id="path7078"
       style="fill:none;stroke:#000000;stroke-width:0.9999997px;stroke-linecap:butt;stroke-linejoin:miter;stroke-opacity:1" />
    <path
       d="m 286.42373,604.39161 569.99969,0"
       id="path4024-3-4"
       style="fill:none;stroke:#005a00;stroke-width:1.9999994;stroke-linecap:butt;stroke-linejoin:miter;stroke-miterlimit:4;stroke-opacity:1;stroke-dasharray:7.99999783, 7.99999783;stroke-dashoffset:0" />
    <path
       d="m 348.06343,609.57849 0,160"
       id="path4210-55-6-1"
       style="fill:#ff0000;fill-opacity:1;stroke:#000000;stroke-width:1.9999994;stroke-linecap:butt;stroke-linejoin:miter;stroke-miterlimit:4;stroke-opacity:1;stroke-dasharray:none;marker-start:url(#Arrow2Lstart);marker-end:url(#Arrow2Lend)" />
    <path
       d="m 818.06343,604.57849 0,-100"
       id="path4024"
       style="fill:none;stroke:#000000;stroke-width:0.9999997;stroke-linecap:butt;stroke-linejoin:miter;stroke-miterlimit:4;stroke-opacity:1;stroke-dasharray:none;stroke-dashoffset:0" />
    <path
       d="m 246.42375,424.3916 0,350.00001 649.99964,0"
       id="path5598"
       style="fill:none;stroke:#000000;stroke-width:1.9999994;stroke-linecap:butt;stroke-linejoin:miter;stroke-miterlimit:4;stroke-opacity:1;stroke-dasharray:none;marker-start:url(#Arrow2Lstart);marker-mid:none;marker-end:url(#Arrow2Lend)" />
    <path
       d="m 126.42381,424.3916 0,350.00001 49.99998,0"
       id="path5598-4"
       style="fill:none;stroke:#000000;stroke-width:1.9999994;stroke-linecap:butt;stroke-linejoin:miter;stroke-miterlimit:4;stroke-opacity:1;stroke-dasharray:none;marker-start:url(#Arrow2Lstart);marker-mid:none;marker-end:none" />
    <path
       d="m 288.06343,524.57849 265,0"
       id="path4210-55"
       style="fill:#ff0000;fill-opacity:1;stroke:#000000;stroke-width:1.9999994;stroke-linecap:butt;stroke-linejoin:miter;stroke-miterlimit:4;stroke-opacity:1;stroke-dasharray:none;marker-start:url(#Arrow2Lstart);marker-end:url(#Arrow2Lend)" />
    <path
       d="m 563.06343,524.57849 250,0"
       id="path4210-55-6"
       style="fill:#ff0000;fill-opacity:1;stroke:#000000;stroke-width:1.9999994;stroke-linecap:butt;stroke-linejoin:miter;stroke-miterlimit:4;stroke-opacity:1;stroke-dasharray:none;marker-start:url(#Arrow2Lstart);marker-end:url(#Arrow2Lend)" />
    <g
       transform="translate(58.063432,401.73849)"
       id="text6294-6"
       style="font-size:39.99998856px;font-style:normal;font-weight:normal;fill:#000000;fill-opacity:1;stroke:none;font-family:Bitstream Vera Sans">
      <path
         d="m 364.92309,101.95068 -2.63671,0 0,-16.80175 c -0.63478,0.605485 -1.46729,1.210953 -2.49756,1.816406 -1.03028,0.605483 -1.95557,1.059584 -2.77588,1.362304 l 0,-2.548827 c 1.47461,-0.693343 2.76367,-1.533185 3.86719,-2.519531 1.1035,-0.986308 1.88475,-1.943338 2.34375,-2.871093 l 1.69921,0 z"
         id="path3384"
         style="font-size:29.99999237px;text-align:center;text-anchor:middle;fill:#000000" />
    </g>
    <path
       d="m 558.06343,604.57849 0,-100"
       id="path4024-3"
       style="fill:none;stroke:#000000;stroke-width:0.9999997;stroke-linecap:butt;stroke-linejoin:miter;stroke-miterlimit:4;stroke-opacity:1;stroke-dasharray:none;stroke-dashoffset:0" />
    <g
       transform="translate(58.063432,401.73849)"
       id="text6294-6-1"
       style="font-size:39.99998856px;font-style:normal;font-weight:normal;fill:#000000;fill-opacity:1;stroke:none;font-family:Bitstream Vera Sans">
      <path
         d="m 140.67482,52.653099 0,-21.474604 8.10058,0 c 1.42577,2.2e-5 2.51464,0.06838 3.2666,0.205078 1.05468,0.175803 1.93846,0.510275 2.65137,1.003418 0.71287,0.493184 1.2866,1.184101 1.72119,2.072753 0.43455,0.888689 0.65184,1.865251 0.65186,2.929687 -2e-5,1.826185 -0.58108,3.371593 -1.74317,4.636229 -1.16212,1.264658 -3.26173,1.896981 -6.29882,1.896973 l -5.50781,0 0,8.730466 z m 2.8418,-11.264646 5.55175,0 c 1.83593,1.2e-5 3.13964,-0.341785 3.91113,-1.02539 0.77147,-0.68358 1.15721,-1.645493 1.15723,-2.885741 -2e-5,-0.898422 -0.22707,-1.667464 -0.68115,-2.307129 -0.45412,-0.63963 -1.05226,-1.061993 -1.79444,-1.267089 -0.47852,-0.126934 -1.36231,-0.190411 -2.65136,-0.19043 l -5.49316,0 z"
         id="path3353"
         style="font-size:29.99999237px;fill:#000000" />
      <path
         d="m 158.37599,56.658065 4.39843,-11.453122 1.63281,0 4.6875,11.453122 -1.72656,0 -1.33594,-3.468749 -4.78906,0 -1.25781,3.468749 z m 3.30468,-4.703124 3.88281,0 -1.19531,-3.171874 c -0.36459,-0.963532 -0.63542,-1.755198 -0.8125,-2.374999 -0.14584,0.734384 -0.35157,1.46355 -0.61719,2.187499 z"
         id="path3355"
         style="font-size:15.99999523px" />
    </g>
    <g
       transform="translate(58.063432,401.73849)"
       id="text6294-6-3"
       style="font-size:39.99998856px;font-style:normal;font-weight:normal;fill:#000000;fill-opacity:1;stroke:none;font-family:Bitstream Vera Sans">
      <path
         d="m 30.674865,52.653099 0,-21.474604 8.100584,0 c 1.425769,2.2e-5 2.514635,0.06838 3.266601,0.205078 1.054672,0.175803 1.93846,0.510275 2.651366,1.003418 0.712874,0.493184 1.286603,1.184101 1.721191,2.072753 0.434552,0.888689 0.651837,1.865251 0.651856,2.929687 -1.9e-5,1.826185 -0.581073,3.371593 -1.743164,4.636229 -1.162125,1.264658 -3.261732,1.896981 -6.298827,1.896973 l -5.507811,0 0,8.730466 z m 2.841796,-11.264646 5.551757,0 c 1.835924,1.2e-5 3.139633,-0.341785 3.911132,-1.02539 0.771468,-0.68358 1.15721,-1.645493 1.157226,-2.885741 C 44.13676,36.5789 43.90971,35.809858 43.455624,35.170193 43.001508,34.530563 42.403364,34.1082 41.66119,33.903104 41.182662,33.77617 40.298874,33.712693 39.009824,33.712674 l -5.493163,0 z"
         id="path3368"
         style="font-size:29.99999237px;fill:#000000" />
    </g>
    <g
       transform="translate(58.063432,401.73849)"
       id="text6294-6-7"
       style="font-size:39.99998856px;font-style:normal;font-weight:normal;fill:#000000;fill-opacity:1;stroke:none;font-family:Bitstream Vera Sans">
      <path
         d="m 27.910153,215.06779 -2.636718,0 0,-16.80175 c -0.634773,0.60549 -1.467292,1.21095 -2.497558,1.81641 -1.030278,0.60548 -1.95557,1.05958 -2.775878,1.3623 l 0,-2.54883 c 1.474604,-0.69334 2.763665,-1.53318 3.867187,-2.51953 1.103507,-0.9863 1.884756,-1.94333 2.343749,-2.87109 l 1.699218,0 z"
         id="path3361"
         style="font-size:29.99999237px;fill:#000000" />
      <path
         d="m 34.67773,204.47698 c -10e-7,-2.53905 0.261229,-4.58251 0.783691,-6.13037 0.522459,-1.54784 1.298825,-2.74168 2.329101,-3.58154 1.030268,-0.83983 2.326653,-1.25975 3.88916,-1.25977 1.152334,2e-5 2.163075,0.23196 3.032225,0.6958 0.869129,0.46389 1.586901,1.13283 2.15332,2.00684 0.566392,0.87404 1.010728,1.93849 1.333008,3.19335 0.32225,1.2549 0.483383,2.94679 0.483398,5.07569 -1.5e-5,2.51954 -0.258804,4.55322 -0.776367,6.10107 -0.517592,1.54785 -1.291517,2.74414 -2.321777,3.58887 -1.030284,0.84472 -2.331552,1.26709 -3.903807,1.26709 -2.070319,0 -3.696293,-0.74219 -4.877929,-2.22657 -1.416017,-1.7871 -2.124024,-4.69725 -2.124023,-8.73046 z m 2.70996,0 c -3e-6,3.52539 0.412594,5.87158 1.237793,7.03857 0.825189,1.16699 1.843254,1.75049 3.054199,1.75049 1.210927,0 2.228992,-0.58594 3.054198,-1.75781 0.825183,-1.17187 1.23778,-3.51562 1.237793,-7.03125 -1.3e-5,-3.53514 -0.41261,-5.88377 -1.237793,-7.0459 -0.825206,-1.16209 -1.853036,-1.74314 -3.083495,-1.74316 -1.210944,2e-5 -2.17774,0.51271 -2.90039,1.53808 -0.908207,1.30861 -1.362308,3.7256 -1.362305,7.25098 z"
         id="path3363"
         style="font-size:29.99999237px;fill:#000000" />
      <path
         d="m 50.795891,198.05042 1.476562,-0.125 c 0.109372,0.71875 0.363278,1.25911 0.761718,1.62109 0.398434,0.36198 0.878902,0.54297 1.441406,0.54297 0.677078,0 1.249994,-0.25521 1.71875,-0.76563 0.468743,-0.51041 0.703118,-1.18749 0.703124,-2.03125 -6e-6,-0.80207 -0.225267,-1.43489 -0.675781,-1.89843 -0.450526,-0.46354 -1.040369,-0.69531 -1.76953,-0.69532 -0.453129,1e-5 -0.861983,0.10288 -1.226563,0.3086 -0.364586,0.20573 -0.651044,0.47266 -0.859374,0.80078 l -1.320312,-0.17188 1.109374,-5.88281 5.695311,0 0,1.34375 -4.570311,0 -0.617187,3.07813 c 0.687496,-0.47916 1.408849,-0.71875 2.164061,-0.71875 0.999994,0 1.843743,0.34636 2.53125,1.03906 0.687492,0.69271 1.031241,1.58334 1.031249,2.67187 -8e-6,1.03646 -0.302091,1.9323 -0.906249,2.6875 -0.734382,0.92709 -1.736985,1.39063 -3.007812,1.39063 -1.04167,0 -1.891929,-0.29167 -2.55078,-0.875 -0.658856,-0.58333 -1.035157,-1.35677 -1.128906,-2.32031 z"
         id="path3365"
         style="font-size:15.99999523px" />
    </g>
    <g
       transform="translate(58.063432,401.73849)"
       id="text6294-6-2"
       style="font-size:39.99998856px;font-style:normal;font-weight:normal;fill:#000000;fill-opacity:1;stroke:none;font-family:Bitstream Vera Sans">
      <path
         d="m 43.610492,367.06223 c -10e-7,-2.53905 0.261229,-4.58251 0.783692,-6.13037 0.522458,-1.54783 1.298824,-2.74168 2.329101,-3.58154 1.030267,-0.83983 2.326652,-1.25975 3.889159,-1.25977 1.152334,2e-5 2.163075,0.23196 3.032226,0.6958 0.869128,0.46389 1.5869,1.13283 2.153319,2.00684 0.566392,0.87404 1.010728,1.93849 1.333008,3.19336 0.32225,1.25489 0.483383,2.94679 0.483398,5.07568 -1.5e-5,2.51954 -0.258804,4.55323 -0.776367,6.10107 -0.517592,1.54785 -1.291517,2.74414 -2.321777,3.58887 -1.030284,0.84472 -2.331552,1.26709 -3.903807,1.26709 -2.070318,0 -3.696293,-0.74219 -4.877929,-2.22657 -1.416017,-1.7871 -2.124024,-4.69725 -2.124023,-8.73046 z m 2.709961,0 c -4e-6,3.52539 0.412593,5.87158 1.237792,7.03857 0.825189,1.16699 1.843255,1.75049 3.054199,1.75049 1.210927,0 2.228993,-0.58594 3.054198,-1.75781 0.825183,-1.17187 1.23778,-3.51562 1.237793,-7.03125 -1.3e-5,-3.53514 -0.41261,-5.88377 -1.237793,-7.0459 -0.825205,-1.16209 -1.853036,-1.74314 -3.083495,-1.74316 -1.210944,2e-5 -2.17774,0.51271 -2.90039,1.53808 -0.908207,1.30861 -1.362308,3.7256 -1.362304,7.25098 z"
         id="path3358"
         style="font-size:29.99999237px;fill:#000000" />
    </g>
    <g
       transform="translate(58.063432,401.73849)"
       id="text6294-6-2-7"
       style="font-size:39.99998856px;font-style:normal;font-weight:normal;fill:#000000;fill-opacity:1;stroke:none;font-family:Bitstream Vera Sans">
      <path
         d="m 159.6055,202.76201 c 0,-2.53905 0.26123,-4.5825 0.78369,-6.13037 0.52246,-1.54783 1.29882,-2.74168 2.3291,-3.58154 1.03027,-0.83982 2.32665,-1.25974 3.88916,-1.25977 1.15233,3e-5 2.16308,0.23196 3.03223,0.69581 0.86912,0.46388 1.5869,1.13283 2.15332,2.00683 0.56639,0.87404 1.01072,1.93849 1.333,3.19336 0.32225,1.2549 0.48339,2.94679 0.4834,5.07568 -1e-5,2.51954 -0.2588,4.55323 -0.77637,6.10107 -0.51759,1.54786 -1.29151,2.74415 -2.32177,3.58887 -1.03029,0.84473 -2.33155,1.26709 -3.90381,1.26709 -2.07032,0 -3.69629,-0.74219 -4.87793,-2.22656 -1.41602,-1.78711 -2.12402,-4.69726 -2.12402,-8.73047 z m 2.70996,0 c 0,3.5254 0.41259,5.87159 1.23779,7.03857 0.82519,1.167 1.84326,1.75049 3.0542,1.75049 1.21093,0 2.22899,-0.58593 3.0542,-1.75781 0.82518,-1.17187 1.23778,-3.51562 1.23779,-7.03125 -1e-5,-3.53514 -0.41261,-5.88377 -1.23779,-7.0459 -0.82521,-1.16209 -1.85304,-1.74314 -3.0835,-1.74316 -1.21094,2e-5 -2.17774,0.51272 -2.90039,1.53809 -0.9082,1.30861 -1.3623,3.7256 -1.3623,7.25097 z"
         id="path3350"
         style="font-size:29.99999237px;fill:#000000" />
    </g>
    <g
       transform="translate(58.063432,401.73849)"
       id="text6294-6-2-3"
       style="font-size:39.99998856px;font-style:normal;font-weight:normal;fill:#000000;fill-opacity:1;stroke:none;font-family:Bitstream Vera Sans">
      <path
         d="m 165.43254,174.1814 0,-5.88867 -5.84473,0 0,-2.46094 5.84473,0 0,-5.84472 2.49023,0 0,5.84472 5.84473,0 0,2.46094 -5.84473,0 0,5.88867 z"
         id="path3347"
         style="font-size:29.99999237px;fill:#000000" />
    </g>
    <g
       transform="translate(58.063432,401.73849)"
       id="text6294-6-2-9"
       style="font-size:39.99998856px;font-style:normal;font-weight:normal;fill:#000000;fill-opacity:1;stroke:none;font-family:Bitstream Vera Sans">
      <path
         d="m 162.54257,238.68573 0,-2.65136 8.10059,0 0,2.65136 z"
         id="path3344"
         style="font-size:29.99999237px;fill:#000000" />
    </g>
    <path
       d="m 126.42381,604.39161 15,0"
       id="path7006"
       style="fill:none;stroke:#000000;stroke-width:1.9999994;stroke-linecap:butt;stroke-linejoin:miter;stroke-miterlimit:4;stroke-opacity:1;stroke-dasharray:none" />
    <path
       d="m 246.42375,604.39161 14.99999,0"
       id="path7006-6"
       style="fill:none;stroke:#000000;stroke-width:1.9999994;stroke-linecap:butt;stroke-linejoin:miter;stroke-miterlimit:4;stroke-opacity:1;stroke-dasharray:none" />
    <path
       d="m 283.06343,604.57849 0,-100"
       id="path4024-3-5"
       style="fill:none;stroke:#000000;stroke-width:0.9999997;stroke-linecap:butt;stroke-linejoin:miter;stroke-miterlimit:4;stroke-opacity:1;stroke-dasharray:none;stroke-dashoffset:0" />
    <path
       d="m 278.06343,604.57849 c 101.85569,0 175,0 280.09247,-0.011 4.90753,0.011 2.73947,-2.52191 4.94983,-5.4688 3.63212,-10.3111 1.57112,-18.8563 9.95625,-18.1421 3.34804,2.4952 4.78129,-3.2367 5.66961,-6.3252 3.8964,-13.5472 0.51637,-32.98572 12.69197,-30.23941 0.92625,1.69744 4.95882,8.87114 5,15 0.11663,17.35891 4.14727,32.75221 5,50.00001 0.50834,3.3313 3.93374,10.3439 4.99999,20 1.68986,15.3036 3.56788,37.9944 5,38.0089 4.91907,0.6002 8.1426,-70.7373 9.99999,-73.0089 9.94441,-12.162 0.57761,2.2167 10.66282,-9.6991 8.94935,-1.0929 1.46011,20.7071 15.30307,10.1909 12.15204,-10.1076 9.88448,13.8426 19.10015,0.5341 10.32486,-22.0442 15.78488,17.4133 25.62515,-0.6569 4.06624,-13.6293 15.15228,-5.5175 19.29782,1.0239 15.49283,1.1333 4.53323,-36.36791 15.01094,-26.3929 1.66368,1.1978 1.26348,8.7208 1.99816,13.471 1.93555,12.5149 0.31407,25.318 6.79482,36.6727 9.95943,8.5904 9.70739,-27.4224 17.19292,-34.5909 13.45634,-24.4785 9.73805,32.8319 30.2934,12.8192 8.38232,-10.46504 19.38383,-4.05012 26.75998,1.45937 3.13481,2.34149 5.48486,5.59093 8.60068,5.35513 15.17507,0.066 24.57844,0.091 39.99998,0"
       id="path6642"
       style="fill:none;stroke:#28a700;stroke-width:3.99999881;stroke-linecap:butt;stroke-linejoin:miter;stroke-miterlimit:4;stroke-opacity:1;stroke-dasharray:none" />
    <path
       d="m 636.42354,609.39161 0,55"
       id="path4210-55-6-1-6"
       style="fill:#ff0000;fill-opacity:1;stroke:#000000;stroke-width:1.9999994;stroke-linecap:butt;stroke-linejoin:miter;stroke-miterlimit:4;stroke-opacity:1;stroke-dasharray:none;marker-start:url(#Arrow2Lstart);marker-end:url(#Arrow2Lend)" />
    <g
       transform="translate(58.063432,401.73849)"
       id="text6294-6-3-5"
       style="font-size:39.99998856px;font-style:normal;font-weight:normal;fill:#000000;fill-opacity:1;stroke:none;font-family:Bitstream Vera Sans">
      <path
         d="m 815.98169,410.11539 0.38086,2.3291 c -0.7422,0.15625 -1.40626,0.23437 -1.99219,0.23437 -0.95704,0 -1.69922,-0.15136 -2.22656,-0.4541 -0.52735,-0.30273 -0.89844,-0.70068 -1.11328,-1.19385 -0.21485,-0.49316 -0.32227,-1.53075 -0.32227,-3.11279 l 0,-8.95019 -1.93359,0 0,-2.05078 1.93359,0 0,-3.85254 2.62207,-1.58203 0,5.43457 2.65137,0 0,2.05078 -2.65137,0 0,9.09668 c 0,0.75195 0.0464,1.23535 0.13916,1.45019 0.0928,0.21485 0.24414,0.38575 0.4541,0.5127 0.20996,0.12695 0.51025,0.19043 0.90088,0.19043 0.29296,0 0.6787,-0.0342 1.15723,-0.10254 z"
         id="path2910"
         style="font-size:29.99999237px;fill:#000000" />
    </g>
    <path
       d="m 439.51292,492.88117 c 0,10.49341 -8.50659,19 -19,19 -10.49341,0 -19,-8.50659 -19,-19 0,-10.49341 8.50659,-19 19,-19 10.49341,0 19,8.50659 19,19 z"
       id="path3260"
       style="opacity:0.91538457;fill:none;stroke:#000000;stroke-width:2;stroke-linecap:butt;stroke-linejoin:miter;stroke-miterlimit:4;stroke-opacity:1;stroke-dashoffset:0" />
    <g
       transform="translate(58.063432,401.73849)"
       id="text6294-6-17"
       style="font-size:39.99998856px;font-style:normal;font-weight:normal;fill:#000000;fill-opacity:1;stroke:none;font-family:Bitstream Vera Sans">
      <path
         d="m 636.80609,99.416512 0,2.534178 -14.19433,0 c -0.0195,-0.63476 0.083,-1.24511 0.30761,-1.83105 0.36133,-0.966797 0.93994,-1.918944 1.73584,-2.856448 0.7959,-0.937494 1.9458,-2.021477 3.44971,-3.251952 2.33397,-1.914052 3.91112,-3.430163 4.73144,-4.548339 0.8203,-1.11815 1.23046,-2.175277 1.23047,-3.171385 -10e-6,-1.044905 -0.37354,-1.926252 -1.1206,-2.644043 -0.74708,-0.717754 -1.7212,-1.07664 -2.92237,-1.07666 -1.26953,2e-5 -2.28516,0.380879 -3.04687,1.142578 -0.76172,0.761736 -1.14746,1.816422 -1.15723,3.164062 l -2.70996,-0.27832 c 0.18555,-2.021467 0.88379,-3.561992 2.09473,-4.621581 1.21093,-1.059549 2.83691,-1.589334 4.87793,-1.589355 2.06053,2.1e-5 3.69139,0.57131 4.89258,1.713866 1.20115,1.142597 1.80174,2.558611 1.80175,4.248046 -10e-6,0.85939 -0.17579,1.704115 -0.52734,2.534179 -0.35158,0.83009 -0.93507,1.704113 -1.75049,2.62207 -0.81544,0.917978 -2.17042,2.177742 -4.06494,3.779296 -1.58204,1.32813 -2.59766,2.229008 -3.04687,2.702636 -0.44923,0.473636 -0.82032,0.94971 -1.11328,1.428222 z"
         id="path3372"
         style="font-size:29.99999237px;text-align:center;text-anchor:middle;fill:#000000" />
    </g>
    <path
       d="m 707.09476,492.88117 c 0,10.49341 -8.50659,19 -19,19 -10.49341,0 -19,-8.50659 -19,-19 0,-10.49341 8.50659,-19 19,-19 10.49341,0 19,8.50659 19,19 z"
       id="path3260-9"
       style="opacity:0.91538457;fill:none;stroke:#000000;stroke-width:2;stroke-linecap:butt;stroke-linejoin:miter;stroke-miterlimit:4;stroke-opacity:1;stroke-dashoffset:0" />
    <g
       transform="translate(58.063432,401.73849)"
       id="text6294-6-4"
       style="font-size:39.99998856px;font-style:normal;font-weight:normal;fill:#000000;fill-opacity:1;stroke:none;font-family:Bitstream Vera Sans">
      <path
         d="m 315.39768,292.8422 2.63671,-0.35157 c 0.30273,1.49415 0.81787,2.57081 1.54541,3.22998 0.72754,0.65918 1.61377,0.98877 2.65869,0.98877 1.24023,0 2.28759,-0.42968 3.14209,-1.28906 0.85448,-0.85937 1.28173,-1.92382 1.28174,-3.19336 -1e-5,-1.21093 -0.39552,-2.20946 -1.18652,-2.9956 -0.79103,-0.78613 -1.79689,-1.17919 -3.01758,-1.1792 -0.49805,10e-6 -1.11817,0.0977 -1.86035,0.29297 l 0.29297,-2.31446 c 0.17577,0.0196 0.31737,0.0293 0.4248,0.0293 1.12304,10e-6 2.13378,-0.29296 3.03223,-0.87891 0.89843,-0.58592 1.34764,-1.48924 1.34766,-2.70996 -2e-5,-0.96678 -0.32716,-1.76756 -0.98145,-2.40234 -0.65431,-0.63475 -1.49903,-0.95213 -2.53418,-0.95215 -1.0254,2e-5 -1.87989,0.32229 -2.56347,0.9668 -0.6836,0.64455 -1.12306,1.61134 -1.31836,2.90039 l -2.63672,-0.46875 c 0.32226,-1.76756 1.05468,-3.13719 2.19726,-4.10889 1.14258,-0.97165 2.56347,-1.45749 4.2627,-1.45752 1.17186,3e-5 2.25096,0.25149 3.2373,0.7544 0.98632,0.50295 1.74071,1.18898 2.26318,2.0581 0.52245,0.86916 0.78368,1.79201 0.7837,2.76856 -2e-5,0.92775 -0.24904,1.77247 -0.74707,2.53418 -0.49806,0.76173 -1.23537,1.3672 -2.21192,1.8164 1.26952,0.29298 2.25585,0.90089 2.95899,1.82373 0.70311,0.92286 1.05467,2.07765 1.05468,3.46436 -1e-5,1.875 -0.68361,3.46435 -2.05078,4.76806 -1.3672,1.30371 -3.09571,1.95557 -5.18554,1.95557 -1.88477,0 -3.44971,-0.56152 -4.69483,-1.68457 -1.24512,-1.12305 -1.95556,-2.57812 -2.13134,-4.36523 z"
         id="path3380"
         style="font-size:29.99999237px;text-align:center;text-anchor:middle;fill:#000000" />
    </g>
    <path
       d="m 399.90449,689.44161 c 0,10.49341 -8.50659,19 -19,19 -10.49341,0 -19,-8.50659 -19,-19 0,-10.49341 8.50659,-19 19,-19 10.49341,0 19,8.50659 19,19 z"
       id="path3260-2"
       style="opacity:0.91538457;fill:none;stroke:#000000;stroke-width:2;stroke-linecap:butt;stroke-linejoin:miter;stroke-miterlimit:4;stroke-opacity:1;stroke-dashoffset:0" />
    <g
       transform="translate(58.063432,401.73849)"
       id="text6294-6-5"
       style="font-size:39.99998856px;font-style:normal;font-weight:normal;fill:#000000;fill-opacity:1;stroke:none;font-family:Bitstream Vera Sans">
      <path
         d="m 614.81689,249.30618 0,-5.1416 -9.3164,0 0,-2.41699 9.7998,-13.91601 2.15332,0 0,13.91601 2.90039,0 0,2.41699 -2.90039,0 0,5.1416 z m 0,-7.55859 0,-9.68261 -6.72363,9.68261 z"
         id="path3376"
         style="font-size:29.99999237px;text-align:center;text-anchor:middle;fill:#000000" />
    </g>
    <path
       d="m 690.88623,640.23667 c 0,10.49341 -8.50659,19 -19,19 -10.49341,0 -19,-8.50659 -19,-19 0,-10.49341 8.50659,-19 19,-19 10.49341,0 19,8.50659 19,19 z"
       id="path3260-1"
       style="opacity:0.91538457;fill:none;stroke:#000000;stroke-width:2;stroke-linecap:butt;stroke-linejoin:miter;stroke-miterlimit:4;stroke-opacity:1;stroke-dashoffset:0" />
  </g>
</svg>
