<?xml version="1.0" encoding="UTF-8" standalone="no"?>
<svg xmlns:dc="http://purl.org/dc/elements/1.1/" xmlns:cc="http://creativecommons.org/ns#" xmlns:rdf="http://www.w3.org/1999/02/22-rdf-syntax-ns#" xmlns:svg="http://www.w3.org/2000/svg" xmlns="http://www.w3.org/2000/svg" xmlns:sodipodi="http://sodipodi.sourceforge.net/DTD/sodipodi-0.dtd" xmlns:inkscape="http://www.inkscape.org/namespaces/inkscape" height="310" width="310" version="1.1" id="svg4" sodipodi:docname="States_of_Matter.svg" inkscape:version="1.0.1 (3bc2e813f5, 2020-09-07)">
  <title id="title875">States of Matter</title>
  <metadata id="metadata10">
    <rdf:RDF>
      <cc:Work rdf:about="">
        <dc:format>image/svg+xml</dc:format>
        <dc:type rdf:resource="http://purl.org/dc/dcmitype/StillImage"/>
        <dc:title>States of Matter</dc:title>
        <dc:date>2021-07-01</dc:date>
        <dc:publisher>
          <cc:Agent>
            <dc:title>Wikipedia Commons</dc:title>
          </cc:Agent>
        </dc:publisher>
        <dc:rights>
          <cc:Agent>
            <dc:title>CC BY-SA 4.0</dc:title>
          </cc:Agent>
        </dc:rights>
        <dc:creator>
          <cc:Agent>
            <dc:title>SiliconProphet</dc:title>
          </cc:Agent>
        </dc:creator>
        <dc:contributor>
          <cc:Agent>
            <dc:title>Daniel S Fowler</dc:title>
          </cc:Agent>
        </dc:contributor>
        <dc:description>Schematic of the states of matter and the operations required to achieve transitions between them.</dc:description>
        <dc:subject>
          <rdf:Bag>
            <rdf:li>states; matter; liquid; solid; gas; evaporation; condensation; freezing; melting; sublimation; deposition;</rdf:li>
          </rdf:Bag>
        </dc:subject>
        <dc:language>en</dc:language>
      </cc:Work>
    </rdf:RDF>
  </metadata>
  <defs id="defs8"/>
  <sodipodi:namedview pagecolor="#ffffff" bordercolor="#666666" borderopacity="1" objecttolerance="10" gridtolerance="10" guidetolerance="10" inkscape:pageopacity="0" inkscape:pageshadow="2" inkscape:window-width="1920" inkscape:window-height="1057" id="namedview6" showgrid="false" inkscape:zoom="2.8284271" inkscape:cx="201.2929" inkscape:cy="147.62564" inkscape:window-x="1912" inkscape:window-y="-8" inkscape:window-maximized="1" inkscape:current-layer="svg4" inkscape:document-rotation="0" fit-margin-left="5" fit-margin-top="5" fit-margin-right="5" fit-margin-bottom="5"/>
  <g id="g916">
    <circle cx="155" cy="155" r="144.57831" stroke="#000000" stroke-width="10.8434" fill="red" id="circle2" style="fill:none"/>
    <path style="fill:none;stroke:#000000;stroke-width:2;stroke-linecap:butt;stroke-linejoin:miter;stroke-opacity:1;stroke-miterlimit:4;stroke-dasharray:none" d="M 155,155 V 10.421687" id="path841" sodipodi:nodetypes="cc"/>
    <path style="fill:none;stroke:#000000;stroke-width:2;stroke-linecap:butt;stroke-linejoin:miter;stroke-opacity:1;stroke-miterlimit:4;stroke-dasharray:none" d="M 29.791494,227.28915 155,155" id="path841-0" sodipodi:nodetypes="cc"/>
    <path style="fill:none;stroke:#000000;stroke-width:2;stroke-linecap:butt;stroke-linejoin:miter;stroke-opacity:1;stroke-miterlimit:4;stroke-dasharray:none" d="M 280.2085,227.28915 155,155" id="path841-0-6" sodipodi:nodetypes="cc"/>
    <g id="g876" transform="matrix(0.2727356,0,0,0.2727356,114.22348,205.04867)">
      <g id="facesocultas" transform="translate(-54,-54)" style="fill:none;stroke:#c0c0c0;stroke-width:1;stroke-dasharray:12, 4">
        <line x1="60" y1="260" x2="200" y2="225" id="line7000"/>
        <line x1="340" y1="260" x2="200" y2="225" id="line7002"/>
        <line x1="200" y1="320" x2="200" y2="60" id="line7004"/>
      </g>
      <g id="faces" style="fill:none;stroke:#000000;stroke-width:3;stroke-linejoin:round">
        <polygon points="340,80 200,110 200,320 340,260 " id="polygon7007" style="fill:#0000dd;fill-opacity:0.185185" transform="translate(-54,-54)"/>
        <polygon points="60,80 200,110 200,320 60,260 " id="polygon7009" style="fill:#0000d5;fill-opacity:0.185185" transform="translate(-54,-54)"/>
        <polygon points="200,60 340,80 200,110 60,80 " id="polygon7011" style="fill:#0000d5;fill-opacity:0.185185" transform="translate(-54,-54)"/>
      </g>
    </g>
    <path d="M 75.546267,84.715845 C 69.685218,105.5966 53.672949,117.92572 53.672949,129.45915 c 0,11.53342 9.794389,20.88075 21.873318,20.88075 12.083028,0 21.873319,-9.34733 21.873319,-20.88075 0,-11.53343 -16.01227,-23.86255 -21.873319,-44.743305" fill="#4d4d4d" color="#000000" id="path2" style="fill:#4d4d4d;stroke-width:4.10151"/>
    <path d="m 248.31445,81.956354 c 8.7553,0 15.85424,7.104322 15.85424,15.869113 0,0.424576 -0.0325,0.839696 -0.0636,1.257516 -3.66575,0.27991 -6.99615,1.740247 -9.61258,4.014607 1.94848,-1.1196 4.19848,-1.7727 6.60806,-1.7727 0.88973,0 1.75919,0.0919 2.60158,0.26096 1.43869,0.28262 2.78953,0.8059 4.02,1.51579 3.98081,2.2987 6.66892,6.5905 6.66892,11.52323 0,6.31465 -4.40537,11.59895 -10.3076,12.95383 -0.9587,0.22446 -1.9539,0.35158 -2.98424,0.35158 H 214.8873 c -1.18587,0 -2.32167,-0.19609 -3.38855,-0.55169 -4.30938,-1.42384 -7.42074,-5.48036 -7.42074,-10.26571 0,-3.25603 1.43874,-6.16727 3.71039,-8.14685 1.02762,-0.90055 2.2243,-1.60368 3.53862,-2.06207 1.11691,-0.38807 2.31087,-0.61253 3.56028,-0.61253 3.48589,0 6.57564,1.65912 8.55387,4.22284 l 0.0972,-0.003 c -2.29464,-4.22554 -6.58645,-7.20708 -11.60707,-7.68575 1.86737,-6.517472 7.86155,-11.300117 14.97668,-11.300117 0.76128,0 1.49957,0.07167 2.22839,0.177145 1.44412,0.208228 2.82603,0.60442 4.11199,1.177742 4.79613,2.141848 8.29829,6.628353 9.07713,12.00324 0,-0.0285 0.003,-0.0635 0.003,-0.0919 0,-6.121287 -3.13706,-11.509699 -7.88859,-14.649445 2.70571,-4.879998 7.90345,-8.186063 13.87467,-8.186063 m 0,-5.4087 c -7.29636,0 -14.05991,3.750932 -17.95012,9.870874 -0.15,-0.02566 -0.30144,-0.04731 -0.45162,-0.0703 -1.07906,-0.155494 -2.06209,-0.23259 -3.00318,-0.23259 -9.31244,0 -17.60939,6.259214 -20.17717,15.220064 l -0.60983,2.12967 c -0.66391,0.42729 -1.29806,0.90596 -1.89846,1.43331 -3.52645,3.07349 -5.5547,7.53026 -5.5547,12.21419 0,7.01373 4.47434,13.20263 11.13379,15.40127 1.6307,0.54492 3.34797,0.82482 5.08417,0.82482 h 46.21193 c 1.39948,0 2.8179,-0.1663 4.21742,-0.49354 8.51733,-1.9566 14.48314,-9.45035 14.48314,-18.22055 0,-6.66081 -3.59274,-12.87135 -9.37732,-16.207157 -0.27976,-0.16092 -0.56118,-0.313696 -0.84647,-0.461086 0,-0.0419 0,-0.0865 0,-0.13117 0,-11.731468 -9.53689,-21.277819 -21.26158,-21.277819 z" id="path2-3" style="stroke-width:1.35218"/>
    <path id="rect3763-2" d="m 163.27208,39.558486 -2.55578,2.555819 8.46636,8.466361 -36.50487,0.05024 1.5e-4,3.513832 36.50457,-0.0506 -8.46621,8.466542 2.55582,2.55582 10.22338,-10.223603 2.55575,-2.555349 z" style="fill:#000000;fill-opacity:1;stroke-width:3.61446"/>
    <path id="rect3763-2-2" d="m 146.19335,68.702656 2.55579,2.555819 -8.46637,8.466361 36.50487,0.05024 -1.4e-4,3.513832 -36.50458,-0.0506 8.46622,8.466542 -2.55582,2.55582 -10.22339,-10.223603 -2.55575,-2.555349 z" style="fill:#000000;fill-opacity:1;stroke-width:3.61446"/>
    <path id="rect3763-6" d="m 191.72258,166.12167 0.93549,3.49129 11.56526,-3.09891 -18.20892,31.63925 3.04316,1.75684 18.20848,-31.63923 3.09911,11.56521 3.49131,-0.93549 -3.74223,-13.96551 -0.93506,-3.491 z" style="fill:#000000;fill-opacity:1;stroke-width:3.61446"/>
    <path id="rect3763-6-3" d="m 234.17841,209.63979 -0.93549,-3.49128 -11.56526,3.09893 18.20892,-31.63926 -3.04316,-1.75685 -18.20848,31.63923 -3.09911,-11.56522 -3.49131,0.9355 3.74223,13.9655 0.93506,3.49103 z" style="fill:#000000;fill-opacity:1;stroke-width:3.61446"/>
    <path id="rect3763-6-9" d="m 90.238911,179.73254 -0.93549,3.49128 -11.565259,-3.09891 18.208917,31.63925 -3.043158,1.75684 -18.208479,-31.63923 -3.099108,11.56521 -3.491314,-0.93548 3.742229,-13.96551 0.93506,-3.49101 z" style="fill:#000000;fill-opacity:1;stroke-width:3.61446"/>
    <path id="rect3763-6-3-0" d="m 105.17036,193.61828 0.9355,-3.49128 11.56525,3.09893 -18.208921,-31.63927 3.043161,-1.75684 18.20848,31.63923 3.09911,-11.56522 3.49132,0.93549 -3.74223,13.96551 -0.93506,3.49102 z" style="fill:#000000;fill-opacity:1;stroke-width:3.61446"/>
    <switch style="font-size:13.3333px;line-height:1.25;font-family:sans-serif;text-align:center;letter-spacing:0px;text-anchor:middle;fill:#333333;stroke-width:3.61446"><text xml:space="preserve" style="font-size:13.3333px;line-height:1.25;font-family:sans-serif;text-align:center;letter-spacing:0px;text-anchor:middle;fill:#333333;stroke-width:3.61446" x="154.82915" y="36.840298" id="text1106-lij" systemLanguage="lij"><tspan sodipodi:role="line" id="tspan1104-lij" x="154.82915" y="36.840298" style="font-size:13.3333px;fill:#333333;stroke-width:3.61446">Evaporaçión</tspan></text><text xml:space="preserve" style="font-size:13.3333px;line-height:1.25;font-family:sans-serif;text-align:center;letter-spacing:0px;text-anchor:middle;fill:#333333;stroke-width:3.61446" x="154.82915" y="36.840298" id="text1106"><tspan sodipodi:role="line" id="tspan1104" x="154.82915" y="36.840298" style="font-size:13.3333px;fill:#333333;stroke-width:3.61446">Evaporation</tspan></text></switch>
    <switch style="font-size:13.3333px;line-height:1.25;font-family:sans-serif;text-align:center;letter-spacing:0px;text-anchor:middle;fill:#333333;stroke-width:2.3782"><text xml:space="preserve" style="font-size:13.3333px;line-height:1.25;font-family:sans-serif;text-align:center;letter-spacing:0px;text-anchor:middle;fill:#333333;stroke-width:2.3782" x="154.269" y="105.31541" id="text1106-9-lij" systemLanguage="lij"><tspan sodipodi:role="line" id="tspan1104-0-lij" x="154.269" y="105.31541" style="font-size:13.3333px;fill:#333333;stroke-width:2.3782">Condensaçión</tspan></text><text xml:space="preserve" style="font-size:13.3333px;line-height:1.25;font-family:sans-serif;text-align:center;letter-spacing:0px;text-anchor:middle;fill:#333333;stroke-width:2.3782" x="154.269" y="105.31541" id="text1106-9"><tspan sodipodi:role="line" id="tspan1104-0" x="154.269" y="105.31541" style="font-size:13.3333px;fill:#333333;stroke-width:2.3782">Condensation</tspan></text></switch>
    <switch style="font-size:13.3333px;line-height:1.25;font-family:sans-serif;text-align:center;letter-spacing:0px;text-anchor:middle;fill:#333333;stroke-width:3.61446"><text xml:space="preserve" style="font-size:13.3333px;line-height:1.25;font-family:sans-serif;text-align:center;letter-spacing:0px;text-anchor:middle;fill:#333333;stroke-width:3.61446" x="-54.43787" y="248.52893" id="text1106-0-lij" transform="rotate(-60)" systemLanguage="lij"><tspan sodipodi:role="line" id="tspan1104-6-lij" x="-54.43787" y="248.52893" style="font-size:13.3333px;fill:#333333;stroke-width:3.61446">Sublimaçión</tspan></text><text xml:space="preserve" style="font-size:13.3333px;line-height:1.25;font-family:sans-serif;text-align:center;letter-spacing:0px;text-anchor:middle;fill:#333333;stroke-width:3.61446" x="-54.43787" y="248.52893" id="text1106-0" transform="rotate(-60)"><tspan sodipodi:role="line" id="tspan1104-6" x="-54.43787" y="248.52893" style="font-size:13.3333px;fill:#333333;stroke-width:3.61446">Sublimation</tspan></text></switch>
    <switch style="font-size:13.3333px;line-height:1.25;font-family:sans-serif;text-align:center;letter-spacing:0px;text-anchor:middle;fill:#333333;stroke-width:2.3782"><text xml:space="preserve" style="font-size:13.3333px;line-height:1.25;font-family:sans-serif;text-align:center;letter-spacing:0px;text-anchor:middle;fill:#333333;stroke-width:2.3782" x="-55.815079" y="317.35345" id="text1106-9-4-lij" transform="rotate(-60)" systemLanguage="lij"><tspan sodipodi:role="line" id="tspan1104-0-1-lij" x="-55.815079" y="317.35345" style="font-size:13.3333px;fill:#333333;stroke-width:2.3782">Depoxiçión</tspan></text><text xml:space="preserve" style="font-size:13.3333px;line-height:1.25;font-family:sans-serif;text-align:center;letter-spacing:0px;text-anchor:middle;fill:#333333;stroke-width:2.3782" x="-55.815079" y="317.35345" id="text1106-9-4" transform="rotate(-60)"><tspan sodipodi:role="line" id="tspan1104-0-1" x="-55.815079" y="317.35345" style="font-size:13.3333px;fill:#333333;stroke-width:2.3782">Deposition</tspan></text></switch>
    <switch style="font-size:13.3333px;line-height:1.25;font-family:sans-serif;text-align:center;letter-spacing:0px;text-anchor:middle;fill:#333333;stroke-width:3.61446"><text xml:space="preserve" style="font-size:13.3333px;line-height:1.25;font-family:sans-serif;text-align:center;letter-spacing:0px;text-anchor:middle;fill:#333333;stroke-width:3.61446" x="212.36382" y="-21.34761" id="text1106-08-lij" transform="rotate(60)" systemLanguage="lij"><tspan sodipodi:role="line" id="tspan1104-4-lij" x="212.36382" y="-21.34761" style="font-size:13.3333px;fill:#333333;stroke-width:3.61446">Solidificaçión</tspan></text><text xml:space="preserve" style="font-size:13.3333px;line-height:1.25;font-family:sans-serif;text-align:center;letter-spacing:0px;text-anchor:middle;fill:#333333;stroke-width:3.61446" x="212.36382" y="-21.34761" id="text1106-08" transform="rotate(60)"><tspan sodipodi:role="line" id="tspan1104-4" x="212.36382" y="-21.34761" style="font-size:13.3333px;fill:#333333;stroke-width:3.61446">Freezing</tspan></text></switch>
    <switch style="font-size:13.3333px;line-height:1.25;font-family:sans-serif;text-align:center;letter-spacing:0px;text-anchor:middle;fill:#333333;stroke-width:2.3782"><text xml:space="preserve" style="font-size:13.3333px;line-height:1.25;font-family:sans-serif;text-align:center;letter-spacing:0px;text-anchor:middle;fill:#333333;stroke-width:2.3782" x="213.47391" y="50.761806" id="text1106-9-8-lij" transform="rotate(60)" systemLanguage="lij"><tspan sodipodi:role="line" id="tspan1104-0-6-lij" x="213.47391" y="50.761806" style="font-size:13.3333px;fill:#333333;stroke-width:2.3782">Fuxón</tspan></text><text xml:space="preserve" style="font-size:13.3333px;line-height:1.25;font-family:sans-serif;text-align:center;letter-spacing:0px;text-anchor:middle;fill:#333333;stroke-width:2.3782" x="213.47391" y="50.761806" id="text1106-9-8" transform="rotate(60)"><tspan sodipodi:role="line" id="tspan1104-0-6" x="213.47391" y="50.761806" style="font-size:13.3333px;fill:#333333;stroke-width:2.3782">Melting</tspan></text></switch>
    <switch style="font-size:29.3333px;line-height:1.25;font-family:sans-serif;text-align:center;letter-spacing:0px;text-anchor:middle;stroke-width:5.74735"><text xml:space="preserve" style="font-size:29.3333px;line-height:1.25;font-family:sans-serif;text-align:center;letter-spacing:0px;text-anchor:middle;stroke-width:5.74735" x="152.74052" y="249.53917" id="text1198-lij" systemLanguage="lij"><tspan sodipodi:role="line" id="tspan1196-lij" x="152.74052" y="249.53917" style="font-size:29.3333px;stroke-width:5.74735">Sòlido</tspan></text><text xml:space="preserve" style="font-size:29.3333px;line-height:1.25;font-family:sans-serif;text-align:center;letter-spacing:0px;text-anchor:middle;stroke-width:5.74735" x="152.74052" y="249.53917" id="text1198"><tspan sodipodi:role="line" id="tspan1196" x="152.74052" y="249.53917" style="font-size:29.3333px;stroke-width:5.74735">Solid</tspan></text></switch>
    <switch style="font-size:29.3333px;line-height:1.25;font-family:sans-serif;text-align:center;letter-spacing:0px;text-anchor:middle;stroke-width:5.74735"><text xml:space="preserve" style="font-size:29.3333px;line-height:1.25;font-family:sans-serif;text-align:center;letter-spacing:0px;text-anchor:middle;stroke-width:5.74735" x="242.18094" y="124.17197" id="text1198-1-lij" systemLanguage="lij"><tspan sodipodi:role="line" id="tspan1196-2-lij" x="242.18094" y="124.17197" style="font-size:29.3333px;stroke-width:5.74735">Gàzzo</tspan></text><text xml:space="preserve" style="font-size:29.3333px;line-height:1.25;font-family:sans-serif;text-align:center;letter-spacing:0px;text-anchor:middle;stroke-width:5.74735" x="242.18094" y="124.17197" id="text1198-1"><tspan sodipodi:role="line" id="tspan1196-2" x="242.18094" y="124.17197" style="font-size:29.3333px;stroke-width:5.74735">Gas</tspan></text></switch>
    <switch style="font-size:29.3333px;line-height:1.25;font-family:sans-serif;text-align:center;letter-spacing:0px;text-anchor:middle;stroke-width:5.74735"><text xml:space="preserve" style="font-size:29.3333px;line-height:1.25;font-family:sans-serif;text-align:center;letter-spacing:0px;text-anchor:middle;stroke-width:5.74735" x="72.328049" y="135.38553" id="text1198-4-lij" systemLanguage="lij"><tspan sodipodi:role="line" id="tspan1196-0-lij" x="72.328049" y="135.38553" style="font-size:29.3333px;stroke-width:5.74735">Lìquido</tspan></text><text xml:space="preserve" style="font-size:29.3333px;line-height:1.25;font-family:sans-serif;text-align:center;letter-spacing:0px;text-anchor:middle;stroke-width:5.74735" x="72.328049" y="135.38553" id="text1198-4"><tspan sodipodi:role="line" id="tspan1196-0" x="72.328049" y="135.38553" style="font-size:29.3333px;stroke-width:5.74735">Liquid</tspan></text></switch>
  </g>
</svg>
