<?xml version="1.0" encoding="UTF-8" standalone="no"?>
<!-- Created with Inkscape (http://www.inkscape.org/) -->

<svg
   xmlns:dc="http://purl.org/dc/elements/1.1/"
   xmlns:cc="http://creativecommons.org/ns#"
   xmlns:rdf="http://www.w3.org/1999/02/22-rdf-syntax-ns#"
   xmlns:svg="http://www.w3.org/2000/svg"
   xmlns="http://www.w3.org/2000/svg"
   version="1.1"
   width="671.70911"
   height="468.17014"
   id="svg2">
  <defs
     id="defs4">
    <marker
       refX="0"
       refY="0"
       orient="auto"
       id="TriangleOutM"
       style="overflow:visible">
      <path
         d="m 5.77,0 -8.65,5 0,-10 8.65,5 z"
         transform="scale(0.4,0.4)"
         id="path4319"
         style="fill-rule:evenodd;stroke:#000000;stroke-width:1pt;marker-start:none" />
    </marker>
    <marker
       refX="0"
       refY="0"
       orient="auto"
       id="Arrow2Lend"
       style="overflow:visible">
      <path
         d="M 8.7185878,4.0337352 -2.2072895,0.01601326 8.7185884,-4.0017078 c -1.7454984,2.3720609 -1.7354408,5.6174519 -6e-7,8.035443 z"
         transform="matrix(-1.1,0,0,-1.1,-1.1,0)"
         id="path4194"
         style="font-size:12px;fill-rule:evenodd;stroke-width:0.625;stroke-linejoin:round" />
    </marker>
    <marker
       refX="0"
       refY="0"
       orient="auto"
       id="Arrow1Lend"
       style="overflow:visible">
      <path
         d="M 0,0 5,-5 -12.5,0 5,5 0,0 z"
         transform="matrix(-0.8,0,0,-0.8,-10,0)"
         id="path4176"
         style="fill-rule:evenodd;stroke:#000000;stroke-width:1pt;marker-start:none" />
    </marker>
  </defs>
  <metadata
     id="metadata7">
    <rdf:RDF>
      <cc:Work
         rdf:about="">
        <dc:format>image/svg+xml</dc:format>
        <dc:type
           rdf:resource="http://purl.org/dc/dcmitype/StillImage" />
        <dc:title></dc:title>
      </cc:Work>
    </rdf:RDF>
  </metadata>
  <g
     transform="translate(-27.029612,-172.65927)"
     id="layer1">
    <path
       d="m 463,525.36218 155,0"
       id="path5204"
       style="fill:none;stroke:#000000;stroke-width:4.97995996;stroke-linecap:butt;stroke-linejoin:miter;stroke-miterlimit:4;stroke-opacity:1;stroke-dasharray:none;marker-start:none;marker-mid:none;marker-end:url(#TriangleOutM)" />
    <path
       d="m 521,287.36218 155,0"
       id="path5198"
       style="fill:none;stroke:#000000;stroke-width:4.97995996;stroke-linecap:butt;stroke-linejoin:miter;stroke-miterlimit:4;stroke-opacity:1;stroke-dasharray:none;marker-start:none;marker-mid:none;marker-end:url(#TriangleOutM)" />
    <path
       d="m 153,287.36218 155,0"
       id="path5180"
       style="fill:none;stroke:#000000;stroke-width:4.97995996;stroke-linecap:butt;stroke-linejoin:miter;stroke-miterlimit:4;stroke-opacity:1;stroke-dasharray:none;marker-start:none;marker-mid:none;marker-end:url(#TriangleOutM)" />
    <path
       d="m 367.14285,444.50504 c 0,52.46705 -42.53295,95 -95,95 -52.46705,0 -95,-42.53295 -95,-95 0,-52.46706 42.53295,-95 95,-95 52.46705,0 95,42.53294 95,95 z"
       transform="matrix(1.088233,0,0,1.088233,208.84517,-195.98071)"
       id="path2985"
       style="fill:#ffcb00;fill-opacity:1;stroke:#a9a9a9;stroke-width:3.1297276;stroke-miterlimit:0;stroke-opacity:1" />
    <g
       id="text3757"
       style="font-size:40px;font-style:normal;font-variant:normal;font-weight:normal;font-stretch:normal;line-height:125%;letter-spacing:0px;word-spacing:0px;fill:#000000;fill-opacity:1;stroke:none;font-family:Serif;-inkscape-font-specification:Serif">
      <path
         d="m 499.85867,280.6864 -2.53906,8.8086 c 1.13281,-2.07031 2.09635,-3.62629 2.89063,-4.66797 1.23696,-1.61457 2.44139,-2.78645 3.61328,-3.51563 0.69009,-0.41665 1.41274,-0.62498 2.16797,-0.625 0.65102,2e-5 1.19139,0.20835 1.62109,0.625 0.42967,0.41668 0.64451,0.95054 0.64453,1.60156 -2e-5,0.63804 -0.14976,1.47137 -0.44922,2.5 l -1.38672,4.96094 c 2.12238,-3.97134 4.1341,-6.7578 6.03516,-8.35937 1.05466,-0.8854 2.09633,-1.32811 3.125,-1.32813 0.59893,2e-5 1.09047,0.2051 1.47461,0.61524 0.38409,0.41017 0.57614,1.04493 0.57617,1.90429 -3e-5,0.75523 -0.11721,1.55601 -0.35156,2.40235 l -2.14844,7.59765 c -0.46877,1.65365 -0.70315,2.57162 -0.70312,2.75391 -3e-5,0.18229 0.0586,0.33854 0.17578,0.46875 0.0781,0.0912 0.18226,0.13672 0.3125,0.13672 0.13018,0 0.35805,-0.1237 0.68359,-0.3711 0.74216,-0.57291 1.43878,-1.32812 2.08984,-2.26562 l 0.64454,0.41016 c -0.32555,0.52083 -0.90172,1.23698 -1.72852,2.14843 -0.82685,0.91146 -1.53323,1.52995 -2.11914,1.85547 -0.58596,0.32552 -1.12632,0.48828 -1.62109,0.48828 -0.45575,0 -0.83661,-0.15625 -1.14258,-0.46875 -0.30601,-0.3125 -0.45901,-0.69661 -0.45899,-1.15234 -2e-5,-0.625 0.26691,-1.88151 0.80078,-3.76953 l 1.77735,-6.26953 c 0.40362,-1.4453 0.61846,-2.24608 0.64453,-2.40235 0.039,-0.24738 0.0586,-0.48826 0.0586,-0.72265 -2e-5,-0.32551 -0.0716,-0.57942 -0.21484,-0.76172 -0.15627,-0.18228 -0.33205,-0.27342 -0.52734,-0.27344 -0.5469,2e-5 -1.12633,0.27996 -1.73829,0.83984 -1.79689,1.65366 -3.47658,3.97137 -5.03906,6.95313 -1.02866,1.96615 -1.9922,4.48568 -2.89062,7.55859 l -2.94922,0 3.33984,-11.8164 c 0.36457,-1.27603 0.54686,-2.1289 0.54688,-2.5586 -2e-5,-0.35155 -0.0716,-0.61196 -0.21485,-0.78125 -0.14324,-0.16925 -0.31902,-0.25389 -0.52734,-0.2539 -0.4297,1e-5 -0.88543,0.15626 -1.36719,0.46875 -0.78126,0.50782 -1.78712,1.59506 -3.01758,3.26172 -1.23047,1.66667 -2.18425,3.26172 -2.86132,4.78515 -0.32553,0.71615 -1.10027,3.01433 -2.32422,6.89453 l -2.89063,0 3.61328,-12.65625 0.46875,-1.64062 c 0.0911,-0.24738 0.13672,-0.42968 0.13672,-0.54688 0,-0.28644 -0.13021,-0.5436 -0.39062,-0.77148 -0.26042,-0.22785 -0.59245,-0.34178 -0.9961,-0.3418 -0.16927,2e-5 -0.63802,0.0781 -1.40625,0.23438 l -0.17578,-0.72266 z"
         id="path5306"
         style="font-style:italic;-inkscape-font-specification:Serif Italic" />
    </g>
    <path
       d="m 367.14285,444.50504 c 0,52.46705 -42.53295,95 -95,95 -52.46705,0 -95,-42.53295 -95,-95 0,-52.46706 42.53295,-95 95,-95 52.46705,0 95,42.53294 95,95 z"
       transform="matrix(0.34504906,0,0,0.34504906,88.317704,133.98614)"
       id="path3755"
       style="fill:#ffcb00;fill-opacity:1;stroke:#a9a9a9;stroke-width:10.14348316;stroke-miterlimit:0;stroke-opacity:1" />
    <g
       id="text3761"
       style="font-size:40px;font-style:normal;font-variant:normal;font-weight:normal;font-stretch:normal;line-height:125%;letter-spacing:0px;word-spacing:0px;fill:#000000;fill-opacity:1;stroke:none;font-family:Serif;-inkscape-font-specification:Serif">
      <path
         d="m 171.63788,297.35046 c -0.87241,0.91146 -1.72527,1.56576 -2.5586,1.96289 -0.83334,0.39714 -1.73178,0.59571 -2.69531,0.59571 -1.95313,0 -3.65886,-0.81706 -5.11719,-2.45117 -1.45833,-1.63412 -2.1875,-3.73372 -2.1875,-6.29883 0,-2.5651 0.80729,-4.9121 2.42188,-7.04102 1.61458,-2.12889 3.6914,-3.19334 6.23047,-3.19336 1.57551,2e-5 2.87759,0.50132 3.90625,1.50391 l 0,-3.30078 c -2e-5,-2.04425 -0.0488,-3.30076 -0.14649,-3.76953 -0.0977,-0.46873 -0.25066,-0.78774 -0.45898,-0.95703 -0.20835,-0.16925 -0.46876,-0.25389 -0.78125,-0.25391 -0.33855,2e-5 -0.78777,0.10419 -1.34766,0.3125 l -0.2539,-0.68359 5.33203,-2.1875 0.8789,0 0,20.68359 c -1e-5,2.09636 0.0488,3.37565 0.14649,3.83789 0.0976,0.46224 0.25389,0.78451 0.46875,0.9668 0.21482,0.18229 0.46548,0.27344 0.75195,0.27343 0.35155,10e-6 0.8203,-0.11067 1.40625,-0.33203 l 0.21485,0.6836 -5.3125,2.20703 -0.89844,0 z m 0,-1.36718 0,-9.21875 c -0.0781,-0.88541 -0.31252,-1.6927 -0.70313,-2.42188 -0.39063,-0.72915 -0.90821,-1.27928 -1.55273,-1.65039 -0.64454,-0.37108 -1.2728,-0.55662 -1.88477,-0.55664 -1.14584,2e-5 -2.16797,0.51434 -3.0664,1.54297 -1.1849,1.35418 -1.77735,3.33334 -1.77735,5.9375 0,2.63021 0.57291,4.64519 1.71875,6.04492 1.14583,1.39974 2.42187,2.09961 3.82813,2.09961 1.18488,0 2.33071,-0.59245 3.4375,-1.77734 z"
         id="path5300"
         style="-inkscape-font-specification:Serif" />
      <path
         d="m 186.42303,281.6864 -2.53906,8.8086 c 1.13281,-2.07031 2.09635,-3.62629 2.89063,-4.66797 1.23697,-1.61457 2.44139,-2.78645 3.61328,-3.51563 0.69009,-0.41665 1.41274,-0.62498 2.16797,-0.625 0.65102,2e-5 1.19139,0.20835 1.62109,0.625 0.42967,0.41668 0.64452,0.95054 0.64453,1.60156 -1e-5,0.63804 -0.14975,1.47137 -0.44922,2.5 l -1.38672,4.96094 c 2.12238,-3.97134 4.1341,-6.7578 6.03516,-8.35937 1.05467,-0.8854 2.09633,-1.32811 3.125,-1.32813 0.59893,2e-5 1.09047,0.2051 1.47461,0.61524 0.38409,0.41017 0.57615,1.04493 0.57617,1.90429 -2e-5,0.75523 -0.11721,1.55601 -0.35156,2.40235 l -2.14844,7.59765 c -0.46877,1.65365 -0.70315,2.57162 -0.70312,2.75391 -3e-5,0.18229 0.0586,0.33854 0.17578,0.46875 0.0781,0.0912 0.18227,0.13672 0.3125,0.13672 0.13018,0 0.35805,-0.1237 0.68359,-0.3711 0.74216,-0.57291 1.43878,-1.32812 2.08985,-2.26562 l 0.64453,0.41016 c -0.32555,0.52083 -0.90172,1.23698 -1.72852,2.14843 -0.82685,0.91146 -1.53323,1.52995 -2.11914,1.85547 -0.58596,0.32552 -1.12632,0.48828 -1.62109,0.48828 -0.45575,0 -0.83661,-0.15625 -1.14258,-0.46875 -0.30601,-0.3125 -0.45901,-0.69661 -0.45899,-1.15234 -2e-5,-0.625 0.26691,-1.88151 0.80079,-3.76953 l 1.77734,-6.26953 c 0.40362,-1.4453 0.61847,-2.24608 0.64453,-2.40235 0.039,-0.24738 0.0586,-0.48826 0.0586,-0.72265 -2e-5,-0.32551 -0.0716,-0.57942 -0.21484,-0.76172 -0.15627,-0.18228 -0.33205,-0.27342 -0.52734,-0.27344 -0.5469,2e-5 -1.12633,0.27996 -1.73828,0.83984 -1.7969,1.65366 -3.47658,3.97137 -5.03907,6.95313 -1.02866,1.96615 -1.9922,4.48568 -2.89062,7.55859 l -2.94922,0 3.33984,-11.8164 c 0.36457,-1.27603 0.54686,-2.1289 0.54688,-2.5586 -2e-5,-0.35155 -0.0716,-0.61196 -0.21485,-0.78125 -0.14324,-0.16925 -0.31902,-0.25389 -0.52734,-0.2539 -0.4297,1e-5 -0.88543,0.15626 -1.36719,0.46875 -0.78126,0.50782 -1.78712,1.59506 -3.01757,3.26172 -1.23048,1.66667 -2.18426,3.26172 -2.86133,4.78515 -0.32553,0.71615 -1.10027,3.01433 -2.32422,6.89453 l -2.89063,0 3.61328,-12.65625 0.46875,-1.64062 c 0.0911,-0.24738 0.13672,-0.42968 0.13672,-0.54688 0,-0.28644 -0.13021,-0.5436 -0.39062,-0.77148 -0.26042,-0.22785 -0.59245,-0.34178 -0.9961,-0.3418 -0.16927,2e-5 -0.63802,0.0781 -1.40625,0.23438 l -0.17578,-0.72266 z"
         id="path5302"
         style="font-style:italic;-inkscape-font-specification:Serif Italic" />
    </g>
    <path
       d="m 367.14285,444.50504 c 0,52.46705 -42.53295,95 -95,95 -52.46705,0 -95,-42.53295 -95,-95 0,-52.46706 42.53295,-95 95,-95 52.46705,0 95,42.53294 95,95 z"
       transform="matrix(1.088233,0,0,1.088233,62.84517,42.019269)"
       id="path3788"
       style="fill:#ffcb00;fill-opacity:1;stroke:#a9a9a9;stroke-width:3.1297276;stroke-miterlimit:0;stroke-opacity:1" />
    <g
       id="text3790"
       style="font-size:40px;font-style:normal;font-variant:normal;font-weight:normal;font-stretch:normal;line-height:125%;letter-spacing:0px;word-spacing:0px;fill:#000000;fill-opacity:1;stroke:none;font-family:Serif;-inkscape-font-specification:Serif">
      <path
         d="m 320.67187,518.6864 -2.53906,8.8086 c 1.13281,-2.07031 2.09635,-3.62629 2.89063,-4.66797 1.23697,-1.61457 2.44139,-2.78645 3.61328,-3.51563 0.69009,-0.41665 1.41275,-0.62498 2.16797,-0.625 0.65102,2e-5 1.19139,0.20835 1.62109,0.625 0.42967,0.41668 0.64452,0.95054 0.64453,1.60156 -1e-5,0.63804 -0.14975,1.47137 -0.44922,2.5 l -1.38672,4.96094 c 2.12238,-3.97134 4.1341,-6.7578 6.03516,-8.35937 1.05467,-0.8854 2.09633,-1.32811 3.125,-1.32813 0.59893,2e-5 1.09047,0.2051 1.47461,0.61524 0.38409,0.41017 0.57615,1.04493 0.57617,1.90429 -2e-5,0.75523 -0.11721,1.55601 -0.35156,2.40235 l -2.14844,7.59765 c -0.46877,1.65365 -0.70315,2.57162 -0.70312,2.75391 -3e-5,0.18229 0.0586,0.33854 0.17578,0.46875 0.0781,0.0911 0.18227,0.13672 0.3125,0.13672 0.13018,0 0.35805,-0.1237 0.68359,-0.3711 0.74216,-0.57291 1.43878,-1.32812 2.08985,-2.26562 l 0.64453,0.41016 c -0.32555,0.52083 -0.90172,1.23698 -1.72852,2.14843 -0.82685,0.91146 -1.53323,1.52995 -2.11914,1.85547 -0.58596,0.32552 -1.12632,0.48828 -1.62109,0.48828 -0.45575,0 -0.83661,-0.15625 -1.14258,-0.46875 -0.30601,-0.3125 -0.45901,-0.69661 -0.45899,-1.15234 -2e-5,-0.625 0.26691,-1.88151 0.80079,-3.76953 l 1.77734,-6.26953 c 0.40362,-1.4453 0.61847,-2.24608 0.64453,-2.40235 0.039,-0.24738 0.0586,-0.48826 0.0586,-0.72265 -2e-5,-0.32551 -0.0716,-0.57942 -0.21484,-0.76172 -0.15627,-0.18228 -0.33205,-0.27342 -0.52734,-0.27344 -0.5469,2e-5 -1.12633,0.27996 -1.73828,0.83984 -1.7969,1.65366 -3.47658,3.97137 -5.03907,6.95313 -1.02866,1.96615 -1.9922,4.48568 -2.89062,7.55859 l -2.94922,0 3.33984,-11.8164 c 0.36457,-1.27603 0.54686,-2.1289 0.54688,-2.5586 -2e-5,-0.35155 -0.0716,-0.61196 -0.21485,-0.78125 -0.14324,-0.16925 -0.31902,-0.25389 -0.52734,-0.2539 -0.4297,10e-6 -0.88543,0.15626 -1.36719,0.46875 -0.78126,0.50782 -1.78712,1.59506 -3.01757,3.26172 -1.23048,1.66667 -2.18426,3.26172 -2.86133,4.78515 -0.32553,0.71615 -1.10027,3.01433 -2.32422,6.89453 l -2.89063,0 3.61328,-12.65625 0.46875,-1.64062 c 0.0911,-0.24738 0.13672,-0.42968 0.13672,-0.54688 0,-0.28644 -0.13021,-0.5436 -0.39062,-0.77148 -0.26042,-0.22785 -0.59245,-0.34178 -0.9961,-0.3418 -0.16927,2e-5 -0.63802,0.0781 -1.40625,0.23438 l -0.17578,-0.72266 z"
         id="path5290"
         style="font-style:italic;-inkscape-font-specification:Serif Italic" />
      <path
         d="m 354.32422,533.60828 0,-9.7461 -9.70703,0 0,-1.60156 9.70703,0 0,-9.70703 1.60156,0 0,9.70703 9.74609,0 0,1.60156 -9.74609,0 0,9.7461 z"
         id="path5292"
         style="font-style:italic;-inkscape-font-specification:Serif Italic" />
      <path
         d="m 389.57812,508.58875 -6.71875,23.04687 c -0.36459,1.25 -0.54688,2.07032 -0.54687,2.46094 -10e-6,0.13021 0.0553,0.25391 0.16602,0.37109 0.11066,0.11719 0.22459,0.17578 0.34179,0.17578 0.16926,0 0.37108,-0.0846 0.60547,-0.2539 0.44269,-0.3125 1.18488,-1.09375 2.22656,-2.34375 l 0.66407,0.41015 c -0.93752,1.30209 -1.88479,2.35678 -2.8418,3.16407 -0.95705,0.80729 -1.85223,1.21093 -2.68555,1.21093 -0.44272,0 -0.8073,-0.15625 -1.09375,-0.46875 -0.28647,-0.3125 -0.4297,-0.7552 -0.42969,-1.32812 -1e-5,-0.74219 0.19531,-1.73828 0.58594,-2.98828 l 0.76172,-2.42188 c -1.88803,2.91667 -3.60678,4.9349 -5.15625,6.05469 -1.06771,0.76823 -2.08985,1.15234 -3.06641,1.15234 -0.98958,0 -1.85221,-0.43945 -2.58789,-1.31836 -0.73567,-0.8789 -1.10351,-2.07356 -1.10351,-3.58398 0,-1.9401 0.61849,-4.01041 1.85547,-6.21094 1.23697,-2.20051 2.87109,-3.99087 4.90234,-5.37109 1.60155,-1.10676 3.07291,-1.66014 4.41406,-1.66016 0.70312,2e-5 1.30858,0.14325 1.81641,0.42969 0.5078,0.28647 1.0091,0.76173 1.50391,1.42578 l 1.91406,-6.79687 c 0.14321,-0.48175 0.2604,-0.86587 0.35156,-1.15235 0.15623,-0.52081 0.23436,-0.95049 0.23438,-1.28906 -2e-5,-0.27341 -0.0977,-0.50128 -0.29297,-0.68359 -0.27346,-0.22133 -0.62502,-0.33201 -1.05469,-0.33204 -0.2995,3e-5 -0.79429,0.0456 -1.48438,0.13672 l 0,-0.72265 z m -7.24609,13.86718 c -10e-6,-0.83332 -0.2409,-1.50389 -0.72266,-2.01172 -0.48178,-0.50779 -1.09376,-0.7617 -1.83593,-0.76171 -1.64064,10e-6 -3.34962,1.35418 -5.12696,4.0625 -1.77734,2.70834 -2.66602,5.29948 -2.66601,7.77343 -1e-5,0.97657 0.21484,1.72201 0.64453,2.23633 0.42968,0.51433 0.944,0.77149 1.54297,0.77149 1.35416,0 3.05337,-1.46485 5.09765,-4.39454 2.04426,-2.92967 3.0664,-5.48827 3.06641,-7.67578 z"
         id="path5294"
         style="font-style:italic;-inkscape-font-specification:Serif Italic" />
      <path
         d="m 396.60937,518.6864 -2.53906,8.8086 c 1.13281,-2.07031 2.09635,-3.62629 2.89063,-4.66797 1.23697,-1.61457 2.44139,-2.78645 3.61328,-3.51563 0.69009,-0.41665 1.41275,-0.62498 2.16797,-0.625 0.65102,2e-5 1.19139,0.20835 1.62109,0.625 0.42967,0.41668 0.64452,0.95054 0.64453,1.60156 -1e-5,0.63804 -0.14975,1.47137 -0.44922,2.5 l -1.38672,4.96094 c 2.12238,-3.97134 4.1341,-6.7578 6.03516,-8.35937 1.05467,-0.8854 2.09633,-1.32811 3.125,-1.32813 0.59893,2e-5 1.09047,0.2051 1.47461,0.61524 0.38409,0.41017 0.57615,1.04493 0.57617,1.90429 -2e-5,0.75523 -0.11721,1.55601 -0.35156,2.40235 l -2.14844,7.59765 c -0.46877,1.65365 -0.70315,2.57162 -0.70312,2.75391 -3e-5,0.18229 0.0586,0.33854 0.17578,0.46875 0.0781,0.0911 0.18227,0.13672 0.3125,0.13672 0.13018,0 0.35805,-0.1237 0.68359,-0.3711 0.74216,-0.57291 1.43878,-1.32812 2.08985,-2.26562 l 0.64453,0.41016 c -0.32555,0.52083 -0.90172,1.23698 -1.72852,2.14843 -0.82685,0.91146 -1.53323,1.52995 -2.11914,1.85547 -0.58596,0.32552 -1.12632,0.48828 -1.62109,0.48828 -0.45575,0 -0.83661,-0.15625 -1.14258,-0.46875 -0.30601,-0.3125 -0.45901,-0.69661 -0.45899,-1.15234 -2e-5,-0.625 0.26691,-1.88151 0.80079,-3.76953 l 1.77734,-6.26953 c 0.40362,-1.4453 0.61847,-2.24608 0.64453,-2.40235 0.039,-0.24738 0.0586,-0.48826 0.0586,-0.72265 -2e-5,-0.32551 -0.0716,-0.57942 -0.21484,-0.76172 -0.15627,-0.18228 -0.33205,-0.27342 -0.52734,-0.27344 -0.5469,2e-5 -1.12633,0.27996 -1.73828,0.83984 -1.7969,1.65366 -3.47658,3.97137 -5.03907,6.95313 -1.02866,1.96615 -1.9922,4.48568 -2.89062,7.55859 l -2.94922,0 3.33984,-11.8164 c 0.36457,-1.27603 0.54686,-2.1289 0.54688,-2.5586 -2e-5,-0.35155 -0.0716,-0.61196 -0.21485,-0.78125 -0.14324,-0.16925 -0.31902,-0.25389 -0.52734,-0.2539 -0.4297,10e-6 -0.88543,0.15626 -1.36719,0.46875 -0.78126,0.50782 -1.78712,1.59506 -3.01757,3.26172 -1.23048,1.66667 -2.18426,3.26172 -2.86133,4.78515 -0.32553,0.71615 -1.10027,3.01433 -2.32422,6.89453 l -2.89063,0 3.61328,-12.65625 0.46875,-1.64062 c 0.0911,-0.24738 0.13672,-0.42968 0.13672,-0.54688 0,-0.28644 -0.13021,-0.5436 -0.39062,-0.77148 -0.26042,-0.22785 -0.59245,-0.34178 -0.9961,-0.3418 -0.16927,2e-5 -0.63802,0.0781 -1.40625,0.23438 l -0.17578,-0.72266 z"
         id="path5296"
         style="font-style:italic;-inkscape-font-specification:Serif Italic" />
    </g>
    <g
       id="text5174"
       style="font-size:40px;font-style:normal;font-variant:normal;font-weight:normal;font-stretch:normal;line-height:125%;letter-spacing:0px;word-spacing:0px;fill:#000000;fill-opacity:1;stroke:none;font-family:Serif;-inkscape-font-specification:Serif">
      <path
         d="m 265.98437,261.10046 0,14.29688 c -1e-5,1.39323 0.13019,2.26237 0.39063,2.60742 0.2604,0.34505 0.78774,0.56315 1.58203,0.6543 l 0,0.70312 -7.44141,0 0,-2.4414 c -0.8724,1.04166 -1.7448,1.80013 -2.61718,2.27539 -0.87241,0.47526 -1.84897,0.71289 -2.92969,0.71289 -1.02865,0 -1.94337,-0.31576 -2.74414,-0.94727 -0.80079,-0.63151 -1.3379,-1.37044 -1.61133,-2.21679 -0.27344,-0.84636 -0.41016,-2.32422 -0.41016,-4.4336 l 0,-7.24609 c 0,-1.3802 -0.12695,-2.23957 -0.38085,-2.57813 -0.25391,-0.33852 -0.78451,-0.55988 -1.5918,-0.66406 l 0,-0.72266 7.4414,0 0,12.48047 c 0,1.30209 0.0618,2.14193 0.18555,2.51953 0.12369,0.37761 0.319,0.66407 0.58594,0.85938 0.26692,0.19531 0.57616,0.29297 0.92773,0.29297 0.46874,0 0.89192,-0.1237 1.26953,-0.3711 0.52083,-0.33853 1.14583,-1.02213 1.875,-2.05078 l 0,-9.76562 c -1e-5,-1.3802 -0.12696,-2.23957 -0.38085,-2.57813 -0.25392,-0.33852 -0.78452,-0.55988 -1.5918,-0.66406 l 0,-0.72266 z"
         id="path5287"
         style="font-weight:bold;-inkscape-font-specification:Serif Bold" />
    </g>
    <g
       id="text5200"
       style="font-size:40px;font-style:normal;font-variant:normal;font-weight:normal;font-stretch:normal;line-height:125%;letter-spacing:0px;word-spacing:0px;fill:#000000;fill-opacity:1;stroke:none;font-family:Serif;-inkscape-font-specification:Serif">
      <path
         d="M 642.58984,279.90906 636.4375,265.7489 c -0.74219,-1.70571 -1.32162,-2.78644 -1.73828,-3.24219 -0.29948,-0.33852 -0.74219,-0.56638 -1.32813,-0.68359 l 0,-0.72266 9.70703,0 0,0.72266 c -0.61198,2e-5 -1.02865,0.11069 -1.25,0.33203 -0.3125,0.28648 -0.46875,0.62502 -0.46875,1.01563 0,0.48178 0.28645,1.38673 0.85938,2.71484 l 3.00781,6.85547 2.40235,-5.91797 c 0.69009,-1.69269 1.03514,-2.89061 1.03515,-3.59375 -10e-6,-0.40363 -0.1465,-0.7324 -0.43945,-0.98633 -0.29298,-0.25389 -0.81056,-0.39386 -1.55274,-0.41992 l 0,-0.72266 5.97657,0 0,0.72266 c -0.57294,0.0781 -1.04169,0.29299 -1.40625,0.64453 -0.3646,0.35158 -0.91148,1.38674 -1.64063,3.10547 l -6.09375,14.33594 z"
         id="path5284"
         style="font-weight:bold;-inkscape-font-specification:Serif Bold" />
    </g>
    <g
       id="text5206"
       style="font-size:40px;font-style:normal;font-variant:normal;font-weight:normal;font-stretch:normal;line-height:125%;letter-spacing:0px;word-spacing:0px;fill:#000000;fill-opacity:1;stroke:none;font-family:Serif;-inkscape-font-specification:Serif">
      <path
         d="M 512.58984,517.90906 506.4375,503.7489 c -0.74219,-1.70571 -1.32162,-2.78644 -1.73828,-3.24219 -0.29948,-0.33852 -0.74219,-0.56638 -1.32813,-0.68359 l 0,-0.72266 9.70703,0 0,0.72266 c -0.61198,2e-5 -1.02865,0.11069 -1.25,0.33203 -0.3125,0.28648 -0.46875,0.62502 -0.46875,1.01563 0,0.48178 0.28645,1.38673 0.85938,2.71484 l 3.00781,6.85547 2.40235,-5.91797 c 0.69009,-1.69269 1.03514,-2.89061 1.03515,-3.59375 -10e-6,-0.40363 -0.1465,-0.7324 -0.43945,-0.98633 -0.29298,-0.25389 -0.81056,-0.39386 -1.55274,-0.41992 l 0,-0.72266 5.97657,0 0,0.72266 c -0.57294,0.0781 -1.04169,0.29299 -1.40625,0.64453 -0.3646,0.35158 -0.91148,1.38674 -1.64063,3.10547 l -6.09375,14.33594 z"
         id="path5275"
         style="font-weight:bold;-inkscape-font-specification:Serif Bold" />
      <path
         d="m 533.44922,514.60828 0,-9.7461 -9.72656,0 0,-1.60156 9.72656,0 0,-9.70703 1.5625,0 0,9.70703 9.76562,0 0,1.60156 -9.76562,0 0,9.7461 z"
         id="path5277"
         style="font-weight:normal;-inkscape-font-specification:Serif" />
      <path
         d="m 559.46484,515.35046 c -0.87241,0.91146 -1.72527,1.56576 -2.55859,1.96289 -0.83334,0.39714 -1.73178,0.59571 -2.69531,0.59571 -1.95313,0 -3.65886,-0.81706 -5.11719,-2.45117 -1.45834,-1.63412 -2.1875,-3.73372 -2.1875,-6.29883 0,-2.5651 0.80729,-4.9121 2.42187,-7.04102 1.61458,-2.12889 3.6914,-3.19334 6.23047,-3.19336 1.57551,2e-5 2.8776,0.50132 3.90625,1.50391 l 0,-3.30078 c -10e-6,-2.04425 -0.0488,-3.30076 -0.14648,-3.76953 -0.0977,-0.46873 -0.25067,-0.78774 -0.45899,-0.95703 -0.20834,-0.16925 -0.46876,-0.25389 -0.78125,-0.25391 -0.33855,2e-5 -0.78777,0.10419 -1.34765,0.3125 l -0.25391,-0.68359 5.33203,-2.1875 0.87891,0 0,20.68359 c -2e-5,2.09636 0.0488,3.37565 0.14648,3.83789 0.0976,0.46224 0.25389,0.78451 0.46875,0.9668 0.21483,0.18229 0.46548,0.27344 0.75196,0.27343 0.35154,10e-6 0.82029,-0.11067 1.40625,-0.33203 l 0.21484,0.6836 -5.3125,2.20703 -0.89844,0 z m 0,-1.36718 0,-9.21875 c -0.0781,-0.88541 -0.31251,-1.6927 -0.70312,-2.42188 -0.39064,-0.72915 -0.90822,-1.27928 -1.55274,-1.65039 -0.64454,-0.37108 -1.27279,-0.55662 -1.88476,-0.55664 -1.14584,2e-5 -2.16798,0.51434 -3.06641,1.54297 -1.1849,1.35418 -1.77735,3.33334 -1.77734,5.9375 -10e-6,2.63021 0.57291,4.64519 1.71875,6.04492 1.14582,1.39974 2.42186,2.09961 3.82812,2.09961 1.18489,0 2.33072,-0.59245 3.4375,-1.77734 z"
         id="path5279"
         style="font-weight:normal;-inkscape-font-specification:Serif" />
      <path
         d="m 575.16797,517.90906 -6.15235,-14.16016 c -0.74219,-1.70571 -1.32161,-2.78644 -1.73828,-3.24219 -0.29948,-0.33852 -0.74218,-0.56638 -1.32812,-0.68359 l 0,-0.72266 9.70703,0 0,0.72266 c -0.61199,2e-5 -1.02865,0.11069 -1.25,0.33203 -0.31251,0.28648 -0.46876,0.62502 -0.46875,1.01563 -10e-6,0.48178 0.28645,1.38673 0.85937,2.71484 l 3.00782,6.85547 2.40234,-5.91797 c 0.69009,-1.69269 1.03514,-2.89061 1.03516,-3.59375 -2e-5,-0.40363 -0.1465,-0.7324 -0.43946,-0.98633 -0.29298,-0.25389 -0.81056,-0.39386 -1.55273,-0.41992 l 0,-0.72266 5.97656,0 0,0.72266 c -0.57293,0.0781 -1.04168,0.29299 -1.40625,0.64453 -0.3646,0.35158 -0.91147,1.38674 -1.64062,3.10547 l -6.09375,14.33594 z"
         id="path5281"
         style="font-weight:bold;-inkscape-font-specification:Serif Bold" />
    </g>
    <path
       d="m 54.19958,252.36218 35.670283,0 c 8.420567,0 15.199577,6.77902 15.199577,15.19958 l 0,36.60084 c 0,8.42057 -6.77901,15.19958 -15.199577,15.19958 l -35.670283,0 C 45.779013,319.36218 39,312.58317 39,304.1626 l 0,-36.60084 c 0,-8.42056 6.779013,-15.19958 15.19958,-15.19958 z"
       id="rect5212"
       style="fill:#ffcb00;fill-opacity:0;stroke:#a9a9a9;stroke-width:3.80189133;stroke-miterlimit:4;stroke-opacity:1" />
    <g
       id="text3761-8"
       style="font-size:40px;font-style:normal;font-variant:normal;font-weight:normal;font-stretch:normal;line-height:125%;letter-spacing:0px;word-spacing:0px;fill:#000000;fill-opacity:1;stroke:none;font-family:Serif;-inkscape-font-specification:Serif">
      <path
         d="m 74.027344,271.33093 0,21.66016 c -1.3e-5,1.62761 0.0716,2.66602 0.214843,3.11523 0.143216,0.44922 0.442695,0.81706 0.898438,1.10352 0.455715,0.28646 1.184881,0.42969 2.1875,0.42969 l 0.605469,0 0,0.72265 -13.945313,0 0,-0.72265 0.703125,0 c 1.132808,0 1.940099,-0.13021 2.421875,-0.39063 0.481764,-0.26041 0.807285,-0.61849 0.976563,-1.07422 0.169263,-0.45572 0.253899,-1.51692 0.253906,-3.18359 l 0,-13.73047 c -7e-6,-1.22394 -0.0586,-1.98891 -0.175781,-2.29492 -0.117195,-0.30597 -0.335294,-0.56639 -0.654297,-0.78125 -0.319017,-0.21482 -0.686855,-0.32224 -1.103516,-0.32227 -0.664067,3e-5 -1.471358,0.20836 -2.421875,0.625 l -0.351562,-0.70312 9.746093,-4.45313 z"
         id="path5271"
         style="font-weight:bold;-inkscape-font-specification:Serif Bold" />
    </g>
    <path
       d="m 54.130137,490.36218 35.670283,0 c 8.420567,0 15.19958,6.77902 15.19958,15.19958 l 0,36.60084 c 0,8.42057 -6.779013,15.19958 -15.19958,15.19958 l -35.670283,0 c -8.420567,0 -15.19958,-6.77901 -15.19958,-15.19958 l 0,-36.60084 c 0,-8.42056 6.779013,-15.19958 15.19958,-15.19958 z"
       id="rect5244"
       style="fill:#ffcb00;fill-opacity:0;stroke:#a9a9a9;stroke-width:3.80189133;stroke-miterlimit:4;stroke-opacity:1" />
    <g
       id="text5246"
       style="font-size:40px;font-style:normal;font-variant:normal;font-weight:normal;font-stretch:normal;line-height:125%;letter-spacing:0px;word-spacing:0px;fill:#000000;fill-opacity:1;stroke:none;font-family:Serif;-inkscape-font-specification:Serif">
      <path
         d="m 79.493057,536.36218 -15.585937,0 0,-0.42968 c 4.77864,-5.6901 7.679028,-9.51822 8.701172,-11.48438 1.022124,-1.96613 1.533192,-3.8867 1.533203,-5.76172 -1.1e-5,-1.36717 -0.423188,-2.50323 -1.269531,-3.4082 -0.846364,-0.90493 -1.881519,-1.3574 -3.105469,-1.35742 -2.005213,2e-5 -3.561201,1.00262 -4.667969,3.00781 l -0.722656,-0.25391 c 0.703123,-2.49998 1.77083,-4.34893 3.203125,-5.54687 1.432285,-1.19789 3.08593,-1.79685 4.960937,-1.79688 1.341135,3e-5 2.565092,0.31253 3.671875,0.9375 1.106757,0.62503 1.972641,1.48115 2.597657,2.56836 0.624983,1.08726 0.937483,2.10614 0.9375,3.05664 -1.7e-5,1.73179 -0.481788,3.4896 -1.445313,5.27344 -1.315118,2.40887 -4.186209,5.76824 -8.613281,10.07813 l 5.722656,0 c 1.406236,0 2.320949,-0.0586 2.744141,-0.17579 0.423161,-0.11718 0.771468,-0.31575 1.044922,-0.5957 0.27342,-0.27994 0.631493,-0.86913 1.074218,-1.76758 l 0.703125,0 z"
         id="path5267"
         style="font-weight:bold;-inkscape-font-specification:Serif Bold" />
    </g>
  </g>
</svg>
