<?xml version="1.0" encoding="UTF-8" standalone="no"?>
<!-- Created with Inkscape (http://www.inkscape.org/) -->

<svg
   xmlns:dc="http://purl.org/dc/elements/1.1/"
   xmlns:cc="http://creativecommons.org/ns#"
   xmlns:rdf="http://www.w3.org/1999/02/22-rdf-syntax-ns#"
   xmlns:svg="http://www.w3.org/2000/svg"
   xmlns="http://www.w3.org/2000/svg"
   xmlns:xlink="http://www.w3.org/1999/xlink"
   xmlns:sodipodi="http://sodipodi.sourceforge.net/DTD/sodipodi-0.dtd"
   xmlns:inkscape="http://www.inkscape.org/namespaces/inkscape"
   id="svg2"
   sodipodi:version="0.32"
   inkscape:version="0.48.5 r10040"
   width="578.76398"
   height="324.6618"
   sodipodi:docname="Venturi5.svg"
   version="1.0"
   inkscape:export-filename="C:\Documents and Settings\Propietario.NOMBRE-CAWGV2W6\Mis documentos\Wikipedia-files\venturi5.png"
   inkscape:export-xdpi="90"
   inkscape:export-ydpi="90">
  <metadata
     id="metadata7">
    <rdf:RDF>
      <cc:Work
         rdf:about="">
        <dc:format>image/svg+xml</dc:format>
        <dc:type
           rdf:resource="http://purl.org/dc/dcmitype/StillImage" />
        <dc:title />
      </cc:Work>
    </rdf:RDF>
  </metadata>
  <defs
     id="defs5">
    <linearGradient
       inkscape:collect="always"
       id="linearGradient2754">
      <stop
         style="stop-color:#db1d22;stop-opacity:1;"
         offset="0"
         id="stop2756" />
      <stop
         style="stop-color:#db1d22;stop-opacity:0;"
         offset="1"
         id="stop2758" />
    </linearGradient>
    <linearGradient
       inkscape:collect="always"
       id="linearGradient2428">
      <stop
         style="stop-color:#db1d22;stop-opacity:1;"
         offset="0"
         id="stop2430" />
      <stop
         style="stop-color:#db1d22;stop-opacity:0;"
         offset="1"
         id="stop2432" />
    </linearGradient>
    <linearGradient
       inkscape:collect="always"
       xlink:href="#linearGradient2754"
       id="linearGradient4185"
       gradientUnits="userSpaceOnUse"
       gradientTransform="translate(-30.365083,-25.751629)"
       x1="472.76636"
       y1="215.31865"
       x2="366.47943"
       y2="215.31865" />
    <linearGradient
       inkscape:collect="always"
       xlink:href="#linearGradient2428"
       id="linearGradient4188"
       gradientUnits="userSpaceOnUse"
       gradientTransform="translate(-30.365083,-25.751629)"
       x1="188.10683"
       y1="228.79582"
       x2="162.32436"
       y2="228.79582" />
  </defs>
  <sodipodi:namedview
     inkscape:window-height="734"
     inkscape:window-width="1280"
     inkscape:pageshadow="2"
     inkscape:pageopacity="0.0"
     borderopacity="1.0"
     bordercolor="#666666"
     pagecolor="#ffffff"
     id="base"
     showguides="true"
     inkscape:guide-bbox="true"
     inkscape:zoom="0.6719339"
     inkscape:cx="270.23028"
     inkscape:cy="191.20806"
     inkscape:window-x="0"
     inkscape:window-y="127"
     inkscape:current-layer="svg2"
     showgrid="false"
     inkscape:window-maximized="1"
     fit-margin-top="20"
     fit-margin-left="20"
     fit-margin-right="20"
     fit-margin-bottom="20" />
  <flowRoot
     xml:space="preserve"
     id="flowRoot2870"
     transform="translate(-69.583816,-15.72028)"><flowRegion
       id="flowRegion2872"><rect
         id="rect2874"
         width="19.25"
         height="15.75"
         x="193.25"
         y="345.36221" /></flowRegion><flowPara
       id="flowPara2876"
       style="font-size:28px;font-style:italic;font-variant:normal;font-weight:normal;font-stretch:normal;text-align:start;line-height:125%;writing-mode:lr-tb;text-anchor:start;font-family:Times New Roman">1</flowPara></flowRoot>  <path
     inkscape:connector-curvature="0"
     style="fill:none;stroke:#000000;stroke-width:1.67112172;stroke-linejoin:miter;stroke-miterlimit:4;stroke-opacity:1;stroke-dasharray:none"
     d="m 297.93771,24.159089 0,94.712781 -17.03145,0 0,-94.712781"
     id="path9287" />
  <path
     inkscape:connector-curvature="0"
     style="fill:none;stroke:#000000;stroke-width:1.07619309;stroke-linejoin:miter;stroke-miterlimit:4;stroke-opacity:1;stroke-dasharray:none"
     d="m 147.06721,24.227489 0,28.21066 -17.58441,0 0,-28.21066"
     id="rect9272" />
  <path
     style="fill:#ba93e1;fill-opacity:1;fill-rule:evenodd;stroke:#000000;stroke-width:1.55499995;stroke-linejoin:miter;stroke-miterlimit:4;stroke-opacity:1;stroke-dasharray:none"
     d="m 129.69984,53.286069 0,105.375001 -94.187496,0 0,106.625 159.656246,0 0.46875,0 c 1.26294,0.0371 2.53372,0.0625 3.8125,0.0625 37.63565,0 24.38624,-33.02901 76.875,-33.25 l 27.34375,0 c 48.7037,0.90488 37.96345,33.43749 75.6875,33.4375 1.27878,0 2.54954,-0.0254 3.8125,-0.0625 l 0.46875,0 159.65625,0 0,-106.625 -160.71875,0 -0.53125,0 c -0.61447,-0.009 -1.22569,-1e-5 -1.84375,0 -35.1265,0 -42.20682,32.50186 -76.15625,33.125 l -6.03125,0 0,-71.65625 -17.125,0 0,71.65625 -5.40625,0 c -42.41553,-0.70399 -41.64942,-33.3125 -76.875,-33.3125 -0.61808,0 -1.22928,-0.009 -1.84375,0 l -0.53125,0 -49.375,0 0,-105.375001 z"
     id="rect2181"
     inkscape:connector-curvature="0"
     sodipodi:nodetypes="ccccccsccscccccccccccccsccccc" />
  <path
     inkscape:connector-curvature="0"
     style="fill:#ba93e1;fill-opacity:1;fill-rule:evenodd;stroke:#000000;stroke-width:1.5480001;stroke-linejoin:miter;stroke-miterlimit:4;stroke-opacity:1;stroke-dasharray:none"
     d="m 48.314197,211.99096 c 0,29.46428 -6.16509,53.3498 -13.7701,53.3498 -7.60501,0 -13.770097,-23.88552 -13.770097,-53.3498 0,-29.46428 6.165087,-53.3498 13.770097,-53.3498 7.60501,0 13.7701,23.88552 13.7701,53.3498 z"
     id="path8387" />
  <path
     inkscape:connector-curvature="0"
     style="fill:#ba93e1;fill-opacity:1;fill-rule:evenodd;stroke:#000000;stroke-width:1.54699993;stroke-linejoin:miter;stroke-miterlimit:4;stroke-opacity:1;stroke-dasharray:4.64099979, 1.54699993;stroke-dashoffset:0"
     d="m 557.99034,212.18032 c 0,29.44955 -6.16509,53.32313 -13.7701,53.32313 -7.60501,0 -13.7701,-23.87358 -13.7701,-53.32313 0,-29.44957 6.16509,-53.32315 13.7701,-53.32315 7.60501,0 13.7701,23.87358 13.7701,53.32315 z"
     id="path8389" />
  <path
     inkscape:connector-curvature="0"
     style="fill:#ba93e1;fill-opacity:1;fill-rule:evenodd;stroke:#000000;stroke-width:1.55499995;stroke-linejoin:miter;stroke-miterlimit:4;stroke-opacity:1;stroke-dasharray:4.66499984, 1.55499995;stroke-dashoffset:0"
     d="m 146.85394,52.75563 c 0,1.859 -3.83605,3.36602 -8.56806,3.36602 -4.73201,0 -8.56806,-1.50702 -8.56806,-3.36602 0,-1.85901 3.83605,-3.36603 8.56806,-3.36603 4.73201,0 8.56806,1.50702 8.56806,3.36603 z"
     id="path8391" />
  <path
     inkscape:connector-curvature="0"
     style="fill:#ba93e1;fill-opacity:1;fill-rule:evenodd;stroke:#000000;stroke-width:1.55499995;stroke-linejoin:miter;stroke-miterlimit:4;stroke-opacity:1;stroke-dasharray:4.66499984, 1.55499995;stroke-dashoffset:0"
     d="m 298.05192,119.73774 c 0,1.859 -3.83605,3.36602 -8.56806,3.36602 -4.73201,0 -8.56806,-1.50702 -8.56806,-3.36602 0,-1.85901 3.83605,-3.36603 8.56806,-3.36603 4.73201,0 8.56806,1.50702 8.56806,3.36603 z"
     id="path8393" />
  <path
     inkscape:connector-curvature="0"
     style="fill:none;stroke:#000000;stroke-width:1.55499995;stroke-linejoin:miter;stroke-miterlimit:4;stroke-opacity:1"
     d="m 146.82097,24.14353 c 0,1.859 -3.83605,3.36602 -8.56806,3.36602 -4.73201,0 -8.56806,-1.50702 -8.56806,-3.36602 0,-1.85901 3.83605,-3.36603 8.56806,-3.36603 4.73201,0 8.56806,1.50702 8.56806,3.36603 z"
     id="path9270" />
  <path
     inkscape:connector-curvature="0"
     style="fill:none;stroke:#000000;stroke-width:1.55499995;stroke-linejoin:miter;stroke-miterlimit:4;stroke-opacity:1"
     d="m 297.96752,24.48853 c 0,1.859 -3.83605,3.36602 -8.56806,3.36602 -4.73201,0 -8.56806,-1.50702 -8.56806,-3.36602 0,-1.85901 3.83605,-3.36603 8.56806,-3.36603 4.73201,0 8.56806,1.50702 8.56806,3.36603 z"
     id="path9291" />
  <path
     inkscape:connector-curvature="0"
     style="fill:none;stroke:#26267c;stroke-width:1.57171559;stroke-linecap:butt;stroke-linejoin:miter;stroke-miterlimit:4;stroke-opacity:1;stroke-dasharray:none"
     d="m 271.72661,200.51225 c 36.72787,0 36.72787,0 36.72787,0"
     id="path14553" />
  <path
     inkscape:connector-curvature="0"
     style="fill:none;stroke:#26267c;stroke-width:1.56803644;stroke-linecap:butt;stroke-linejoin:miter;stroke-miterlimit:4;stroke-opacity:1;stroke-dasharray:none"
     d="m 271.89355,206.33498 c 36.62958,0 36.62958,0 36.62958,0"
     id="path14555" />
  <path
     inkscape:connector-curvature="0"
     style="fill:none;stroke:#26267c;stroke-width:1.5775466;stroke-linecap:butt;stroke-linejoin:miter;stroke-miterlimit:4;stroke-opacity:1;stroke-dasharray:none"
     d="m 272.12872,213.13818 c 36.60125,0 36.60125,0 36.60125,0"
     id="path14557" />
  <path
     inkscape:connector-curvature="0"
     style="fill:none;stroke:#26267c;stroke-width:1.57549477;stroke-linecap:butt;stroke-linejoin:miter;stroke-miterlimit:4;stroke-opacity:1;stroke-dasharray:none"
     d="m 271.10111,218.14085 c 38.12849,0 38.12849,0 38.12849,0"
     id="path14559" />
  <path
     inkscape:connector-curvature="0"
     style="fill:none;stroke:#26267c;stroke-width:1.56986117;stroke-linecap:butt;stroke-linejoin:miter;stroke-miterlimit:4;stroke-opacity:1;stroke-dasharray:none"
     d="m 271.05173,223.97565 c 38.17775,0 38.17775,0 38.17775,0"
     id="path14561" />
  <path
     inkscape:connector-curvature="0"
     id="path11922"
     style="fill:none;stroke:#26267c;stroke-width:1.57200003;stroke-linecap:butt;stroke-linejoin:miter;stroke-miterlimit:4;stroke-opacity:1;stroke-dasharray:none"
     d="m 58.100394,177.59162 c 137.676816,0 137.676816,0 137.676816,0 M 58.095174,195.57404 c 137.456766,0 137.456766,0 137.456766,0 M 58.090744,212.88088 c 136.668756,0 136.668756,0 136.668756,0 M 58.090774,228.9138 c 136.672616,0 136.672616,0 136.672616,0 M 58.091094,246.90208 c 136.730546,0 136.730546,0 136.730546,0 m 0.77656,-69.31162 c 28.30483,0.32666 37.20132,22.79832 76.40968,22.92626 m -76.50659,-4.94183 c 15.3537,-0.0134 56.72031,10.48967 76.4375,10.77174 m -77.19378,6.53463 78.75,0.26178 m -78.74908,15.77144 c 15.3537,0.0134 56.72031,-10.48967 76.4375,-10.77174 m -76.42359,28.76061 c 28.30483,-0.32666 37.20132,-22.79832 76.40968,-22.92626" />
  <path
     inkscape:connector-curvature="0"
     id="path18965"
     style="fill:none;stroke:#26267c;stroke-width:1.5718894;stroke-linecap:butt;stroke-linejoin:miter;stroke-miterlimit:4;stroke-opacity:1"
     d="m 522.26732,177.58672 c -137.67682,0 -137.67682,0 -137.67682,0 m 137.68204,17.98242 c -137.45677,0 -137.45677,0 -137.45677,0 m 137.4612,17.30684 c -136.66876,0 -136.66876,0 -136.66876,0 m 136.66873,16.03292 c -136.67262,0 -136.67262,0 -136.67262,0 m 136.6723,17.98828 c -136.73055,0 -136.73055,0 -136.73055,0 m -0.77656,-69.31162 c -28.30483,0.32666 -37.20132,22.79832 -76.40968,22.92626 m 76.50659,-4.94183 c -15.3537,-0.0134 -56.72031,10.48967 -76.4375,10.77174 m 77.19378,6.53463 -78.75,0.26178 m 78.74908,15.77144 c -15.3537,0.0134 -56.72031,-10.48967 -76.4375,-10.77174 m 76.42359,28.76061 c -28.30483,-0.32666 -37.20132,-22.79832 -76.40968,-22.92626" />
  <path
     style="fill:none;stroke:#000000;stroke-width:1.5;stroke-linecap:butt;stroke-linejoin:miter;stroke-miterlimit:4;stroke-opacity:1;stroke-dasharray:none"
     d="m 156.51443,52.824149 c 55.86144,0 69.86144,0 69.86144,0"
     id="path22461"
     inkscape:connector-curvature="0"
     sodipodi:nodetypes="cc" />
  <path
     inkscape:connector-curvature="0"
     style="fill:none;stroke:#000000;stroke-width:1.45206535px;stroke-linecap:butt;stroke-linejoin:miter;stroke-opacity:1"
     d="m 200.06614,120.00177 c 72.48216,0 72.48216,0 72.48216,0"
     id="path22463" />
  <path
     inkscape:connector-curvature="0"
     style="fill:none;stroke:#000000;stroke-width:1.5;stroke-linecap:butt;stroke-linejoin:miter;stroke-miterlimit:4;stroke-opacity:1;stroke-dasharray:none"
     d="m 213.4454,51.594249 c 8.875,-8.75 8.875,-8.75 8.875,-8.75"
     id="path23365" />
  <path
     inkscape:connector-curvature="0"
     style="fill:none;stroke:#000000;stroke-width:1.5;stroke-linecap:butt;stroke-linejoin:miter;stroke-miterlimit:4;stroke-opacity:1;stroke-dasharray:none"
     d="m 214.48645,51.550049 c -8.875,-8.75 -8.875,-8.75 -8.875,-8.75"
     id="path23367" />
  <path
     inkscape:connector-curvature="0"
     style="fill:none;stroke:#000000;stroke-width:1.5;stroke-linecap:butt;stroke-linejoin:miter;stroke-miterlimit:4;stroke-opacity:1;stroke-dasharray:none"
     d="m 213.95923,51.292509 0,-25.98618"
     id="path23371" />
  <path
     inkscape:connector-curvature="0"
     style="fill:none;stroke:#000000;stroke-width:1.5;stroke-linecap:butt;stroke-linejoin:miter;stroke-miterlimit:4;stroke-opacity:1;stroke-dasharray:none"
     d="m 213.35576,121.2603 c 8.875,8.75 8.875,8.75 8.875,8.75"
     id="path24252" />
  <path
     inkscape:connector-curvature="0"
     style="fill:none;stroke:#000000;stroke-width:1.5;stroke-linecap:butt;stroke-linejoin:miter;stroke-miterlimit:4;stroke-opacity:1;stroke-dasharray:none"
     d="m 214.39681,121.3045 c -8.875,8.75 -8.875,8.75 -8.875,8.75"
     id="path24254" />
  <path
     inkscape:connector-curvature="0"
     style="fill:none;stroke:#000000;stroke-width:1.5;stroke-linecap:butt;stroke-linejoin:miter;stroke-miterlimit:4;stroke-opacity:1;stroke-dasharray:none"
     d="m 213.86959,121.56204 0,25.98618"
     id="path24256" />
  <g
     transform="translate(-57.306306,-151.75988)"
     style="font-size:30px;font-style:italic;font-variant:normal;font-weight:normal;font-stretch:normal;text-align:start;line-height:100%;writing-mode:lr-tb;text-anchor:start;font-family:Times New Roman"
     id="flowRoot24262">
    <path
       inkscape:connector-curvature="0"
       d="m 271.83496,224.55227 -4.11621,14.22364 c 1.77734,-2.67577 3.16405,-4.45312 4.16016,-5.33203 0.99608,-0.8789 1.94823,-1.31835 2.85644,-1.31836 0.46874,1e-5 0.85936,0.16114 1.17188,0.4834 0.31248,0.32227 0.46873,0.75196 0.46875,1.28906 -2e-5,0.64454 -0.13674,1.42579 -0.41016,2.34375 l -1.78711,6.13769 c -0.22462,0.74219 -0.33692,1.15235 -0.33691,1.23047 -10e-6,0.13672 0.0415,0.24903 0.12451,0.33692 0.083,0.0879 0.17821,0.13183 0.28564,0.13183 0.12694,0 0.27343,-0.0635 0.43946,-0.19043 0.55662,-0.42968 1.10838,-1.02539 1.65527,-1.78711 l 0.4541,0.27832 c -0.33204,0.51758 -0.79347,1.08643 -1.38428,1.70655 -0.59083,0.62011 -1.09864,1.0498 -1.52343,1.28906 -0.42482,0.23926 -0.80324,0.35889 -1.13526,0.35889 -0.36133,0 -0.65674,-0.11475 -0.88623,-0.34424 -0.2295,-0.22949 -0.34424,-0.5249 -0.34424,-0.88623 0,-0.42969 0.17089,-1.23047 0.5127,-2.40235 l 1.68457,-5.85937 c 0.21483,-0.73241 0.32225,-1.30859 0.32226,-1.72852 -1e-5,-0.1953 -0.061,-0.35155 -0.1831,-0.46875 -0.12208,-0.11717 -0.28077,-0.17577 -0.47607,-0.17578 -0.28322,10e-6 -0.60548,0.10743 -0.9668,0.32227 -0.66407,0.41016 -1.43067,1.17188 -2.29981,2.28515 -0.23438,0.30275 -1.01563,1.52345 -2.34375,3.66211 -0.41016,0.6836 -0.74707,1.43067 -1.01074,2.24121 l -0.9375,3.00293 -2.19726,0 4.81933,-16.75781 0.5127,-1.81641 c -10e-6,-0.25388 -0.10499,-0.47849 -0.31494,-0.67382 -0.20997,-0.1953 -0.46632,-0.29295 -0.76905,-0.29297 -0.17578,2e-5 -0.44434,0.0293 -0.80566,0.0879 l -0.30762,0.0439 0,-0.57129 z"
       id="path3255" />
  </g>
  <path
     inkscape:connector-curvature="0"
     style="fill:#000000;fill-opacity:1;fill-rule:evenodd;stroke:none"
     d="m 146.38706,212.44084 c 0,3.43586 -2.98121,6.22118 -6.6587,6.22118 -3.67749,0 -6.65869,-2.78532 -6.65869,-6.22118 0,-3.43588 2.9812,-6.2212 6.65869,-6.2212 3.67749,0 6.6587,2.78532 6.6587,6.2212 z"
     id="path24270" />
  <path
     style="fill:#000000;fill-opacity:1;fill-rule:evenodd;stroke:none"
     d="m 294.68363,212.67669 c 0,2.5384 -2.05779,4.59619 -4.59619,4.59619 -2.53841,0 -4.5962,-2.05779 -4.5962,-4.59619 0,-2.53841 2.05779,-4.5962 4.5962,-4.5962 2.5384,0 4.59619,2.05779 4.59619,4.5962 z"
     id="path26891"
     inkscape:connector-curvature="0" />
  <path
     inkscape:connector-curvature="0"
     style="fill:url(#linearGradient4188);fill-opacity:1;fill-rule:evenodd;stroke:none"
     d="m 108.20899,200.15357 0.0312,7.65625 -40.343746,0 0,11.53125 40.374996,0 0.0312,6.65625 10.34375,-6.5 10.34375,-6.5 -10.40625,-6.40625 -10.375,-6.4375 z"
     id="rect27804" />
  <path
     style="fill:url(#linearGradient4185);fill-opacity:1;fill-rule:evenodd;stroke:none"
     d="m 390.89102,198.67639 0.0312,7.625 -96.0625,0 0,11.53125 96.09375,0 0.0312,6.6875 10.34375,-6.5 10.3125,-6.5 -10.375,-6.4375 -10.375,-6.40625 z"
     id="rect2722"
     inkscape:connector-curvature="0" />
  <path
     style="fill:#ba93e1;fill-opacity:1;fill-rule:evenodd;stroke:none"
     d="m 66.450746,191.52713 23.151598,0 0,34.72741 -23.151598,0 z"
     id="rect4140"
     inkscape:connector-curvature="0" />
  <g
     transform="translate(-71.491333,-155.17408)"
     style="font-size:30px;font-style:italic;font-variant:normal;font-weight:normal;font-stretch:normal;text-align:start;line-height:100%;writing-mode:lr-tb;text-anchor:start;font-family:Times New Roman"
     id="flowRoot2762">
    <path
       inkscape:connector-curvature="0"
       d="m 155.4541,349.53372 -1.50879,16.52344 c -0.0781,0.77149 -0.1172,1.2793 -0.11719,1.52344 -1e-5,0.39062 0.0732,0.68847 0.21973,0.89355 0.18553,0.2832 0.437,0.49316 0.7544,0.62988 0.31736,0.13672 0.85203,0.20508 1.604,0.20508 l -0.16113,0.54199 -7.82227,0 0.16113,-0.54199 0.33692,0 c 0.63475,0 1.15233,-0.13672 1.55273,-0.41016 0.2832,-0.18554 0.50292,-0.49316 0.65918,-0.92285 0.10741,-0.30273 0.20995,-1.01562 0.30762,-2.13867 l 0.23437,-2.51953 -5.68359,0 -2.02148,2.73926 c -0.45899,0.61524 -0.74708,1.05713 -0.86426,1.32568 -0.11719,0.26856 -0.17579,0.52002 -0.17578,0.7544 -1e-5,0.3125 0.12695,0.58105 0.38086,0.80566 0.2539,0.22461 0.67382,0.34668 1.25976,0.36621 l -0.16113,0.54199 -5.87402,0 0.16113,-0.54199 c 0.72266,-0.0293 1.35986,-0.27099 1.91162,-0.7251 0.55176,-0.4541 1.37451,-1.42333 2.46826,-2.90771 l 11.86524,-16.14258 z m -2.90039,4.87793 -5.75684,7.83691 4.99512,0 z"
       id="path3250" />
  </g>
  <path
     inkscape:connector-curvature="0"
     id="path4222"
     d="m 261.66089,196.78885 19.73147,0 0,28.41334 -19.73147,0 z"
     style="fill:#ba93e1;fill-opacity:1;fill-rule:evenodd;stroke:none" />
  <g
     transform="matrix(0.812056,0,0,0.782481,147.6507,-75.31857)"
     style="font-size:30px;font-style:italic;font-variant:normal;font-weight:normal;font-stretch:normal;text-align:start;line-height:100%;writing-mode:lr-tb;text-anchor:start;font-family:Times New Roman"
     id="flowRoot2770">
    <path
       d="m 155.4541,349.53372 -1.50879,16.52344 c -0.0781,0.77149 -0.1172,1.2793 -0.11719,1.52344 -1e-5,0.39062 0.0732,0.68847 0.21973,0.89355 0.18553,0.2832 0.437,0.49316 0.7544,0.62988 0.31736,0.13672 0.85203,0.20508 1.604,0.20508 l -0.16113,0.54199 -7.82227,0 0.16113,-0.54199 0.33692,0 c 0.63475,0 1.15233,-0.13672 1.55273,-0.41016 0.2832,-0.18554 0.50292,-0.49316 0.65918,-0.92285 0.10741,-0.30273 0.20995,-1.01562 0.30762,-2.13867 l 0.23437,-2.51953 -5.68359,0 -2.02148,2.73926 c -0.45899,0.61524 -0.74708,1.05713 -0.86426,1.32568 -0.11719,0.26856 -0.17579,0.52002 -0.17578,0.7544 -1e-5,0.3125 0.12695,0.58105 0.38086,0.80566 0.2539,0.22461 0.67382,0.34668 1.25976,0.36621 l -0.16113,0.54199 -5.87402,0 0.16113,-0.54199 c 0.72266,-0.0293 1.35986,-0.27099 1.91162,-0.7251 0.55176,-0.4541 1.37451,-1.42333 2.46826,-2.90771 l 11.86524,-16.14258 z m -2.90039,4.87793 -5.75684,7.83691 4.99512,0 z"
       id="path3247"
       inkscape:connector-curvature="0" />
  </g>
  <g
     transform="translate(-236.91132,-113.75297)"
     style="font-size:28px;font-style:italic;font-variant:normal;font-weight:normal;font-stretch:normal;text-align:start;line-height:125%;writing-mode:lr-tb;text-anchor:start;font-family:Times New Roman"
     id="flowRoot2778">
    <path
       inkscape:connector-curvature="0"
       d="m 326.38086,321.47886 -3.14453,10.94727 c -0.1823,0.64453 -0.27344,1.11002 -0.27344,1.39648 0,0.24089 0.083,0.42481 0.24902,0.55176 0.16601,0.12695 0.55501,0.21321 1.167,0.25879 l -0.0977,0.36133 -5.0293,0 0.13672,-0.36133 c 0.53385,-0.013 0.88542,-0.0553 1.05469,-0.12696 0.27343,-0.11718 0.47851,-0.27343 0.61523,-0.46875 0.21484,-0.29947 0.43294,-0.83658 0.6543,-1.61132 l 2.26563,-7.86133 c 0.13671,-0.47525 0.21158,-0.74869 0.2246,-0.82031 0.0195,-0.1302 0.0293,-0.25715 0.0293,-0.38086 0,-0.22786 -0.0618,-0.40689 -0.18555,-0.53711 -0.1237,-0.1302 -0.29297,-0.1953 -0.50781,-0.19532 -0.16927,2e-5 -0.43295,0.0391 -0.79101,0.11719 l -0.12696,-0.35156 3.29102,-0.91797 z"
       style="font-size:20px;font-family:Times New Roman"
       id="path3244" />
  </g>
  <g
     transform="matrix(0.863455,0,0,0.76457,-2.132146,-37.91777)"
     style="font-size:28px;font-style:italic;font-variant:normal;font-weight:normal;font-stretch:normal;text-align:start;line-height:125%;writing-mode:lr-tb;text-anchor:start;font-family:Times New Roman"
     id="flowRoot2786">
    <path
       d="m 324.93555,334.99449 -6.5918,0 0,-0.36133 c 3.35937,-2.94271 5.57942,-5.25065 6.66016,-6.92383 0.50129,-0.77473 0.75194,-1.58853 0.75195,-2.44141 -10e-6,-0.67707 -0.20834,-1.22883 -0.625,-1.65527 -0.41667,-0.42642 -0.95704,-0.63964 -1.62109,-0.63965 -0.91798,10e-6 -1.67319,0.43947 -2.26563,1.31836 l -0.3418,-0.15625 c 0.33203,-0.83983 0.81706,-1.4925 1.45508,-1.95801 0.63802,-0.46548 1.32812,-0.69823 2.07031,-0.69824 0.83984,10e-6 1.54622,0.2881 2.11914,0.86426 0.57291,0.57618 0.85937,1.27442 0.85938,2.09472 -10e-6,0.57293 -0.10092,1.10353 -0.30273,1.5918 -0.31251,0.76173 -0.88868,1.61459 -1.72852,2.5586 -1.27605,1.44531 -2.97852,3.10872 -5.10742,4.99023 l 3.32031,0 c 0.53385,0 0.9733,-0.11068 1.31836,-0.33203 0.34504,-0.22135 0.59244,-0.51758 0.74219,-0.88867 l 0.39062,0 z"
       style="font-size:20px;font-family:Times New Roman"
       id="path3241"
       inkscape:connector-curvature="0" />
  </g>
  <path
     inkscape:connector-curvature="0"
     id="path4218"
     d="m 103.01976,174.68959 19.73147,0 0,28.41334 -19.73147,0 z"
     style="fill:#ba93e1;fill-opacity:1;fill-rule:evenodd;stroke:none" />
  <g
     transform="translate(-36.083366,-176.69138)"
     style="font-size:30px;font-style:italic;font-variant:normal;font-weight:normal;font-stretch:normal;text-align:start;line-height:100%;writing-mode:lr-tb;text-anchor:start;font-family:Times New Roman"
     id="flowRoot2810">
    <path
       inkscape:connector-curvature="0"
       d="m 140.64453,357.50247 4.2334,-0.9082 c 0.30273,0.72267 0.54687,1.45997 0.73242,2.21191 0.26367,1.10353 0.47851,2.41212 0.64453,3.92578 0.0781,0.76173 0.18554,2.37305 0.32227,4.83399 1.22069,-1.34766 1.94823,-2.18262 2.18262,-2.50489 1.28905,-1.74804 2.03123,-2.77343 2.22656,-3.07617 0.32225,-0.51757 0.54686,-0.97167 0.67383,-1.3623 0.10741,-0.29296 0.16112,-0.57128 0.16113,-0.83496 -1e-5,-0.2539 -0.22706,-0.54687 -0.68115,-0.87891 -0.45412,-0.33202 -0.68117,-0.70311 -0.68116,-1.11328 -1e-5,-0.31249 0.12451,-0.59081 0.37354,-0.83496 0.24901,-0.24413 0.54442,-0.3662 0.88623,-0.36621 0.41014,1e-5 0.77147,0.16847 1.08398,0.50537 0.31249,0.33692 0.46874,0.7544 0.46875,1.25244 -1e-5,0.49806 -0.0781,0.97657 -0.23437,1.43555 -0.25392,0.74219 -0.72755,1.64795 -1.4209,2.71728 -0.69337,1.06934 -1.81153,2.50245 -3.35449,4.29932 -0.19532,0.22461 -1.27931,1.35742 -3.25195,3.39844 l -0.542,0 c -0.23438,-6.18164 -0.72266,-10.03906 -1.46484,-11.57227 -0.24414,-0.49804 -0.64942,-0.74706 -1.21582,-0.74707 -0.24414,10e-6 -0.59082,0.044 -1.04004,0.13184 z"
       id="path3238" />
  </g>
  <path
     style="fill:#ba93e1;fill-opacity:1;fill-rule:evenodd;stroke:none"
     d="m 100.12581,234.6733 19.73147,0 0,28.41334 -19.73147,0 z"
     id="path4220"
     inkscape:connector-curvature="0" />
  <g
     transform="matrix(0.959571,0,0,0.830714,-30.044496,-58.88347)"
     style="font-size:30px;font-style:italic;font-variant:normal;font-weight:normal;font-stretch:normal;text-align:start;line-height:100%;writing-mode:lr-tb;text-anchor:start;font-family:Times New Roman"
     id="flowRoot2854">
    <path
       inkscape:connector-curvature="0"
       d="m 146.63574,356.59427 -1.01074,3.36914 c 1.06445,-1.24999 2.01415,-2.12401 2.84912,-2.62207 0.83495,-0.49804 1.687,-0.74706 2.55615,-0.74707 0.86913,1e-5 1.61132,0.34425 2.22657,1.03271 0.61522,0.68849 0.92283,1.58449 0.92285,2.68799 -2e-5,2.14845 -0.87404,4.3335 -2.62207,6.55518 -1.74806,2.22168 -3.78419,3.33252 -6.1084,3.33252 -0.48829,0 -0.92042,-0.0537 -1.29639,-0.16114 -0.37598,-0.10742 -0.79834,-0.29785 -1.26709,-0.57129 l -1.06933,3.7793 c -0.21485,0.74218 -0.32227,1.22558 -0.32227,1.4502 0,0.21483 0.0562,0.39794 0.16846,0.54931 0.1123,0.15136 0.29541,0.26855 0.54931,0.35156 0.25391,0.083 0.75684,0.12451 1.50879,0.12452 l -0.13183,0.54199 -6.89942,0 0.14649,-0.54199 c 0.9082,-0.0391 1.521,-0.19532 1.83838,-0.46875 0.31738,-0.27345 0.65185,-1.03028 1.00341,-2.27051 l 3.70606,-12.83203 c 0.2246,-0.81054 0.33691,-1.31347 0.33691,-1.50879 0,-0.26366 -0.0757,-0.46874 -0.22705,-0.61524 -0.15137,-0.14647 -0.3833,-0.21971 -0.6958,-0.21972 -0.2832,10e-6 -0.67871,0.0342 -1.18652,0.10254 l 0,-0.57129 z m -3.41308,11.71875 c 0.60546,0.72265 1.42089,1.08398 2.44629,1.08398 0.5078,0 1.02538,-0.1416 1.55273,-0.4248 0.52734,-0.28321 1.04247,-0.70313 1.54541,-1.25977 0.50292,-0.55664 0.95458,-1.19873 1.35498,-1.92627 0.40038,-0.72753 0.75927,-1.58447 1.07666,-2.5708 0.31737,-0.98632 0.47606,-1.96288 0.47607,-2.92969 -1e-5,-0.78124 -0.17823,-1.37938 -0.53466,-1.79443 -0.35646,-0.41503 -0.77394,-0.62255 -1.25244,-0.62256 -1.0547,1e-5 -2.09718,0.60548 -3.12745,1.81641 -1.03028,1.21094 -1.78467,2.62696 -2.26318,4.24804 z"
       id="path3232" />
  </g>
  <g
     transform="matrix(1.140274,0,0,0.852023,-251.71162,-86.10227)"
     style="font-size:28px;font-style:italic;font-variant:normal;font-weight:normal;font-stretch:normal;text-align:start;line-height:125%;writing-mode:lr-tb;text-anchor:start;font-family:Times New Roman"
     id="flowRoot2878">
    <path
       inkscape:connector-curvature="0"
       d="m 326.38086,321.47886 -3.14453,10.94727 c -0.1823,0.64453 -0.27344,1.11002 -0.27344,1.39648 0,0.24089 0.083,0.42481 0.24902,0.55176 0.16601,0.12695 0.55501,0.21321 1.167,0.25879 l -0.0977,0.36133 -5.0293,0 0.13672,-0.36133 c 0.53385,-0.013 0.88542,-0.0553 1.05469,-0.12696 0.27343,-0.11718 0.47851,-0.27343 0.61523,-0.46875 0.21484,-0.29947 0.43294,-0.83658 0.6543,-1.61132 l 2.26563,-7.86133 c 0.13671,-0.47525 0.21158,-0.74869 0.2246,-0.82031 0.0195,-0.1302 0.0293,-0.25715 0.0293,-0.38086 0,-0.22786 -0.0618,-0.40689 -0.18555,-0.53711 -0.1237,-0.1302 -0.29297,-0.1953 -0.50781,-0.19532 -0.16927,2e-5 -0.43295,0.0391 -0.79101,0.11719 l -0.12696,-0.35156 3.29102,-0.91797 z"
       style="font-size:20px;font-family:Times New Roman"
       id="path3229" />
  </g>
  <g
     transform="matrix(1.094174,0,0,0.707787,-240.08612,22.35643)"
     style="font-size:28px;font-style:italic;font-variant:normal;font-weight:normal;font-stretch:normal;text-align:start;line-height:125%;writing-mode:lr-tb;text-anchor:start;font-family:Times New Roman"
     id="flowRoot2886">
    <path
       inkscape:connector-curvature="0"
       d="m 326.38086,321.47886 -3.14453,10.94727 c -0.1823,0.64453 -0.27344,1.11002 -0.27344,1.39648 0,0.24089 0.083,0.42481 0.24902,0.55176 0.16601,0.12695 0.55501,0.21321 1.167,0.25879 l -0.0977,0.36133 -5.0293,0 0.13672,-0.36133 c 0.53385,-0.013 0.88542,-0.0553 1.05469,-0.12696 0.27343,-0.11718 0.47851,-0.27343 0.61523,-0.46875 0.21484,-0.29947 0.43294,-0.83658 0.6543,-1.61132 l 2.26563,-7.86133 c 0.13671,-0.47525 0.21158,-0.74869 0.2246,-0.82031 0.0195,-0.1302 0.0293,-0.25715 0.0293,-0.38086 0,-0.22786 -0.0618,-0.40689 -0.18555,-0.53711 -0.1237,-0.1302 -0.29297,-0.1953 -0.50781,-0.19532 -0.16927,2e-5 -0.43295,0.0391 -0.79101,0.11719 l -0.12696,-0.35156 3.29102,-0.91797 z"
       style="font-size:20px;font-family:Times New Roman"
       id="path3226" />
  </g>
  <path
     style="fill:#ba93e1;fill-opacity:1;fill-rule:evenodd;stroke:none"
     d="m 394.51954,234.14712 19.73147,0 0,28.41334 -19.73147,0 z"
     id="path4224"
     inkscape:connector-curvature="0" />
  <g
     transform="matrix(0.959571,0,0,0.830714,263.12898,-58.38497)"
     style="font-size:30px;font-style:italic;font-variant:normal;font-weight:normal;font-stretch:normal;text-align:start;line-height:100%;writing-mode:lr-tb;text-anchor:start;font-family:Times New Roman"
     id="flowRoot2934">
    <path
       inkscape:connector-curvature="0"
       d="m 146.63574,356.59427 -1.01074,3.36914 c 1.06445,-1.24999 2.01415,-2.12401 2.84912,-2.62207 0.83495,-0.49804 1.687,-0.74706 2.55615,-0.74707 0.86913,1e-5 1.61132,0.34425 2.22657,1.03271 0.61522,0.68849 0.92283,1.58449 0.92285,2.68799 -2e-5,2.14845 -0.87404,4.3335 -2.62207,6.55518 -1.74806,2.22168 -3.78419,3.33252 -6.1084,3.33252 -0.48829,0 -0.92042,-0.0537 -1.29639,-0.16114 -0.37598,-0.10742 -0.79834,-0.29785 -1.26709,-0.57129 l -1.06933,3.7793 c -0.21485,0.74218 -0.32227,1.22558 -0.32227,1.4502 0,0.21483 0.0562,0.39794 0.16846,0.54931 0.1123,0.15136 0.29541,0.26855 0.54931,0.35156 0.25391,0.083 0.75684,0.12451 1.50879,0.12452 l -0.13183,0.54199 -6.89942,0 0.14649,-0.54199 c 0.9082,-0.0391 1.521,-0.19532 1.83838,-0.46875 0.31738,-0.27345 0.65185,-1.03028 1.00341,-2.27051 l 3.70606,-12.83203 c 0.2246,-0.81054 0.33691,-1.31347 0.33691,-1.50879 0,-0.26366 -0.0757,-0.46874 -0.22705,-0.61524 -0.15137,-0.14647 -0.3833,-0.21971 -0.6958,-0.21972 -0.2832,10e-6 -0.67871,0.0342 -1.18652,0.10254 l 0,-0.57129 z m -3.41308,11.71875 c 0.60546,0.72265 1.42089,1.08398 2.44629,1.08398 0.5078,0 1.02538,-0.1416 1.55273,-0.4248 0.52734,-0.28321 1.04247,-0.70313 1.54541,-1.25977 0.50292,-0.55664 0.95458,-1.19873 1.35498,-1.92627 0.40038,-0.72753 0.75927,-1.58447 1.07666,-2.5708 0.31737,-0.98632 0.47606,-1.96288 0.47607,-2.92969 -1e-5,-0.78124 -0.17823,-1.37938 -0.53466,-1.79443 -0.35646,-0.41503 -0.77394,-0.62255 -1.25244,-0.62256 -1.0547,1e-5 -2.09718,0.60548 -3.12745,1.81641 -1.03028,1.21094 -1.78467,2.62696 -2.26318,4.24804 z"
       id="path3223" />
  </g>
  <g
     transform="matrix(1.094174,0,0,0.707787,53.087184,22.85493)"
     style="font-size:28px;font-style:italic;font-variant:normal;font-weight:normal;font-stretch:normal;text-align:start;line-height:125%;writing-mode:lr-tb;text-anchor:start;font-family:Times New Roman"
     id="flowRoot2942">
    <path
       inkscape:connector-curvature="0"
       d="m 324.93555,334.99449 -6.5918,0 0,-0.36133 c 3.35937,-2.94271 5.57942,-5.25065 6.66016,-6.92383 0.50129,-0.77473 0.75194,-1.58853 0.75195,-2.44141 -10e-6,-0.67707 -0.20834,-1.22883 -0.625,-1.65527 -0.41667,-0.42642 -0.95704,-0.63964 -1.62109,-0.63965 -0.91798,10e-6 -1.67319,0.43947 -2.26563,1.31836 l -0.3418,-0.15625 c 0.33203,-0.83983 0.81706,-1.4925 1.45508,-1.95801 0.63802,-0.46548 1.32812,-0.69823 2.07031,-0.69824 0.83984,10e-6 1.54622,0.2881 2.11914,0.86426 0.57291,0.57618 0.85937,1.27442 0.85938,2.09472 -10e-6,0.57293 -0.10092,1.10353 -0.30273,1.5918 -0.31251,0.76173 -0.88868,1.61459 -1.72852,2.5586 -1.27605,1.44531 -2.97852,3.10872 -5.10742,4.99023 l 3.32031,0 c 0.53385,0 0.9733,-0.11068 1.31836,-0.33203 0.34504,-0.22135 0.59244,-0.51758 0.74219,-0.88867 l 0.39062,0 z"
       style="font-size:20px;font-family:Times New Roman"
       id="path3220" />
  </g>
  <path
     inkscape:connector-curvature="0"
     id="path4226"
     d="m 402.67522,177.05736 19.73147,0 0,28.41334 -19.73147,0 z"
     style="fill:#ba93e1;fill-opacity:1;fill-rule:evenodd;stroke:none" />
  <g
     transform="translate(263.04758,-175.02118)"
     style="font-size:30px;font-style:italic;font-variant:normal;font-weight:normal;font-stretch:normal;text-align:start;line-height:100%;writing-mode:lr-tb;text-anchor:start;font-family:Times New Roman"
     id="flowRoot2950">
    <path
       d="m 140.64453,357.50247 4.2334,-0.9082 c 0.30273,0.72267 0.54687,1.45997 0.73242,2.21191 0.26367,1.10353 0.47851,2.41212 0.64453,3.92578 0.0781,0.76173 0.18554,2.37305 0.32227,4.83399 1.22069,-1.34766 1.94823,-2.18262 2.18262,-2.50489 1.28905,-1.74804 2.03123,-2.77343 2.22656,-3.07617 0.32225,-0.51757 0.54686,-0.97167 0.67383,-1.3623 0.10741,-0.29296 0.16112,-0.57128 0.16113,-0.83496 -1e-5,-0.2539 -0.22706,-0.54687 -0.68115,-0.87891 -0.45412,-0.33202 -0.68117,-0.70311 -0.68116,-1.11328 -1e-5,-0.31249 0.12451,-0.59081 0.37354,-0.83496 0.24901,-0.24413 0.54442,-0.3662 0.88623,-0.36621 0.41014,1e-5 0.77147,0.16847 1.08398,0.50537 0.31249,0.33692 0.46874,0.7544 0.46875,1.25244 -1e-5,0.49806 -0.0781,0.97657 -0.23437,1.43555 -0.25392,0.74219 -0.72755,1.64795 -1.4209,2.71728 -0.69337,1.06934 -1.81153,2.50245 -3.35449,4.29932 -0.19532,0.22461 -1.27931,1.35742 -3.25195,3.39844 l -0.542,0 c -0.23438,-6.18164 -0.72266,-10.03906 -1.46484,-11.57227 -0.24414,-0.49804 -0.64942,-0.74706 -1.21582,-0.74707 -0.24414,10e-6 -0.59082,0.044 -1.04004,0.13184 z"
       id="path3217"
       inkscape:connector-curvature="0" />
  </g>
  <g
     transform="matrix(1.140274,0,0,0.852023,47.419184,-92.43207)"
     style="font-size:28px;font-style:italic;font-variant:normal;font-weight:normal;font-stretch:normal;text-align:start;line-height:125%;writing-mode:lr-tb;text-anchor:start;font-family:Times New Roman"
     id="flowRoot2958">
    <path
       d="m 324.93555,344.38389 -6.5918,0 0,-0.36133 c 3.35937,-2.94271 5.57942,-5.25065 6.66016,-6.92383 0.50129,-0.77473 0.75194,-1.58853 0.75195,-2.44141 -10e-6,-0.67707 -0.20834,-1.22883 -0.625,-1.65527 -0.41667,-0.42642 -0.95704,-0.63964 -1.62109,-0.63965 -0.91798,1e-5 -1.67319,0.43947 -2.26563,1.31836 l -0.3418,-0.15625 c 0.33203,-0.83983 0.81706,-1.4925 1.45508,-1.95801 0.63802,-0.46548 1.32812,-0.69823 2.07031,-0.69824 0.83984,10e-6 1.54622,0.2881 2.11914,0.86426 0.57291,0.57618 0.85937,1.27442 0.85938,2.09472 -10e-6,0.57293 -0.10092,1.10353 -0.30273,1.5918 -0.31251,0.76173 -0.88868,1.61459 -1.72852,2.5586 -1.27605,1.44531 -2.97852,3.10872 -5.10742,4.99023 l 3.32031,0 c 0.53385,0 0.9733,-0.11068 1.31836,-0.33203 0.34504,-0.22135 0.59244,-0.51758 0.74219,-0.88867 l 0.39062,0 z"
       style="font-size:20px;font-family:Times New Roman"
       id="path3214"
       inkscape:connector-curvature="0" />
  </g>
  <g
     transform="translate(18.969771,-30.48476)"
     style="font-size:28px;font-style:italic;font-variant:normal;font-weight:normal;font-stretch:normal;text-align:start;line-height:125%;writing-mode:lr-tb;text-anchor:start;font-family:Times New Roman"
     id="flowRoot2974">
    <path
       d="m 327.20117,332.43293 -0.92773,2.54883 -7.8125,0 0,-0.36133 c 2.29817,-2.09635 3.91601,-3.80859 4.85351,-5.13672 0.9375,-1.32812 1.40625,-2.54231 1.40625,-3.64258 0,-0.83983 -0.25716,-1.52994 -0.77148,-2.07031 -0.51433,-0.54035 -1.12956,-0.81054 -1.8457,-0.81055 -0.65105,1e-5 -1.23536,0.19044 -1.75293,0.57129 -0.51758,0.38087 -0.90007,0.93914 -1.14747,1.67481 l -0.36132,0 c 0.16276,-1.20442 0.58105,-2.1289 1.25488,-2.77344 0.67383,-0.64452 1.5153,-0.96679 2.52441,-0.9668 1.07422,10e-6 1.97103,0.34507 2.69043,1.03516 0.7194,0.69011 1.0791,1.50391 1.0791,2.4414 0,0.67059 -0.15625,1.34116 -0.46875,2.01172 -0.48177,1.0547 -1.26302,2.17123 -2.34375,3.34961 -1.62109,1.77084 -2.63346,2.83855 -3.0371,3.20313 l 3.45703,0 c 0.70312,0 1.19628,-0.026 1.47949,-0.0781 0.28319,-0.0521 0.53873,-0.15787 0.7666,-0.31738 0.22786,-0.1595 0.42642,-0.38574 0.5957,-0.67871 z"
       style="font-size:20px;font-style:normal;font-family:Times New Roman"
       id="path3211"
       inkscape:connector-curvature="0" />
  </g>
  <g
     transform="translate(-159.88727,-30.31996)"
     style="font-size:28px;font-style:italic;font-variant:normal;font-weight:normal;font-stretch:normal;text-align:start;line-height:125%;writing-mode:lr-tb;text-anchor:start;font-family:Times New Roman"
     id="flowRoot2986">
    <path
       d="m 320.375,323.0384 3.22266,-1.57227 0.32226,0 0,11.18164 c 0,0.74219 0.0309,1.20443 0.0928,1.38672 0.0618,0.18229 0.19042,0.32227 0.38574,0.41992 0.1953,0.0977 0.59244,0.153 1.1914,0.16602 l 0,0.36133 -4.98047,0 0,-0.36133 c 0.625,-0.013 1.02865,-0.0667 1.21094,-0.16113 0.18229,-0.0944 0.30924,-0.22136 0.38086,-0.38086 0.0716,-0.15951 0.10742,-0.6364 0.10742,-1.43067 l 0,-7.14844 c 0,-0.96353 -0.0325,-1.58202 -0.0976,-1.85546 -0.0456,-0.20833 -0.12859,-0.36132 -0.24903,-0.45899 -0.12044,-0.0976 -0.2653,-0.14647 -0.43457,-0.14648 -0.24088,10e-6 -0.57617,0.10092 -1.00586,0.30273 z"
       style="font-size:20px;font-style:normal;font-family:Times New Roman"
       id="path3208"
       inkscape:connector-curvature="0" />
  </g>
  <text
     xml:space="preserve"
     style="font-size:64px;font-style:normal;font-variant:normal;font-weight:normal;font-stretch:normal;text-align:center;line-height:89.99999762%;letter-spacing:0px;word-spacing:0px;writing-mode:lr-tb;text-anchor:middle;fill:#000000;fill-opacity:1;stroke:none;font-family:Arial;-inkscape-font-specification:Arial"
     x="543.57172"
     y="213.38583"
     id="text3265"
     sodipodi:linespacing="89.999998%"><tspan
       sodipodi:role="line"
       id="tspan3267"
       x="543.57172"
       y="213.38583"
       style="font-size:32px;font-style:normal;font-variant:normal;font-weight:normal;font-stretch:normal;text-align:center;line-height:89.99999762%;writing-mode:lr-tb;text-anchor:middle;font-family:Times New Roman;-inkscape-font-specification:'Times New Roman,'">ρ</tspan></text>
  <path
     id="path3269"
     d="m 544.22024,158.85717 c 7.60501,0 13.7701,23.87358 13.7701,53.32315 0,29.44955 -6.16509,53.32313 -13.7701,53.32313"
     style="fill:none;stroke:#000000;stroke-width:1.54728281;stroke-linejoin:miter;stroke-miterlimit:4;stroke-opacity:1"
     inkscape:connector-curvature="0"
     sodipodi:nodetypes="csc" />
  <path
     id="path4039"
     d="m 92.781504,212.18032 c 0,29.44955 -6.16509,53.32313 -13.7701,53.32313 -7.60501,0 -13.7701,-23.87358 -13.7701,-53.32313 0,-29.44957 6.16509,-53.32315 13.7701,-53.32315 7.60501,0 13.7701,23.87358 13.7701,53.32315 z"
     style="fill:none;stroke:#000000;stroke-width:1.54699993;stroke-linejoin:miter;stroke-miterlimit:4;stroke-opacity:1;stroke-dasharray:4.64099979, 1.54699993;stroke-dashoffset:0"
     inkscape:connector-curvature="0" />
  <path
     sodipodi:nodetypes="csc"
     inkscape:connector-curvature="0"
     style="fill:none;stroke:#000000;stroke-width:1.54728281;stroke-linejoin:miter;stroke-miterlimit:4;stroke-opacity:1"
     d="m 79.011404,158.85717 c 7.60501,0 13.7701,23.87358 13.7701,53.32315 0,29.44955 -6.16509,53.32313 -13.7701,53.32313"
     id="path4041" />
  <path
     style="fill:none;stroke:#000000;stroke-width:1.54699993;stroke-linecap:butt;stroke-linejoin:miter;stroke-miterlimit:4;stroke-opacity:0.99408288;stroke-dashoffset:0"
     d="m 271.5051,192.0417 c 6.04496,-0.5625 10.44583,7.47538 10.89685,18.54073 0.44536,10.92677 -5.23319,21.54796 -10.89685,21.51561"
     id="path4043"
     inkscape:connector-curvature="0"
     sodipodi:nodetypes="csc" />
  <path
     transform="matrix(1,0,0,0.9729736,-63.583816,-79.436832)"
     sodipodi:open="true"
     sodipodi:end="7.7617652"
     sodipodi:start="1.4963243"
     d="m 335.85704,320.20366 a 10.975782,20.649353 0 1 1 0.19408,-0.0305"
     sodipodi:ry="20.649353"
     sodipodi:rx="10.975782"
     sodipodi:cy="299.61154"
     sodipodi:cx="335.04041"
     id="path4045"
     style="fill:none;stroke:#000000;stroke-width:1.59165573;stroke-linecap:butt;stroke-linejoin:miter;stroke-miterlimit:4;stroke-opacity:0.99408288;stroke-dasharray:4.77496721, 1.59165573;stroke-dashoffset:0"
     sodipodi:type="arc" />
  <path
     style="fill:none;stroke:#000000;stroke-width:1.5;stroke-linecap:butt;stroke-linejoin:miter;stroke-miterlimit:4;stroke-opacity:0.99408288;stroke-dasharray:none;stroke-dashoffset:0"
     d="m 144.42902,223.60167 18.4468,55.46863"
     id="path4048"
     inkscape:connector-curvature="0"
     sodipodi:nodetypes="cc" />
  <path
     sodipodi:nodetypes="cc"
     inkscape:connector-curvature="0"
     id="path4050"
     d="m 294.42904,221.36931 41.51454,58.44511"
     style="fill:none;stroke:#000000;stroke-width:1.5;stroke-linecap:butt;stroke-linejoin:miter;stroke-miterlimit:4;stroke-opacity:0.99408288;stroke-dasharray:none;stroke-dashoffset:0" />
  <path
     id="path4052"
     d="m 146.85394,52.75563 c 0,1.859 -3.83605,3.36602 -8.56806,3.36602 -4.73201,0 -8.56806,-1.50702 -8.56806,-3.36602"
     style="fill:#ba93e1;fill-opacity:1;fill-rule:evenodd;stroke:#000000;stroke-width:1.55499995;stroke-linejoin:miter;stroke-miterlimit:4;stroke-opacity:1"
     inkscape:connector-curvature="0"
     sodipodi:nodetypes="csc" />
  <path
     id="path4054"
     d="m 298.05192,119.73774 c 0,1.859 -3.83605,3.36602 -8.56806,3.36602 -4.73201,0 -8.56806,-1.50702 -8.56806,-3.36602"
     style="fill:#ba93e1;fill-opacity:1;fill-rule:evenodd;stroke:#000000;stroke-width:1.55499995;stroke-linejoin:miter;stroke-miterlimit:4;stroke-opacity:1"
     inkscape:connector-curvature="0"
     sodipodi:nodetypes="csc" />
  <path
     sodipodi:nodetypes="csc"
     inkscape:connector-curvature="0"
     style="fill:#ba93e1;fill-opacity:1;fill-rule:evenodd;stroke:#000000;stroke-width:1.55499995;stroke-linejoin:miter;stroke-miterlimit:4;stroke-opacity:1"
     d="m 146.85394,158.75563 c 0,1.859 -3.83605,3.36602 -8.56806,3.36602 -4.73201,0 -8.56806,-1.50702 -8.56806,-3.36602"
     id="path4056" />
  <path
     sodipodi:nodetypes="csc"
     inkscape:connector-curvature="0"
     style="fill:#ba93e1;fill-opacity:1;fill-rule:evenodd;stroke:#000000;stroke-width:1.55499995;stroke-linejoin:miter;stroke-miterlimit:4;stroke-opacity:1"
     d="m 298.05192,191.73774 c 0,1.859 -3.83605,3.36602 -8.56806,3.36602 -4.73201,0 -8.56806,-1.50702 -8.56806,-3.36602"
     id="path4058" />
</svg>
