<?xml version="1.0" encoding="UTF-8" standalone="no"?>
<svg
   version="1.1"
   width="400"
   height="400"
   id="svg147"
   sodipodi:docname="VFPt_dipoles_magnetic_cropped.svg"
   viewBox="0 0 400 400"
   inkscape:version="1.4.3 (0d15f75, 2025-12-25)"
   xmlns:inkscape="http://www.inkscape.org/namespaces/inkscape"
   xmlns:sodipodi="http://sodipodi.sourceforge.net/DTD/sodipodi-0.dtd"
   xmlns:xlink="http://www.w3.org/1999/xlink"
   xmlns="http://www.w3.org/2000/svg"
   xmlns:svg="http://www.w3.org/2000/svg"
   xmlns:rdf="http://www.w3.org/1999/02/22-rdf-syntax-ns#"
   xmlns:cc="http://creativecommons.org/ns#"
   xmlns:dc="http://purl.org/dc/elements/1.1/">
  <sodipodi:namedview
     id="namedview147"
     pagecolor="#ffffff"
     bordercolor="#000000"
     borderopacity="0.25"
     inkscape:showpageshadow="2"
     inkscape:pageopacity="0.0"
     inkscape:pagecheckerboard="0"
     inkscape:deskcolor="#d1d1d1"
     inkscape:zoom="1.0130952"
     inkscape:cx="419.50648"
     inkscape:cy="390.38779"
     inkscape:window-width="1920"
     inkscape:window-height="1111"
     inkscape:window-x="-9"
     inkscape:window-y="-9"
     inkscape:window-maximized="1"
     inkscape:current-layer="svg147" />
  <title
     id="title1">VFPt_dipoles_magnetic</title>
  <desc
     id="desc1">VFPt_dipoles_magnetic
created with VectorFieldPlot 2.5
https://commons.wikimedia.org/wiki/User:Geek3/VectorFieldPlot

about: https://commons.wikimedia.org/wiki/File:VFPt_dipoles_magnetic.svg
rights: Creative Commons Attribution ShareAlike 4.0
  </desc>
  <defs
     id="defs10">
    <clipPath
       id="image_clip">
      <rect
         x="-1.8"
         y="-1.8"
         width="3.5999999"
         height="3.5999999"
         id="rect1" />
    </clipPath>
    <radialGradient
       id="white_spot"
       cx="6.749999"
       cy="8.999999"
       r="33.75"
       fx="6.749999"
       fy="8.999999"
       gradientUnits="userSpaceOnUse">
      <stop
         stop-color="#ffffff"
         offset="0"
         stop-opacity="0.7"
         id="stop1" />
      <stop
         stop-color="#ffffff"
         offset="0.1"
         stop-opacity="0.5"
         id="stop2" />
      <stop
         stop-color="#ffffff"
         offset="0.6"
         stop-opacity="0"
         id="stop3" />
      <stop
         stop-color="#000000"
         offset="0.6"
         stop-opacity="0"
         id="stop4" />
      <stop
         stop-color="#000000"
         offset="0.75"
         stop-opacity="0.05"
         id="stop5" />
      <stop
         stop-color="#000000"
         offset="0.85"
         stop-opacity="0.15"
         id="stop6" />
      <stop
         stop-color="#000000"
         offset="1"
         stop-opacity="0.5"
         id="stop7" />
    </radialGradient>
    <linearGradient
       id="grad_rg"
       x1="-21"
       x2="-21"
       y1="-21"
       y2="21"
       gradientUnits="userSpaceOnUse">
      <stop
         stop-color="#00cc00"
         offset="0"
         stop-opacity="1"
         id="stop8" />
      <stop
         stop-color="#887744"
         offset="0.5"
         stop-opacity="1"
         id="stop9" />
      <stop
         stop-color="#ff0000"
         offset="1"
         stop-opacity="1"
         id="stop10" />
    </linearGradient>
    <path
       id="arrow1"
       stroke="none"
       fill="#000000"
       transform="scale(0.01)"
       d="M 0.3,0 -2.2,2.25 3.8,0 -2.2,-2.25 Z" />
  </defs>
  <g
     id="image1"
     transform="matrix(0,100,100,0,202,198)"
     clip-path="url(#image_clip)">
    <g
       id="fieldlines1"
       fill="none"
       stroke="#000000"
       stroke-width="0.02"
       stroke-linejoin="round"
       stroke-linecap="round">
      <g
         id="fieldline1_1">
        <path
           d="m 0,0 -0.0011,0.0068 -0.0027,0.0087 -0.0045,0.01 -0.0061,0.0104 -0.0076,0.0105 -0.009,0.0101 -0.0101,0.0095 -0.0112,0.0089 -0.0121,0.0079 -0.0129,0.007 -0.0134,0.0059 -0.0139,0.0047 -0.0142,0.0035 -0.0143,0.0023 -0.0142,0.001 -0.0141,-3e-4 L -0.1752,0.1054 -0.1885,0.1028 -0.2013,0.099 -0.2133,0.0941 -0.2246,0.0882 -0.2349,0.0815 -0.2443,0.0738 -0.2527,0.0655 -0.2599,0.0565 -0.266,0.047 -0.2709,0.037 -0.2747,0.0267 -0.2771,0.0161 -0.2784,0.0054 v -0.0107 l 0.0012,-0.0107 0.0025,-0.0106 0.0037,-0.0103 0.0049,-0.0099 0.0061,-0.0096 0.0072,-0.009 0.0084,-0.0083 0.0093,-0.0077 0.0104,-0.0068 0.0112,-0.0059 0.0121,-0.0048 0.0127,-0.0038 0.0133,-0.0027 0.0138,-0.0015 0.0141,-3e-4 0.0143,0.001 0.0143,0.0023 0.0141,0.0035 0.0139,0.0047 0.0135,0.0058 0.0129,0.007 0.0121,0.0079 0.0112,0.0089 0.0101,0.0095 0.009,0.0101 0.0076,0.0104 0.0061,0.0105 0.0045,0.01 0.0029,0.009 z"
           id="path10" />
        <g
           id="arrows4_1_1">
          <use
             xlink:href="#arrow1"
             transform="matrix(0.54844989,-2.3364937,2.3364937,0.54844989,-0.2717,0.0016)"
             id="use10" />
        </g>
      </g>
      <g
         id="fieldline1_2">
        <path
           d="m 0,0 -0.0011,0.0074 -0.0028,0.0096 -0.0046,0.0112 -0.0063,0.0117 -0.0078,0.0119 -0.0093,0.0117 -0.0106,0.0113 -0.0118,0.0107 -0.0129,0.01 -0.0137,0.009 -0.0146,0.008 -0.0151,0.0069 -0.0157,0.0058 -0.016,0.0045 -0.0162,0.0033 -0.0162,0.002 -0.0162,7e-4 -0.0159,-6e-4 L -0.2224,0.1333 -0.2376,0.1303 -0.2521,0.1262 -0.266,0.1209 -0.2791,0.1146 -0.2913,0.1073 -0.3025,0.0991 -0.3128,0.0902 -0.3219,0.0805 -0.3299,0.0701 -0.3368,0.0593 -0.3424,0.048 -0.3468,0.0363 -0.35,0.0244 -0.3519,0.0123 -0.3525,1e-4 l 6e-4,-0.0122 0.0019,-0.0121 0.0031,-0.0119 0.0044,-0.0117 0.0056,-0.0113 0.0069,-0.0109 0.008,-0.0103 0.0091,-0.0097 0.0102,-0.009 0.0112,-0.0082 0.0122,-0.0073 0.0131,-0.0063 0.0139,-0.0053 0.0145,-0.0042 0.0151,-0.003 0.0156,-0.0018 0.016,-6e-4 0.0161,7e-4 0.0163,0.002 0.0162,0.0032 0.016,0.0045 0.0156,0.0058 0.0152,0.0069 0.0145,0.008 0.0138,0.009 0.0129,0.0099 0.0118,0.0107 0.0106,0.0113 0.0093,0.0117 0.0079,0.0119 0.0063,0.0118 0.0047,0.0111 0.0029,0.01 z"
           id="path11" />
        <g
           id="arrows1_2">
          <use
             xlink:href="#arrow1"
             transform="matrix(0.43777712,-2.3597354,2.3597354,0.43777712,-0.347,0.001)"
             id="use11" />
        </g>
      </g>
      <g
         id="fieldline1_3">
        <path
           d="M 0,0 -0.0011,0.0082 -0.0039,0.0187 -0.0085,0.0311 -0.0149,0.0442 -0.0228,0.0577 -0.0322,0.0712 -0.0431,0.0845 -0.0552,0.0974 -0.0685,0.1097 -0.0829,0.1212 -0.0982,0.1318 -0.1144,0.1415 -0.1312,0.1502 -0.1487,0.1577 -0.1666,0.164 -0.1848,0.1692 -0.2032,0.173 -0.2217,0.1757 -0.2402,0.177 -0.2585,0.1771 -0.2765,0.176 -0.2942,0.1736 -0.3113,0.17 -0.3279,0.1653 -0.3438,0.1594 -0.359,0.1525 -0.3733,0.1447 -0.3867,0.1359 -0.3991,0.1262 -0.4105,0.1158 -0.4208,0.1047 -0.4299,0.093 -0.438,0.0807 -0.4448,0.068 -0.4504,0.0549 -0.4548,0.0414 -0.4579,0.0278 -0.4598,0.014 -0.4605,1e-4 l 7e-4,-0.0139 0.0018,-0.0138 0.0032,-0.0137 0.0043,-0.0134 0.0057,-0.0131 0.0068,-0.0128 0.008,-0.0123 0.0091,-0.0117 0.0103,-0.0111 0.0114,-0.0104 0.0124,-0.0097 0.0134,-0.0088 0.0143,-0.0079 0.0151,-0.0068 0.0159,-0.0059 0.0166,-0.0047 0.0172,-0.0036 0.0176,-0.0024 0.018,-0.0012 0.0183,1e-4 0.0185,0.0013 0.0185,0.0026 0.0184,0.0039 0.0182,0.0051 0.0179,0.0064 0.0175,0.0075 0.0168,0.0086 0.0162,0.0097 0.0154,0.0106 0.0143,0.0115 0.0134,0.0123 0.0121,0.0128 0.0109,0.0133 0.0094,0.0135 0.008,0.0135 0.0063,0.0132 0.0047,0.0124 0.0029,0.0109 z"
           id="path12" />
        <g
           id="arrows1_3">
          <use
             xlink:href="#arrow1"
             transform="matrix(0.33899234,-2.3759386,2.3759386,0.33899234,-0.4561,6e-4)"
             id="use12" />
        </g>
      </g>
      <g
         id="fieldline1_4">
        <path
           d="m 0,0 -0.001,0.0086 -0.0029,0.0123 -0.0047,0.014 -0.0064,0.0149 -0.0081,0.0156 -0.0096,0.0158 -0.0111,0.0157 -0.0126,0.0156 -0.0138,0.0151 -0.0151,0.0146 -0.0162,0.0139 -0.0172,0.0131 -0.0181,0.0122 -0.0189,0.0112 -0.0196,0.0102 -0.0202,0.009 -0.0207,0.0079 -0.0211,0.0068 -0.0214,0.0054 -0.0215,0.0043 -0.0216,0.0029 -0.0215,0.0017 -0.0214,4e-4 -0.0212,-8e-4 L -0.3867,0.2383 -0.4072,0.235 -0.4271,0.2305 -0.4464,0.2249 -0.465,0.2182 -0.4828,0.2104 -0.4999,0.2016 -0.5161,0.1919 -0.5313,0.1813 -0.5455,0.1698 -0.5587,0.1576 -0.5708,0.1447 -0.5818,0.1312 -0.5917,0.1171 -0.6003,0.1025 -0.6078,0.0874 -0.614,0.072 -0.619,0.0563 -0.6228,0.0404 -0.6253,0.0243 -0.6266,0.0081 v -0.0162 l 0.0013,-0.0162 0.0025,-0.016 0.0038,-0.016 0.005,-0.0157 0.0062,-0.0154 0.0075,-0.015 0.0086,-0.0146 0.0098,-0.0141 0.011,-0.0136 0.0121,-0.0129 0.0132,-0.0122 0.0142,-0.0114 0.0153,-0.0107 0.0161,-0.0097 0.0171,-0.0088 0.0178,-0.0078 0.0187,-0.0067 0.0193,-0.0056 0.0199,-0.0045 0.0204,-0.0033 0.0208,-0.0021 0.0212,-8e-4 0.0214,4e-4 0.0215,0.0017 0.0216,0.0029 0.0216,0.0042 0.0213,0.0055 0.0211,0.0067 0.0207,0.0079 0.0202,0.0091 0.0196,0.0101 0.019,0.0113 0.0181,0.0122 0.0172,0.0131 0.0162,0.0138 0.015,0.0146 0.0139,0.0152 0.0125,0.0155 0.0111,0.0158 0.0097,0.0157 0.0081,0.0156 0.0064,0.015 0.0047,0.014 0.0029,0.0122 z"
           id="path13" />
        <g
           id="arrows1_4">
          <use
             xlink:href="#arrow1"
             transform="matrix(0.25170147,-2.3867648,2.3867648,0.25170147,-0.6235,3e-4)"
             id="use13" />
        </g>
      </g>
      <g
         id="fieldline1_5">
        <path
           d="M 0,0 -0.0011,0.01 -0.004,0.0239 -0.0087,0.04 -0.0152,0.0574 -0.0235,0.0757 -0.0333,0.0944 -0.0448,0.1134 -0.0578,0.1324 -0.0722,0.1512 -0.0879,0.1697 -0.105,0.1877 -0.1233,0.2052 -0.1426,0.2219 -0.163,0.2379 -0.1844,0.253 -0.2066,0.2672 -0.2296,0.2803 -0.2533,0.2924 -0.2775,0.3034 -0.3023,0.3132 -0.3275,0.3218 -0.353,0.3292 -0.3788,0.3354 -0.4047,0.3403 -0.4306,0.3439 -0.4566,0.3462 -0.4824,0.3473 -0.508,0.3471 -0.5334,0.3457 -0.5584,0.343 -0.5829,0.3391 -0.607,0.334 -0.6305,0.3277 -0.6533,0.3203 -0.6754,0.3118 -0.6968,0.3023 -0.7173,0.2918 -0.7369,0.2803 -0.7557,0.2679 -0.7734,0.2546 -0.7901,0.2406 -0.8058,0.2258 -0.8204,0.2102 -0.8338,0.1941 -0.8461,0.1773 -0.8573,0.1601 -0.8672,0.1423 -0.876,0.1242 -0.8835,0.1057 -0.8897,0.0869 -0.8948,0.0678 -0.8986,0.0486 -0.9011,0.0292 -0.9023,0.0097 v -0.0195 l 0.0012,-0.0195 0.0026,-0.0194 0.0037,-0.0192 0.0051,-0.0191 0.0063,-0.0188 0.0075,-0.0185 0.0087,-0.0182 0.01,-0.0177 0.0111,-0.0173 0.0124,-0.0167 0.0134,-0.0161 0.0146,-0.0155 0.0157,-0.0149 0.0167,-0.014 0.0178,-0.0133 0.0187,-0.0124 0.0196,-0.0114 0.0206,-0.0106 0.0213,-0.0095 0.0221,-0.0085 0.0229,-0.0073 0.0235,-0.0063 0.024,-0.0051 0.0246,-0.0039 0.025,-0.0027 0.0253,-0.0014 0.0257,-2e-4 0.0258,0.0011 0.0259,0.0023 0.026,0.0037 0.0259,0.0049 0.0257,0.0061 0.0256,0.0074 0.0251,0.0087 0.0248,0.0098 0.0243,0.011 0.0236,0.0121 0.023,0.0131 0.0222,0.0142 0.0214,0.0151 0.0204,0.016 0.0194,0.0167 0.0182,0.0175 0.0171,0.018 0.0157,0.0185 0.0144,0.0189 0.013,0.0189 0.0114,0.019 0.0099,0.0188 0.0082,0.0182 0.0065,0.0174 0.0047,0.0161 0.003,0.0139 z"
           id="path14" />
        <g
           id="arrows1_5">
          <use
             xlink:href="#arrow1"
             transform="matrix(0.17326505,-2.3937375,2.3937375,0.17326505,-0.9002,2e-4)"
             id="use14" />
        </g>
      </g>
      <g
         id="fieldline1_6">
        <path
           d="M 0,0 -0.0012,0.0127 -0.0043,0.0294 -0.0092,0.0485 -0.016,0.0693 -0.0245,0.0913 -0.0347,0.1141 -0.0465,0.1374 -0.06,0.1611 -0.0751,0.1849 -0.0916,0.2086 -0.1096,0.2322 -0.1289,0.2555 -0.1496,0.2783 -0.1715,0.3007 -0.1946,0.3224 -0.2188,0.3434 -0.244,0.3636 -0.2703,0.383 -0.2974,0.4015 -0.3254,0.419 -0.3542,0.4355 -0.3836,0.451 -0.4137,0.4653 -0.4443,0.4785 -0.4755,0.4905 -0.507,0.5013 -0.5389,0.5109 -0.571,0.5193 -0.6033,0.5264 -0.6358,0.5322 -0.6683,0.5368 -0.7007,0.54 -0.7331,0.542 -0.7654,0.5428 -0.7974,0.5422 -0.8291,0.5404 -0.8605,0.5374 -0.8915,0.5331 -0.922,0.5276 -0.952,0.5209 -0.9814,0.5131 -1.0102,0.5041 -1.0382,0.4941 -1.0655,0.4829 -1.0921,0.4707 -1.1178,0.4575 -1.1426,0.4434 -1.1665,0.4283 -1.1894,0.4123 -1.2114,0.3955 -1.2323,0.3779 -1.2522,0.3595 -1.2709,0.3404 -1.2886,0.3207 -1.3052,0.3003 -1.3205,0.2793 -1.3348,0.2578 -1.3478,0.2358 -1.3596,0.2134 -1.3702,0.1906 -1.3796,0.1674 -1.3877,0.1439 -1.3946,0.1202 -1.4002,0.0962 -1.4046,0.072 -1.4077,0.0478 -1.4096,0.0234 l -6e-4,-0.0244 7e-4,-0.0244 0.002,-0.0244 0.0032,-0.0242 0.0045,-0.0242 0.0057,-0.0239 0.007,-0.0238 0.0083,-0.0234 0.0094,-0.0232 0.0107,-0.0228 0.012,-0.0224 0.0131,-0.0219 0.0143,-0.0215 0.0155,-0.0209 0.0166,-0.0204 0.0178,-0.0197 0.0189,-0.019 0.0199,-0.0183 0.021,-0.0176 0.0221,-0.0167 0.023,-0.0159 0.024,-0.015 0.0248,-0.0141 0.0258,-0.0131 0.0266,-0.0121 0.0274,-0.011 0.0281,-0.01 0.0288,-0.0089 0.0295,-0.0077 0.03,-0.0066 0.0306,-0.0054 0.031,-0.0042 0.0314,-0.0029 0.0318,-0.0017 0.032,-5e-4 0.0323,9e-4 0.0324,0.0021 0.0325,0.0034 0.0325,0.0046 0.0324,0.006 0.0323,0.0072 0.0321,0.0084 0.0319,0.0097 0.0314,0.011 0.0311,0.0121 0.0306,0.0133 0.0301,0.0144 0.0294,0.0155 0.0287,0.0166 0.0279,0.0176 0.027,0.0186 0.0262,0.0194 0.0252,0.0203 0.0241,0.0211 0.023,0.0218 0.0218,0.0224 0.0206,0.0228 0.0192,0.0233 0.0178,0.0236 0.0165,0.0238 0.0149,0.0238 0.0133,0.0236 0.0117,0.0233 0.0101,0.0228 0.0084,0.0219 0.0065,0.0207 0.0048,0.0189 0.003,0.0164 z"
           id="path15" />
        <g
           id="arrows1_6">
          <use
             xlink:href="#arrow1"
             transform="matrix(0.11431071,-2.3972762,2.3972762,0.11431071,-1.4087,1e-4)"
             id="use15" />
        </g>
      </g>
      <g
         id="fieldline1_7">
        <path
           d="m -1.81,-0.8914 0.0376,-0.0125 0.0383,-0.0113 0.039,-0.0103 0.0395,-0.009 0.04,-0.008 0.0405,-0.0067 0.041,-0.0056 0.0414,-0.0044 0.0417,-0.0031 0.0421,-0.0019 0.0423,-7e-4 0.0426,5e-4 0.0427,0.0019 0.0429,0.003 0.0429,0.0044 0.043,0.0056 0.0429,0.0068 0.0429,0.0081 0.0427,0.0093 0.0426,0.0106 0.0423,0.0118 0.042,0.013 0.0417,0.0142 0.0413,0.0154 0.0409,0.0166 0.0404,0.0177 0.0398,0.0189 0.0392,0.0199 0.0386,0.021 0.0379,0.022 0.0371,0.023 0.0363,0.024 0.0354,0.0249 0.0345,0.0258 0.0336,0.0266 0.0325,0.0274 0.0315,0.0281 0.0304,0.0288 0.0292,0.0294 0.028,0.0299 0.0268,0.0304 0.0254,0.0308 0.0241,0.0311 0.0227,0.0313 0.0212,0.0314 0.0198,0.0315 0.0183,0.0313 0.0167,0.0311 0.0151,0.0307 0.0134,0.0301 0.0118,0.0294 0.01,0.0283 0.0083,0.027 0.0066,0.0253 0.0047,0.0231 0.0029,0.0196 L 0,0 l -0.0012,0.0153 -0.003,0.02 -0.0049,0.0232 -0.0066,0.0254 -0.0085,0.0271 -0.0101,0.0284 -0.0119,0.0293 -0.0136,0.0302 -0.0151,0.0307 -0.0168,0.031 -0.0184,0.0313 -0.0198,0.0314 -0.0213,0.0314 -0.0228,0.0313 -0.0241,0.031 -0.0255,0.0307 -0.0268,0.0304 -0.028,0.0298 -0.0293,0.0293 -0.0303,0.0287 -0.0315,0.0281 -0.0326,0.0273 -0.0336,0.0265 -0.0345,0.0257 -0.0354,0.0248 -0.0363,0.024 -0.0371,0.0229 -0.0378,0.0219 -0.0386,0.021 -0.0392,0.0198 -0.0397,0.0188 -0.0404,0.0176 -0.0408,0.0165 -0.0413,0.0154 -0.0416,0.0141 -0.042,0.013 -0.0423,0.0117 -0.0425,0.0105 -0.0426,0.0093 -0.0428,0.0081 -0.0429,0.0068 -0.0429,0.0055 -0.0429,0.0043 -0.0428,0.0031 -0.0426,0.0018 -0.0425,5e-4 -0.0423,-7e-4 L -1.4515,0.9623 -1.4932,0.9591 -1.5345,0.9548 -1.5754,0.9492 -1.6159,0.9424 -1.6559,0.9345 -1.6953,0.9254 -1.7342,0.9152 -1.7724,0.9038 -1.81,0.8914"
           id="path16" />
        <g
           id="arrows1_7">
          <use
             xlink:href="#arrow1"
             transform="matrix(2.3372572,0.545187,-0.545187,2.3372572,-1.0464,-0.9299)"
             id="use16" />
          <use
             xlink:href="#arrow1"
             transform="matrix(-2.3520695,0.47725157,-0.47725157,-2.3520695,-1.0464,0.9299)"
             id="use17" />
        </g>
      </g>
      <g
         id="fieldline1_8">
        <path
           d="m -1.5469,-1.81 0.0586,0.0297 0.058,0.0308 0.0573,0.0318 0.0566,0.0329 0.0559,0.0338 0.0551,0.0348 0.0543,0.0358 0.0534,0.0367 0.0526,0.0376 0.0517,0.0384 0.0507,0.0393 0.0497,0.0401 0.0487,0.0408 0.0477,0.0416 0.0466,0.0423 0.0455,0.0429 0.0444,0.0436 0.0431,0.0441 0.042,0.0447 0.0408,0.0451 0.0394,0.0456 0.0382,0.046 0.0369,0.0463 0.0355,0.0465 0.0341,0.0468 0.0327,0.0469 0.0312,0.047 0.0298,0.047 0.0283,0.0469 0.0267,0.0467 0.0252,0.0465 0.0236,0.0462 0.022,0.0457 0.0204,0.0451 0.0187,0.0444 0.0171,0.0436 0.0153,0.0426 0.0137,0.0413 0.0118,0.0399 0.0101,0.0382 0.0084,0.0362 0.0065,0.0336 0.0047,0.0303 0.0029,0.0258 L 0,0 -0.0011,0.019 -0.0041,0.0451 -0.0088,0.0755 -0.0154,0.1092 -0.0238,0.1454 -0.034,0.1836 -0.0459,0.2236 -0.0596,0.2649 -0.075,0.3075 -0.0921,0.3511 -0.1108,0.3955 -0.1312,0.4406 -0.1533,0.4862 -0.1769,0.5324 -0.2021,0.5788 -0.2289,0.6255 -0.2572,0.6724 -0.287,0.7193 -0.3182,0.7663 -0.3509,0.8131 -0.385,0.8598 -0.4205,0.9064 -0.4574,0.9526 -0.4955,0.9985 -0.535,1.044 -0.5757,1.0891 -0.6177,1.1337 -0.6609,1.1778 -0.7052,1.2213 -0.7507,1.2642 -0.7972,1.3065 -0.8449,1.348 -0.8936,1.3888 -0.9433,1.4288 -0.9939,1.4681 -1.0456,1.5065 -1.0981,1.544 -1.1515,1.5807 -1.2057,1.6164 -1.2608,1.6512 -1.3166,1.685 -1.3732,1.7178 -1.4304,1.7496 -1.4884,1.7803 -1.5469,1.81"
           id="path17" />
        <g
           id="arrows1_8">
          <use
             xlink:href="#arrow1"
             transform="matrix(1.7118011,1.6821822,-1.6821822,1.7118011,-0.6977,-1.2137)"
             id="use18" />
          <use
             xlink:href="#arrow1"
             transform="matrix(-1.7336735,1.6596313,-1.6596313,-1.7336735,-0.6977,1.2137)"
             id="use19" />
        </g>
      </g>
      <g
         id="fieldline1_9">
        <path
           d="m -0.5474,-1.81 0.0419,0.0896 0.0404,0.089 0.0387,0.0884 0.0371,0.0877 0.0356,0.0869 0.0338,0.0861 0.0323,0.0851 0.0306,0.0842 0.0289,0.083 0.0272,0.0818 0.0256,0.0805 0.0238,0.0791 0.0221,0.0775 0.0205,0.0758 0.0187,0.074 0.0169,0.072 0.0152,0.0696 0.0135,0.0672 0.0117,0.0644 0.01,0.0611 0.0081,0.0575 0.0064,0.0531 0.0046,0.0477 0.0028,0.0404 L 0,0 V 0 L -0.001,0.0283 -0.0038,0.0686 -0.0084,0.1164 -0.0148,0.1695 -0.0229,0.227 -0.0329,0.2881 -0.0446,0.3525 -0.0581,0.4196 -0.0733,0.4893 -0.0902,0.5613 -0.1089,0.6352 -0.1294,0.7111 -0.1515,0.7886 -0.1753,0.8677 -0.2009,0.9482 -0.2281,1.03 -0.257,1.113 -0.2876,1.1972 -0.3199,1.2823 -0.3537,1.3684 -0.3892,1.4553 -0.4264,1.5429 -0.4651,1.6313 -0.5055,1.7204 -0.5474,1.81"
           id="path19" />
        <g
           id="arrows1_9">
          <use
             xlink:href="#arrow1"
             transform="matrix(0.88155127,2.2322337,-2.2322337,0.88155127,-0.3489,-1.3558)"
             id="use20" />
          <use
             xlink:href="#arrow1"
             transform="matrix(-0.89633651,2.226338,-2.226338,-0.89633651,-0.349,1.3558)"
             id="use21" />
        </g>
      </g>
      <g
         id="fieldline1_10">
        <path
           d="M 0,-1.81 V -0.905 0 0.905 1.81"
           id="path21" />
        <g
           id="arrows1_10">
          <use
             xlink:href="#arrow1"
             transform="matrix(0,2.4,-2.4,0,0,-1.4)"
             id="use22" />
          <use
             xlink:href="#arrow1"
             transform="matrix(0,2.4,-2.4,0,0,1.4)"
             id="use23" />
        </g>
      </g>
      <g
         id="fieldline1_11">
        <path
           d="M 0.5474,-1.81 0.5055,-1.7204 0.4651,-1.6314 0.4264,-1.543 0.3893,-1.4553 0.3537,-1.3684 0.3199,-1.2823 0.2876,-1.1972 0.257,-1.113 0.2281,-1.03 0.2009,-0.9482 0.1753,-0.8677 0.1515,-0.7886 0.1294,-0.7111 0.1089,-0.6353 0.0902,-0.5613 0.0733,-0.4893 0.0581,-0.4197 0.0446,-0.3525 0.0329,-0.2881 0.0229,-0.227 0.0148,-0.1695 0.0084,-0.1164 0.0038,-0.0687 0.001,-0.0283 0,0 V 0 L 0.001,0.0283 0.0038,0.0686 0.0084,0.1164 0.0148,0.1695 0.0229,0.227 0.0329,0.2881 0.0446,0.3525 0.0581,0.4196 0.0733,0.4893 0.0902,0.5613 0.1089,0.6352 0.1294,0.7111 0.1515,0.7886 0.1753,0.8677 0.2009,0.9482 0.2281,1.03 0.257,1.113 0.2876,1.1972 0.3199,1.2823 0.3537,1.3684 0.3892,1.4553 0.4264,1.5429 0.4651,1.6313 0.5055,1.7204 0.5474,1.81"
           id="path23" />
        <g
           id="arrows1_11">
          <use
             xlink:href="#arrow1"
             transform="matrix(-0.88155127,2.2322337,-2.2322337,-0.88155127,0.3489,-1.3558)"
             id="use24" />
          <use
             xlink:href="#arrow1"
             transform="matrix(0.89633651,2.226338,-2.226338,0.89633651,0.349,1.3558)"
             id="use25" />
        </g>
      </g>
      <g
         id="fieldline1_12">
        <path
           d="M 1.5469,-1.81 1.4883,-1.7803 1.4303,-1.7495 1.373,-1.7177 1.3164,-1.6848 1.2605,-1.651 1.2054,-1.6162 1.1511,-1.5804 1.0977,-1.5437 1.0451,-1.5061 0.9934,-1.4677 0.9427,-1.4284 0.893,-1.3883 0.8443,-1.3475 0.7966,-1.3059 0.75,-1.2636 0.7045,-1.2207 0.6601,-1.1771 0.617,-1.133 0.575,-1.0883 0.5342,-1.0432 0.4948,-0.9976 0.4566,-0.9516 0.4197,-0.9053 0.3842,-0.8588 0.3501,-0.812 0.3174,-0.7651 0.2862,-0.7181 0.2564,-0.6711 0.2281,-0.6242 0.2014,-0.5775 0.1762,-0.531 0.1526,-0.4848 0.1306,-0.4391 0.1102,-0.394 0.0915,-0.3496 0.0744,-0.306 0.0591,-0.2634 0.0454,-0.2221 0.0336,-0.1822 0.0235,-0.144 0.0151,-0.1078 0.0086,-0.0742 0.0039,-0.0439 0.001,-0.0181 0,0 V 0 L 0.0011,0.019 0.0041,0.0451 0.0088,0.0755 0.0154,0.1092 0.0238,0.1454 0.034,0.1836 0.0459,0.2236 0.0596,0.2649 0.075,0.3075 0.0921,0.3511 0.1108,0.3955 0.1312,0.4406 0.1533,0.4862 0.1769,0.5324 0.2021,0.5788 0.2289,0.6255 0.2572,0.6724 0.287,0.7193 0.3182,0.7663 0.3509,0.8131 0.385,0.8598 0.4205,0.9064 0.4574,0.9526 0.4955,0.9985 0.535,1.044 0.5757,1.0891 0.6177,1.1337 0.6609,1.1778 0.7052,1.2213 0.7507,1.2642 0.7972,1.3065 0.8449,1.348 0.8936,1.3888 0.9433,1.4288 0.9939,1.4681 1.0456,1.5065 1.0981,1.544 1.1515,1.5807 1.2057,1.6164 1.2608,1.6512 1.3166,1.685 1.3732,1.7178 1.4304,1.7496 1.4884,1.7803 1.5469,1.81"
           id="path25" />
        <g
           id="arrows1_12">
          <use
             xlink:href="#arrow1"
             transform="matrix(-1.7118011,1.6821822,-1.6821822,-1.7118011,0.6977,-1.2137)"
             id="use26" />
          <use
             xlink:href="#arrow1"
             transform="matrix(1.7336735,1.6596313,-1.6596313,1.7336735,0.6977,1.2137)"
             id="use27" />
        </g>
      </g>
      <g
         id="fieldline1_13">
        <path
           d="M 1.81,-0.8914 1.7724,-0.9039 1.7341,-0.9152 1.6951,-0.9255 1.6556,-0.9345 1.6156,-0.9425 1.5751,-0.9492 1.5341,-0.9548 1.4927,-0.9592 1.451,-0.9623 1.4089,-0.9642 l -0.0423,-7e-4 -0.0426,5e-4 -0.0427,0.0019 -0.0429,0.003 -0.0429,0.0044 -0.043,0.0056 -0.0429,0.0068 -0.0429,0.0081 -0.0427,0.0093 -0.0426,0.0106 -0.0423,0.0118 -0.042,0.013 -0.0417,0.0142 -0.0413,0.0154 -0.0409,0.0166 -0.0404,0.0177 -0.0398,0.0189 -0.0392,0.0199 -0.0386,0.021 -0.0379,0.022 -0.0371,0.023 -0.0363,0.024 L 0.4685,-0.6723 0.434,-0.6465 0.4004,-0.6199 0.3679,-0.5925 0.3364,-0.5644 0.306,-0.5356 0.2768,-0.5062 0.2488,-0.4763 0.222,-0.4459 0.1966,-0.4151 0.1725,-0.384 0.1498,-0.3527 0.1286,-0.3213 0.1088,-0.2898 0.0905,-0.2585 0.0738,-0.2274 0.0587,-0.1967 0.0453,-0.1666 0.0335,-0.1372 0.0235,-0.1089 0.0152,-0.0819 0.0086,-0.0566 0.0039,-0.0335 0.001,-0.0139 0,0 l 0.0012,0.0153 0.003,0.02 0.0049,0.0232 0.0066,0.0254 0.0085,0.0271 0.0101,0.0284 0.0119,0.0293 0.0136,0.0302 0.0151,0.0307 0.0168,0.031 0.0184,0.0313 0.0198,0.0314 0.0213,0.0314 0.0228,0.0313 0.0241,0.031 0.0255,0.0307 0.0268,0.0304 0.028,0.0298 0.0293,0.0293 0.0303,0.0287 0.0315,0.0281 0.0326,0.0273 0.0336,0.0265 0.0345,0.0257 0.0354,0.0248 0.0363,0.024 0.0371,0.0229 0.0378,0.0219 0.0386,0.021 0.0392,0.0198 0.0397,0.0188 0.0404,0.0176 0.0408,0.0165 0.0413,0.0154 0.0416,0.0141 0.042,0.013 0.0423,0.0117 0.0425,0.0105 0.0426,0.0093 0.0428,0.0081 0.0429,0.0068 0.0429,0.0055 0.0429,0.0043 0.0428,0.0031 0.0426,0.0018 0.0425,5e-4 0.0423,-7e-4 L 1.4515,0.9623 1.4932,0.9591 1.5345,0.9548 1.5754,0.9492 1.6159,0.9424 1.6559,0.9345 1.6953,0.9254 1.7342,0.9152 1.7724,0.9038 1.81,0.8914"
           id="path27" />
        <g
           id="arrows1_13">
          <use
             xlink:href="#arrow1"
             transform="matrix(-2.3372572,0.545187,-0.545187,-2.3372572,1.0464,-0.9299)"
             id="use28" />
          <use
             xlink:href="#arrow1"
             transform="matrix(2.3520695,0.47725157,-0.47725157,2.3520695,1.0464,0.9299)"
             id="use29" />
        </g>
      </g>
      <g
         id="fieldline1_14">
        <path
           d="M 0,0 0.0012,0.0127 0.0043,0.0294 0.0092,0.0485 0.016,0.0693 0.0245,0.0913 0.0347,0.1141 0.0465,0.1374 0.06,0.1611 0.0751,0.1849 0.0916,0.2086 0.1096,0.2322 0.1289,0.2555 0.1496,0.2783 0.1715,0.3007 0.1946,0.3224 0.2188,0.3434 0.244,0.3636 0.2703,0.383 0.2974,0.4015 0.3254,0.419 0.3542,0.4355 0.3836,0.451 0.4137,0.4653 0.4443,0.4785 0.4755,0.4905 0.507,0.5013 0.5389,0.5109 0.571,0.5193 0.6033,0.5264 0.6358,0.5322 0.6683,0.5368 0.7007,0.54 0.7331,0.542 0.7654,0.5428 0.7974,0.5422 0.8291,0.5404 0.8605,0.5374 0.8915,0.5331 0.922,0.5276 0.952,0.5209 0.9814,0.5131 1.0102,0.5041 1.0382,0.4941 1.0655,0.4829 1.0921,0.4707 1.1178,0.4575 1.1426,0.4434 1.1665,0.4283 1.1894,0.4123 1.2114,0.3955 1.2323,0.3779 1.2522,0.3595 1.2709,0.3404 1.2886,0.3207 1.3052,0.3003 1.3205,0.2793 1.3348,0.2578 1.3478,0.2358 1.3596,0.2134 1.3702,0.1906 1.3796,0.1674 1.3877,0.1439 1.3946,0.1202 1.4002,0.0962 1.4046,0.072 1.4077,0.0478 1.4096,0.0234 1.4102,-0.001 1.4095,-0.0254 1.4075,-0.0498 1.4043,-0.074 1.3998,-0.0982 1.3941,-0.1221 1.3871,-0.1459 1.3788,-0.1693 1.3694,-0.1925 1.3587,-0.2153 1.3467,-0.2377 1.3336,-0.2596 1.3193,-0.2811 1.3038,-0.302 1.2872,-0.3224 1.2694,-0.3421 1.2505,-0.3611 1.2306,-0.3794 1.2096,-0.397 1.1875,-0.4137 1.1645,-0.4296 1.1405,-0.4446 1.1157,-0.4587 1.0899,-0.4718 1.0633,-0.4839 1.0359,-0.4949 1.0078,-0.5049 0.979,-0.5138 0.9495,-0.5215 0.9195,-0.5281 0.8889,-0.5335 0.8579,-0.5377 0.8265,-0.5406 0.7947,-0.5423 0.7627,-0.5428 0.7304,-0.5419 0.698,-0.5398 0.6655,-0.5364 0.633,-0.5318 0.6006,-0.5258 0.5683,-0.5186 0.5362,-0.5102 0.5043,-0.5005 0.4729,-0.4895 0.4418,-0.4774 0.4112,-0.4641 0.3811,-0.4497 0.3517,-0.4342 0.323,-0.4176 0.2951,-0.4 0.2681,-0.3814 0.2419,-0.362 0.2167,-0.3417 0.1926,-0.3206 0.1696,-0.2988 0.1478,-0.2764 0.1272,-0.2536 0.108,-0.2303 0.0902,-0.2067 0.0737,-0.1829 0.0588,-0.1591 0.0455,-0.1355 0.0338,-0.1122 0.0237,-0.0894 0.0153,-0.0675 0.0088,-0.0468 0.004,-0.0279 0.001,-0.0115 Z"
           id="path29" />
        <g
           id="arrows1_14">
          <use
             xlink:href="#arrow1"
             transform="matrix(-0.11431071,-2.3972762,2.3972762,-0.11431071,1.4087,1e-4)"
             id="use30" />
        </g>
      </g>
      <g
         id="fieldline1_15">
        <path
           d="M 0,0 0.0011,0.01 0.004,0.0239 0.0087,0.04 0.0152,0.0574 0.0235,0.0757 0.0333,0.0944 0.0448,0.1134 0.0578,0.1324 0.0722,0.1512 0.0879,0.1697 0.105,0.1877 0.1233,0.2052 0.1426,0.2219 0.163,0.2379 0.1844,0.253 0.2066,0.2672 0.2296,0.2803 0.2533,0.2924 0.2775,0.3034 0.3023,0.3132 0.3275,0.3218 0.353,0.3292 0.3788,0.3354 0.4047,0.3403 0.4306,0.3439 0.4566,0.3462 0.4824,0.3473 0.508,0.3471 0.5334,0.3457 0.5584,0.343 0.5829,0.3391 0.607,0.334 0.6305,0.3277 0.6533,0.3203 0.6754,0.3118 0.6968,0.3023 0.7173,0.2918 0.7369,0.2803 0.7557,0.2679 0.7734,0.2546 0.7901,0.2406 0.8058,0.2258 0.8204,0.2102 0.8338,0.1941 0.8461,0.1773 0.8573,0.1601 0.8672,0.1423 0.876,0.1242 0.8835,0.1057 0.8897,0.0869 0.8948,0.0678 0.8986,0.0486 0.9011,0.0292 0.9023,0.0097 V -0.0098 L 0.9011,-0.0293 0.8985,-0.0487 0.8948,-0.0679 0.8897,-0.087 0.8834,-0.1058 0.8759,-0.1243 0.8672,-0.1425 0.8572,-0.1602 0.8461,-0.1775 0.8337,-0.1942 0.8203,-0.2103 0.8057,-0.2258 0.79,-0.2407 0.7733,-0.2547 0.7555,-0.268 0.7368,-0.2804 0.7172,-0.2918 0.6966,-0.3024 0.6753,-0.3119 0.6532,-0.3204 0.6303,-0.3277 0.6068,-0.334 0.5828,-0.3391 0.5582,-0.343 0.5332,-0.3457 0.5079,-0.3471 l -0.0257,-2e-4 -0.0258,0.0011 -0.0259,0.0023 -0.026,0.0037 -0.0259,0.0049 -0.0257,0.0061 -0.0256,0.0074 -0.0251,0.0087 -0.0248,0.0098 -0.0243,0.011 -0.0236,0.0121 -0.023,0.0131 -0.0222,0.0142 -0.0214,0.0151 -0.0204,0.016 -0.0194,0.0167 -0.0182,0.0175 -0.0171,0.018 -0.0157,0.0185 -0.0144,0.0189 -0.013,0.0189 -0.0114,0.019 -0.0099,0.0188 -0.0082,0.0182 -0.0065,0.0174 -0.0047,0.0161 -0.003,0.0139 z"
           id="path30" />
        <g
           id="arrows1_15">
          <use
             xlink:href="#arrow1"
             transform="matrix(-0.17326505,-2.3937375,2.3937375,-0.17326505,0.9002,2e-4)"
             id="use31" />
        </g>
      </g>
      <g
         id="fieldline1_16">
        <path
           d="m 0,0 0.001,0.0086 0.0029,0.0123 0.0047,0.014 0.0064,0.0149 0.0081,0.0156 0.0096,0.0158 0.0111,0.0157 0.0126,0.0156 0.0138,0.0151 0.0151,0.0146 0.0162,0.0139 0.0172,0.0131 0.0181,0.0122 0.0189,0.0112 0.0196,0.0102 0.0202,0.009 0.0207,0.0079 0.0211,0.0068 0.0214,0.0054 0.0215,0.0043 0.0216,0.0029 0.0215,0.0017 0.0214,4e-4 0.0212,-8e-4 L 0.3867,0.2383 0.4072,0.235 0.4271,0.2305 0.4464,0.2249 0.465,0.2182 0.4828,0.2104 0.4999,0.2016 0.5161,0.1919 0.5313,0.1813 0.5455,0.1698 0.5587,0.1576 0.5708,0.1447 0.5818,0.1312 0.5917,0.1171 0.6003,0.1025 0.6078,0.0874 0.614,0.072 0.619,0.0563 0.6228,0.0404 0.6253,0.0243 0.6266,0.0081 V -0.0081 L 0.6253,-0.0243 0.6228,-0.0403 0.619,-0.0563 0.614,-0.072 0.6078,-0.0874 0.6003,-0.1024 0.5917,-0.117 0.5819,-0.1311 0.5709,-0.1447 0.5588,-0.1576 0.5456,-0.1698 0.5314,-0.1812 0.5161,-0.1919 0.5,-0.2016 0.4829,-0.2104 0.4651,-0.2182 0.4464,-0.2249 0.4271,-0.2305 0.4072,-0.235 0.3868,-0.2383 0.366,-0.2404 l -0.0212,-8e-4 -0.0214,4e-4 -0.0215,0.0017 -0.0216,0.0029 -0.0216,0.0042 -0.0213,0.0055 -0.0211,0.0067 -0.0207,0.0079 -0.0202,0.0091 -0.0196,0.0101 -0.019,0.0113 -0.0181,0.0122 -0.0172,0.0131 -0.0162,0.0138 -0.015,0.0146 -0.0139,0.0152 -0.0125,0.0155 -0.0111,0.0158 -0.0097,0.0157 -0.0081,0.0156 -0.0064,0.015 -0.0047,0.014 -0.0029,0.0122 z"
           id="path31" />
        <g
           id="arrows1_16">
          <use
             xlink:href="#arrow1"
             transform="matrix(-0.25170147,-2.3867648,2.3867648,-0.25170147,0.6235,3e-4)"
             id="use32" />
        </g>
      </g>
      <g
         id="fieldline1_17">
        <path
           d="M 0,0 0.0011,0.0082 0.0039,0.0187 0.0085,0.0311 0.0149,0.0442 0.0228,0.0577 0.0322,0.0712 0.0431,0.0845 0.0552,0.0974 0.0685,0.1097 0.0829,0.1212 0.0982,0.1318 0.1144,0.1415 0.1312,0.1502 0.1487,0.1577 0.1666,0.164 0.1848,0.1692 0.2032,0.173 0.2217,0.1757 0.2402,0.177 0.2585,0.1771 0.2765,0.176 0.2942,0.1736 0.3113,0.17 0.3279,0.1653 0.3438,0.1594 0.359,0.1525 0.3733,0.1447 0.3867,0.1359 0.3991,0.1262 0.4105,0.1158 0.4208,0.1047 0.4299,0.093 0.438,0.0807 0.4448,0.068 0.4504,0.0549 0.4548,0.0414 0.4579,0.0278 0.4598,0.014 0.4605,1e-4 0.4598,-0.0138 0.458,-0.0276 0.4548,-0.0413 0.4505,-0.0547 0.4448,-0.0678 0.438,-0.0806 0.43,-0.0929 0.4209,-0.1046 0.4106,-0.1157 0.3992,-0.1261 0.3868,-0.1358 0.3734,-0.1446 0.3591,-0.1525 0.344,-0.1593 0.3281,-0.1652 0.3115,-0.1699 0.2943,-0.1735 0.2767,-0.1759 0.2587,-0.1771 0.2404,-0.177 0.2219,-0.1757 0.2034,-0.1731 0.185,-0.1692 0.1668,-0.1641 0.1489,-0.1577 0.1314,-0.1502 0.1146,-0.1416 0.0984,-0.1319 0.083,-0.1213 0.0687,-0.1098 0.0553,-0.0975 0.0432,-0.0847 0.0323,-0.0714 0.0229,-0.0579 0.0149,-0.0444 0.0086,-0.0312 0.0039,-0.0188 0.001,-0.0079 Z"
           id="path32" />
        <g
           id="arrows1_17">
          <use
             xlink:href="#arrow1"
             transform="matrix(-0.33899234,-2.3759386,2.3759386,-0.33899234,0.4561,6e-4)"
             id="use33" />
        </g>
      </g>
      <g
         id="fieldline1_18">
        <path
           d="m 0,0 0.0011,0.0074 0.0028,0.0096 0.0046,0.0112 0.0063,0.0117 0.0078,0.0119 0.0093,0.0117 0.0106,0.0113 0.0118,0.0107 0.0129,0.01 0.0137,0.009 0.0146,0.008 0.0151,0.0069 0.0157,0.0058 0.016,0.0045 0.0162,0.0033 0.0162,0.002 0.0162,7e-4 0.0159,-6e-4 L 0.2224,0.1333 0.2376,0.1303 0.2521,0.1262 0.266,0.1209 0.2791,0.1146 0.2913,0.1073 0.3025,0.0991 0.3128,0.0902 0.3219,0.0805 0.3299,0.0701 0.3368,0.0593 0.3424,0.048 0.3468,0.0363 0.35,0.0244 0.3519,0.0123 0.3525,1e-4 0.3519,-0.0121 0.35,-0.0242 0.3469,-0.0361 0.3425,-0.0478 0.3369,-0.0591 0.33,-0.07 0.322,-0.0803 0.3129,-0.09 0.3027,-0.099 0.2915,-0.1072 0.2793,-0.1145 0.2662,-0.1208 0.2523,-0.1261 0.2378,-0.1303 0.2227,-0.1333 0.2071,-0.1351 l -0.016,-6e-4 -0.0161,7e-4 -0.0163,0.002 -0.0162,0.0032 -0.016,0.0045 -0.0156,0.0058 -0.0152,0.0069 -0.0145,0.008 -0.0138,0.009 -0.0129,0.0099 -0.0118,0.0107 -0.0106,0.0113 -0.0093,0.0117 -0.0079,0.0119 -0.0063,0.0118 -0.0047,0.0111 -0.0029,0.01 z"
           id="path33" />
        <g
           id="arrows1_18">
          <use
             xlink:href="#arrow1"
             transform="matrix(-0.43777712,-2.3597354,2.3597354,-0.43777712,0.347,0.001)"
             id="use34" />
        </g>
      </g>
      <g
         id="fieldline1_19">
        <path
           d="m 0,0 0.0011,0.0068 0.0027,0.0087 0.0045,0.01 0.0061,0.0104 0.0076,0.0105 0.009,0.0101 0.0101,0.0095 0.0112,0.0089 0.0121,0.0079 0.0129,0.007 0.0134,0.0059 0.0139,0.0047 0.0142,0.0035 0.0143,0.0023 0.0142,0.001 0.0141,-3e-4 L 0.1752,0.1054 0.1885,0.1028 0.2013,0.099 0.2133,0.0941 0.2246,0.0882 0.2349,0.0815 0.2443,0.0738 0.2527,0.0655 0.2599,0.0565 0.266,0.047 0.2709,0.037 0.2747,0.0267 0.2771,0.0161 0.2784,0.0054 V -0.0053 L 0.2772,-0.016 0.2747,-0.0266 0.271,-0.0369 0.2661,-0.0468 0.26,-0.0564 0.2528,-0.0654 0.2444,-0.0737 0.2351,-0.0814 0.2247,-0.0882 0.2135,-0.0941 0.2014,-0.0989 0.1887,-0.1027 0.1754,-0.1054 0.1616,-0.1069 l -0.0141,-3e-4 -0.0143,0.001 -0.0143,0.0023 -0.0141,0.0035 -0.0139,0.0047 -0.0135,0.0058 -0.0129,0.007 -0.0121,0.0079 -0.0112,0.0089 -0.0101,0.0095 -0.009,0.0101 -0.0076,0.0104 -0.0061,0.0105 -0.0045,0.01 -0.0029,0.009 z"
           id="path34" />
        <g
           id="arrows1_19">
          <use
             xlink:href="#arrow1"
             transform="matrix(-0.54844989,-2.3364937,2.3364937,-0.54844989,0.2717,0.0016)"
             id="use35" />
        </g>
      </g>
    </g>
    <g
       id="symbols1">
      <g
         id="dipole_symbol"
         transform="scale(0.01)">
        <circle
           cy="0"
           cx="0"
           r="21"
           stroke="none"
           fill="url(#grad_rg)"
           id="circle35"
           style="fill:url(#grad_rg)" />
        <circle
           r="21"
           stroke="#000000"
           cy="0"
           cx="0"
           stroke-width="3"
           fill="url(#white_spot)"
           id="circle36"
           style="fill:url(#white_spot)" />
        <path
           stroke="none"
           d="M 3,-12 V 0 h 9 L 0,15 -12,0 h 9 v -12 z"
           fill="#000000"
           id="path36" />
      </g>
    </g>
  </g>
  <rect
     y="22.000004"
     x="18"
     style="fill:none;stroke:#aaaaaa;stroke-width:3"
     height="360"
     width="360"
     transform="matrix(0,1,1,0,0,0)"
     id="rect36" />
  <g
     systemLanguage="es"
     id="g138"
     style="font-size:32px;font-family:'DejaVu Sans';text-anchor:middle;fill:#000000;stroke:none">
    <text
       x="210"
       y="36"
       id="text135">Dipolo</text>
    <text
       x="630"
       y="36"
       id="text136">Polos</text>
    <text
       x="210"
       y="456"
       id="text137">Lazo</text>
    <text
       x="630"
       y="456"
       id="text138">Solenoide</text>
  </g>
  <g
     systemLanguage="fr"
     id="g142"
     style="font-size:32px;font-family:'DejaVu Sans';text-anchor:middle;fill:#000000;stroke:none">
    <text
       x="210"
       y="36"
       id="text139">Dipôle</text>
    <text
       x="630"
       y="36"
       id="text140">Pôles</text>
    <text
       x="210"
       y="456"
       id="text141">Boucle</text>
    <text
       x="630"
       y="456"
       id="text142">Solénoïde</text>
  </g>
  <metadata
     id="metadata147">
    <rdf:RDF>
      <cc:Work
         rdf:about="">
        <dc:title>VFPt_dipoles_magnetic</dc:title>
      </cc:Work>
    </rdf:RDF>
  </metadata>
</svg>
